<?xml version="1.0" encoding="utf-8"?>
<!-- Generator: Adobe Illustrator 16.0.0, SVG Export Plug-In . SVG Version: 6.00 Build 0)  -->
<!DOCTYPE svg PUBLIC "-//W3C//DTD SVG 1.1//EN" "http://www.w3.org/Graphics/SVG/1.1/DTD/svg11.dtd">
<svg version="1.1" id="Camada_1" xmlns="http://www.w3.org/2000/svg" xmlns:xlink="http://www.w3.org/1999/xlink" x="0px" y="0px"
	 width="123px" height="76px" viewBox="0 0 123 76" enable-background="new 0 0 123 76" xml:space="preserve">
<path d="M122.5,55.143c0-1.832-1.071-3.365-2.595-4.123V22.594c0.346-0.132,0.559-0.46,0.555-0.827c0-0.37-0.236-0.695-0.575-0.812
	L61.631,0.267c-0.742-0.264-1.556-0.264-2.307,0L1.078,20.958C0.736,21.076,0.503,21.4,0.5,21.771
	c-0.003,0.366,0.217,0.694,0.555,0.827L59.22,45.391c0.81,0.313,1.707,0.313,2.518,0l54.147-21.23v26.855
	c-1.519,0.754-2.591,2.299-2.591,4.119c0,1.902,1.149,3.553,2.802,4.258c-1.652,3.277-2.802,9.994-2.802,11.91
	c0,2.557,2.063,4.629,4.6,4.629s4.6-2.072,4.6-4.629c0-1.916-1.16-8.633-2.802-11.91C121.344,58.693,122.5,57.045,122.5,55.143z"/>
</svg>
