<?xml version="1.0" encoding="utf-8"?>
<!-- Generator: Adobe Illustrator 16.0.0, SVG Export Plug-In . SVG Version: 6.00 Build 0)  -->
<!DOCTYPE svg PUBLIC "-//W3C//DTD SVG 1.1//EN" "http://www.w3.org/Graphics/SVG/1.1/DTD/svg11.dtd">
<svg version="1.1" id="Capa_1" xmlns="http://www.w3.org/2000/svg" xmlns:xlink="http://www.w3.org/1999/xlink" x="0px" y="0px"
	 width="86.451px" height="119.256px" viewBox="18.484 3.72 86.451 119.256" enable-background="new 18.484 3.72 86.451 119.256"
	 xml:space="preserve">
<polygon fill="#FCFCFC" points="35.575,10.489 21.989,21.721 21.989,117.989 101.989,117.989 101.989,7.989 "/>
<path fill="#D3EBEB" d="M34.125,3.747L34.103,3.72l-0.026,0.026h-0.006v0.005L18.484,17.645l0.02,0.025v104.758h86.431V3.747H34.125
	z M98.077,91.631v2.279v21.656H25.364V93.91v-2.279V24.542l15.458,0.068l0.075-14.007h57.182V91.631z"/>
<rect x="50.307" y="37.724" fill="#EAEAEA" width="37.065" height="2.151"/>
<rect x="50.307" y="42.21" fill="#EAEAEA" width="37.065" height="2.151"/>
<rect x="31.776" y="50.888" fill="#EAEAEA" width="55.599" height="2.151"/>
<rect x="31.776" y="55.542" fill="#EAEAEA" width="55.599" height="2.151"/>
<rect x="31.776" y="60.337" fill="#EAEAEA" width="55.599" height="2.151"/>
<rect x="31.776" y="69.475" fill="#EAEAEA" width="55.599" height="2.151"/>
<rect x="31.776" y="74.129" fill="#EAEAEA" width="55.599" height="2.15"/>
<path fill="#FF7B3F" stroke="#DD6733" stroke-miterlimit="10" d="M85.234,90.896l-0.916-1.589l-1.596,0.916l-1.298-1.296
	l-1.299,1.299l-1.589-0.917l-0.919,1.587l-1.773-0.474l-0.479,1.771h-1.835v1.839l-1.772,0.474l0.474,1.772L70.641,97.2l0.917,1.588
	l-1.296,1.298l1.296,1.301l-0.919,1.588l1.593,0.919l-0.478,1.772l1.774,0.477l-0.001,1.837l1.837,0.002l0.474,1.771l1.775-0.477
	l0.916,1.592l1.593-0.919l1.298,1.299l1.299-1.296l1.589,0.916l0.923-1.589l1.771,0.474l0.478-1.771h1.834v-1.837l1.772-0.476
	l-0.474-1.772l1.59-0.919l-0.916-1.591l1.296-1.298l-1.296-1.301l0.917-1.588l-1.591-0.922l0.478-1.771l-1.774-0.477v-1.837h-1.839
	l-0.475-1.771L85.234,90.896z M71.147,100.091l0.735-0.734l0.209,0.365v0.739l-0.209,0.365L71.147,100.091z M72.397,103.274
	l-0.9-0.521l0.52-0.897l0.3,0.296l0.191,0.714L72.397,103.274z M72.314,98.034l-0.299,0.301l-0.521-0.9l0.899-0.518l0.107,0.405
	L72.314,98.034z M73.528,105.501l-1.005-0.271l0.27-1.004l0.364,0.209l0.371,0.641V105.501z M73.528,95.107l-0.371,0.641
	l-0.364,0.212l-0.268-1.007l1.003-0.268V95.107z M74.154,107.359l0.003-1.039l0.408,0.107l0.521,0.523l0.109,0.408H74.154z
	 M75.085,93.235l-0.521,0.524l-0.407,0.104v-1.039h1.038L75.085,93.235z M76.281,108.994l-0.265-1.004h0.422l0.641,0.368
	l0.209,0.366L76.281,108.994z M77.076,91.827l-0.641,0.366h-0.419l0.269-1.005l1.003,0.272L77.076,91.827z M78.76,110.019
	l-0.517-0.898l0.409-0.109l0.714,0.192l0.299,0.3L78.76,110.019z M79.366,90.984l-0.714,0.191l-0.408-0.11l0.52-0.896l0.9,0.521
	L79.366,90.984z M81.423,89.814l0.732,0.735l-0.368,0.213h-0.735l-0.366-0.213L81.423,89.814z M81.42,110.369l-0.734-0.735
	l0.368-0.21h0.738l0.366,0.21L81.42,110.369z M84.079,110.019l-0.896-0.519l0.299-0.301l0.713-0.189l0.407,0.107L84.079,110.019z
	 M84.193,91.173l-0.713-0.189l-0.296-0.297l0.901-0.52l0.516,0.896L84.193,91.173z M86.561,108.995l-1.002-0.27l0.214-0.365
	l0.636-0.366h0.424L86.561,108.995z M86.406,92.193l-0.636-0.366l-0.212-0.366l1.006-0.27l0.269,1.005L86.406,92.193z
	 M91.702,100.094l-0.735,0.732l-0.212-0.366v-0.737l0.212-0.364L91.702,100.094z M90.449,96.912l0.902,0.521l-0.521,0.9
	l-0.301-0.302l-0.188-0.711L90.449,96.912z M90.533,102.152l0.299-0.297l0.518,0.896l-0.897,0.518l-0.109-0.409L90.533,102.152z
	 M89.32,94.685l1.005,0.268l-0.27,1.005l-0.366-0.21l-0.365-0.641L89.32,94.685L89.32,94.685z M89.32,105.077l0.368-0.64
	l0.364-0.209l0.267,1.006l-1.002,0.269L89.32,105.077L89.32,105.077z M88.696,92.827l-0.004,1.036l-0.409-0.11l-0.522-0.521
	l-0.105-0.408L88.696,92.827z M87.764,106.951l0.52-0.523l0.408-0.107v1.039h-1.037L87.764,106.951z"/>
<path fill="#8E8D8D" d="M57.815,98.399c-0.099,1.2-1.488,2.08-2.437,2.569c-1.053,0.545-2.728,1.016-3.613-0.053
	c-0.146-0.173-0.442-0.15-0.595,0c-0.793,0.788-2.876,2.874-3.667,1.139c-0.114-0.246-0.486-0.27-0.661-0.086
	c-0.477,0.497-0.873,1.063-1.321,1.584c-0.25,0.292-1.706,1.855-1.948,0.955c-0.206-0.78-0.218-1.236-0.841-1.819
	c-0.252-0.232-0.545-0.374-0.851-0.452c-0.039-0.419-0.084-0.833-0.126-1.252c-0.19-1.811-0.416-3.616-0.505-5.43
	c2.611-0.497,4.424-4.099,3.754-6.549c-0.299-1.074-1.29-2.145-2.489-1.771c-1.625,0.497-1.841,3.141-2.016,4.488
	c-0.127,0.997-0.167,1.995-0.154,2.991c-0.085-0.005-0.173-0.015-0.266-0.025c-1.776-0.268-2.838-2.094-3.279-3.664
	c-0.421-1.511-0.402-3.128-0.379-4.688c0.008-0.541-0.832-0.541-0.841,0c-0.043,3.323,0.186,7.661,3.839,9.045
	c0.324,0.123,0.644,0.195,0.957,0.222c0.1,2.184,0.427,4.363,0.634,6.549c-0.142,0.003-0.287,0.016-0.43,0.031
	c-1.468,0.154-2.667,1.041-2.932,2.532c-0.277,1.563,0.564,3.128,1.631,4.204c1.106,1.114,2.209,0.453,2.56-0.888
	c0.262-1.01,0.215-2.141,0.196-3.177c-0.009-0.57-0.039-1.145-0.081-1.712c0.704,0.343,0.653,1.223,0.902,1.893
	c0.207,0.558,0.838,0.63,1.354,0.544c1.234-0.21,2.075-1.612,2.863-2.597c1.141,1.458,3.209-0.075,4.387-1.174
	c1.09,0.92,2.781,0.602,3.998,0.05c1.387-0.629,3.06-1.794,3.193-3.455C58.699,97.859,57.858,97.862,57.815,98.399z M41.173,106.605
	c-0.031,0.571-0.083,2.521-1.072,1.905c-0.82-0.508-1.377-1.655-1.589-2.563c-0.408-1.729,0.955-3.025,2.572-2.979
	C41.182,104.177,41.232,105.392,41.173,106.605z M41.215,93.489c0.02-1.004,0.176-5.972,2.041-5.459
	c1.415,0.388,1.119,2.761,0.798,3.727c-0.427,1.277-1.508,2.521-2.834,2.868C41.207,94.245,41.206,93.866,41.215,93.489z"/>
</svg>
