<?xml version="1.0" encoding="utf-8"?>
<!-- Generator: Adobe Illustrator 16.0.0, SVG Export Plug-In . SVG Version: 6.00 Build 0)  -->
<!DOCTYPE svg PUBLIC "-//W3C//DTD SVG 1.1//EN" "http://www.w3.org/Graphics/SVG/1.1/DTD/svg11.dtd">
<svg version="1.1" id="Camada_1" xmlns="http://www.w3.org/2000/svg" xmlns:xlink="http://www.w3.org/1999/xlink" x="0px" y="0px"
	 width="350px" height="350px" viewBox="0 0 350 350" enable-background="new 0 0 350 350" xml:space="preserve">
<g>
	<path fill="#CCDBDA" d="M209.626,33.774v122.38l11.802-5.409v10.781l-11.802,5.056v22.432l11.802,5.062v10.781l-11.802-5.413
		v116.78l118.175-2.373V33.774L209.626,33.774z M241.854,209.224h-10.278l21.771-73.748h10.273L241.854,209.224z M318.344,182.777
		l-48.819,22.374v-10.782l37.741-16.166v-0.207l-37.741-16.174v-10.78l48.819,22.375V182.777z"/>
	<path fill="#D3EBEB" d="M210.164,318.687c0.457,0.027,0.914,0.065,1.377,0.065h105.171c12.297,0,22.304-10.01,22.304-22.306V52.661
		c0-12.297-10.007-22.307-22.304-22.307H211.541c-0.457,0-0.92,0.043-1.377,0.068V1.323L4.908,28.718v291.856l205.256,28.103
		V318.687L210.164,318.687z M210.164,197.699v-30.311 M210.164,167.388V43.241c0.457-0.066,0.909-0.136,1.377-0.136h105.171
		c5.267,0,9.555,4.288,9.555,9.561v243.784c0,5.275-4.288,9.563-9.555,9.563H211.541c-0.463,0-0.92-0.076-1.377-0.146V197.699
		 M53.414,204.809l-9.456-0.235v-18.968l-15.174-0.054v18.639l-8.996-0.223v-44.089l8.996-0.235v17.115l15.174-0.098v-17.419
		l9.456-0.248V204.809z M92.792,167.042l-12.435,0.201v38.237l-10.095-0.256v-37.808l-11.658,0.197v-8.75l34.189-0.905v9.083H92.792
		L92.792,167.042z M140.112,206.987l-0.758-19.253c-0.216-6.04-0.449-13.339-0.449-20.639l-0.229,0.005
		c-1.581,6.418-3.678,13.563-5.63,19.415l-6.071,19.325l-8.69-0.204L113.1,186.58c-1.563-5.73-3.198-12.663-4.337-19.008
		l-0.144,0.004c-0.28,6.572-0.495,14.077-0.853,20.134l-0.841,18.441l-9.861-0.244l2.99-48.142l14.341-0.375l4.761,16.294
		c1.521,5.691,3.047,11.834,4.146,17.629l0.215,0.004c1.396-5.718,3.088-12.258,4.709-17.785l5.342-16.65l15.098-0.398l2.849,50.789
		L140.112,206.987z M195.037,208.36l-34.36-0.86v-51.332l12.218-0.322v42.085l22.142,0.344V208.36L195.037,208.36z"/>
</g>
</svg>
