<?xml version="1.0" encoding="utf-8"?>
<!-- Generator: Adobe Illustrator 16.0.0, SVG Export Plug-In . SVG Version: 6.00 Build 0)  -->
<!DOCTYPE svg PUBLIC "-//W3C//DTD SVG 1.1//EN" "http://www.w3.org/Graphics/SVG/1.1/DTD/svg11.dtd">
<svg version="1.1" id="Camada_1" xmlns="http://www.w3.org/2000/svg" xmlns:xlink="http://www.w3.org/1999/xlink" x="0px" y="0px"
	 width="350px" height="350px" viewBox="0 0 350 350" enable-background="new 0 0 350 350" xml:space="preserve">
<g>
	<path fill="#D3EBEB" d="M213.197,318.689c0.467,0.025,0.92,0.074,1.379,0.074h105.172c12.303,0,22.307-10.018,22.307-22.314V52.664
		c0-12.298-10.004-22.307-22.307-22.307H214.576c-0.453,0-0.912,0.046-1.379,0.068V1.323L7.946,28.714v291.864l205.251,28.098
		V318.689z M213.197,43.244c0.459-0.065,0.908-0.137,1.379-0.137h105.172c5.266,0,9.559,4.29,9.559,9.557v243.781
		c0,5.275-4.293,9.564-9.559,9.564H214.576c-0.459,0-0.92-0.082-1.379-0.145V43.244L213.197,43.244z M59.487,192.156
		c4.316,0.074,9.13-0.84,11.981-1.996l2.203,11.941c-2.673,1.334-8.645,2.674-16.334,2.465
		c-21.356-0.576-32.081-14.832-32.081-33.328c0-22.153,14.701-34.867,33.479-35.373c7.426-0.192,13.122,1.257,15.708,2.594
		l-2.97,12.154c-2.942-1.254-7-2.379-12.078-2.299c-11.218,0.195-19.799,7.453-19.799,22.063
		C39.592,183.537,46.892,191.943,59.487,192.156z M99.495,205.688c-7.604-0.203-15.027-2.42-18.701-4.617l3-12.641
		c3.985,2.188,10.163,4.414,16.606,4.52c7,0.121,10.725-2.793,10.725-7.328c0-4.324-3.222-6.809-11.325-9.828
		c-11.043-3.984-18.144-10.236-18.144-20.098c0-11.573,9.347-20.675,25.142-21.092c7.673-0.199,13.394,1.311,17.499,3.075
		l-3.496,12.829c-2.757-1.311-7.644-3.188-14.313-3.076c-6.587,0.108-9.766,3.215-9.766,6.776c0,4.374,3.767,6.29,12.491,9.612
		c12.104,4.508,17.878,10.956,17.878,20.849C127.097,196.43,118.141,206.193,99.495,205.688z M155.42,207.182
		c-8.261-0.227-16.311-2.531-20.3-4.834l3.253-13.146c4.325,2.271,11.032,4.598,18.016,4.719c7.601,0.131,11.651-2.916,11.651-7.631
		c0-4.506-3.503-7.105-12.306-10.248c-11.97-4.167-19.68-10.665-19.68-20.935c0-12.051,10.148-21.54,27.283-21.988
		c8.34-0.219,14.54,1.337,19.016,3.178l-3.799,13.377c-3.004-1.358-8.312-3.308-15.545-3.194c-7.152,0.113-10.6,3.363-10.6,7.068
		c0,4.561,4.093,6.555,13.551,10.018c13.159,4.695,19.434,11.416,19.434,21.734C185.391,197.559,175.66,207.719,155.42,207.182z"/>
	<path fill="#CCDBDA" d="M210.867,40.131v268.558h118.566V40.131H210.867L210.867,40.131z M246.063,123.388h-2.492
		c-8.217,0-10.998,4.446-10.998,11.957c0,3.196,0.416,6.536,0.977,9.876c0.559,3.479,0.971,6.819,0.971,10.568
		c0.145,8.896-3.756,13.355-10.014,15.027v0.268c6.258,1.537,10.154,6.271,10.014,15.166c0,3.77-0.412,7.238-0.971,10.568
		c-0.553,3.486-0.977,6.686-0.977,10.031c0,7.779,3.201,12.092,10.998,12.092h2.492v7.662h-2.922
		c-11.553,0-20.178-5.025-20.178-19.072c0-3.762,0.557-7.635,1.127-11.406c0.553-3.762,1.113-7.508,1.113-11.26
		c0-4.324-1.395-10.308-11.268-10.308v-7.078c9.873,0,11.268-5.43,11.268-10.291c0-3.908-0.561-7.795-1.113-11.684
		c-0.563-3.891-1.127-7.652-1.127-11.545c0-12.807,8.357-18.236,20.178-18.236h2.922V123.388z M314.676,174.561
		c-9.877,0-11.279,5.99-11.279,10.308c0,3.752,0.561,7.498,1.121,11.26c0.563,3.766,1.123,7.641,1.123,11.406
		c0,14.047-8.77,19.072-20.174,19.072h-2.922v-7.666h2.369c7.779-0.131,11.131-4.313,11.131-12.086
		c0-3.352-0.566-6.547-0.986-10.033c-0.561-3.33-1.111-6.799-1.111-10.568c0-8.902,3.889-13.628,10.014-15.166v-0.268
		c-6.125-1.672-10.014-6.132-10.014-15.031c0-3.742,0.551-7.086,1.111-10.564c0.42-3.341,0.986-6.684,0.986-9.876
		c0-7.515-2.926-11.825-10.992-11.958h-2.508v-7.669h2.781c11.816,0,20.314,5.425,20.314,18.232c0,3.897-0.561,7.655-1.123,11.549
		c-0.557,3.889-1.121,7.779-1.121,11.684c0,4.865,1.402,10.291,11.279,10.291V174.561z"/>
</g>
</svg>
