<?xml version="1.0" encoding="utf-8"?>
<!-- Generator: Adobe Illustrator 16.0.0, SVG Export Plug-In . SVG Version: 6.00 Build 0)  -->
<!DOCTYPE svg PUBLIC "-//W3C//DTD SVG 1.1//EN" "http://www.w3.org/Graphics/SVG/1.1/DTD/svg11.dtd">
<svg version="1.1" id="Camada_1" xmlns="http://www.w3.org/2000/svg" xmlns:xlink="http://www.w3.org/1999/xlink" x="0px" y="0px"
	 width="328px" height="173.5px" viewBox="0 0 328 173.5" enable-background="new 0 0 328 173.5" xml:space="preserve">
<path fill="#00B8ED" d="M274.982,129.054l0.008,0.007c-0.462,0.501-0.75,1.162-0.75,1.896c0,1.552,1.264,2.814,2.814,2.814
	c0.822,0,1.555-0.356,2.068-0.918l0.009,0.007l8.243-8.996l8.246,8.996l0.006-0.007c0.513,0.562,1.244,0.918,2.066,0.918
	c1.555,0,2.816-1.26,2.816-2.814c0-0.734-0.289-1.395-0.75-1.896l0.008-0.007l-10.318-11.256c-0.535-0.581-1.285-0.913-2.074-0.913
	c-0.791,0-1.541,0.332-2.076,0.913L274.982,129.054z M257.356,126.268c0,16.575,13.44,30.018,30.019,30.018
	s30.02-13.442,30.02-30.018c0-16.579-13.441-30.019-30.02-30.019S257.356,109.689,257.356,126.268z M311.766,126.268
	c0,13.447-10.941,24.389-24.391,24.389s-24.39-10.942-24.39-24.389c0-13.449,10.941-24.389,24.39-24.389
	S311.766,112.819,311.766,126.268z"/>
<circle fill="#141414" cx="57.944" cy="136.448" r="27.5"/>
<circle fill="#0177B5" cx="170.85" cy="130.699" r="27.5"/>
<g>
	<path fill="#FFFFFF" d="M63.347,138.673c-1.22,0-2.209,1.369-2.209,3.057s0.99,3.057,2.209,3.057c1.217,0,2.206-1.368,2.206-3.057
		S64.564,138.673,63.347,138.673z M71.036,130.717c0.25-0.62,0.262-4.146-1.078-7.52c0,0-3.077,0.338-7.733,3.533
		c-0.975-0.27-2.629-0.405-4.281-0.405s-3.303,0.135-4.279,0.405c-4.657-3.195-7.732-3.533-7.732-3.533
		c-1.343,3.374-1.33,6.9-1.079,7.52c-1.576,1.712-2.538,3.768-2.538,6.575c0,12.208,10.127,12.404,12.685,12.404
		c0.578,0,1.728,0.001,2.943,0.003c1.217-0.002,2.368-0.003,2.945-0.003c2.558,0,12.684-0.196,12.684-12.404
		C73.574,134.483,72.612,132.429,71.036,130.717z M57.994,148.195h-0.096c-6.407,0-11.398-0.765-11.398-6.993
		c0-1.491,0.526-2.876,1.777-4.025c2.088-1.915,5.615-0.901,9.621-0.901c0.016,0,0.031,0,0.049-0.001
		c0.016,0.001,0.031,0.001,0.047,0.001c4.006,0,7.535-1.014,9.621,0.901c1.251,1.149,1.777,2.534,1.777,4.025
		C69.39,147.43,64.401,148.195,57.994,148.195z M52.544,138.673c-1.22,0-2.207,1.369-2.207,3.057s0.987,3.057,2.207,3.057
		s2.209-1.368,2.209-3.057S53.764,138.673,52.544,138.673z"/>
</g>
<g>
	<path id="LinkedIn" fill="#FFFFFF" d="M185.92,132.649v11.155h-6.459v-10.408c0-2.615-0.936-4.4-3.276-4.4
		c-1.783,0-2.847,1.204-3.314,2.367c-0.17,0.415-0.212,0.995-0.212,1.577v10.864h-6.463c0,0,0.087-17.628,0-19.454h6.463v2.756
		c-0.014,0.022-0.031,0.043-0.045,0.063h0.045v-0.063c0.856-1.323,2.39-3.214,5.823-3.214
		C182.733,123.894,185.92,126.674,185.92,132.649z M159.436,114.973c-2.213,0-3.657,1.451-3.657,3.36
		c0,1.866,1.403,3.362,3.569,3.362h0.042c2.254,0,3.655-1.494,3.655-3.362C163.003,116.424,161.645,114.973,159.436,114.973z
		 M156.16,143.805h6.463v-19.454h-6.463V143.805z"/>
</g>
<g>
	<g>
		<path fill="#FFFFFF" d="M300.715,33.981h-3.1H297.2c-0.915,0-1.659,0.743-1.659,1.662v0.18c0,0.919,0.744,1.662,1.662,1.662h3.099
			h0.413c0.914,0,1.661-0.746,1.661-1.662l-0.002-0.183C302.376,34.724,301.629,33.981,300.715,33.981z"/>
		<path fill="#FFFFFF" d="M300.715,29.835h-0.732v-8.039c0-1.156-0.944-2.101-2.1-2.101h-13.861c-1.157,0-2.102,0.945-2.102,2.101
			v5.768c-2.794,1.58-5.68,3.231-5.686,3.236c-1.566,0.644-3.858,2.723-3.858,7.632c0,0.438,0.028,0.842,0.068,1.234
			c0.013,0.114,0.026,0.224,0.044,0.334c0.039,0.287,0.089,0.562,0.148,0.823c0.023,0.093,0.04,0.191,0.063,0.279
			c0.084,0.303,0.177,0.586,0.283,0.856c0.053,0.134,0.109,0.254,0.168,0.379c0.062,0.132,0.126,0.261,0.192,0.382
			c0.077,0.146,0.155,0.286,0.241,0.42c0.02,0.032,0.041,0.059,0.062,0.091c2.022,3.057,5.75,3.07,5.75,3.07h2.524v2.385
			c0,1.156,0.944,2.101,2.102,2.101h13.861c1.155,0,2.1-0.946,2.1-2.101v-2.91h0.319v-0.001h0.409c0.918,0,1.665-0.744,1.663-1.663
			l0.002-0.182c-0.002-0.918-0.747-1.659-1.661-1.659h-0.413h-2.687H297.2c-0.919,0-1.659,0.744-1.659,1.661v0.184
			c0,0.915,0.742,1.661,1.662,1.661h1.316V46.9h-15.137V31.818c0.76-0.482,1.463-0.946,1.865-1.257
			c2.035-1.573,3.968-2.825,4.227-3.962c0.341-1.475-0.792-2.716-2.754-1.698c-0.621,0.322-1.888,1.025-3.338,1.84v-3.717
			l15.137,0.002v6.807h-0.904v0.003h-0.412c-0.92,0-1.664,0.743-1.664,1.663v0.18c0,0.92,0.744,1.661,1.661,1.661h0.413h2.688h0.413
			c0.914,0,1.659-0.743,1.659-1.661v-0.186C302.376,30.581,301.631,29.835,300.715,29.835z M290.95,47.639
			c0.581,0,1.05,0.47,1.05,1.05c0,0.583-0.469,1.05-1.05,1.05s-1.048-0.47-1.048-1.05C289.902,48.109,290.371,47.639,290.95,47.639z
			 M293.168,21.718h-4.434c-0.139,0-0.255-0.114-0.255-0.253c0-0.142,0.116-0.255,0.255-0.255h4.434
			c0.141,0,0.255,0.113,0.255,0.255C293.423,21.604,293.309,21.718,293.168,21.718z"/>
		<path fill="#FFFFFF" d="M300.715,38.125h-0.413H297.2c-0.915,0-1.661,0.745-1.661,1.663v0.183c0,0.917,0.744,1.66,1.661,1.66
			h0.413h2.688h0.411c0.916,0,1.656-0.743,1.661-1.66v-0.183C302.374,38.87,301.631,38.125,300.715,38.125z"/>
	</g>
</g>
<g>
	<path fill="#FFFFFF" d="M184,36.516c0.158-0.821,0.241-1.668,0.241-2.536c0-7.396-5.997-13.391-13.393-13.391
		c-0.866,0-1.715,0.083-2.536,0.241c-2.957-2.577-7.444-2.46-10.259,0.355c-2.815,2.814-2.932,7.304-0.357,10.261
		c-0.156,0.821-0.238,1.667-0.238,2.534c0,7.396,5.994,13.392,13.391,13.392c0.868,0,1.715-0.083,2.535-0.24
		c2.955,2.578,7.448,2.46,10.262-0.354C186.461,43.962,186.579,39.473,184,36.516z M171.104,42.229
		c-3.966,0-7.271-1.773-7.271-3.938c0-0.961,0.542-1.832,1.771-1.832c1.894,0,2.076,2.703,5.319,2.703
		c1.563,0,2.554-0.689,2.554-1.59c0-1.112-0.959-1.294-2.523-1.683l-2.585-0.632c-2.554-0.629-4.537-1.681-4.537-4.627
		c0-3.576,3.546-4.897,6.58-4.897c3.337,0,6.701,1.322,6.701,3.335c0,1.021-0.691,1.924-1.831,1.924
		c-1.713,0-1.773-2.014-4.537-2.014c-1.532,0-2.525,0.42-2.525,1.352c0,1.021,0.993,1.262,2.344,1.563l1.833,0.42
		c2.492,0.571,5.469,1.624,5.469,4.688C177.867,40.577,174.409,42.229,171.104,42.229z"/>
</g>
<g>
	<path fill="#FFFFFF" d="M72.943,40.496c0,0.658-0.185,1.267-0.481,1.803L62.99,31.702l9.369-8.198
		c0.366,0.579,0.585,1.258,0.585,1.992V40.496L72.943,40.496z M57.943,33.626l13.038-11.407c-0.536-0.293-1.138-0.472-1.788-0.472
		H46.694c-0.651,0-1.253,0.178-1.787,0.472L57.943,33.626z M61.578,32.936l-3.018,2.643c-0.177,0.154-0.396,0.23-0.616,0.23
		c-0.221,0-0.44-0.077-0.617-0.23l-3.018-2.643l-9.591,10.733c0.574,0.361,1.248,0.577,1.977,0.577h22.499
		c0.729,0,1.403-0.216,1.978-0.577L61.578,32.936z M43.528,23.504c-0.366,0.579-0.585,1.258-0.585,1.992v15
		c0,0.658,0.184,1.267,0.482,1.803l9.47-10.599L43.528,23.504z"/>
</g>
</svg>
