<?xml version="1.0" encoding="utf-8"?>
<!-- Generator: Adobe Illustrator 16.0.0, SVG Export Plug-In . SVG Version: 6.00 Build 0)  -->
<!DOCTYPE svg PUBLIC "-//W3C//DTD SVG 1.1//EN" "http://www.w3.org/Graphics/SVG/1.1/DTD/svg11.dtd">
<svg version="1.1" id="Camada_1" xmlns="http://www.w3.org/2000/svg" xmlns:xlink="http://www.w3.org/1999/xlink" x="0px" y="0px"
	 width="350px" height="350px" viewBox="0 0 350 350" enable-background="new 0 0 350 350" xml:space="preserve">
<g>
	<path fill="#CCDBDA" d="M210.697,39.568v266.741h121.575V39.568H210.697z M246.129,123.899h-2.484
		c-8.172,0-10.953,4.425-10.953,11.904c0,3.184,0.423,6.506,0.979,9.832c0.557,3.462,0.965,6.793,0.965,10.519
		c0.145,8.866-3.738,13.305-9.967,14.97v0.266c6.229,1.524,10.111,6.236,9.967,15.1c0,3.743-0.408,7.204-0.965,10.52
		c-0.556,3.458-0.979,6.655-0.979,9.981c0,7.742,3.196,12.033,10.953,12.033h2.484v7.633h-2.9c-11.494,0-20.088-5-20.088-18.977
		c0-3.746,0.557-7.614,1.119-11.357c0.553-3.746,1.105-7.473,1.105-11.219c0-4.303-1.387-10.249-11.212-10.249v-7.054
		c9.825,0,11.212-5.403,11.212-10.25c0-3.882-0.553-7.756-1.105-11.622c-0.563-3.877-1.119-7.623-1.119-11.497
		c0-12.746,8.313-18.149,20.088-18.149h2.907v7.615H246.129z M276.486,197.654c-0.645,2.271-1.602,4.546-2.861,6.836
		c-1.269,2.285-2.841,4.535-4.731,6.74c-1.884,2.205-4.046,4.211-6.496,6.023l-3.248-2.891c-0.444-0.441-0.774-0.855-0.993-1.238
		c-0.227-0.379-0.334-0.855-0.334-1.408c0-0.406,0.141-0.842,0.423-1.299c0.278-0.457,0.622-0.873,1.022-1.238
		c0.475-0.479,1.039-1.055,1.684-1.74c0.646-0.686,1.291-1.445,1.921-2.283c0.646-0.852,1.238-1.772,1.787-2.768
		c0.542-1.007,0.953-2.072,1.224-3.193c-1.395-0.118-2.662-0.461-3.789-1.025c-1.12-0.553-2.069-1.297-2.855-2.227
		c-0.778-0.922-1.394-1.973-1.835-3.156c-0.441-1.188-0.663-2.479-0.663-3.887c0-1.283,0.24-2.47,0.719-3.58
		c0.482-1.102,1.18-2.068,2.076-2.887c0.904-0.818,1.973-1.475,3.196-1.957c1.224-0.484,2.603-0.72,4.122-0.72
		c1.807,0,3.371,0.31,4.695,0.929c1.326,0.619,2.424,1.468,3.307,2.529c0.887,1.063,1.535,2.287,1.957,3.673
		c0.424,1.379,0.631,2.835,0.631,4.366C277.443,193.252,277.125,195.387,276.486,197.654z M276.635,162.433
		c-0.537,1.265-1.29,2.359-2.254,3.283c-0.968,0.918-2.092,1.643-3.37,2.165c-1.286,0.518-2.673,0.785-4.157,0.785
		c-1.52,0-2.928-0.264-4.215-0.785c-1.283-0.522-2.398-1.247-3.341-2.165c-0.945-0.924-1.687-2.019-2.225-3.283
		c-0.541-1.261-0.815-2.618-0.815-4.063s0.274-2.789,0.815-4.032c0.538-1.243,1.279-2.327,2.225-3.252
		c0.942-0.923,2.058-1.657,3.341-2.196c1.287-0.544,2.695-0.813,4.215-0.813c1.484,0,2.871,0.269,4.157,0.813
		c1.278,0.539,2.402,1.272,3.37,2.196c0.964,0.925,1.717,2.009,2.254,3.252c0.541,1.243,0.809,2.586,0.809,4.032
		S277.173,161.172,276.635,162.433z M314.432,174.848c-9.833,0-11.213,5.949-11.213,10.248c0,3.742,0.553,7.474,1.105,11.217
		c0.557,3.746,1.112,7.613,1.112,11.359c0,13.979-8.728,18.977-20.081,18.977h-2.91v-7.631h2.361
		c7.742-0.133,11.067-4.299,11.067-12.035c0-3.333-0.552-6.522-0.964-9.984c-0.56-3.314-1.115-6.77-1.115-10.52
		c0-8.86,3.877-13.576,9.973-15.099v-0.264c-6.096-1.672-9.973-6.104-9.973-14.97c0-3.728,0.556-7.053,1.115-10.519
		c0.412-3.326,0.964-6.648,0.964-9.832c0-7.479-2.899-11.776-10.934-11.904h-2.495v-7.616h2.77c11.771,0,20.222,5.404,20.222,18.15
		c0,3.877-0.556,7.62-1.112,11.5c-0.553,3.866-1.105,7.732-1.105,11.622c0,4.847,1.38,10.247,11.213,10.247V174.848z"/>
	<path fill="#D3EBEB" d="M319.74,30.355H214.591c-0.468,0-0.919,0.041-1.394,0.07V1.323L7.946,28.72v291.866l205.251,28.092v-29.99
		c0.475,0.033,0.919,0.072,1.394,0.072H319.74c12.295,0,22.313-10.021,22.313-22.311V52.661
		C342.054,40.364,332.035,30.355,319.74,30.355z M89.532,182.002c0,21.883-9.992,29.242-25.787,28.818
		c-3.696-0.092-8.507-0.881-11.629-2.09l1.771-13.613c2.191,0.811,5.011,1.416,8.173,1.467c6.774,0.119,11.038-3.074,11.038-14.91
		v-47.766l16.434-0.426V182.002L89.532,182.002z M122.162,212.266c-8.731-0.232-17.259-2.754-21.5-5.27l3.448-14.404
		c4.594,2.48,11.681,5.025,19.082,5.154c8.046,0.129,12.332-3.204,12.332-8.358c0-4.94-3.717-7.772-13.008-11.224
		c-12.688-4.552-20.847-11.685-20.847-22.936c0-13.211,10.745-23.594,28.877-24.073c8.819-0.23,15.383,1.488,20.11,3.501
		l-4.017,14.642c-3.181-1.495-8.793-3.636-16.435-3.508c-7.582,0.129-11.234,3.678-11.234,7.737c0,4.998,4.348,7.173,14.351,10.975
		c13.908,5.134,20.537,12.5,20.537,23.788C153.853,201.713,143.579,212.846,122.162,212.266z M213.197,274.342V43.244
		c0.459-0.066,0.908-0.138,1.394-0.138H319.74c5.273,0,9.566,4.288,9.566,9.559v243.781l0,0c0,5.273-4.293,9.564-9.566,9.564
		H214.591c-0.475,0-0.935-0.07-1.394-0.139v-29.889"/>
</g>
</svg>
