<?xml version="1.0" encoding="utf-8"?>
<!-- Generator: Adobe Illustrator 16.0.0, SVG Export Plug-In . SVG Version: 6.00 Build 0)  -->
<!DOCTYPE svg PUBLIC "-//W3C//DTD SVG 1.1//EN" "http://www.w3.org/Graphics/SVG/1.1/DTD/svg11.dtd">
<svg version="1.1" id="Capa_1" xmlns="http://www.w3.org/2000/svg" xmlns:xlink="http://www.w3.org/1999/xlink" x="0px" y="0px"
	 width="150.163px" height="131.557px" viewBox="0 24.971 150.163 131.557" enable-background="new 0 24.971 150.163 131.557"
	 xml:space="preserve">
<path fill="#D3EBEB" d="M137.671,24.971H12.656c-6.889,0-12.493,5.617-12.493,12.521v81.655c0,6.904,5.604,12.521,12.493,12.521
	h40.28l-7.645,16.895c-0.79,1.745-0.641,3.772,0.395,5.382c1.035,1.611,2.816,2.583,4.728,2.583h49.499c0.002,0,0.005,0,0.007,0
	c3.107,0,5.625-2.523,5.625-5.637c0-0.937-0.227-1.822-0.632-2.599l-7.523-16.623h40.28c6.889,0,12.494-5.617,12.494-12.521V37.492
	C150.164,30.588,144.56,24.971,137.671,24.971z M138.915,119.147c0,0.688-0.559,1.246-1.244,1.246H12.656
	c-0.686,0-1.244-0.559-1.244-1.246V37.492c0-0.688,0.558-1.247,1.244-1.247h125.014c0.686,0,1.243,0.559,1.243,1.247
	L138.915,119.147L138.915,119.147z"/>
<path fill="#00A5B7" d="M92.488,51.828c-0.396-0.397-1.095-0.338-1.562,0.129l-6.103,6.115c-0.468,0.469-0.525,1.171-0.13,1.568
	l8.664,8.683c0.197,0.197,0.473,0.282,0.755,0.258c0.283-0.023,0.574-0.155,0.809-0.39l6.102-6.115
	c0.466-0.468,0.525-1.169,0.128-1.565L92.488,51.828z"/>
<path fill="#FF7F40" d="M55.039,89.841c-0.256-0.257-0.655-0.331-1.046-0.196c-0.391,0.135-0.713,0.461-0.846,0.854l-4.169,12.377
	c-0.133,0.39-0.056,0.785,0.2,1.04c0.192,0.195,0.464,0.286,0.754,0.261c0.093-0.008,0.188-0.027,0.284-0.06l12.35-4.179
	c0.391-0.133,0.717-0.457,0.851-0.848c0.136-0.392,0.061-0.792-0.195-1.049L55.039,89.841z"/>
<path fill="#34515E" d="M86.228,84.071c0.544-0.249,0.941-0.739,1.072-1.323c0.131-0.584-0.018-1.197-0.401-1.655
	c-0.72-0.858-1.474-1.73-2.249-2.609l6.779-6.793c0.224-0.224,0.364-0.517,0.387-0.811c0.024-0.293-0.069-0.565-0.258-0.755
	l-8.664-8.682c-0.396-0.398-1.096-0.339-1.563,0.129l-6.611,6.627c-4.434-4.212-8.887-7.971-12.812-10.798
	c-2.763-1.991-7.818-5.336-10.633-5.379c-0.513-0.009-1.01,0.192-1.375,0.556c-0.366,0.363-0.569,0.858-0.565,1.374
	c0.015,1.922,1.697,5.39,4.739,9.763c2.895,4.163,6.873,8.945,11.41,13.741l-8.625,8.645c-0.468,0.469-0.526,1.169-0.129,1.565
	l8.663,8.682c0.198,0.2,0.47,0.284,0.755,0.26c0.282-0.024,0.575-0.156,0.808-0.389l8.792-8.812c0.768,0.681,1.529,1.342,2.28,1.98
	c0.348,0.296,0.786,0.455,1.236,0.455c0.102,0,0.204-0.008,0.306-0.024c0.552-0.09,1.037-0.417,1.328-0.896
	c0.512-0.845,1.181-1.683,1.988-2.49C83.894,85.416,85.02,84.622,86.228,84.071z"/>
<path fill="#FF7F40" d="M91.023,85.675c-2.227,0-4.352,0.951-6.148,2.751c-2.156,2.16-3.096,4.426-2.721,6.553
	c0.372,2.106,2.042,3.994,4.583,5.176c2.185,1.017,4.177,1.333,5.933,1.611c1.85,0.292,3.595,0.57,5.147,1.625
	c0.321,0.22,0.697,0.332,1.074,0.332c0.265,0,0.531-0.055,0.78-0.167c0.605-0.271,1.027-0.836,1.117-1.495
	c0.666-4.976-0.287-9.445-2.682-12.581C96.256,87.062,93.675,85.675,91.023,85.675z"/>
</svg>
