<?xml version="1.0" encoding="utf-8"?>
<!-- Generator: Adobe Illustrator 16.0.0, SVG Export Plug-In . SVG Version: 6.00 Build 0)  -->
<!DOCTYPE svg PUBLIC "-//W3C//DTD SVG 1.1//EN" "http://www.w3.org/Graphics/SVG/1.1/DTD/svg11.dtd">
<svg version="1.1" id="Camada_1" xmlns="http://www.w3.org/2000/svg" xmlns:xlink="http://www.w3.org/1999/xlink" x="0px" y="0px"
	 width="123.33px" height="57.03px" viewBox="0 0 123.33 57.03" enable-background="new 0 0 123.33 57.03" xml:space="preserve">
<g>
	<path fill="#FFFFFF" d="M43.059,10.314c0.204-0.635,0.446-1.202,0.726-1.694c0.279-0.493,0.602-0.912,0.97-1.253
		c0.367-0.341,0.783-0.6,1.249-0.776c0.465-0.175,0.991-0.263,1.577-0.263c0.271,0,0.547,0.021,0.831,0.064
		c0.283,0.042,0.538,0.13,0.76,0.263l-0.084,0.44c-0.037,0.105-0.102,0.157-0.195,0.157c-0.103,0-0.259-0.035-0.467-0.106
		c-0.21-0.071-0.52-0.106-0.929-0.106c-0.578,0-1.091,0.092-1.542,0.277c-0.452,0.186-0.852,0.458-1.201,0.819
		c-0.349,0.36-0.658,0.812-0.929,1.353c-0.27,0.541-0.516,1.173-0.739,1.895v9.215h-0.739V6.554h0.334
		c0.187,0,0.285,0.105,0.294,0.314L43.059,10.314z"/>
	<path fill="#FFFFFF" d="M54.616,6.327c0.977,0,1.845,0.173,2.602,0.521c0.759,0.346,1.398,0.835,1.919,1.467
		c0.521,0.631,0.917,1.394,1.187,2.286c0.269,0.893,0.405,1.885,0.405,2.976c0,1.091-0.136,2.082-0.405,2.971
		c-0.27,0.887-0.666,1.645-1.187,2.271s-1.161,1.108-1.919,1.446c-0.757,0.337-1.625,0.506-2.602,0.506
		c-0.978,0-1.845-0.169-2.603-0.506c-0.759-0.337-1.399-0.819-1.92-1.446s-0.916-1.384-1.186-2.271
		c-0.27-0.889-0.406-1.879-0.406-2.971c0-1.092,0.136-2.084,0.406-2.976c0.27-0.892,0.665-1.655,1.186-2.286
		c0.521-0.632,1.161-1.12,1.92-1.467C52.771,6.5,53.638,6.327,54.616,6.327z M54.616,20.17c0.893,0,1.674-0.157,2.344-0.47
		c0.668-0.312,1.23-0.759,1.683-1.338c0.451-0.58,0.789-1.273,1.013-2.08c0.223-0.807,0.334-1.709,0.334-2.706
		c0-0.998-0.111-1.904-0.334-2.72c-0.224-0.817-0.562-1.517-1.013-2.101c-0.452-0.584-1.013-1.034-1.683-1.354
		c-0.671-0.317-1.452-0.477-2.344-0.477c-0.893,0-1.674,0.159-2.345,0.477c-0.67,0.318-1.229,0.77-1.681,1.354
		c-0.452,0.585-0.789,1.285-1.013,2.101c-0.223,0.816-0.335,1.723-0.335,2.72c0,0.997,0.112,1.899,0.335,2.706
		c0.223,0.807,0.561,1.5,1.013,2.08c0.452,0.578,1.012,1.025,1.681,1.338C52.941,20.013,53.723,20.17,54.616,20.17z"/>
	<path fill="#FFFFFF" d="M63.701,9.275c0.643-0.902,1.408-1.619,2.297-2.152c0.89-0.531,1.859-0.797,2.911-0.797
		c0.764,0,1.431,0.121,2.003,0.363c0.571,0.242,1.046,0.589,1.424,1.04c0.377,0.452,0.66,1.004,0.853,1.659
		c0.191,0.655,0.284,1.396,0.284,2.223v8.986h-0.74V11.61c0-0.731-0.079-1.387-0.234-1.966c-0.157-0.579-0.401-1.07-0.735-1.474
		c-0.331-0.403-0.739-0.711-1.233-0.926c-0.495-0.214-1.076-0.32-1.746-0.32c-1.004,0-1.934,0.268-2.785,0.805
		c-0.852,0.537-1.607,1.28-2.268,2.229v10.64h-0.739V6.554h0.35c0.178,0,0.271,0.095,0.277,0.285L63.701,9.275z"/>
	<path fill="#FFFFFF" d="M95.258,0.002v20.595h-0.726V0.002H95.258z"/>
	<path fill="#FFFFFF" d="M108.854,0.002v20.595h-0.336c-0.186,0-0.282-0.094-0.293-0.284l-0.083-2.506
		c-0.614,0.921-1.348,1.645-2.199,2.172c-0.851,0.527-1.792,0.791-2.825,0.791c-1.751,0-3.095-0.589-4.034-1.767
		c-0.94-1.177-1.409-2.976-1.409-5.398c0-1.025,0.128-1.98,0.383-2.863c0.256-0.883,0.638-1.652,1.146-2.307
		c0.507-0.655,1.135-1.17,1.884-1.544c0.746-0.376,1.616-0.563,2.602-0.563c0.986,0,1.84,0.192,2.561,0.577
		c0.722,0.385,1.342,0.961,1.865,1.73V0.002H108.854z M108.116,9.388c-0.578-0.902-1.216-1.541-1.914-1.917
		c-0.698-0.375-1.497-0.563-2.4-0.563c-0.904,0-1.689,0.169-2.359,0.506c-0.67,0.337-1.228,0.805-1.674,1.404
		c-0.445,0.597-0.78,1.306-1.005,2.122c-0.223,0.817-0.337,1.704-0.337,2.664c0,2.231,0.414,3.883,1.238,4.956
		c0.824,1.074,2.026,1.609,3.607,1.609c0.965,0,1.862-0.271,2.687-0.811c0.822-0.541,1.542-1.292,2.157-2.251V9.388z"/>
	<path fill="#FFFFFF" d="M117.216,6.327c0.977,0,1.843,0.173,2.602,0.521c0.76,0.346,1.399,0.835,1.919,1.467
		c0.522,0.631,0.917,1.394,1.188,2.286c0.272,0.893,0.405,1.885,0.405,2.976c0,1.091-0.136,2.082-0.405,2.971
		c-0.269,0.887-0.665,1.645-1.188,2.271c-0.52,0.626-1.158,1.108-1.919,1.446c-0.759,0.337-1.625,0.506-2.602,0.506
		c-0.979,0-1.846-0.169-2.604-0.506c-0.758-0.337-1.398-0.819-1.919-1.446c-0.521-0.626-0.916-1.384-1.188-2.271
		c-0.27-0.889-0.404-1.879-0.404-2.971c0-1.092,0.135-2.084,0.404-2.976c0.271-0.892,0.666-1.655,1.188-2.286
		c0.521-0.632,1.159-1.12,1.919-1.467C115.37,6.5,116.237,6.327,117.216,6.327z M117.216,20.17c0.893,0,1.674-0.157,2.345-0.47
		c0.668-0.313,1.23-0.759,1.68-1.338c0.451-0.58,0.79-1.273,1.013-2.08c0.223-0.807,0.335-1.709,0.335-2.706
		c0-0.998-0.112-1.904-0.335-2.72c-0.223-0.817-0.562-1.517-1.013-2.101c-0.449-0.584-1.012-1.034-1.68-1.354
		c-0.671-0.317-1.454-0.477-2.345-0.477c-0.895,0-1.675,0.159-2.347,0.477c-0.669,0.318-1.229,0.77-1.681,1.354
		c-0.449,0.585-0.787,1.285-1.011,2.101c-0.224,0.815-0.337,1.723-0.337,2.72c0,0.997,0.113,1.899,0.337,2.706
		c0.224,0.807,0.562,1.5,1.011,2.08c0.451,0.578,1.012,1.025,1.681,1.338C115.541,20.013,116.321,20.17,117.216,20.17z"/>
</g>
<g>
	<path fill="#FFFFFF" d="M83.701,15.064c-0.676,0.127-1.222,0.292-1.63,0.49c-0.408,0.199-0.701,0.433-0.88,0.698
		c-0.177,0.266-0.264,0.555-0.264,0.869c0,0.617,0.179,1.058,0.535,1.324c0.358,0.267,0.825,0.399,1.404,0.399
		c0.703,0,1.317-0.131,1.835-0.392c0.518-0.261,1.021-0.657,1.513-1.188l-0.002-2.463C85.218,14.849,84.38,14.937,83.701,15.064z"/>
	<path fill="#FFFFFF" d="M84.146,2.357c-5.208,0.006-9.436,4.229-9.436,9.437c0,2.504,1.274,4.666,2.563,6.603
		c2.849,4.281,1.231,6.602,2.877,6.602h3.989h4.013c1.646,0,0.021-2.32,2.874-6.602c1.288-1.937,2.559-4.031,2.559-6.533
		C93.586,6.653,89.354,2.363,84.146,2.357z M89.575,21.037h-1.563c-0.326,0-0.577-0.049-0.754-0.149s-0.317-0.301-0.417-0.604
		l-0.309-1.054c-0.362,0.333-0.716,0.625-1.061,0.875c-0.344,0.252-0.702,0.462-1.075,0.633c-0.371,0.17-0.771,0.301-1.193,0.392
		c-0.423,0.09-0.894,0.136-1.402,0.136c-0.605,0-1.162-0.083-1.673-0.25c-0.513-0.166-0.954-0.415-1.327-0.747
		c-0.374-0.332-0.659-0.745-0.864-1.239c-0.205-0.493-0.309-1.067-0.309-1.723c0-0.371,0.063-0.738,0.183-1.104
		s0.317-0.714,0.594-1.047c0.273-0.332,0.629-0.645,1.068-0.939c0.437-0.295,0.975-0.55,1.611-0.77
		c0.638-0.217,1.379-0.396,2.225-0.534c0.846-0.137,1.815-0.221,2.901-0.249v-0.854c0-0.977-0.202-1.701-0.611-2.172
		c-0.41-0.469-1.001-0.704-1.773-0.704c-0.559,0-1.021,0.066-1.389,0.199c-0.366,0.134-0.69,0.282-0.968,0.449
		c-0.28,0.166-0.533,0.315-0.763,0.448c-0.228,0.133-0.482,0.2-0.759,0.2c-0.242,0-0.445-0.063-0.614-0.191
		c-0.167-0.128-0.303-0.278-0.403-0.448l-0.614-1.125c1.646-1.538,3.627-2.306,5.944-2.306c0.837,0,1.583,0.141,2.244,0.42
		c0.66,0.28,1.219,0.669,1.675,1.167c0.455,0.499,0.803,1.094,1.039,1.788c0.236,0.693,0.356,1.452,0.356,2.278V21.037z"/>
</g>
<g>
	<path fill="#FFFFFF" d="M0.001,56.614V29.899h4.648c0.936,0,1.55,0.446,1.841,1.339l0.411,1.443
		c0.42-0.463,0.856-0.889,1.307-1.275C8.661,31.02,9.15,30.685,9.674,30.4c0.525-0.281,1.09-0.505,1.695-0.668
		c0.606-0.163,1.271-0.245,1.998-0.245c1.519,0,2.772,0.417,3.766,1.249c0.993,0.832,1.747,1.945,2.263,3.335
		c0.421-0.824,0.933-1.528,1.538-2.111c0.606-0.584,1.26-1.056,1.961-1.417s1.445-0.628,2.228-0.8
		c0.783-0.17,1.563-0.257,2.337-0.257c1.437,0,2.712,0.227,3.826,0.684c1.113,0.453,2.045,1.115,2.796,1.981
		c0.751,0.868,1.319,1.933,1.707,3.194c0.387,1.264,0.581,2.693,0.581,4.289v16.977h-7.506V39.635c0-2.764-1.114-4.145-3.342-4.145
		c-1.018,0-1.861,0.355-2.529,1.066c-0.671,0.714-1.006,1.74-1.006,3.08v16.977h-7.507V39.637c0-1.527-0.282-2.602-0.846-3.219
		c-0.565-0.62-1.396-0.928-2.494-0.928c-0.679,0-1.321,0.162-1.926,0.488c-0.605,0.327-1.174,0.765-1.708,1.314v19.321H0.001z"/>
	<path fill="#FFFFFF" d="M37.507,33.609c1.518-1.426,3.201-2.487,5.049-3.182c1.849-0.696,3.83-1.044,5.945-1.044
		c1.519,0,2.886,0.263,4.105,0.787c1.218,0.524,2.251,1.254,3.099,2.189c0.847,0.937,1.497,2.047,1.948,3.336
		c0.454,1.287,0.678,2.697,0.678,4.226v16.691h-3.438c-0.71,0-1.246-0.104-1.611-0.309c-0.362-0.206-0.666-0.636-0.907-1.286
		l-0.533-1.469c-0.629,0.567-1.235,1.064-1.815,1.492c-0.581,0.431-1.183,0.797-1.804,1.097c-0.622,0.301-1.284,0.524-1.985,0.669
		c-0.702,0.146-1.481,0.221-2.337,0.221c-1.146,0-2.187-0.159-3.123-0.478c-0.937-0.317-1.731-0.784-2.384-1.403
		c-0.654-0.621-1.158-1.387-1.514-2.306c-0.355-0.92-0.532-1.979-0.532-3.183c0-0.962,0.226-1.937,0.678-2.925
		c0.452-0.989,1.235-1.89,2.348-2.705c1.115-0.817,2.615-1.497,4.505-2.047c1.888-0.551,4.269-0.86,7.143-0.929v-1.132
		c0-1.562-0.303-2.694-0.907-3.39c-0.605-0.695-1.464-1.043-2.579-1.043c-0.887,0-1.614,0.102-2.179,0.308
		c-0.565,0.208-1.069,0.438-1.514,0.696c-0.443,0.259-0.875,0.49-1.294,0.697c-0.42,0.206-0.92,0.309-1.501,0.309
		c-0.518,0-0.953-0.139-1.309-0.412c-0.355-0.275-0.646-0.602-0.872-0.979L37.507,33.609z M51.019,45.744
		c-1.5,0.067-2.735,0.206-3.705,0.411c-0.969,0.206-1.734,0.464-2.3,0.773c-0.564,0.312-0.957,0.662-1.174,1.056
		c-0.218,0.397-0.327,0.823-0.327,1.288c0,0.911,0.234,1.551,0.703,1.92c0.468,0.369,1.154,0.553,2.059,0.553
		c0.969,0,1.815-0.18,2.542-0.539s1.461-0.945,2.203-1.751V45.744z"/>
	<path fill="#FFFFFF" d="M78.428,36.236c-0.229,0.293-0.445,0.524-0.654,0.696c-0.211,0.172-0.508,0.258-0.896,0.258
		c-0.372,0-0.705-0.094-1.006-0.284c-0.299-0.188-0.633-0.398-1.005-0.629c-0.37-0.232-0.807-0.443-1.307-0.633
		c-0.501-0.189-1.122-0.283-1.864-0.283c-0.921,0-1.716,0.18-2.384,0.541c-0.67,0.359-1.223,0.876-1.66,1.544
		c-0.436,0.67-0.76,1.491-0.97,2.46c-0.208,0.971-0.314,2.066-0.314,3.285c0,2.559,0.463,4.526,1.392,5.901
		c0.928,1.372,2.209,2.059,3.839,2.059c0.872,0,1.562-0.115,2.07-0.348c0.508-0.232,0.94-0.488,1.294-0.774
		c0.356-0.283,0.683-0.545,0.981-0.784c0.299-0.24,0.675-0.36,1.127-0.36c0.597,0,1.048,0.232,1.356,0.697l2.177,2.857
		c-0.776,0.946-1.588,1.713-2.446,2.305c-0.855,0.595-1.73,1.056-2.627,1.392c-0.898,0.335-1.793,0.567-2.7,0.696
		c-0.904,0.129-1.785,0.193-2.637,0.193c-1.536,0-2.997-0.313-4.396-0.928c-1.397-0.618-2.624-1.515-3.682-2.691
		c-1.057-1.175-1.896-2.624-2.519-4.343c-0.62-1.716-0.931-3.674-0.931-5.873c0-1.921,0.27-3.724,0.812-5.396
		c0.539-1.674,1.339-3.126,2.396-4.354c1.06-1.227,2.365-2.194,3.924-2.897c1.556-0.704,3.36-1.056,5.412-1.056
		c1.967,0,3.695,0.334,5.183,1.005c1.485,0.669,2.823,1.647,4.02,2.937L78.428,36.236z"/>
	<path fill="#FFFFFF" d="M88.064,29.899v26.715h-7.507V29.899H88.064z"/>
	<path fill="#FFFFFF" d="M96.346,44.686c0.241,2.235,0.88,3.853,1.911,4.856c1.035,1.007,2.367,1.51,3.997,1.51
		c0.87,0,1.623-0.113,2.252-0.338c0.629-0.222,1.191-0.472,1.683-0.744c0.492-0.273,0.946-0.524,1.357-0.747
		c0.409-0.224,0.842-0.335,1.294-0.335c0.596,0,1.05,0.231,1.356,0.696l2.179,2.858c-0.775,0.945-1.611,1.714-2.508,2.306
		c-0.896,0.594-1.814,1.056-2.76,1.391s-1.89,0.566-2.833,0.695c-0.945,0.128-1.845,0.194-2.701,0.194
		c-1.758,0-3.409-0.307-4.952-0.913c-1.541-0.611-2.89-1.517-4.045-2.721c-1.153-1.202-2.064-2.695-2.735-4.48
		c-0.669-1.789-1.003-3.866-1.003-6.236c0-1.786,0.283-3.479,0.86-5.074c0.57-1.598,1.396-2.996,2.47-4.199
		c1.07-1.202,2.371-2.154,3.899-2.859c1.525-0.704,3.245-1.056,5.168-1.056c1.662,0,3.184,0.274,4.563,0.824
		c1.38,0.551,2.568,1.35,3.56,2.396c0.994,1.049,1.77,2.331,2.325,3.852c0.558,1.52,0.835,3.242,0.835,5.165
		c0,0.602-0.023,1.09-0.072,1.47c-0.049,0.377-0.137,0.677-0.267,0.902c-0.129,0.221-0.303,0.377-0.521,0.462
		c-0.219,0.087-0.497,0.129-0.834,0.129H96.346V44.686L96.346,44.686z M105.787,40.05c0-0.635-0.075-1.254-0.23-1.854
		c-0.153-0.602-0.402-1.139-0.75-1.61c-0.349-0.473-0.803-0.854-1.369-1.147c-0.564-0.291-1.25-0.438-2.058-0.438
		c-1.42,0-2.533,0.434-3.342,1.302c-0.807,0.868-1.339,2.118-1.598,3.748H105.787z"/>
	<path fill="#FFFFFF" d="M120.629,22.177v34.437h-7.505V22.177H120.629z"/>
</g>
<path fill="#FFFFFF" d="M79.535,26.517c0.759,1.394,2.538,2.152,4.614,2.152c2.073,0,3.854-0.758,4.611-2.152"/>
</svg>
