<?xml version="1.0" encoding="utf-8"?>
<!-- Generator: Adobe Illustrator 16.0.0, SVG Export Plug-In . SVG Version: 6.00 Build 0)  -->
<!DOCTYPE svg PUBLIC "-//W3C//DTD SVG 1.1//EN" "http://www.w3.org/Graphics/SVG/1.1/DTD/svg11.dtd">
<svg version="1.1" id="Camada_1" xmlns="http://www.w3.org/2000/svg" xmlns:xlink="http://www.w3.org/1999/xlink" x="0px" y="0px"
	 width="35px" height="16px" viewBox="0 0 35 16" enable-background="new 0 0 35 16" xml:space="preserve">
<g>
	<path fill="#FFFFFF" d="M0.707,16V0.445h2.76c0.23,0,0.422,0.021,0.578,0.06C4.2,0.545,4.33,0.607,4.435,0.692
		S4.62,0.891,4.675,1.03c0.055,0.14,0.103,0.31,0.143,0.51l0.255,1.455c0.57-0.88,1.21-1.575,1.92-2.085s1.485-0.765,2.325-0.765
		c0.71,0,1.28,0.17,1.71,0.51l-0.6,3.42c-0.04,0.21-0.12,0.357-0.24,0.442c-0.12,0.085-0.28,0.128-0.48,0.128
		c-0.17,0-0.37-0.022-0.6-0.067C8.877,4.533,8.587,4.51,8.237,4.51c-1.22,0-2.18,0.65-2.88,1.95V16H0.707z"/>
	<path fill="#FFFFFF" d="M11.597,16V0.445h2.88c0.29,0,0.532,0.065,0.728,0.195c0.195,0.13,0.332,0.324,0.412,0.585l0.255,0.84
		c0.26-0.271,0.53-0.518,0.81-0.743c0.28-0.225,0.583-0.42,0.908-0.585c0.325-0.165,0.674-0.294,1.049-0.39
		c0.375-0.095,0.788-0.143,1.238-0.143c0.939,0,1.717,0.243,2.332,0.728c0.615,0.485,1.082,1.133,1.402,1.942
		c0.26-0.479,0.578-0.89,0.953-1.229s0.779-0.615,1.215-0.825s0.895-0.365,1.38-0.465s0.968-0.15,1.448-0.15
		c0.889,0,1.68,0.133,2.369,0.397c0.69,0.266,1.268,0.65,1.732,1.155s0.818,1.125,1.059,1.86c0.239,0.734,0.359,1.567,0.359,2.497
		V16h-4.65V6.115c0-1.61-0.689-2.415-2.07-2.415c-0.629,0-1.152,0.208-1.566,0.622c-0.416,0.416-0.623,1.013-0.623,1.793V16h-4.65
		V6.115c0-0.89-0.175-1.515-0.524-1.875c-0.351-0.36-0.865-0.54-1.545-0.54c-0.421,0-0.818,0.095-1.193,0.285
		s-0.728,0.445-1.057,0.765V16H11.597z"/>
</g>
</svg>
