<svg xmlns="http://www.w3.org/2000/svg" width="123.33" height="57.03" viewBox="0 0 123.33 57.03"><g fill="#FFF"><path d="M43.06 10.314c.203-.635.445-1.202.725-1.694.28-.493.602-.912.97-1.253.367-.34.783-.6 1.25-.776.464-.174.99-.262 1.576-.262.272 0 .548.02.832.064.283.042.538.13.76.263l-.084.44c-.037.105-.102.157-.195.157-.103 0-.26-.035-.467-.106-.21-.07-.52-.106-.93-.106-.577 0-1.09.092-1.54.277-.453.186-.853.458-1.202.82-.35.36-.658.81-.93 1.352-.27.54-.515 1.172-.738 1.894V20.6h-.74V6.553h.335c.188 0 .286.105.295.314l.084 3.446zM54.616 6.327c.977 0 1.845.173 2.602.52.76.347 1.398.836 1.92 1.468.52.63.916 1.394 1.186 2.286.27.894.405 1.886.405 2.977 0 1.09-.137 2.082-.406 2.97-.27.888-.666 1.646-1.187 2.272s-1.16 1.107-1.92 1.445c-.756.337-1.624.506-2.6.506-.98 0-1.846-.168-2.604-.505-.76-.337-1.4-.82-1.92-1.446s-.916-1.385-1.186-2.272c-.27-.89-.406-1.88-.406-2.97 0-1.093.137-2.085.407-2.977.27-.89.665-1.654 1.186-2.285.52-.632 1.16-1.12 1.92-1.467.758-.348 1.625-.52 2.603-.52zm0 13.843c.893 0 1.674-.157 2.344-.47.668-.312 1.23-.76 1.683-1.338.45-.58.79-1.273 1.013-2.08.223-.807.334-1.71.334-2.706 0-.998-.11-1.904-.334-2.72-.224-.817-.562-1.517-1.013-2.1C58.19 8.17 57.63 7.72 56.96 7.4c-.67-.316-1.452-.476-2.344-.476-.893 0-1.674.16-2.345.477-.67.32-1.228.77-1.68 1.355-.452.585-.79 1.285-1.013 2.1-.223.817-.335 1.724-.335 2.72 0 .998.112 1.9.335 2.707.223.807.56 1.5 1.013 2.08.452.578 1.012 1.025 1.68 1.338.67.313 1.453.47 2.346.47zM63.7 9.275c.644-.902 1.41-1.62 2.298-2.152.89-.53 1.86-.797 2.91-.797.765 0 1.432.12 2.004.363.57.24 1.046.588 1.424 1.04.377.45.66 1.003.853 1.658.19.655.283 1.396.283 2.223v8.987h-.74V11.61c0-.73-.08-1.387-.234-1.966-.158-.58-.402-1.07-.736-1.474-.33-.403-.74-.71-1.233-.926-.494-.214-1.075-.32-1.745-.32-1.004 0-1.934.268-2.785.805-.852.536-1.607 1.28-2.268 2.228v10.64h-.74V6.554h.35c.18 0 .272.095.278.285l.08 2.435zM95.258.002v20.595h-.726V.002h.726zM108.854.002v20.595h-.336c-.186 0-.282-.094-.293-.284l-.083-2.506c-.614.92-1.348 1.645-2.2 2.172-.85.526-1.79.79-2.824.79-1.75 0-3.095-.59-4.034-1.767-.94-1.177-1.41-2.976-1.41-5.398 0-1.025.13-1.98.384-2.863.256-.883.638-1.652 1.146-2.307.507-.655 1.135-1.17 1.884-1.544.746-.375 1.616-.562 2.602-.562.986 0 1.84.192 2.56.577.723.385 1.343.96 1.866 1.73V.002h.738zm-.738 9.386c-.578-.902-1.216-1.54-1.914-1.917-.698-.374-1.497-.562-2.4-.562-.904 0-1.69.17-2.36.506-.67.337-1.227.805-1.673 1.404-.446.597-.78 1.306-1.006 2.122-.223.817-.337 1.704-.337 2.664 0 2.23.414 3.883 1.238 4.956.824 1.074 2.026 1.61 3.607 1.61.965 0 1.862-.272 2.687-.812.82-.54 1.54-1.292 2.156-2.25v-7.72zM117.216 6.327c.977 0 1.843.173 2.602.52.76.347 1.4.836 1.92 1.468.52.63.916 1.394 1.187 2.286.272.894.405 1.886.405 2.977 0 1.09-.136 2.082-.405 2.97-.27.888-.665 1.646-1.188 2.272-.52.625-1.158 1.107-1.92 1.445-.758.337-1.624.506-2.6.506-.98 0-1.847-.168-2.605-.505-.758-.337-1.398-.82-1.92-1.446-.52-.627-.915-1.385-1.187-2.272-.27-.89-.404-1.88-.404-2.97 0-1.093.136-2.085.405-2.977.27-.89.666-1.654 1.188-2.285.52-.632 1.16-1.12 1.92-1.467.757-.348 1.624-.52 2.603-.52zm0 13.843c.893 0 1.674-.157 2.345-.47.67-.313 1.23-.76 1.68-1.338.452-.58.79-1.273 1.014-2.08.223-.807.335-1.71.335-2.706 0-.998-.113-1.904-.336-2.72-.223-.817-.562-1.517-1.013-2.1-.448-.585-1.01-1.035-1.68-1.355-.67-.316-1.453-.476-2.344-.476-.895 0-1.675.16-2.347.477-.67.32-1.23.77-1.682 1.355-.45.585-.787 1.285-1.01 2.1-.225.816-.338 1.724-.338 2.72 0 .998.113 1.9.337 2.707.224.807.562 1.5 1.01 2.08.452.578 1.013 1.025 1.682 1.338.67.313 1.45.47 2.346.47z"/></g><g fill="#FFF"><path d="M83.7 15.064c-.675.127-1.22.292-1.63.49-.407.2-.7.433-.88.698-.176.266-.263.555-.263.87 0 .616.18 1.057.535 1.323.358.267.825.4 1.404.4.703 0 1.317-.132 1.835-.393.52-.26 1.022-.657 1.514-1.188l-.002-2.463c-.994.05-1.832.137-2.51.264z"/><path d="M84.146 2.357c-5.208.006-9.436 4.23-9.436 9.437 0 2.504 1.274 4.666 2.563 6.603 2.85 4.28 1.23 6.602 2.877 6.602H88.152c1.646 0 .02-2.32 2.874-6.603 1.288-1.937 2.56-4.03 2.56-6.533 0-5.21-4.232-9.5-9.44-9.507zm5.43 18.68H88.01c-.326 0-.577-.05-.754-.15s-.317-.3-.417-.603l-.308-1.054c-.362.333-.716.625-1.06.875-.345.252-.703.462-1.076.633-.37.17-.77.3-1.193.392-.423.09-.894.136-1.402.136-.604 0-1.16-.083-1.672-.25-.513-.166-.954-.415-1.327-.747-.373-.333-.658-.746-.863-1.24-.205-.493-.31-1.067-.31-1.723 0-.37.064-.738.184-1.104s.318-.714.595-1.047c.273-.332.63-.645 1.068-.94.437-.294.975-.55 1.61-.77.64-.216 1.38-.395 2.226-.533.845-.137 1.814-.22 2.9-.25v-.853c0-.977-.202-1.7-.61-2.172-.41-.47-1.002-.704-1.774-.704-.56 0-1.02.066-1.39.2-.365.133-.69.28-.967.448-.28.166-.534.315-.764.448-.228.133-.482.2-.76.2-.24 0-.444-.063-.613-.19-.167-.13-.303-.28-.403-.45l-.614-1.124c1.646-1.538 3.627-2.306 5.944-2.306.837 0 1.583.14 2.244.42.66.28 1.22.67 1.675 1.167.454.5.802 1.094 1.038 1.788.236.693.356 1.452.356 2.278v9.224z"/></g><g fill="#FFF"><path d="M0 56.614V29.9h4.65c.935 0 1.55.445 1.84 1.338l.41 1.443c.42-.462.857-.888 1.308-1.274.453-.386.942-.72 1.466-1.006.525-.28 1.09-.505 1.695-.668.605-.163 1.27-.245 1.997-.245 1.52 0 2.772.417 3.766 1.25.993.83 1.747 1.944 2.263 3.334.42-.823.933-1.527 1.538-2.11.606-.584 1.26-1.056 1.96-1.417s1.446-.628 2.23-.8c.782-.17 1.562-.257 2.336-.257 1.437 0 2.712.227 3.826.684 1.113.453 2.045 1.115 2.796 1.98.75.87 1.32 1.934 1.707 3.195.386 1.264.58 2.693.58 4.29V56.61h-7.506V39.636c0-2.764-1.114-4.145-3.342-4.145-1.018 0-1.86.355-2.53 1.066-.67.714-1.005 1.74-1.005 3.08v16.977H14.48V39.637c0-1.527-.282-2.602-.846-3.22-.565-.62-1.396-.927-2.494-.927-.68 0-1.32.162-1.926.488-.605.327-1.174.765-1.708 1.314v19.32H0z"/><path d="M37.507 33.61c1.518-1.427 3.2-2.488 5.05-3.183 1.848-.696 3.83-1.044 5.944-1.044 1.52 0 2.887.263 4.106.787 1.218.524 2.25 1.254 3.1 2.19.846.936 1.496 2.046 1.947 3.335.454 1.287.678 2.697.678 4.226v16.692h-3.437c-.71 0-1.246-.104-1.61-.31-.363-.205-.667-.635-.908-1.285l-.533-1.47c-.63.568-1.235 1.065-1.815 1.493-.58.43-1.183.797-1.804 1.097-.622.3-1.284.524-1.985.67-.702.145-1.48.22-2.337.22-1.145 0-2.186-.16-3.122-.478-.937-.318-1.73-.785-2.384-1.404-.654-.62-1.158-1.387-1.514-2.306-.355-.92-.532-1.98-.532-3.183 0-.962.226-1.937.678-2.925.452-.99 1.235-1.89 2.348-2.705 1.115-.817 2.615-1.497 4.505-2.047 1.887-.55 4.268-.86 7.142-.93v-1.13c0-1.563-.303-2.695-.907-3.39-.605-.696-1.464-1.044-2.58-1.044-.886 0-1.613.102-2.178.308-.565.208-1.07.438-1.514.696-.443.26-.875.49-1.294.697-.42.206-.92.31-1.502.31-.518 0-.953-.14-1.31-.413-.354-.275-.645-.602-.87-.98l-1.36-2.495zM51.02 45.743c-1.5.067-2.736.206-3.706.41-.97.207-1.734.465-2.3.774-.564.312-.957.662-1.174 1.056-.218.397-.327.823-.327 1.288 0 .91.234 1.55.703 1.92.468.37 1.154.553 2.06.553.968 0 1.814-.18 2.54-.54s1.462-.944 2.204-1.75v-3.71zM78.428 36.236c-.23.293-.445.524-.654.696-.21.172-.508.258-.896.258-.372 0-.705-.094-1.006-.284-.3-.188-.633-.398-1.005-.63-.37-.23-.807-.442-1.307-.632-.5-.19-1.122-.283-1.864-.283-.92 0-1.716.18-2.384.542-.67.36-1.223.876-1.66 1.544-.436.67-.76 1.49-.97 2.46-.208.97-.314 2.066-.314 3.285 0 2.56.463 4.527 1.392 5.902.928 1.372 2.21 2.06 3.84 2.06.87 0 1.56-.116 2.07-.35.507-.23.94-.487 1.293-.773l.98-.785c.3-.24.676-.36 1.128-.36.598 0 1.05.232 1.357.697l2.177 2.857c-.776.945-1.588 1.712-2.446 2.304-.855.595-1.73 1.056-2.627 1.392-.897.335-1.792.567-2.7.696-.903.13-1.784.193-2.636.193-1.536 0-2.997-.313-4.396-.928-1.397-.618-2.624-1.515-3.682-2.69-1.057-1.176-1.896-2.625-2.52-4.344-.62-1.716-.93-3.674-.93-5.873 0-1.92.27-3.724.812-5.396.54-1.674 1.34-3.126 2.396-4.354 1.06-1.227 2.365-2.194 3.924-2.897 1.556-.704 3.36-1.056 5.412-1.056 1.967 0 3.695.334 5.183 1.005 1.485.67 2.823 1.647 4.02 2.937l-1.985 2.806z"/><path d="M88.064 29.9v26.714h-7.507V29.9h7.507zM96.346 44.686c.24 2.235.88 3.853 1.91 4.856 1.036 1.007 2.368 1.51 3.998 1.51.87 0 1.623-.113 2.252-.338.63-.222 1.19-.472 1.683-.744.49-.273.945-.524 1.356-.747.41-.224.842-.335 1.294-.335.596 0 1.05.23 1.356.696l2.18 2.858c-.776.945-1.612 1.714-2.51 2.306-.895.594-1.813 1.056-2.76 1.39s-1.89.567-2.832.696c-.945.128-1.845.194-2.7.194-1.76 0-3.41-.307-4.953-.913-1.54-.61-2.89-1.517-4.044-2.72-1.153-1.203-2.064-2.696-2.735-4.48-.668-1.79-1.002-3.867-1.002-6.237 0-1.786.283-3.48.86-5.074.57-1.598 1.396-2.996 2.47-4.2 1.07-1.2 2.37-2.153 3.9-2.858 1.524-.704 3.244-1.056 5.167-1.056 1.662 0 3.184.274 4.563.824 1.38.55 2.568 1.35 3.56 2.396.994 1.05 1.77 2.33 2.325 3.852.558 1.52.835 3.242.835 5.165 0 .602-.023 1.09-.072 1.47-.05.377-.137.677-.267.902-.13.22-.304.376-.522.46-.22.088-.497.13-.834.13H96.346v-.004zm9.44-4.636c0-.635-.074-1.254-.23-1.854-.152-.602-.4-1.14-.75-1.61-.348-.473-.802-.854-1.368-1.147-.564-.292-1.25-.44-2.058-.44-1.42 0-2.533.435-3.342 1.303-.807.868-1.34 2.118-1.598 3.748h9.347zM120.63 22.177v34.437h-7.506V22.177h7.505z"/></g><path fill="#FFF" d="M79.535 26.517c.76 1.394 2.538 2.152 4.614 2.152 2.072 0 3.853-.76 4.61-2.153"/></svg>