<svg xmlns="http://www.w3.org/2000/svg" width="35" height="16" viewBox="0 0 35 16"><g fill="#FFF"><path d="M.707 16V.445h2.76c.23 0 .422.02.578.06.155.04.285.102.39.187s.185.2.24.338c.055.14.103.31.143.51l.255 1.455c.57-.88 1.21-1.575 1.92-2.085S8.478.145 9.318.145c.71 0 1.28.17 1.71.51l-.6 3.42c-.04.21-.12.357-.24.442-.12.085-.28.128-.48.128-.17 0-.37-.022-.6-.067-.23-.045-.52-.068-.87-.068-1.22 0-2.18.65-2.88 1.95V16H.707zM11.597 16V.445h2.88c.29 0 .532.065.728.195.195.13.332.324.412.585l.255.84c.26-.27.53-.518.81-.743.28-.225.583-.42.908-.585.325-.165.674-.294 1.05-.39.374-.095.787-.143 1.237-.143.94 0 1.717.243 2.332.728.614.485 1.08 1.133 1.4 1.942.26-.48.58-.89.954-1.23s.78-.614 1.215-.824.894-.365 1.38-.465.967-.15 1.447-.15c.89 0 1.68.133 2.37.397.69.266 1.267.65 1.73 1.155s.82 1.125 1.06 1.86c.24.734.36 1.567.36 2.497V16h-4.65V6.115c0-1.61-.69-2.415-2.07-2.415-.63 0-1.153.208-1.567.622-.416.416-.623 1.013-.623 1.793V16h-4.65V6.115c0-.89-.175-1.515-.524-1.875-.35-.36-.865-.54-1.545-.54-.42 0-.818.095-1.193.285s-.728.445-1.057.765V16h-4.65z"/></g></svg>