<svg xmlns="http://www.w3.org/2000/svg" width="800" height="600" viewBox="0 0 800 600"><path d="M725.22 482.252c0 9.94-8.06 18-18 18H106.085c-9.94 0-18-8.06-18-18v-388.9c0-9.94 8.06-18 18-18h601.14c9.94 0 18 8.06 18 18l-.003 388.9z"/><path fill="#E8E8E8" d="M88.084 482.252L12.97 514.57h782.315L725.22 482.25"/><path fill="#B7B7B7" d="M12.97 514.57h782.314v7.24H12.97z"/><path fill="#A8A8A8" d="M49.047 521.81l39.543 6.57H718.5l27-6.57"/><path fill="#141414" d="M112.5 98.5h586v347h-586z"/><path fill="none" d="M88.084 119.5h509v309h-509z"/><path fill="#FFF" d="M147.385 124.506l5.565-2.867v.827l-4.69 2.35v.024l4.69 2.353v.827l-5.565-2.866v-.648z"/><g fill="#F92672"><path d="M157.837 128.02l-.084-.73h-.036c-.324.455-.947.862-1.775.862-1.175 0-1.775-.827-1.775-1.667 0-1.403 1.247-2.17 3.49-2.16v-.118c0-.48-.132-1.344-1.32-1.344-.54 0-1.103.168-1.51.432l-.24-.695c.48-.312 1.175-.516 1.907-.516 1.775 0 2.207 1.21 2.207 2.374v2.17c0 .505.025.997.097 1.393h-.96zm-.157-2.962c-1.15-.024-2.458.18-2.458 1.307 0 .684.456 1.008.996 1.008.755 0 1.235-.48 1.403-.972.037-.106.06-.227.06-.335v-1.007zM160.406 124.026c0-.684-.012-1.27-.048-1.81h.923l.037 1.14h.048c.264-.78.9-1.272 1.607-1.272.12 0 .204.012.3.036v.995c-.108-.024-.216-.036-.36-.036-.744 0-1.27.562-1.416 1.354-.024.144-.048.312-.048.49v3.096h-1.043v-3.994zM165.89 120.548v1.667h1.51v.804h-1.51v3.13c0 .72.203 1.127.79 1.127.277 0 .48-.036.613-.072l.048.79c-.203.085-.527.146-.935.146-.492 0-.888-.155-1.14-.443-.3-.312-.408-.827-.408-1.51v-3.167h-.9v-.804h.9v-1.392l1.032-.276zM169.765 120.584c.012.36-.252.647-.67.647-.373 0-.637-.287-.637-.646 0-.372.276-.66.66-.66.395 0 .647.288.647.66zm-1.175 7.436v-5.805h1.056v5.805h-1.056zM175.535 127.804c-.276.144-.887.336-1.667.336-1.75 0-2.89-1.188-2.89-2.963 0-1.787 1.223-3.082 3.118-3.082.624 0 1.175.156 1.463.3l-.24.815c-.253-.144-.648-.275-1.224-.275-1.332 0-2.05.983-2.05 2.194 0 1.343.863 2.17 2.014 2.17.6 0 .996-.156 1.295-.288l.18.792zM176.774 119.504h1.056v8.516h-1.056v-8.516zM180.194 125.31c.024 1.427.935 2.015 1.99 2.015.756 0 1.212-.132 1.608-.3l.18.755c-.372.168-1.007.36-1.93.36-1.788 0-2.855-1.176-2.855-2.927s1.032-3.13 2.723-3.13c1.895 0 2.4 1.667 2.4 2.734 0 .216-.025.384-.037.49h-4.08zm3.094-.756c.012-.672-.276-1.716-1.463-1.716-1.067 0-1.535.984-1.62 1.716h3.083z"/></g><path fill="#FFF" d="M190.81 125.165l-5.565 2.854v-.828l4.726-2.352v-.023l-4.725-2.35v-.83l5.565 2.855v.673zM170.875 138.906l5.565-2.867v.827l-4.69 2.35v.024l4.69 2.353v.827l-5.565-2.866v-.648z"/><g fill="#F92672"><path d="M178.112 133.905h1.056v3.622h.024c.168-.3.432-.563.755-.743.312-.18.684-.3 1.08-.3.78 0 2.027.48 2.027 2.482v3.454h-1.056v-3.334c0-.936-.348-1.728-1.343-1.728-.684 0-1.223.48-1.415 1.056-.06.144-.072.3-.072.504v3.502h-1.056v-8.515zM184.436 142.42v-.647l.828-.804c1.99-1.896 2.89-2.903 2.902-4.08 0-.79-.384-1.52-1.547-1.52-.71 0-1.296.358-1.656.658l-.336-.743c.54-.456 1.308-.792 2.207-.792 1.68 0 2.387 1.15 2.387 2.267 0 1.44-1.043 2.603-2.687 4.186l-.624.576v.023h3.503v.876h-4.977z"/></g><path fill="#FCFCFC" d="M196.407 139.566l-5.565 2.854v-.827l4.726-2.352v-.022l-4.726-2.35v-.83l5.565 2.855v.673z"/><path fill="#FFF" d="M184.875 153.306l5.565-2.867v.827l-4.69 2.35v.024l4.69 2.353v.827l-5.565-2.866v-.648z"/><g fill="#F92672"><path d="M191.968 155.74c.312.203.864.42 1.392.42.768 0 1.127-.384 1.127-.864 0-.504-.3-.78-1.08-1.067-1.042-.372-1.534-.948-1.534-1.644 0-.936.755-1.703 2.003-1.703.587 0 1.104.168 1.427.36l-.264.767c-.23-.144-.648-.336-1.188-.336-.624 0-.972.36-.972.792 0 .48.348.695 1.104.983 1.007.383 1.523.887 1.523 1.75 0 1.02-.792 1.74-2.17 1.74-.636 0-1.224-.157-1.632-.397l.263-.803zM196.864 152.91c0-.744-.024-1.344-.048-1.896h.947l.048.995h.025c.432-.708 1.115-1.128 2.063-1.128 1.403 0 2.46 1.188 2.46 2.95 0 2.087-1.272 3.118-2.64 3.118-.768 0-1.44-.336-1.787-.91h-.023v3.153h-1.043v-6.284zm1.043 1.547c0 .155.024.3.048.432.192.73.828 1.234 1.583 1.234 1.116 0 1.763-.912 1.763-2.243 0-1.162-.61-2.158-1.726-2.158-.72 0-1.39.517-1.595 1.308-.037.132-.073.288-.073.432v.995zM206.906 156.82l-.084-.73h-.036c-.324.455-.947.862-1.775.862-1.174 0-1.774-.827-1.774-1.667 0-1.403 1.247-2.17 3.49-2.16v-.118c0-.48-.132-1.344-1.32-1.344-.54 0-1.102.168-1.51.432l-.24-.695c.48-.312 1.176-.516 1.907-.516 1.775 0 2.207 1.21 2.207 2.374v2.17c0 .505.024.997.096 1.393h-.96zm-.156-2.962c-1.15-.024-2.46.18-2.46 1.307 0 .684.457 1.008.997 1.008.755 0 1.235-.48 1.403-.972.036-.106.06-.227.06-.335v-1.007zM209.475 152.586c0-.6-.012-1.092-.048-1.57h.936l.06.958h.024c.288-.552.96-1.09 1.92-1.09.802 0 2.05.478 2.05 2.47v3.466h-1.056v-3.346c0-.936-.347-1.716-1.342-1.716-.695 0-1.235.492-1.415 1.08-.048.132-.072.312-.072.49v3.49h-1.055v-4.232z"/></g><path fill="#FFF" d="M221.616 153.965l-5.565 2.854v-.828l4.727-2.352v-.023l-4.726-2.35v-.83l5.566 2.855v.673z"/><g fill="#FFFDFE"><path d="M222.82 151.53c.276-1.007.792-2.302 1.127-2.853l.672-.072c-.265.708-.577 1.943-.71 2.807l-1.09.12zm1.787 0c.264-1.007.792-2.302 1.115-2.853l.672-.072c-.264.708-.576 1.943-.708 2.807l-1.08.12zM233.03 156.556c-.385.19-1.152.384-2.136.384-2.28 0-3.994-1.44-3.994-4.09 0-2.53 1.715-4.246 4.222-4.246 1.007 0 1.643.216 1.92.36l-.253.852c-.397-.192-.96-.336-1.632-.336-1.895 0-3.154 1.21-3.154 3.334 0 1.98 1.14 3.25 3.106 3.25.635 0 1.283-.132 1.703-.336l.216.828zM239.424 153.87c0 2.145-1.487 3.08-2.89 3.08-1.57 0-2.783-1.15-2.783-2.985 0-1.942 1.272-3.082 2.88-3.082 1.667 0 2.794 1.21 2.794 2.986zm-4.605.06c0 1.27.73 2.23 1.762 2.23 1.007 0 1.763-.948 1.763-2.255 0-.983-.492-2.23-1.74-2.23-1.246 0-1.786 1.15-1.786 2.254zm3.345-5.422l-1.463 1.715h-.756l1.056-1.715h1.163zM245.772 148.304v7.017c0 .517.012 1.105.048 1.5h-.947l-.048-1.008h-.024c-.323.648-1.03 1.14-1.978 1.14-1.403 0-2.483-1.188-2.483-2.95-.013-1.93 1.187-3.118 2.602-3.118.888 0 1.487.42 1.75.888h.025v-3.467h1.055zm-1.055 5.073c0-.132-.012-.312-.048-.443-.157-.672-.732-1.224-1.524-1.224-1.09 0-1.74.96-1.74 2.243 0 1.175.577 2.146 1.716 2.146.708 0 1.355-.47 1.547-1.26.035-.145.047-.288.047-.456v-1.007zM248.702 149.384c.012.36-.252.647-.67.647-.373 0-.637-.287-.637-.646 0-.372.276-.66.66-.66.395 0 .647.288.647.66zm-1.175 7.436v-5.805h1.056v5.805h-1.056zM255.337 151.015c-.024.42-.048.888-.048 1.595v3.37c0 1.332-.265 2.147-.828 2.65-.564.528-1.38.696-2.11.696-.697 0-1.464-.168-1.932-.48l.264-.803c.384.24.984.455 1.703.455 1.08 0 1.87-.563 1.87-2.026v-.647h-.023c-.324.54-.948.97-1.847.97-1.44 0-2.47-1.222-2.47-2.83 0-1.966 1.283-3.08 2.614-3.08 1.008 0 1.56.526 1.812 1.006h.024l.048-.874h.923zm-1.092 2.29c0-.18-.012-.335-.06-.48-.192-.61-.708-1.114-1.476-1.114-1.008 0-1.728.853-1.728 2.196 0 1.14.576 2.087 1.715 2.087.647 0 1.235-.408 1.463-1.08.06-.18.084-.384.084-.563v-1.044zM262.296 153.87c0 2.145-1.487 3.08-2.89 3.08-1.57 0-2.783-1.15-2.783-2.985 0-1.942 1.27-3.082 2.878-3.082 1.67 0 2.796 1.21 2.796 2.986zm-4.605.06c0 1.27.733 2.23 1.764 2.23 1.007 0 1.763-.948 1.763-2.255 0-.983-.492-2.23-1.74-2.23-1.246 0-1.786 1.15-1.786 2.254zM263.487 155.74c.312.203.864.42 1.392.42.767 0 1.126-.384 1.126-.864 0-.504-.3-.78-1.08-1.067-1.042-.372-1.534-.948-1.534-1.644 0-.936.755-1.703 2.003-1.703.587 0 1.104.168 1.427.36l-.264.767c-.228-.144-.647-.336-1.187-.336-.623 0-.97.36-.97.792 0 .48.347.695 1.103.983 1.007.383 1.523.887 1.523 1.75 0 1.02-.792 1.74-2.17 1.74-.636 0-1.224-.157-1.632-.397l.263-.803zM274.885 155.92h-.024c-.31.575-.958 1.03-1.894 1.03-1.355 0-2.46-1.174-2.46-2.937 0-2.17 1.404-3.13 2.628-3.13.9 0 1.5.443 1.787 1.007h.025l.036-.875h.997c-.024.49-.036.995-.036 1.595v6.585h-1.054v-3.275zm0-2.555c0-.144-.012-.312-.048-.443-.156-.648-.72-1.2-1.51-1.2-1.093 0-1.752.924-1.752 2.23 0 1.152.552 2.16 1.715 2.16.684 0 1.27-.42 1.51-1.152.05-.144.085-.348.085-.503v-1.092zM282.54 155.237c0 .6.012 1.127.048 1.583h-.936l-.06-.947h-.024c-.276.468-.887 1.08-1.92 1.08-.91 0-2.002-.505-2.002-2.544v-3.395h1.056v3.214c0 1.103.336 1.847 1.295 1.847.708 0 1.2-.492 1.39-.96.06-.156.097-.348.097-.54v-3.562h1.056v4.222zM284.883 154.11c.024 1.427.936 2.015 1.99 2.015.756 0 1.212-.132 1.608-.3l.18.755c-.37.168-1.006.36-1.93.36-1.787 0-2.854-1.176-2.854-2.927s1.032-3.13 2.723-3.13c1.894 0 2.398 1.667 2.398 2.734 0 .216-.024.384-.036.49h-4.08zm3.094-.756c.012-.672-.276-1.716-1.463-1.716-1.067 0-1.535.984-1.62 1.716h3.083zM292.706 155.74c.312.203.864.42 1.392.42.768 0 1.127-.384 1.127-.864 0-.504-.3-.78-1.08-1.067-1.042-.372-1.534-.948-1.534-1.644 0-.936.756-1.703 2.004-1.703.587 0 1.103.168 1.427.36l-.263.767c-.228-.144-.647-.336-1.187-.336-.624 0-.972.36-.972.792 0 .48.348.695 1.104.983 1.007.383 1.523.887 1.523 1.75 0 1.02-.792 1.74-2.17 1.74-.636 0-1.224-.157-1.632-.397l.263-.803zM298.19 154.11c.024 1.427.936 2.015 1.99 2.015.756 0 1.212-.132 1.608-.3l.18.755c-.372.168-1.007.36-1.93.36-1.788 0-2.855-1.176-2.855-2.927s1.032-3.13 2.723-3.13c1.895 0 2.4 1.667 2.4 2.734 0 .216-.025.384-.037.49h-4.08zm3.094-.756c.012-.672-.276-1.716-1.463-1.716-1.066 0-1.534.984-1.618 1.716h3.082zM307.43 149.348v1.667h1.51v.804h-1.51v3.13c0 .72.203 1.127.79 1.127.277 0 .48-.036.613-.072l.048.79c-.203.085-.527.146-.935.146-.492 0-.888-.155-1.14-.443-.3-.312-.408-.827-.408-1.51v-3.167h-.9v-.804h.9v-1.392l1.032-.276zM310.13 152.825c0-.684-.012-1.27-.048-1.81h.923l.036 1.14h.05c.263-.78.898-1.272 1.606-1.272.12 0 .204.012.3.036v.994c-.108-.024-.216-.036-.36-.036-.744 0-1.27.563-1.416 1.355-.024.144-.048.312-.048.49v3.096h-1.043v-3.995zM317.21 156.82l-.085-.73h-.036c-.325.455-.948.862-1.776.862-1.175 0-1.775-.827-1.775-1.667 0-1.403 1.246-2.17 3.49-2.16v-.118c0-.48-.133-1.344-1.32-1.344-.54 0-1.104.168-1.51.432l-.24-.695c.48-.312 1.174-.516 1.906-.516 1.775 0 2.207 1.21 2.207 2.374v2.17c0 .505.024.997.096 1.393h-.96zm-.158-2.962c-1.15-.024-2.458.18-2.458 1.307 0 .684.456 1.008.996 1.008.755 0 1.235-.48 1.403-.972.036-.106.06-.227.06-.335v-1.007zM319.778 152.586c0-.6-.012-1.092-.048-1.57h.936l.06.958h.024c.288-.552.96-1.09 1.92-1.09.802 0 2.05.478 2.05 2.47v3.466h-1.056v-3.346c0-.936-.348-1.716-1.343-1.716-.694 0-1.234.492-1.414 1.08-.048.132-.072.312-.072.49v3.49h-1.056v-4.232zM326.294 155.74c.312.203.864.42 1.392.42.768 0 1.127-.384 1.127-.864 0-.504-.3-.78-1.08-1.067-1.042-.372-1.534-.948-1.534-1.644 0-.936.754-1.703 2.002-1.703.587 0 1.104.168 1.427.36l-.265.767c-.228-.144-.647-.336-1.187-.336-.624 0-.972.36-.972.792 0 .48.348.695 1.104.983 1.007.383 1.523.887 1.523 1.75 0 1.02-.792 1.74-2.17 1.74-.636 0-1.224-.157-1.632-.397l.264-.803zM331.298 156.82v-5h-.815v-.805h.815v-.276c0-.816.18-1.56.672-2.027.396-.384.923-.54 1.415-.54.372 0 .696.084.9.168l-.145.816c-.156-.07-.372-.132-.67-.132-.9 0-1.128.792-1.128 1.68v.312h1.403v.804h-1.403v5h-1.044zM339.79 153.87c0 2.145-1.486 3.08-2.89 3.08-1.57 0-2.782-1.15-2.782-2.985 0-1.942 1.27-3.082 2.878-3.082 1.668 0 2.795 1.21 2.795 2.986zm-4.605.06c0 1.27.732 2.23 1.763 2.23 1.007 0 1.763-.948 1.763-2.255 0-.983-.49-2.23-1.738-2.23-1.247 0-1.787 1.15-1.787 2.254zM341.126 152.825c0-.684-.012-1.27-.048-1.81H342l.037 1.14h.048c.264-.78.9-1.272 1.607-1.272.12 0 .204.012.3.036v.994c-.108-.024-.216-.036-.36-.036-.744 0-1.27.563-1.416 1.355-.024.144-.048.312-.048.49v3.096h-1.043v-3.995zM345.098 152.586c0-.6-.012-1.092-.048-1.57h.923l.048.935h.037c.324-.55.864-1.066 1.823-1.066.792 0 1.39.48 1.643 1.163h.024c.18-.324.408-.575.647-.756.348-.263.73-.406 1.283-.406.768 0 1.907.504 1.907 2.52v3.417h-1.032v-3.285c0-1.115-.408-1.787-1.26-1.787-.6 0-1.066.443-1.246.96-.048.144-.084.335-.084.527v3.586h-1.03v-3.478c0-.923-.41-1.595-1.212-1.595-.66 0-1.14.527-1.308 1.056-.06.155-.084.336-.084.516v3.5h-1.03v-4.234zM358.32 156.82l-.084-.73h-.036c-.323.455-.947.862-1.774.862-1.176 0-1.775-.827-1.775-1.667 0-1.403 1.248-2.17 3.49-2.16v-.118c0-.48-.132-1.344-1.318-1.344-.54 0-1.104.168-1.51.432l-.24-.695c.478-.312 1.174-.516 1.905-.516 1.775 0 2.207 1.21 2.207 2.374v2.17c0 .505.023.997.096 1.393h-.96zm-.156-2.962c-1.15-.024-2.46.18-2.46 1.307 0 .684.458 1.008.997 1.008.757 0 1.236-.48 1.404-.972.036-.106.06-.227.06-.335v-1.007zM360.89 152.586c0-.6-.013-1.092-.05-1.57h.925l.048.935h.036c.323-.55.862-1.066 1.822-1.066.792 0 1.392.48 1.644 1.163h.023c.18-.324.407-.575.646-.756.348-.263.73-.406 1.283-.406.767 0 1.906.504 1.906 2.52v3.417h-1.03v-3.285c0-1.115-.41-1.787-1.26-1.787-.6 0-1.068.443-1.248.96-.048.144-.084.335-.084.527v3.586h-1.03v-3.478c0-.923-.41-1.595-1.213-1.595-.658 0-1.138.527-1.306 1.056-.06.155-.084.336-.084.516v3.5h-1.03v-4.234zM374.03 154.11c.023 1.427.935 2.015 1.99 2.015.755 0 1.212-.132 1.606-.3l.18.755c-.37.168-1.006.36-1.93.36-1.787 0-2.855-1.176-2.855-2.927s1.033-3.13 2.724-3.13c1.896 0 2.4 1.667 2.4 2.734 0 .216-.025.384-.037.49h-4.078zm3.094-.756c.012-.672-.276-1.716-1.464-1.716-1.066 0-1.535.984-1.62 1.716h3.084zM379.453 152.586c0-.6-.012-1.092-.047-1.57h.923l.047.935h.036c.323-.55.864-1.066 1.823-1.066.79 0 1.39.48 1.643 1.163h.023c.18-.324.407-.575.647-.756.348-.263.73-.406 1.283-.406.768 0 1.907.504 1.907 2.52v3.417h-1.032v-3.285c0-1.115-.407-1.787-1.26-1.787-.6 0-1.066.443-1.246.96-.048.144-.084.335-.084.527v3.586h-1.03v-3.478c0-.923-.41-1.595-1.212-1.595-.66 0-1.14.527-1.31 1.056-.058.155-.083.336-.083.516v3.5h-1.03v-4.234zM395.22 156.82l-.084-.73h-.037c-.324.455-.948.862-1.775.862-1.175 0-1.774-.827-1.774-1.667 0-1.403 1.247-2.17 3.49-2.16v-.118c0-.48-.132-1.344-1.32-1.344-.538 0-1.103.168-1.51.432l-.24-.695c.48-.312 1.176-.516 1.907-.516 1.775 0 2.207 1.21 2.207 2.374v2.17c0 .505.023.997.096 1.393h-.96zm-.156-2.962c-1.15-.024-2.46.18-2.46 1.307 0 .684.457 1.008.997 1.008.756 0 1.235-.48 1.403-.972.036-.106.06-.227.06-.335v-1.007zM397.79 152.825c0-.684-.013-1.27-.048-1.81h.923l.036 1.14h.05c.263-.78.898-1.272 1.605-1.272.12 0 .205.012.3.036v.994c-.107-.024-.216-.036-.358-.036-.744 0-1.27.563-1.416 1.355-.022.144-.047.312-.047.49v3.096h-1.044v-3.995zM403.273 149.348v1.667h1.51v.804h-1.51v3.13c0 .72.203 1.127.79 1.127.276 0 .48-.036.612-.072l.05.79c-.206.085-.53.146-.937.146-.492 0-.89-.155-1.14-.443-.3-.312-.408-.827-.408-1.51v-3.167h-.9v-.804h.9v-1.392l1.033-.276zM406.49 154.11c.023 1.427.935 2.015 1.99 2.015.755 0 1.21-.132 1.606-.3l.18.755c-.372.168-1.007.36-1.93.36-1.788 0-2.855-1.176-2.855-2.927s1.033-3.13 2.724-3.13c1.896 0 2.4 1.667 2.4 2.734 0 .216-.026.384-.038.49h-4.077zm3.094-.756c.012-.672-.276-1.716-1.464-1.716-1.067 0-1.535.984-1.62 1.716h3.084zM411.086 158.295c.264-.708.588-1.99.72-2.867l1.175-.12c-.274 1.02-.802 2.352-1.138 2.915l-.756.072zM416.797 152.586c0-.6-.012-1.092-.047-1.57h.923l.048.935h.037c.323-.55.864-1.066 1.823-1.066.79 0 1.39.48 1.643 1.163h.024c.18-.324.407-.575.647-.756.348-.263.73-.406 1.283-.406.768 0 1.907.504 1.907 2.52v3.417h-1.032v-3.285c0-1.115-.407-1.787-1.26-1.787-.6 0-1.066.443-1.246.96-.048.144-.084.335-.084.527v3.586h-1.03v-3.478c0-.923-.41-1.595-1.212-1.595-.66 0-1.14.527-1.31 1.056-.058.155-.083.336-.083.516v3.5h-1.03v-4.234zM427.392 154.11c.024 1.427.936 2.015 1.99 2.015.756 0 1.213-.132 1.607-.3l.18.755c-.372.168-1.007.36-1.93.36-1.788 0-2.856-1.176-2.856-2.927s1.032-3.13 2.723-3.13c1.896 0 2.4 1.667 2.4 2.734 0 .216-.025.384-.037.49h-4.078zm3.095-.756c.012-.672-.276-1.716-1.464-1.716-1.066 0-1.535.984-1.62 1.716h3.084zM435.47 156.82v-5h-.816v-.805h.815v-.276c0-.816.18-1.56.67-2.027.397-.384.925-.54 1.416-.54.372 0 .696.084.9.168l-.146.816c-.155-.07-.37-.132-.67-.132-.9 0-1.13.792-1.13 1.68v.312h1.405v.804h-1.404v5h-1.04zM442.08 156.82l-.085-.73h-.036c-.325.455-.948.862-1.776.862-1.175 0-1.774-.827-1.774-1.667 0-1.403 1.247-2.17 3.49-2.16v-.118c0-.48-.132-1.344-1.32-1.344-.54 0-1.103.168-1.51.432l-.24-.695c.48-.312 1.175-.516 1.907-.516 1.774 0 2.206 1.21 2.206 2.374v2.17c0 .505.024.997.097 1.393h-.96zm-.157-2.962c-1.15-.024-2.458.18-2.458 1.307 0 .684.455 1.008.995 1.008.755 0 1.235-.48 1.403-.972.035-.106.06-.227.06-.335v-1.007zM444.505 155.74c.312.203.864.42 1.392.42.768 0 1.127-.384 1.127-.864 0-.504-.3-.78-1.08-1.067-1.043-.372-1.534-.948-1.534-1.644 0-.936.755-1.703 2.003-1.703.588 0 1.104.168 1.428.36l-.264.767c-.228-.144-.647-.336-1.187-.336-.626 0-.974.36-.974.792 0 .48.348.695 1.104.983 1.008.383 1.523.887 1.523 1.75 0 1.02-.79 1.74-2.17 1.74-.637 0-1.225-.157-1.632-.397l.265-.803zM453.54 156.604c-.277.144-.89.336-1.67.336-1.75 0-2.89-1.188-2.89-2.963 0-1.787 1.225-3.082 3.12-3.082.622 0 1.175.156 1.462.3l-.24.815c-.252-.144-.646-.275-1.223-.275-1.333 0-2.052.983-2.052 2.194 0 1.343.863 2.17 2.015 2.17.6 0 .995-.156 1.296-.288l.18.792zM455.952 149.384c.013.36-.252.647-.67.647-.374 0-.638-.287-.638-.646 0-.372.276-.66.66-.66.396 0 .648.288.648.66zm-1.175 7.436v-5.805h1.055v5.805h-1.055zM457.584 152.586c0-.6-.012-1.092-.047-1.57h.936l.06.958h.024c.287-.552.96-1.09 1.918-1.09.804 0 2.05.478 2.05 2.47v3.466h-1.054v-3.346c0-.936-.347-1.716-1.343-1.716-.695 0-1.235.492-1.415 1.08-.048.132-.07.312-.07.49v3.49h-1.058v-4.232zM467.46 156.82l-.085-.73h-.036c-.324.455-.948.862-1.775.862-1.176 0-1.775-.827-1.775-1.667 0-1.403 1.247-2.17 3.49-2.16v-.118c0-.48-.133-1.344-1.32-1.344-.54 0-1.103.168-1.51.432l-.24-.695c.48-.312 1.175-.516 1.906-.516 1.775 0 2.207 1.21 2.207 2.374v2.17c0 .505.023.997.096 1.393h-.96zm-.158-2.962c-1.15-.024-2.46.18-2.46 1.307 0 .684.458 1.008.997 1.008.755 0 1.234-.48 1.402-.972.036-.106.06-.227.06-.335v-1.007zM470.028 152.586c0-.6-.012-1.092-.048-1.57h.924l.047.935h.038c.323-.55.863-1.066 1.822-1.066.792 0 1.392.48 1.644 1.163h.024c.18-.324.407-.575.646-.756.348-.263.732-.406 1.283-.406.768 0 1.908.504 1.908 2.52v3.417h-1.032v-3.285c0-1.115-.407-1.787-1.26-1.787-.6 0-1.067.443-1.247.96-.047.144-.084.335-.084.527v3.586h-1.03v-3.478c0-.923-.41-1.595-1.212-1.595-.66 0-1.14.527-1.308 1.056-.06.155-.084.336-.084.516v3.5h-1.03v-4.234zM480.96 148.604c-.276 1.008-.792 2.29-1.115 2.843l-.672.084c.252-.707.575-1.954.708-2.817l1.08-.11zm1.774 0c-.275 1.008-.79 2.29-1.115 2.843l-.673.084c.265-.707.576-1.954.71-2.817l1.077-.11z"/></g><g fill="#FFF"><path d="M484.62 153.306l5.563-2.867v.827l-4.69 2.35v.024l4.69 2.353v.827l-5.564-2.866v-.648zM490.967 157.3l3.346-8.696h.816l-3.36 8.695h-.803z"/></g><g fill="#F92672"><path d="M495.828 155.74c.312.203.863.42 1.39.42.77 0 1.128-.384 1.128-.864 0-.504-.3-.78-1.078-1.067-1.044-.372-1.535-.948-1.535-1.644 0-.936.755-1.703 2.002-1.703.588 0 1.104.168 1.428.36l-.264.767c-.23-.144-.65-.336-1.19-.336-.623 0-.97.36-.97.792 0 .48.347.695 1.103.983 1.007.383 1.522.887 1.522 1.75 0 1.02-.79 1.74-2.17 1.74-.636 0-1.224-.157-1.63-.397l.263-.803zM500.723 152.91c0-.744-.024-1.344-.048-1.896h.947l.05.995h.022c.432-.708 1.115-1.128 2.063-1.128 1.403 0 2.46 1.188 2.46 2.95 0 2.087-1.272 3.118-2.64 3.118-.768 0-1.44-.336-1.787-.91h-.023v3.153h-1.044v-6.284zm1.044 1.547c0 .155.023.3.047.432.192.73.828 1.234 1.584 1.234 1.115 0 1.763-.912 1.763-2.243 0-1.162-.61-2.158-1.727-2.158-.72 0-1.39.517-1.595 1.308-.036.132-.07.288-.07.432v.995zM510.765 156.82l-.084-.73h-.035c-.323.455-.947.862-1.774.862-1.175 0-1.774-.827-1.774-1.667 0-1.403 1.247-2.17 3.49-2.16v-.118c0-.48-.133-1.344-1.32-1.344-.54 0-1.103.168-1.51.432l-.24-.695c.48-.312 1.176-.516 1.906-.516 1.775 0 2.207 1.21 2.207 2.374v2.17c0 .505.022.997.095 1.393h-.96zm-.156-2.962c-1.15-.024-2.46.18-2.46 1.307 0 .684.457 1.008.996 1.008.756 0 1.235-.48 1.403-.972.035-.106.06-.227.06-.335v-1.007zM513.336 152.586c0-.6-.012-1.092-.05-1.57h.937l.06.958h.024c.288-.552.96-1.09 1.92-1.09.803 0 2.05.478 2.05 2.47v3.466h-1.056v-3.346c0-.936-.347-1.716-1.342-1.716-.695 0-1.235.492-1.415 1.08-.048.132-.072.312-.072.49v3.49h-1.054v-4.232z"/></g><path fill="#FFF" d="M525.476 153.965l-5.564 2.854v-.828l4.725-2.352v-.023l-4.725-2.35v-.83l5.564 2.855v.673zM184.875 167.706l5.565-2.867v.827l-4.69 2.35v.024l4.69 2.353v.827l-5.565-2.866v-.648z"/><g fill="#F92672"><path d="M191.968 170.14c.312.204.864.42 1.392.42.768 0 1.127-.383 1.127-.863 0-.504-.3-.78-1.08-1.067-1.042-.37-1.534-.947-1.534-1.643 0-.936.755-1.703 2.003-1.703.587 0 1.104.168 1.427.36l-.264.767c-.23-.143-.648-.335-1.188-.335-.624 0-.972.36-.972.792 0 .48.348.695 1.104.983 1.007.384 1.523.888 1.523 1.75 0 1.02-.792 1.74-2.17 1.74-.636 0-1.224-.156-1.632-.396l.263-.803zM196.864 167.31c0-.743-.024-1.343-.048-1.895h.947l.048.995h.025c.432-.707 1.115-1.127 2.063-1.127 1.403 0 2.46 1.188 2.46 2.95 0 2.087-1.272 3.118-2.64 3.118-.768 0-1.44-.335-1.787-.91h-.023v3.154h-1.043v-6.284zm1.043 1.548c0 .155.024.3.048.432.192.73.828 1.235 1.583 1.235 1.116 0 1.763-.912 1.763-2.243 0-1.163-.61-2.16-1.726-2.16-.72 0-1.39.518-1.595 1.31-.037.13-.073.287-.073.43v.996zM206.906 171.22l-.084-.73h-.036c-.324.455-.947.862-1.775.862-1.174 0-1.774-.827-1.774-1.667 0-1.403 1.247-2.17 3.49-2.16v-.118c0-.48-.132-1.344-1.32-1.344-.54 0-1.102.168-1.51.432l-.24-.695c.48-.312 1.176-.516 1.907-.516 1.775 0 2.207 1.21 2.207 2.374v2.17c0 .505.024.997.096 1.393h-.96zm-.156-2.962c-1.15-.024-2.46.18-2.46 1.307 0 .684.457 1.008.997 1.008.755 0 1.235-.48 1.403-.972.036-.106.06-.227.06-.335v-1.007zM209.475 166.987c0-.6-.012-1.092-.048-1.57h.936l.06.958h.024c.288-.552.96-1.09 1.92-1.09.802 0 2.05.478 2.05 2.47v3.466h-1.056v-3.345c0-.936-.347-1.716-1.342-1.716-.695 0-1.235.49-1.415 1.08-.048.13-.072.31-.072.49v3.49h-1.055v-4.233z"/></g><g fill="#7FE22E"><path d="M222.817 171.004c-.276.144-.887.336-1.667.336-1.75 0-2.89-1.188-2.89-2.963 0-1.787 1.223-3.082 3.118-3.082.624 0 1.175.156 1.463.3l-.24.815c-.25-.144-.646-.275-1.222-.275-1.332 0-2.05.983-2.05 2.194 0 1.343.863 2.17 2.014 2.17.6 0 .996-.156 1.295-.288l.18.792zM224.055 162.704h1.056v8.516h-1.055v-8.516zM230.102 171.22l-.084-.73h-.036c-.324.455-.947.862-1.775.862-1.175 0-1.775-.827-1.775-1.667 0-1.403 1.247-2.17 3.49-2.16v-.118c0-.48-.132-1.344-1.32-1.344-.54 0-1.103.168-1.51.432l-.24-.695c.48-.312 1.175-.516 1.907-.516 1.774 0 2.206 1.21 2.206 2.374v2.17c0 .505.024.997.096 1.393h-.96zm-.156-2.962c-1.15-.024-2.458.18-2.458 1.307 0 .684.456 1.008.996 1.008.755 0 1.235-.48 1.403-.972.036-.106.06-.227.06-.335v-1.007zM232.527 170.14c.312.204.864.42 1.392.42.767 0 1.126-.383 1.126-.863 0-.504-.3-.78-1.08-1.067-1.042-.37-1.534-.947-1.534-1.643 0-.936.755-1.703 2.003-1.703.587 0 1.103.168 1.427.36l-.264.767c-.228-.143-.647-.335-1.187-.335-.623 0-.97.36-.97.792 0 .48.347.695 1.103.983 1.007.384 1.523.888 1.523 1.75 0 1.02-.792 1.74-2.17 1.74-.636 0-1.224-.156-1.632-.396l.263-.803zM237.28 170.14c.31.204.863.42 1.39.42.77 0 1.128-.383 1.128-.863 0-.504-.3-.78-1.08-1.067-1.042-.37-1.534-.947-1.534-1.643 0-.936.755-1.703 2.003-1.703.587 0 1.103.168 1.427.36l-.264.767c-.228-.143-.647-.335-1.187-.335-.624 0-.972.36-.972.792 0 .48.35.695 1.105.983 1.007.384 1.523.888 1.523 1.75 0 1.02-.792 1.74-2.17 1.74-.636 0-1.224-.156-1.632-.396l.263-.803z"/></g><path fill="#FFF" d="M241.78 167.178v-.72h6.19v.72h-6.19zm0 2.35v-.72h6.19v.72h-6.19z"/><g fill="#E6DB62"><path d="M250.107 163.004l-.204 2.88h-.647l-.192-2.88h1.043zm1.787 0l-.204 2.88h-.636l-.204-2.88h1.044zM253.78 171.22v-5h-.816v-.805h.815v-.276c0-.816.18-1.56.67-2.027.397-.384.924-.54 1.416-.54.372 0 .696.084.9.168l-.145.816c-.155-.07-.37-.132-.67-.132-.9 0-1.127.792-1.127 1.68v.312h1.403v.804h-1.403v5h-1.044zM257.175 167.226c0-.684-.012-1.27-.048-1.81h.923l.036 1.14h.048c.264-.78.9-1.272 1.607-1.272.12 0 .205.012.3.036v.995c-.107-.024-.215-.036-.36-.036-.743 0-1.27.562-1.415 1.354-.024.144-.048.312-.048.49v3.096h-1.043v-3.994zM264.254 171.22l-.084-.73h-.036c-.324.455-.947.862-1.775.862-1.176 0-1.776-.827-1.776-1.667 0-1.403 1.247-2.17 3.49-2.16v-.118c0-.48-.132-1.344-1.32-1.344-.54 0-1.103.168-1.51.432l-.24-.695c.48-.312 1.175-.516 1.907-.516 1.776 0 2.208 1.21 2.208 2.374v2.17c0 .505.024.997.096 1.393h-.96zm-.157-2.962c-1.15-.024-2.458.18-2.458 1.307 0 .684.455 1.008.995 1.008.755 0 1.235-.48 1.403-.972.036-.106.06-.227.06-.335v-1.007zM266.68 170.14c.31.204.863.42 1.39.42.77 0 1.128-.383 1.128-.863 0-.504-.3-.78-1.08-1.067-1.042-.37-1.534-.947-1.534-1.643 0-.936.755-1.703 2.003-1.703.587 0 1.103.168 1.427.36l-.264.767c-.228-.143-.647-.335-1.187-.335-.624 0-.972.36-.972.792 0 .48.35.695 1.105.983 1.007.384 1.523.888 1.523 1.75 0 1.02-.792 1.74-2.17 1.74-.636 0-1.224-.156-1.632-.396l.263-.803zM272.163 168.51c.024 1.427.936 2.015 1.99 2.015.756 0 1.212-.132 1.608-.3l.18.755c-.37.168-1.006.36-1.93.36-1.787 0-2.854-1.176-2.854-2.927s1.032-3.13 2.723-3.13c1.894 0 2.398 1.667 2.398 2.734 0 .216-.024.384-.036.49h-4.08zm3.094-.756c.012-.672-.276-1.716-1.463-1.716-1.067 0-1.535.984-1.62 1.716h3.083zM278.367 163.004l-.204 2.88h-.647l-.192-2.88h1.043zm1.787 0l-.204 2.88h-.636l-.204-2.88h1.044z"/></g><g fill="#FFF"><path d="M286.87 168.365l-5.564 2.854v-.828l4.726-2.352v-.023l-4.726-2.35v-.83l5.565 2.855v.673zM295.487 167.094c0 2.782-1.69 4.258-3.754 4.258-2.135 0-3.634-1.655-3.634-4.102 0-2.566 1.594-4.246 3.753-4.246 2.206 0 3.634 1.692 3.634 4.09zm-6.273.132c0 1.728.935 3.274 2.578 3.274 1.655 0 2.59-1.523 2.59-3.358 0-1.606-.838-3.286-2.578-3.286-1.727 0-2.59 1.595-2.59 3.37zM296.81 162.704h1.056v8.516h-1.056v-8.516zM302.857 171.22l-.084-.73h-.036c-.324.455-.947.862-1.775.862-1.175 0-1.775-.827-1.775-1.667 0-1.403 1.247-2.17 3.49-2.16v-.118c0-.48-.132-1.344-1.32-1.344-.54 0-1.103.168-1.51.432l-.24-.695c.48-.312 1.175-.516 1.907-.516 1.775 0 2.207 1.21 2.207 2.374v2.17c0 .505.025.997.097 1.393h-.96zm-.157-2.962c-1.15-.024-2.458.18-2.458 1.307 0 .684.456 1.008.996 1.008.755 0 1.235-.48 1.403-.972.037-.106.06-.227.06-.335v-1.007zm.528-5.35l-1.463 1.715h-.756l1.055-1.715h1.163zM304.742 172.696c.264-.708.588-1.99.72-2.867l1.175-.12c-.276 1.02-.804 2.35-1.14 2.914l-.755.072zM310.31 170.14c.312.204.864.42 1.392.42.768 0 1.127-.383 1.127-.863 0-.504-.3-.78-1.08-1.067-1.043-.37-1.535-.947-1.535-1.643 0-.936.755-1.703 2.003-1.703.587 0 1.104.168 1.427.36l-.264.767c-.227-.143-.646-.335-1.186-.335-.624 0-.972.36-.972.792 0 .48.348.695 1.104.983 1.007.384 1.523.888 1.523 1.75 0 1.02-.793 1.74-2.172 1.74-.635 0-1.223-.156-1.63-.396l.262-.803zM320.46 168.27c0 2.146-1.488 3.082-2.89 3.082-1.572 0-2.784-1.15-2.784-2.986 0-1.942 1.27-3.082 2.878-3.082 1.668 0 2.795 1.21 2.795 2.986zm-4.607.06c0 1.27.732 2.23 1.763 2.23 1.007 0 1.763-.948 1.763-2.255 0-.983-.493-2.23-1.74-2.23-1.247 0-1.787 1.15-1.787 2.254zM326.65 169.637c0 .6.013 1.127.05 1.583h-.937l-.06-.947h-.024c-.277.468-.888 1.08-1.92 1.08-.91 0-2.003-.505-2.003-2.544v-3.395h1.056v3.214c0 1.103.336 1.847 1.295 1.847.708 0 1.2-.492 1.39-.96.06-.156.097-.348.097-.54v-3.562h1.056v4.222zM330.986 163.244c.527-.108 1.283-.168 2.003-.168 1.114 0 1.834.204 2.337.66.408.36.636.91.636 1.534 0 1.068-.67 1.775-1.523 2.063v.036c.624.215.995.79 1.187 1.63.264 1.127.456 1.907.624 2.22h-1.08c-.13-.23-.31-.925-.54-1.932-.24-1.115-.67-1.535-1.618-1.57h-.983v3.5h-1.044v-7.974zm1.043 3.682h1.066c1.115 0 1.823-.61 1.823-1.535 0-1.042-.756-1.498-1.86-1.51-.504 0-.863.048-1.03.096v2.95zM342.706 168.27c0 2.146-1.487 3.082-2.89 3.082-1.57 0-2.783-1.15-2.783-2.986 0-1.942 1.27-3.082 2.878-3.082 1.67 0 2.796 1.21 2.796 2.986zm-4.605.06c0 1.27.733 2.23 1.764 2.23 1.007 0 1.763-.948 1.763-2.255 0-.983-.492-2.23-1.74-2.23-1.246 0-1.786 1.15-1.786 2.254zM344.04 166.987c0-.6-.01-1.092-.047-1.57h.936l.06.958h.023c.288-.552.96-1.09 1.92-1.09.802 0 2.05.478 2.05 2.47v3.466h-1.056v-3.345c0-.936-.348-1.716-1.343-1.716-.695 0-1.235.49-1.415 1.08-.05.13-.073.31-.073.49v3.49h-1.056v-4.233zM353.916 171.22l-.084-.73h-.036c-.323.455-.947.862-1.775.862-1.174 0-1.774-.827-1.774-1.667 0-1.403 1.247-2.17 3.49-2.16v-.118c0-.48-.133-1.344-1.32-1.344-.54 0-1.103.168-1.51.432l-.24-.695c.48-.312 1.175-.516 1.906-.516 1.775 0 2.207 1.21 2.207 2.374v2.17c0 .505.022.997.095 1.393h-.96zm-.156-2.962c-1.15-.024-2.458.18-2.458 1.307 0 .684.456 1.008.996 1.008.756 0 1.235-.48 1.403-.972.037-.106.06-.227.06-.335v-1.007zM356.485 162.704h1.056v8.516h-1.055v-8.516zM364.33 162.704v7.017c0 .517.013 1.105.05 1.5h-.948l-.05-1.008h-.022c-.324.648-1.03 1.14-1.98 1.14-1.403 0-2.482-1.188-2.482-2.95-.012-1.93 1.188-3.118 2.603-3.118.89 0 1.488.42 1.753.888h.023v-3.467h1.054zm-1.055 5.074c0-.132-.012-.312-.05-.443-.154-.672-.73-1.224-1.52-1.224-1.092 0-1.74.96-1.74 2.244 0 1.175.576 2.146 1.715 2.146.708 0 1.355-.468 1.547-1.26.037-.144.05-.287.05-.455v-1.007zM371.338 168.27c0 2.146-1.486 3.082-2.89 3.082-1.57 0-2.782-1.15-2.782-2.986 0-1.942 1.27-3.082 2.878-3.082 1.667 0 2.794 1.21 2.794 2.986zm-4.606.06c0 1.27.732 2.23 1.764 2.23 1.008 0 1.764-.948 1.764-2.255 0-.983-.492-2.23-1.74-2.23-1.247 0-1.788 1.15-1.788 2.254zM382.065 167.67c-.06-1.128-.132-2.482-.12-3.49h-.035c-.276.947-.612 1.955-1.02 3.07l-1.428 3.922h-.79l-1.31-3.85c-.383-1.14-.707-2.184-.935-3.143h-.024c-.023 1.007-.084 2.36-.156 3.573l-.215 3.466h-.996l.564-8.085h1.33l1.38 3.91c.336.995.612 1.883.815 2.723h.036c.205-.815.492-1.703.853-2.723l1.44-3.91h1.33l.504 8.084h-1.02l-.202-3.55zM388.15 171.22l-.083-.73h-.036c-.323.455-.946.862-1.774.862-1.175 0-1.774-.827-1.774-1.667 0-1.403 1.247-2.17 3.49-2.16v-.118c0-.48-.132-1.344-1.32-1.344-.54 0-1.103.168-1.51.432l-.24-.695c.48-.312 1.175-.516 1.907-.516 1.773 0 2.205 1.21 2.205 2.374v2.17c0 .505.024.997.097 1.393h-.96zm-.154-2.962c-1.152-.024-2.46.18-2.46 1.307 0 .684.456 1.008.996 1.008.755 0 1.235-.48 1.403-.972.035-.106.06-.227.06-.335v-1.007zM394.858 171.004c-.276.144-.888.336-1.667.336-1.75 0-2.89-1.188-2.89-2.963 0-1.787 1.224-3.082 3.12-3.082.622 0 1.174.156 1.462.3l-.24.815c-.252-.144-.647-.275-1.223-.275-1.333 0-2.053.983-2.053 2.194 0 1.343.864 2.17 2.015 2.17.6 0 .996-.156 1.296-.288l.18.792zM397.27 163.784c.014.36-.25.647-.67.647-.372 0-.636-.287-.636-.646 0-.372.275-.66.66-.66.395 0 .647.288.647.66zm-1.174 7.436v-5.805h1.056v5.805h-1.056zM399.492 168.51c.024 1.427.936 2.015 1.99 2.015.756 0 1.213-.132 1.607-.3l.18.755c-.372.168-1.007.36-1.93.36-1.788 0-2.856-1.176-2.856-2.927s1.032-3.13 2.723-3.13c1.896 0 2.4 1.667 2.4 2.734 0 .216-.025.384-.037.49h-4.078zm3.095-.756c.012-.672-.276-1.716-1.464-1.716-1.066 0-1.535.984-1.62 1.716h3.084zM404.916 162.704h1.057v8.516h-1.057v-8.516zM410.328 163.136h4.354v.876h-3.31v2.687h3.058v.862h-3.058v3.658h-1.044v-8.084zM415.824 167.226c0-.684-.012-1.27-.047-1.81h.923l.036 1.14h.048c.264-.78.9-1.272 1.606-1.272.12 0 .205.012.3.036v.995c-.107-.024-.216-.036-.358-.036-.744 0-1.27.562-1.416 1.354-.023.144-.048.312-.048.49v3.096h-1.044v-3.994zM424.882 168.27c0 2.146-1.487 3.082-2.89 3.082-1.572 0-2.783-1.15-2.783-2.986 0-1.942 1.27-3.082 2.878-3.082 1.667 0 2.794 1.21 2.794 2.986zm-4.606.06c0 1.27.73 2.23 1.763 2.23 1.007 0 1.763-.948 1.763-2.255 0-.983-.492-2.23-1.74-2.23s-1.787 1.15-1.787 2.254zM426.217 166.987c0-.6-.012-1.092-.048-1.57h.935l.06.958h.024c.287-.552.96-1.09 1.918-1.09.803 0 2.05.478 2.05 2.47v3.466h-1.055v-3.345c0-.936-.348-1.716-1.343-1.716-.695 0-1.236.49-1.416 1.08-.047.13-.07.31-.07.49v3.49h-1.057v-4.233zM434.1 163.748v1.667h1.51v.804h-1.51v3.13c0 .72.203 1.127.79 1.127.277 0 .48-.036.613-.072l.047.79c-.203.085-.527.146-.936.146-.49 0-.887-.155-1.14-.443-.3-.312-.407-.827-.407-1.51v-3.167h-.9v-.804h.9v-1.392l1.032-.276zM439.187 167.586v.78h-2.963v-.78h2.963zM444.646 167.43h-3.143v2.914h3.502v.876h-4.545v-8.084h4.365v.876h-3.322v2.555h3.143v.863zM446.328 166.987c0-.6-.012-1.092-.048-1.57h.936l.06.958h.024c.288-.552.96-1.09 1.92-1.09.802 0 2.05.478 2.05 2.47v3.466h-1.056v-3.345c0-.936-.348-1.716-1.343-1.716-.694 0-1.235.49-1.415 1.08-.047.13-.07.31-.07.49v3.49h-1.057v-4.233zM458.002 162.704v7.017c0 .517.012 1.105.047 1.5h-.948l-.047-1.008h-.024c-.323.648-1.03 1.14-1.978 1.14-1.402 0-2.482-1.188-2.482-2.95-.012-1.93 1.188-3.118 2.603-3.118.888 0 1.487.42 1.75.888h.025v-3.467h1.054zm-1.056 5.074c0-.132-.013-.312-.048-.443-.156-.672-.732-1.224-1.523-1.224-1.092 0-1.74.96-1.74 2.244 0 1.175.576 2.146 1.717 2.146.707 0 1.354-.468 1.547-1.26.034-.144.047-.287.047-.455v-1.007zM467.397 171.22c-.228-.228-.444-.456-.755-.792-.696.648-1.477.924-2.363.924-1.572 0-2.483-1.056-2.483-2.267 0-1.104.66-1.86 1.583-2.362v-.036c-.42-.528-.672-1.115-.672-1.69 0-.984.708-1.992 2.05-1.992 1.01 0 1.788.672 1.788 1.716 0 .853-.49 1.523-1.774 2.16v.035c.684.792 1.45 1.68 1.967 2.255.37-.563.622-1.344.778-2.363h.96c-.216 1.27-.564 2.28-1.164 2.987.432.455.852.91 1.33 1.427h-1.247zm-1.27-1.392c-.48-.527-1.38-1.51-2.28-2.542-.43.275-1.042.79-1.042 1.643 0 .923.684 1.63 1.654 1.63.694 0 1.282-.312 1.667-.732zm-2.46-4.928c0 .575.265 1.02.612 1.45.814-.467 1.343-.898 1.343-1.582 0-.492-.276-1.044-.936-1.044-.672 0-1.02.552-1.02 1.176zM473.027 171.22l-2.05-8.084h1.103l.96 4.09c.24 1.008.455 2.016.6 2.795h.022c.133-.803.385-1.762.66-2.806l1.08-4.078h1.09l.984 4.103c.23.958.443 1.918.564 2.77h.023c.168-.888.396-1.787.647-2.795l1.067-4.078h1.067l-2.29 8.084h-1.092l-1.02-4.21c-.252-1.03-.42-1.82-.527-2.638h-.024c-.143.804-.322 1.596-.623 2.64l-1.15 4.21h-1.09zM482.015 168.51c.024 1.427.936 2.015 1.99 2.015.756 0 1.213-.132 1.607-.3l.18.755c-.37.168-1.006.36-1.93.36-1.787 0-2.855-1.176-2.855-2.927s1.032-3.13 2.723-3.13c1.896 0 2.4 1.667 2.4 2.734 0 .216-.025.384-.037.49h-4.078zm3.095-.756c.012-.672-.276-1.716-1.464-1.716-1.066 0-1.535.984-1.62 1.716h3.084zM487.392 171.22c.023-.396.047-.983.047-1.5v-7.016h1.043v3.646h.024c.37-.647 1.043-1.067 1.98-1.067 1.438 0 2.458 1.2 2.446 2.962 0 2.075-1.31 3.106-2.604 3.106-.84 0-1.512-.322-1.944-1.09h-.035l-.047.96h-.91zm1.09-2.327c0 .133.025.265.05.384.203.732.815 1.235 1.583 1.235 1.103 0 1.762-.9 1.762-2.23 0-1.163-.6-2.16-1.727-2.16-.72 0-1.39.493-1.607 1.297-.023.12-.06.263-.06.43v1.043zM496.847 163.244c.636-.096 1.39-.168 2.22-.168 1.498 0 2.565.348 3.272 1.008.72.66 1.14 1.595 1.14 2.902 0 1.32-.408 2.398-1.164 3.142-.756.756-2.003 1.164-3.574 1.164-.743 0-1.367-.036-1.895-.097v-7.95zm1.043 7.15c.264.047.648.06 1.056.06 2.23 0 3.442-1.248 3.442-3.43.012-1.908-1.067-3.12-3.274-3.12-.54 0-.947.05-1.224.108v6.38zM505.44 168.51c.022 1.427.935 2.015 1.99 2.015.755 0 1.21-.132 1.606-.3l.18.755c-.37.168-1.007.36-1.93.36-1.788 0-2.855-1.176-2.855-2.927s1.032-3.13 2.724-3.13c1.895 0 2.398 1.667 2.398 2.734 0 .216-.023.384-.035.49h-4.078zm3.093-.756c.012-.672-.275-1.716-1.463-1.716-1.067 0-1.535.984-1.62 1.716h3.083zM510.72 170.14c.312.204.863.42 1.392.42.768 0 1.127-.383 1.127-.863 0-.504-.302-.78-1.08-1.067-1.044-.37-1.536-.947-1.536-1.643 0-.936.756-1.703 2.004-1.703.587 0 1.104.168 1.427.36l-.265.767c-.227-.143-.646-.335-1.187-.335-.624 0-.972.36-.972.792 0 .48.35.695 1.105.983 1.008.384 1.523.888 1.523 1.75 0 1.02-.792 1.74-2.172 1.74-.635 0-1.223-.156-1.63-.396l.263-.803zM516.79 163.784c.013.36-.25.647-.67.647-.373 0-.637-.287-.637-.646 0-.372.276-.66.66-.66.396 0 .648.288.648.66zm-1.175 7.436v-5.805h1.056v5.805h-1.055zM523.425 165.415c-.024.42-.048.888-.048 1.595v3.37c0 1.332-.264 2.147-.828 2.65-.564.528-1.38.696-2.11.696-.697 0-1.465-.168-1.932-.48l.264-.803c.383.24.982.455 1.703.455 1.08 0 1.87-.563 1.87-2.026v-.647h-.023c-.323.54-.948.97-1.847.97-1.44 0-2.47-1.222-2.47-2.83 0-1.966 1.282-3.08 2.613-3.08 1.007 0 1.56.526 1.812 1.006h.023l.048-.874h.925zm-1.092 2.29c0-.18-.012-.335-.06-.48-.19-.61-.708-1.114-1.476-1.114-1.007 0-1.728.853-1.728 2.196 0 1.14.575 2.087 1.715 2.087.647 0 1.235-.408 1.464-1.08.058-.18.082-.384.082-.563v-1.044zM525.058 166.987c0-.6-.012-1.092-.047-1.57h.937l.06.958h.024c.288-.552.96-1.09 1.92-1.09.803 0 2.05.478 2.05 2.47v3.466h-1.055v-3.345c0-.936-.348-1.716-1.344-1.716-.694 0-1.234.49-1.414 1.08-.048.13-.07.31-.07.49v3.49h-1.058v-4.233zM532.306 168.51c.024 1.427.936 2.015 1.99 2.015.756 0 1.213-.132 1.607-.3l.18.755c-.37.168-1.006.36-1.93.36-1.787 0-2.855-1.176-2.855-2.927s1.032-3.13 2.723-3.13c1.897 0 2.4 1.667 2.4 2.734 0 .216-.024.384-.036.49h-4.078zm3.095-.756c.013-.672-.275-1.716-1.463-1.716-1.066 0-1.535.984-1.62 1.716h3.084zM537.73 167.226c0-.684-.012-1.27-.047-1.81h.923l.036 1.14h.048c.264-.78.9-1.272 1.606-1.272.12 0 .205.012.3.036v.995c-.107-.024-.216-.036-.358-.036-.744 0-1.27.562-1.416 1.354-.023.144-.048.312-.048.49v3.096h-1.044v-3.994zM541.57 167.706l5.565-2.867v.827l-4.69 2.35v.024l4.69 2.353v.827l-5.565-2.866v-.648zM547.92 171.7l3.346-8.696h.815l-3.357 8.695h-.804z"/></g><g fill="#F92672"><path d="M554.052 170.14c.313.204.863.42 1.392.42.768 0 1.127-.383 1.127-.863 0-.504-.3-.78-1.078-1.067-1.043-.37-1.535-.947-1.535-1.643 0-.936.756-1.703 2.003-1.703.587 0 1.104.168 1.427.36l-.264.767c-.228-.143-.647-.335-1.188-.335-.623 0-.97.36-.97.792 0 .48.347.695 1.103.983 1.007.384 1.522.888 1.522 1.75 0 1.02-.792 1.74-2.17 1.74-.636 0-1.224-.156-1.632-.396l.264-.803zM558.95 167.31c0-.743-.025-1.343-.05-1.895h.947l.05.995h.022c.43-.707 1.114-1.127 2.062-1.127 1.404 0 2.46 1.188 2.46 2.95 0 2.087-1.272 3.118-2.64 3.118-.768 0-1.44-.335-1.787-.91h-.023v3.154h-1.043v-6.284zm1.042 1.548c0 .155.023.3.048.432.192.73.827 1.235 1.583 1.235 1.115 0 1.764-.912 1.764-2.243 0-1.163-.612-2.16-1.728-2.16-.72 0-1.393.518-1.596 1.31-.036.13-.072.287-.072.43v.996zM568.99 171.22l-.084-.73h-.035c-.323.455-.946.862-1.774.862-1.176 0-1.775-.827-1.775-1.667 0-1.403 1.25-2.17 3.49-2.16v-.118c0-.48-.13-1.344-1.318-1.344-.54 0-1.103.168-1.51.432l-.24-.695c.48-.312 1.175-.516 1.906-.516 1.774 0 2.206 1.21 2.206 2.374v2.17c0 .505.024.997.097 1.393h-.96zm-.155-2.962c-1.15-.024-2.46.18-2.46 1.307 0 .684.457 1.008.996 1.008.757 0 1.237-.48 1.405-.972.035-.106.06-.227.06-.335v-1.007zM571.56 166.987c0-.6-.012-1.092-.048-1.57h.936l.06.958h.024c.288-.552.96-1.09 1.92-1.09.802 0 2.05.478 2.05 2.47v3.466h-1.056v-3.345c0-.936-.348-1.716-1.343-1.716-.695 0-1.236.49-1.416 1.08-.047.13-.07.31-.07.49v3.49h-1.057v-4.233z"/></g><path fill="#FFF" d="M583.703 168.365l-5.565 2.854v-.828l4.726-2.352v-.023l-4.726-2.35v-.83l5.565 2.855v.673z"/><g fill="#FFF"><path d="M170.875 182.107l5.565-2.867v.828l-4.69 2.35v.024l4.69 2.352v.827l-5.565-2.865v-.648zM177.223 186.1l3.346-8.695h.815l-3.358 8.695h-.804z"/></g><g fill="#F92672"><path d="M182.227 177.105h1.056v3.622h.024c.168-.3.432-.563.755-.743.312-.18.684-.3 1.08-.3.78 0 2.027.48 2.027 2.482v3.454h-1.057v-3.334c0-.936-.348-1.728-1.343-1.728-.684 0-1.223.48-1.415 1.056-.06.144-.072.3-.072.504v3.502h-1.056v-8.515zM188.552 185.62v-.647l.828-.804c1.99-1.896 2.89-2.903 2.902-4.08 0-.79-.384-1.52-1.547-1.52-.708 0-1.295.358-1.655.658l-.336-.743c.54-.456 1.308-.792 2.207-.792 1.68 0 2.388 1.15 2.388 2.267 0 1.44-1.043 2.603-2.687 4.186l-.623.576v.023h3.502v.876h-4.978z"/></g><path fill="#FFF" d="M200.523 182.766l-5.565 2.854v-.827l4.726-2.352v-.022l-4.726-2.35v-.83l5.565 2.855v.673zM170.875 196.506l5.565-2.867v.827l-4.69 2.35v.024l4.69 2.353v.827l-5.565-2.866v-.648z"/><path fill="#F92672" d="M181.326 200.02l-.084-.73h-.036c-.324.455-.947.862-1.775.862-1.174 0-1.774-.827-1.774-1.667 0-1.403 1.247-2.17 3.49-2.16v-.118c0-.48-.132-1.344-1.32-1.344-.54 0-1.103.168-1.51.432l-.24-.695c.48-.312 1.175-.516 1.907-.516 1.775 0 2.207 1.21 2.207 2.374v2.17c0 .505.024.997.096 1.393h-.96zm-.156-2.962c-1.15-.024-2.458.18-2.458 1.307 0 .684.456 1.008.996 1.008.755 0 1.235-.48 1.403-.972.037-.106.06-.227.06-.335v-1.007z"/><g fill="#7FE22E"><path d="M190.576 199.804c-.276.144-.887.336-1.667.336-1.752 0-2.892-1.188-2.892-2.963 0-1.787 1.224-3.082 3.12-3.082.623 0 1.174.156 1.462.3l-.24.815c-.252-.144-.647-.275-1.223-.275-1.332 0-2.05.983-2.05 2.194 0 1.343.863 2.17 2.014 2.17.6 0 .997-.156 1.296-.288l.18.792zM191.814 191.504h1.056v8.516h-1.056v-8.516zM197.86 200.02l-.083-.73h-.036c-.323.455-.946.862-1.774.862-1.175 0-1.775-.827-1.775-1.667 0-1.403 1.248-2.17 3.49-2.16v-.118c0-.48-.13-1.344-1.318-1.344-.54 0-1.104.168-1.51.432l-.24-.695c.48-.312 1.174-.516 1.906-.516 1.775 0 2.207 1.21 2.207 2.374v2.17c0 .505.024.997.096 1.393h-.96zm-.156-2.962c-1.15-.024-2.458.18-2.458 1.307 0 .684.456 1.008.996 1.008.755 0 1.235-.48 1.403-.972.036-.106.06-.227.06-.335v-1.007zM200.286 198.94c.312.204.864.42 1.392.42.768 0 1.127-.383 1.127-.863 0-.504-.3-.78-1.08-1.067-1.042-.37-1.534-.947-1.534-1.643 0-.936.756-1.703 2.004-1.703.587 0 1.103.168 1.427.36l-.263.767c-.228-.143-.647-.335-1.187-.335-.624 0-.972.36-.972.792 0 .48.348.695 1.104.983 1.007.384 1.523.888 1.523 1.75 0 1.02-.792 1.74-2.17 1.74-.636 0-1.224-.156-1.632-.396l.263-.803zM205.038 198.94c.312.204.864.42 1.392.42.768 0 1.127-.383 1.127-.863 0-.504-.3-.78-1.08-1.067-1.042-.37-1.534-.947-1.534-1.643 0-.936.755-1.703 2.003-1.703.587 0 1.103.168 1.427.36l-.264.767c-.23-.143-.648-.335-1.188-.335-.624 0-.972.36-.972.792 0 .48.348.695 1.104.983 1.007.384 1.523.888 1.523 1.75 0 1.02-.792 1.74-2.17 1.74-.636 0-1.224-.156-1.632-.396l.263-.803z"/></g><path fill="#FFF" d="M209.54 195.978v-.72h6.188v.72h-6.19zm0 2.35v-.72h6.188v.72h-6.19z"/><g fill="#E6DB62"><path d="M217.866 191.804l-.204 2.88h-.647l-.192-2.88h1.043zm1.787 0l-.204 2.88h-.637l-.204-2.88h1.043zM221.082 200.02c.024-.396.048-.983.048-1.5v-7.016h1.043v3.646h.024c.372-.647 1.043-1.067 1.98-1.067 1.438 0 2.457 1.2 2.446 2.962 0 2.075-1.308 3.106-2.603 3.106-.84 0-1.51-.322-1.943-1.09h-.036l-.047.96h-.91zm1.092-2.327c0 .133.024.265.048.384.204.732.815 1.235 1.583 1.235 1.104 0 1.763-.9 1.763-2.23 0-1.163-.6-2.16-1.727-2.16-.72 0-1.39.493-1.606 1.297-.024.12-.06.263-.06.43v1.043zM232.815 198.437c0 .6.012 1.127.048 1.583h-.936l-.06-.947h-.024c-.276.468-.887 1.08-1.92 1.08-.91 0-2.002-.505-2.002-2.544v-3.395h1.057v3.214c0 1.103.336 1.847 1.295 1.847.708 0 1.2-.492 1.39-.96.06-.156.097-.348.097-.54v-3.562h1.055v4.222zM235.84 192.548v1.667h1.512v.804h-1.51v3.13c0 .72.203 1.127.79 1.127.277 0 .48-.036.612-.072l.048.79c-.204.085-.528.146-.936.146-.492 0-.888-.155-1.14-.443-.3-.312-.408-.827-.408-1.51v-3.167h-.9v-.804h.9v-1.392l1.033-.276zM239.813 192.548v1.667h1.51v.804h-1.51v3.13c0 .72.204 1.127.792 1.127.276 0 .48-.036.612-.072l.048.79c-.204.085-.528.146-.936.146-.493 0-.89-.155-1.14-.443-.3-.312-.41-.827-.41-1.51v-3.167h-.898v-.804h.9v-1.392l1.03-.276zM247.695 197.07c0 2.146-1.487 3.082-2.89 3.082-1.57 0-2.783-1.15-2.783-2.986 0-1.942 1.27-3.082 2.878-3.082 1.668 0 2.795 1.21 2.795 2.986zm-4.606.06c0 1.27.73 2.23 1.762 2.23 1.007 0 1.763-.948 1.763-2.255 0-.983-.492-2.23-1.74-2.23-1.246 0-1.786 1.15-1.786 2.254zM249.03 195.786c0-.6-.012-1.092-.048-1.57h.936l.06.958h.024c.288-.552.96-1.09 1.92-1.09.802 0 2.05.478 2.05 2.47v3.466h-1.056v-3.346c0-.936-.348-1.716-1.343-1.716-.695 0-1.235.492-1.415 1.08-.048.132-.072.312-.072.49v3.49h-1.056v-4.232zM256.385 191.804l-.204 2.88h-.646l-.192-2.88h1.043zm1.787 0l-.204 2.88h-.636l-.204-2.88h1.044z"/></g><g fill="#F92672"><path d="M262.35 191.504h1.056v3.622h.024c.168-.3.432-.563.755-.743.312-.18.684-.3 1.08-.3.78 0 2.027.48 2.027 2.482v3.454h-1.056v-3.335c0-.936-.348-1.728-1.343-1.728-.684 0-1.223.48-1.415 1.056-.06.144-.072.3-.072.504v3.502h-1.056v-8.516zM269.01 196.026c0-.684-.012-1.27-.048-1.81h.923l.036 1.14h.05c.263-.78.898-1.272 1.606-1.272.12 0 .204.012.3.036v.995c-.108-.024-.216-.036-.36-.036-.744 0-1.27.562-1.416 1.354-.024.144-.048.312-.048.49v3.096h-1.043v-3.994zM273.402 197.31c.024 1.427.935 2.015 1.99 2.015.756 0 1.212-.132 1.608-.3l.18.755c-.372.168-1.007.36-1.93.36-1.788 0-2.855-1.176-2.855-2.927s1.032-3.13 2.723-3.13c1.895 0 2.4 1.667 2.4 2.734 0 .216-.025.384-.037.49h-4.078zm3.094-.756c.012-.672-.276-1.716-1.463-1.716-1.067 0-1.535.984-1.62 1.716h3.083zM278.934 200.02v-5h-.815v-.805h.814v-.276c0-.816.18-1.56.672-2.027.396-.384.923-.54 1.415-.54.373 0 .697.084.9.168l-.144.816c-.156-.07-.372-.132-.67-.132-.9 0-1.128.792-1.128 1.68v.312h1.403v.804h-1.402v5h-1.044z"/></g><path fill="#FFF" d="M282.053 195.978v-.72h6.19v.72h-6.19zm0 2.35v-.72h6.19v.72h-6.19z"/><g fill="#E6DB62"><path d="M290.38 191.804l-.203 2.88h-.647l-.192-2.88h1.043zm1.788 0l-.204 2.88h-.636l-.204-2.88h1.044zM293.885 200.02l.312-2.35h-.983v-.71h1.09l.23-1.737H293.5v-.708h1.14l.313-2.29h.696l-.3 2.29h1.246l.312-2.29h.708l-.3 2.29h.983v.708h-1.092l-.216 1.738h1.03v.71h-1.138l-.312 2.35h-.72l.313-2.35h-1.247l-.312 2.35h-.72zm2.387-3.06l.228-1.737h-1.248l-.228 1.738h1.248zM299.61 196.11c0-.743-.025-1.343-.05-1.895h.948l.048.995h.024c.432-.707 1.115-1.127 2.063-1.127 1.403 0 2.46 1.188 2.46 2.95 0 2.087-1.272 3.118-2.64 3.118-.768 0-1.44-.335-1.787-.91h-.024v3.154h-1.043v-6.284zm1.043 1.547c0 .155.024.3.048.432.193.73.83 1.234 1.584 1.234 1.116 0 1.763-.912 1.763-2.243 0-1.162-.612-2.158-1.727-2.158-.72 0-1.39.517-1.595 1.308-.036.132-.072.288-.072.432v.995zM311.69 197.07c0 2.146-1.487 3.082-2.89 3.082-1.57 0-2.783-1.15-2.783-2.986 0-1.942 1.27-3.082 2.878-3.082 1.668 0 2.795 1.21 2.795 2.986zm-4.606.06c0 1.27.732 2.23 1.763 2.23 1.007 0 1.763-.948 1.763-2.255 0-.983-.492-2.23-1.74-2.23-1.246 0-1.786 1.15-1.786 2.254zM313.025 196.026c0-.684-.012-1.27-.048-1.81h.923l.036 1.14h.048c.264-.78.9-1.272 1.607-1.272.12 0 .205.012.3.036v.995c-.107-.024-.215-.036-.36-.036-.743 0-1.27.562-1.415 1.354-.024.144-.048.312-.048.49v3.096h-1.043v-3.994zM318.508 192.548v1.667h1.51v.804h-1.51v3.13c0 .72.204 1.127.792 1.127.276 0 .48-.036.612-.072l.048.79c-.204.085-.528.146-.936.146-.492 0-.888-.155-1.14-.443-.3-.312-.408-.827-.408-1.51v-3.167h-.9v-.804h.9v-1.392l1.032-.276zM321.317 200.02v-5h-.815v-.805h.815v-.276c0-.816.18-1.56.672-2.027.395-.384.922-.54 1.414-.54.372 0 .696.084.9.168l-.145.816c-.157-.07-.373-.132-.672-.132-.9 0-1.127.792-1.127 1.68v.312h1.404v.804h-1.403v5h-1.043zM329.81 197.07c0 2.146-1.487 3.082-2.89 3.082-1.57 0-2.783-1.15-2.783-2.986 0-1.942 1.27-3.082 2.878-3.082 1.668 0 2.795 1.21 2.795 2.986zm-4.606.06c0 1.27.732 2.23 1.763 2.23 1.007 0 1.763-.948 1.763-2.255 0-.983-.492-2.23-1.74-2.23-1.246 0-1.786 1.15-1.786 2.254zM331.145 191.504h1.056v8.516h-1.055v-8.516zM335.152 192.584c.012.36-.252.647-.67.647-.373 0-.637-.287-.637-.646 0-.372.276-.66.66-.66.395 0 .647.288.647.66zm-1.176 7.436v-5.805h1.056v5.805h-1.056zM342.037 197.07c0 2.146-1.487 3.082-2.89 3.082-1.57 0-2.783-1.15-2.783-2.986 0-1.942 1.27-3.082 2.878-3.082 1.668 0 2.795 1.21 2.795 2.986zm-4.605.06c0 1.27.732 2.23 1.763 2.23 1.007 0 1.763-.948 1.763-2.255 0-.983-.492-2.23-1.74-2.23-1.246 0-1.786 1.15-1.786 2.254z"/></g><path fill="#F92672" d="M344.02 191.804l-.204 2.88h-.647l-.193-2.88h1.043zm1.787 0l-.204 2.88h-.636l-.204-2.88h1.044z"/><path fill="#FFF" d="M352.764 197.165l-5.565 2.854v-.828l4.725-2.352v-.023l-4.726-2.35v-.83l5.564 2.855v.673z"/><g fill="#FFF"><path d="M358.792 200.02l-2.64-8.084h1.128l1.26 3.982c.347 1.09.647 2.074.863 3.022h.024c.228-.936.563-1.955.923-3.01l1.367-3.995h1.116l-2.89 8.084h-1.15zM363.87 197.31c.023 1.427.935 2.015 1.99 2.015.755 0 1.21-.132 1.607-.3l.18.755c-.372.168-1.007.36-1.93.36-1.788 0-2.855-1.176-2.855-2.927s1.032-3.13 2.723-3.13c1.895 0 2.4 1.667 2.4 2.734 0 .216-.025.384-.037.49h-4.08zm3.093-.756c.012-.672-.276-1.716-1.463-1.716-1.067 0-1.535.984-1.62 1.716h3.083zM367.878 201.698c.48-.035.9-.168 1.15-.443.29-.336.397-.792.397-2.183v-4.857h1.056v5.265c0 1.128-.18 1.86-.695 2.387-.468.468-1.235.66-1.8.66l-.107-.83zm2.722-9.114c.012.348-.24.647-.66.647-.396 0-.647-.3-.647-.646 0-.372.276-.66.672-.66.383 0 .635.288.635.66zM375.424 200.02l-.084-.73h-.037c-.323.455-.947.862-1.774.862-1.176 0-1.776-.827-1.776-1.667 0-1.403 1.247-2.17 3.49-2.16v-.118c0-.48-.132-1.344-1.32-1.344-.54 0-1.102.168-1.51.432l-.24-.695c.48-.312 1.176-.516 1.907-.516 1.776 0 2.208 1.21 2.208 2.374v2.17c0 .505.023.997.096 1.393h-.96zm-.157-2.962c-1.15-.024-2.46.18-2.46 1.307 0 .684.457 1.008.997 1.008.755 0 1.235-.48 1.403-.972.036-.106.06-.227.06-.335v-1.007zM380.537 195.786c0-.6-.013-1.092-.05-1.57h.925l.048.935h.036c.324-.55.863-1.066 1.823-1.066.79 0 1.39.48 1.643 1.163h.023c.18-.324.408-.575.647-.756.348-.263.73-.406 1.283-.406.768 0 1.907.504 1.907 2.52v3.417h-1.03v-3.285c0-1.115-.41-1.787-1.26-1.787-.6 0-1.068.443-1.248.96-.048.144-.084.335-.084.527v3.586h-1.03v-3.478c0-.923-.408-1.595-1.212-1.595-.66 0-1.14.527-1.307 1.056-.06.155-.083.336-.083.516v3.5h-1.03v-4.234zM391.133 197.31c.023 1.427.936 2.015 1.99 2.015.756 0 1.212-.132 1.607-.3l.18.755c-.37.168-1.007.36-1.93.36-1.788 0-2.855-1.176-2.855-2.927s1.03-3.13 2.723-3.13c1.895 0 2.398 1.667 2.398 2.734 0 .216-.023.384-.035.49h-4.077zm3.093-.756c.012-.672-.275-1.716-1.463-1.716-1.067 0-1.535.984-1.62 1.716h3.083zM401.414 198.437c0 .6.012 1.127.048 1.583h-.936l-.06-.947h-.024c-.276.468-.888 1.08-1.92 1.08-.91 0-2.002-.505-2.002-2.544v-3.395h1.056v3.214c0 1.103.336 1.847 1.295 1.847.71 0 1.2-.492 1.393-.96.06-.156.096-.348.096-.54v-3.562h1.055v4.222zM405.713 196.11c0-.743-.024-1.343-.05-1.895h.948l.05.995h.023c.432-.707 1.115-1.127 2.063-1.127 1.404 0 2.46 1.188 2.46 2.95 0 2.087-1.272 3.118-2.64 3.118-.768 0-1.44-.335-1.787-.91h-.024v3.154h-1.043v-6.284zm1.043 1.547c0 .155.023.3.048.432.192.73.827 1.234 1.583 1.234 1.115 0 1.764-.912 1.764-2.243 0-1.162-.61-2.158-1.727-2.158-.72 0-1.392.517-1.595 1.308-.036.132-.072.288-.072.432v.995zM417.793 197.07c0 2.146-1.486 3.082-2.89 3.082-1.57 0-2.782-1.15-2.782-2.986 0-1.942 1.272-3.082 2.88-3.082 1.666 0 2.793 1.21 2.793 2.986zm-4.606.06c0 1.27.732 2.23 1.764 2.23 1.01 0 1.765-.948 1.765-2.255 0-.983-.492-2.23-1.74-2.23-1.247 0-1.788 1.15-1.788 2.254zM419.13 196.026c0-.684-.014-1.27-.05-1.81h.924l.036 1.14h.048c.264-.78.9-1.272 1.607-1.272.12 0 .203.012.3.036v.995c-.108-.024-.216-.036-.36-.036-.743 0-1.27.562-1.415 1.354-.024.144-.048.312-.048.49v3.096h-1.043v-3.994zM424.61 192.548v1.667h1.513v.804h-1.512v3.13c0 .72.204 1.127.792 1.127.276 0 .48-.036.612-.072l.048.79c-.204.085-.527.146-.936.146-.492 0-.888-.155-1.14-.443-.3-.312-.407-.827-.407-1.51v-3.167h-.9v-.804h.9v-1.392l1.03-.276zM427.42 200.02v-5h-.815v-.805h.815v-.276c0-.816.18-1.56.672-2.027.396-.384.924-.54 1.415-.54.372 0 .696.084.9.168l-.146.816c-.154-.07-.37-.132-.67-.132-.9 0-1.128.792-1.128 1.68v.312h1.404v.804h-1.404v5h-1.042zM435.913 197.07c0 2.146-1.487 3.082-2.89 3.082-1.572 0-2.783-1.15-2.783-2.986 0-1.942 1.27-3.082 2.88-3.082 1.666 0 2.793 1.21 2.793 2.986zm-4.606.06c0 1.27.73 2.23 1.763 2.23 1.008 0 1.764-.948 1.764-2.255 0-.983-.492-2.23-1.74-2.23s-1.787 1.15-1.787 2.254zM437.248 191.504h1.056v8.516h-1.056v-8.516zM441.256 192.584c.012.36-.252.647-.672.647-.372 0-.636-.287-.636-.646 0-.372.276-.66.66-.66.396 0 .648.288.648.66zm-1.176 7.436v-5.805h1.056v5.805h-1.056zM448.14 197.07c0 2.146-1.486 3.082-2.89 3.082-1.57 0-2.783-1.15-2.783-2.986 0-1.942 1.27-3.082 2.878-3.082 1.668 0 2.795 1.21 2.795 2.986zm-4.605.06c0 1.27.732 2.23 1.764 2.23 1.006 0 1.762-.948 1.762-2.255 0-.983-.49-2.23-1.74-2.23-1.247 0-1.787 1.15-1.787 2.254z"/></g><g fill="#FFF"><path d="M452.197 196.506l5.564-2.867v.827l-4.688 2.35v.024l4.69 2.353v.827l-5.565-2.866v-.648zM458.545 200.5l3.346-8.696h.817l-3.358 8.695h-.805z"/></g><path fill="#F92672" d="M466.763 200.02l-.084-.73h-.036c-.324.455-.947.862-1.775.862-1.177 0-1.776-.827-1.776-1.667 0-1.403 1.248-2.17 3.49-2.16v-.118c0-.48-.132-1.344-1.318-1.344-.54 0-1.104.168-1.512.432l-.24-.695c.48-.312 1.176-.516 1.907-.516 1.775 0 2.207 1.21 2.207 2.374v2.17c0 .505.024.997.097 1.393h-.96zm-.156-2.962c-1.15-.024-2.458.18-2.458 1.307 0 .684.455 1.008.994 1.008.756 0 1.236-.48 1.404-.972.035-.106.06-.227.06-.335v-1.007z"/><path fill="#FFF" d="M474.814 197.165l-5.564 2.854v-.828l4.725-2.352v-.023l-4.725-2.35v-.83l5.564 2.855v.673zM170.875 210.906l5.565-2.867v.827l-4.69 2.35v.024l4.69 2.353v.827l-5.565-2.866v-.648z"/><g fill="#F92672"><path d="M183.125 205.905v7.017c0 .516.012 1.104.048 1.5h-.947l-.048-1.01h-.024c-.324.65-1.032 1.14-1.98 1.14-1.402 0-2.482-1.187-2.482-2.95-.012-1.93 1.188-3.117 2.603-3.117.888 0 1.487.42 1.75.888h.025v-3.467h1.055zm-1.055 5.073c0-.132-.012-.312-.048-.443-.156-.672-.73-1.224-1.523-1.224-1.092 0-1.74.96-1.74 2.244 0 1.175.576 2.146 1.715 2.146.708 0 1.355-.468 1.547-1.26.036-.144.048-.287.048-.455v-1.007zM186.055 206.985c.012.36-.252.647-.67.647-.373 0-.637-.288-.637-.647 0-.372.276-.66.66-.66.395 0 .647.288.647.66zm-1.175 7.435v-5.805h1.056v5.805h-1.056zM188.095 208.615l1.14 3.262c.192.528.348 1.008.468 1.487h.036c.13-.48.3-.96.49-1.487l1.128-3.262h1.104l-2.28 5.805h-1.006l-2.207-5.805h1.125z"/></g><g fill="#7FE22E"><path d="M200.14 214.204c-.275.144-.886.336-1.666.336-1.75 0-2.89-1.188-2.89-2.963 0-1.787 1.223-3.082 3.118-3.082.624 0 1.175.156 1.463.3l-.24.815c-.252-.144-.647-.275-1.223-.275-1.332 0-2.05.983-2.05 2.194 0 1.343.863 2.17 2.014 2.17.6 0 .996-.156 1.295-.288l.18.792zM201.38 205.905h1.056v8.516h-1.056v-8.515zM207.426 214.42l-.084-.73h-.036c-.324.455-.947.862-1.775.862-1.174 0-1.774-.827-1.774-1.667 0-1.403 1.247-2.17 3.49-2.16v-.118c0-.48-.132-1.344-1.32-1.344-.54 0-1.103.168-1.51.432l-.24-.695c.48-.312 1.175-.516 1.907-.516 1.775 0 2.207 1.21 2.207 2.374v2.17c0 .505.024.997.096 1.393h-.96zm-.156-2.962c-1.15-.024-2.458.18-2.458 1.307 0 .684.456 1.008.996 1.008.755 0 1.235-.48 1.403-.972.037-.106.06-.227.06-.335v-1.007zM209.85 213.34c.313.204.865.42 1.393.42.768 0 1.127-.383 1.127-.863 0-.504-.3-.78-1.08-1.067-1.042-.37-1.534-.947-1.534-1.643 0-.936.755-1.703 2.003-1.703.586 0 1.102.168 1.426.36l-.264.767c-.228-.143-.647-.335-1.187-.335-.624 0-.972.36-.972.792 0 .48.348.695 1.104.983 1.007.384 1.523.888 1.523 1.75 0 1.02-.792 1.74-2.17 1.74-.636 0-1.224-.156-1.632-.396l.263-.803zM214.603 213.34c.312.204.864.42 1.392.42.768 0 1.127-.383 1.127-.863 0-.504-.3-.78-1.08-1.067-1.042-.37-1.534-.947-1.534-1.643 0-.936.755-1.703 2.003-1.703.588 0 1.104.168 1.428.36l-.264.767c-.228-.143-.647-.335-1.187-.335-.624 0-.972.36-.972.792 0 .48.348.695 1.104.983 1.006.384 1.522.888 1.522 1.75 0 1.02-.792 1.74-2.17 1.74-.636 0-1.224-.156-1.632-.396l.263-.803z"/></g><path fill="#FFF" d="M219.103 210.378v-.72h6.19v.72h-6.19zm0 2.35v-.72h6.19v.72h-6.19z"/><g fill="#E6DB62"><path d="M227.43 206.204l-.203 2.88h-.647l-.192-2.88h1.043zm1.788 0l-.204 2.88h-.636l-.204-2.88h1.044zM231.87 206.985c.013.36-.25.647-.67.647-.372 0-.636-.288-.636-.647 0-.372.276-.66.66-.66.395 0 .647.288.647.66zm-1.174 7.435v-5.805h1.056v5.805h-1.056zM233.503 205.905h1.056v8.516h-1.057v-8.515zM241.193 212.837c0 .6.012 1.127.048 1.583h-.935l-.06-.947h-.024c-.275.468-.886 1.08-1.918 1.08-.91 0-2.003-.505-2.003-2.544v-3.395h1.055v3.214c0 1.103.336 1.847 1.295 1.847.708 0 1.2-.492 1.39-.96.06-.156.097-.348.097-.54v-3.562h1.056v4.222zM242.803 213.34c.312.204.864.42 1.392.42.768 0 1.127-.383 1.127-.863 0-.504-.3-.78-1.08-1.067-1.042-.37-1.534-.947-1.534-1.643 0-.936.755-1.703 2.003-1.703.588 0 1.105.168 1.428.36l-.264.767c-.228-.143-.647-.335-1.187-.335-.624 0-.972.36-.972.792 0 .48.348.695 1.104.983 1.006.384 1.522.888 1.522 1.75 0 1.02-.792 1.74-2.17 1.74-.636 0-1.224-.156-1.632-.396l.263-.803zM248.97 206.948v1.667h1.512v.804h-1.51v3.13c0 .72.203 1.127.79 1.127.277 0 .48-.036.612-.072l.048.79c-.204.085-.528.146-.936.146-.492 0-.888-.155-1.14-.443-.3-.312-.408-.827-.408-1.51v-3.167h-.9v-.804h.9v-1.392l1.033-.276zM251.67 210.426c0-.684-.01-1.27-.047-1.81h.923l.036 1.14h.048c.264-.78.9-1.272 1.607-1.272.12 0 .204.012.3.036v.995c-.108-.024-.216-.036-.36-.036-.744 0-1.27.562-1.416 1.354-.023.144-.047.312-.047.49v3.096h-1.043v-3.994zM258.75 214.42l-.084-.73h-.036c-.324.455-.947.862-1.775.862-1.175 0-1.775-.827-1.775-1.667 0-1.403 1.247-2.17 3.49-2.16v-.118c0-.48-.132-1.344-1.32-1.344-.54 0-1.103.168-1.51.432l-.24-.695c.48-.312 1.175-.516 1.907-.516 1.775 0 2.207 1.21 2.207 2.374v2.17c0 .505.024.997.096 1.393h-.96zm-.156-2.962c-1.15-.024-2.458.18-2.458 1.307 0 .684.456 1.008.996 1.008.755 0 1.235-.48 1.403-.972.036-.106.06-.227.06-.335v-1.007zM265.457 214.204c-.276.144-.888.336-1.667.336-1.75 0-2.89-1.188-2.89-2.963 0-1.787 1.223-3.082 3.118-3.082.624 0 1.175.156 1.463.3l-.24.815c-.25-.144-.646-.275-1.222-.275-1.332 0-2.05.983-2.05 2.194 0 1.343.863 2.17 2.014 2.17.6 0 .996-.156 1.295-.288l.18.792zM269.91 214.42l-.085-.73h-.036c-.325.455-.948.862-1.776.862-1.175 0-1.775-.827-1.775-1.667 0-1.403 1.246-2.17 3.49-2.16v-.118c0-.48-.133-1.344-1.32-1.344-.54 0-1.103.168-1.51.432l-.24-.695c.48-.312 1.175-.516 1.906-.516 1.775 0 2.207 1.21 2.207 2.374v2.17c0 .505.024.997.096 1.393h-.96zm-.156-2.962c-1.15-.024-2.46.18-2.46 1.307 0 .684.457 1.008.997 1.008.756 0 1.236-.48 1.404-.972.036-.106.06-.227.06-.335v-1.007zM277.732 211.47c0 2.146-1.487 3.082-2.89 3.082-1.57 0-2.783-1.15-2.783-2.986 0-1.942 1.27-3.082 2.877-3.082 1.668 0 2.795 1.21 2.795 2.986zm-4.605.06c0 1.27.732 2.23 1.763 2.23 1.007 0 1.763-.947 1.763-2.254 0-.983-.492-2.23-1.74-2.23-1.246 0-1.786 1.15-1.786 2.254zM279.715 206.204l-.204 2.88h-.646l-.192-2.88h1.043zm1.787 0l-.204 2.88h-.636l-.204-2.88h1.044z"/></g><path fill="#FFF" d="M288.653 211.566l-5.565 2.854v-.827l4.726-2.352v-.022l-4.726-2.35v-.83l5.565 2.855v.673zM206.875 225.306l5.565-2.867v.827l-4.69 2.35v.024l4.69 2.353v.827l-5.565-2.866v-.648z"/><g fill="#F92672"><path d="M213.968 227.74c.312.203.864.42 1.392.42.768 0 1.127-.384 1.127-.864 0-.504-.3-.78-1.08-1.067-1.042-.372-1.534-.948-1.534-1.644 0-.936.755-1.703 2.003-1.703.587 0 1.104.168 1.427.36l-.264.767c-.23-.144-.648-.336-1.188-.336-.624 0-.972.36-.972.792 0 .48.348.695 1.104.983 1.007.383 1.523.887 1.523 1.75 0 1.02-.792 1.74-2.17 1.74-.636 0-1.224-.157-1.632-.397l.263-.803zM218.864 224.91c0-.744-.024-1.344-.048-1.896h.947l.048.995h.025c.432-.708 1.115-1.128 2.063-1.128 1.403 0 2.46 1.188 2.46 2.95 0 2.087-1.272 3.118-2.64 3.118-.768 0-1.44-.336-1.787-.91h-.023v3.153h-1.043v-6.284zm1.043 1.547c0 .155.024.3.048.432.192.73.828 1.234 1.583 1.234 1.116 0 1.763-.912 1.763-2.243 0-1.162-.61-2.158-1.726-2.158-.72 0-1.39.517-1.595 1.308-.037.132-.073.288-.073.432v.995zM228.906 228.82l-.084-.73h-.036c-.324.455-.947.862-1.775.862-1.174 0-1.774-.827-1.774-1.667 0-1.403 1.247-2.17 3.49-2.16v-.118c0-.48-.132-1.344-1.32-1.344-.54 0-1.102.168-1.51.432l-.24-.695c.48-.312 1.176-.516 1.907-.516 1.775 0 2.207 1.21 2.207 2.374v2.17c0 .505.024.997.096 1.393h-.96zm-.156-2.962c-1.15-.024-2.46.18-2.46 1.307 0 .684.457 1.008.997 1.008.755 0 1.235-.48 1.403-.972.036-.106.06-.227.06-.335v-1.007zM231.475 224.586c0-.6-.012-1.092-.048-1.57h.936l.06.958h.024c.288-.552.96-1.09 1.92-1.09.802 0 2.05.478 2.05 2.47v3.466h-1.056v-3.346c0-.936-.347-1.716-1.342-1.716-.695 0-1.235.492-1.415 1.08-.048.132-.072.312-.072.49v3.49h-1.055v-4.232z"/></g><g fill="#7FE22E"><path d="M244.817 228.604c-.276.144-.887.336-1.667.336-1.75 0-2.89-1.188-2.89-2.963 0-1.787 1.223-3.082 3.118-3.082.624 0 1.175.156 1.463.3l-.24.815c-.25-.144-.646-.275-1.222-.275-1.332 0-2.05.983-2.05 2.194 0 1.343.863 2.17 2.014 2.17.6 0 .996-.156 1.295-.288l.18.792zM246.055 220.304h1.056v8.516h-1.055v-8.516zM252.102 228.82l-.084-.73h-.036c-.324.455-.947.862-1.775.862-1.175 0-1.775-.827-1.775-1.667 0-1.403 1.247-2.17 3.49-2.16v-.118c0-.48-.132-1.344-1.32-1.344-.54 0-1.103.168-1.51.432l-.24-.695c.48-.312 1.175-.516 1.907-.516 1.774 0 2.206 1.21 2.206 2.374v2.17c0 .505.024.997.096 1.393h-.96zm-.156-2.962c-1.15-.024-2.458.18-2.458 1.307 0 .684.456 1.008.996 1.008.755 0 1.235-.48 1.403-.972.036-.106.06-.227.06-.335v-1.007zM254.527 227.74c.312.203.864.42 1.392.42.767 0 1.126-.384 1.126-.864 0-.504-.3-.78-1.08-1.067-1.042-.372-1.534-.948-1.534-1.644 0-.936.755-1.703 2.003-1.703.587 0 1.103.168 1.427.36l-.264.767c-.228-.144-.647-.336-1.187-.336-.623 0-.97.36-.97.792 0 .48.347.695 1.103.983 1.007.383 1.523.887 1.523 1.75 0 1.02-.792 1.74-2.17 1.74-.636 0-1.224-.157-1.632-.397l.263-.803zM259.28 227.74c.31.203.863.42 1.39.42.77 0 1.128-.384 1.128-.864 0-.504-.3-.78-1.08-1.067-1.042-.372-1.534-.948-1.534-1.644 0-.936.755-1.703 2.003-1.703.587 0 1.103.168 1.427.36l-.264.767c-.228-.144-.647-.336-1.187-.336-.624 0-.972.36-.972.792 0 .48.35.695 1.105.983 1.007.383 1.523.887 1.523 1.75 0 1.02-.792 1.74-2.17 1.74-.636 0-1.224-.157-1.632-.397l.263-.803z"/></g><path fill="#FFF" d="M263.78 224.778v-.72h6.19v.72h-6.19zm0 2.35v-.72h6.19v.72h-6.19z"/><g fill="#E6DB62"><path d="M272.107 220.604l-.204 2.88h-.647l-.192-2.88h1.043zm1.787 0l-.204 2.88h-.636l-.204-2.88h1.044zM275.37 224.91c0-.744-.023-1.344-.047-1.896h.947l.048.995h.024c.432-.708 1.115-1.128 2.063-1.128 1.403 0 2.46 1.188 2.46 2.95 0 2.087-1.272 3.118-2.64 3.118-.768 0-1.44-.336-1.787-.91h-.024v3.153h-1.043v-6.284zm1.045 1.547c0 .155.024.3.048.432.192.73.828 1.234 1.583 1.234 1.116 0 1.763-.912 1.763-2.243 0-1.162-.613-2.158-1.728-2.158-.72 0-1.39.517-1.595 1.308-.036.132-.072.288-.072.432v.995zM286.337 228.604c-.276.144-.888.336-1.667.336-1.75 0-2.89-1.188-2.89-2.963 0-1.787 1.223-3.082 3.118-3.082.624 0 1.175.156 1.463.3l-.24.815c-.25-.144-.646-.275-1.222-.275-1.332 0-2.05.983-2.05 2.194 0 1.343.863 2.17 2.014 2.17.6 0 .996-.156 1.295-.288l.18.792zM288.355 220.604l-.204 2.88h-.646l-.192-2.88h1.043zm1.786 0l-.203 2.88h-.636l-.203-2.88h1.044z"/></g><g fill="#FFF"><path d="M297.1 225.965l-5.566 2.854v-.828l4.726-2.352v-.023l-4.726-2.35v-.83l5.565 2.855v.673zM298.686 225.306l5.565-2.867v.827l-4.688 2.35v.024l4.69 2.353v.827l-5.566-2.866v-.648zM305.034 229.3l3.346-8.696h.816l-3.358 8.695h-.804z"/></g><g fill="#F92672"><path d="M309.894 227.74c.312.203.864.42 1.392.42.768 0 1.127-.384 1.127-.864 0-.504-.3-.78-1.08-1.067-1.042-.372-1.534-.948-1.534-1.644 0-.936.754-1.703 2.002-1.703.587 0 1.104.168 1.427.36l-.265.767c-.228-.144-.647-.336-1.187-.336-.624 0-.972.36-.972.792 0 .48.348.695 1.104.983 1.007.383 1.523.887 1.523 1.75 0 1.02-.792 1.74-2.17 1.74-.636 0-1.224-.157-1.632-.397l.264-.803zM314.79 224.91c0-.744-.024-1.344-.048-1.896h.947l.047.995h.024c.433-.708 1.116-1.128 2.064-1.128 1.403 0 2.46 1.188 2.46 2.95 0 2.087-1.272 3.118-2.64 3.118-.768 0-1.44-.336-1.787-.91h-.024v3.153h-1.043v-6.284zm1.044 1.547c0 .155.024.3.048.432.192.73.828 1.234 1.583 1.234 1.116 0 1.763-.912 1.763-2.243 0-1.162-.612-2.158-1.727-2.158-.72 0-1.39.517-1.594 1.308-.036.132-.072.288-.072.432v.995zM324.832 228.82l-.084-.73h-.036c-.324.455-.947.862-1.775.862-1.175 0-1.775-.827-1.775-1.667 0-1.403 1.247-2.17 3.49-2.16v-.118c0-.48-.132-1.344-1.32-1.344-.54 0-1.102.168-1.51.432l-.24-.695c.48-.312 1.176-.516 1.907-.516 1.774 0 2.206 1.21 2.206 2.374v2.17c0 .505.024.997.096 1.393h-.96zm-.155-2.962c-1.15-.024-2.46.18-2.46 1.307 0 .684.457 1.008.997 1.008.755 0 1.235-.48 1.403-.972.036-.106.06-.227.06-.335v-1.007zM327.402 224.586c0-.6-.012-1.092-.048-1.57h.936l.06.958h.024c.288-.552.96-1.09 1.92-1.09.802 0 2.05.478 2.05 2.47v3.466h-1.056v-3.346c0-.936-.348-1.716-1.343-1.716-.695 0-1.235.492-1.415 1.08-.048.132-.072.312-.072.49v3.49h-1.056v-4.232z"/></g><path fill="#FFF" d="M339.543 225.965l-5.565 2.854v-.828l4.726-2.352v-.023l-4.726-2.35v-.83l5.565 2.855v.673z"/><g fill="#FFF"><path d="M170.875 239.706l5.565-2.867v.827l-4.69 2.35v.024l4.69 2.353v.827l-5.565-2.866v-.648zM177.223 243.7l3.346-8.696h.815l-3.358 8.695h-.804z"/></g><g fill="#F92672"><path d="M187.24 234.704v7.017c0 .517.012 1.105.048 1.5h-.947l-.047-1.008h-.024c-.325.648-1.033 1.14-1.98 1.14-1.403 0-2.483-1.188-2.483-2.95-.012-1.93 1.188-3.118 2.603-3.118.888 0 1.487.42 1.75.888h.025v-3.467h1.055zm-1.055 5.074c0-.132-.012-.312-.048-.443-.156-.672-.73-1.224-1.523-1.224-1.09 0-1.74.96-1.74 2.244 0 1.175.577 2.146 1.716 2.146.708 0 1.355-.468 1.547-1.26.036-.144.048-.287.048-.455v-1.007zM190.17 235.784c.013.36-.25.647-.67.647-.372 0-.636-.287-.636-.646 0-.372.276-.66.66-.66.395 0 .647.288.647.66zm-1.175 7.436v-5.805h1.056v5.805h-1.055zM192.21 237.415l1.14 3.262c.193.528.35 1.008.47 1.487h.035c.132-.48.3-.96.492-1.487l1.127-3.262h1.104l-2.28 5.805h-1.006l-2.207-5.805h1.126z"/></g><path fill="#FFF" d="M203.056 240.365l-5.565 2.854v-.828l4.727-2.352v-.023l-4.726-2.35v-.83l5.566 2.855v.673z"/><g fill="#FFF"><path d="M147.385 254.107l5.565-2.867v.828l-4.69 2.35v.024l4.69 2.352v.827l-5.565-2.865v-.648zM153.733 258.1l3.346-8.695h.815l-3.358 8.695h-.804z"/></g><g fill="#F92672"><path d="M161.952 257.62l-.084-.73h-.036c-.324.455-.947.862-1.775.862-1.175 0-1.775-.827-1.775-1.667 0-1.403 1.247-2.17 3.49-2.16v-.118c0-.48-.132-1.344-1.32-1.344-.54 0-1.103.168-1.51.432l-.24-.695c.48-.312 1.175-.516 1.907-.516 1.774 0 2.206 1.21 2.206 2.374v2.17c0 .505.024.997.096 1.393h-.96zm-.156-2.962c-1.15-.024-2.458.18-2.458 1.307 0 .684.456 1.008.996 1.008.755 0 1.235-.48 1.403-.972.036-.106.06-.227.06-.335v-1.007zM164.522 253.626c0-.684-.012-1.27-.048-1.81h.923l.036 1.14h.048c.265-.78.9-1.272 1.608-1.272.12 0 .204.012.3.036v.995c-.108-.024-.216-.036-.36-.036-.744 0-1.27.562-1.416 1.354-.024.144-.048.312-.048.49v3.096h-1.043v-3.994zM170.005 250.15v1.666h1.51v.804h-1.51v3.13c0 .72.204 1.128.792 1.128.276 0 .48-.036.612-.072l.047.79c-.204.085-.528.146-.936.146-.49 0-.887-.156-1.14-.444-.3-.312-.407-.827-.407-1.51v-3.167h-.9v-.803h.9v-1.392l1.032-.276zM173.88 250.185c.013.36-.25.647-.67.647-.372 0-.636-.288-.636-.647 0-.372.276-.66.66-.66.395 0 .647.288.647.66zm-1.175 7.435v-5.805h1.056v5.805h-1.055zM179.65 257.405c-.275.144-.886.336-1.666.336-1.75 0-2.89-1.187-2.89-2.962 0-1.787 1.223-3.082 3.118-3.082.624 0 1.175.156 1.463.3l-.24.815c-.252-.143-.647-.274-1.223-.274-1.332 0-2.05.983-2.05 2.194 0 1.344.863 2.17 2.014 2.17.6 0 .996-.155 1.295-.287l.18.792zM180.89 249.105h1.055v8.516h-1.056v-8.515zM184.31 254.91c.023 1.427.934 2.015 1.99 2.015.755 0 1.21-.132 1.607-.3l.18.755c-.372.168-1.007.36-1.93.36-1.788 0-2.855-1.176-2.855-2.927s1.032-3.13 2.723-3.13c1.895 0 2.4 1.667 2.4 2.734 0 .216-.025.384-.037.49h-4.08zm3.093-.755c.012-.672-.276-1.716-1.463-1.716-1.067 0-1.535.983-1.62 1.715h3.083z"/></g><path fill="#FFF" d="M194.927 254.766l-5.565 2.854v-.827l4.726-2.352v-.022l-4.726-2.35v-.83l5.565 2.855v.673z"/><text transform="translate(388.5 468.473)" fill="#FFF" font-family="'Lato-Black'" font-size="18">rm</text></svg>