<?xml version="1.0" encoding="utf-8"?>
<!-- Generator: Adobe Illustrator 16.0.0, SVG Export Plug-In . SVG Version: 6.00 Build 0)  -->
<!DOCTYPE svg PUBLIC "-//W3C//DTD SVG 1.1//EN" "http://www.w3.org/Graphics/SVG/1.1/DTD/svg11.dtd">
<svg version="1.1" id="Camada_1" xmlns="http://www.w3.org/2000/svg" xmlns:xlink="http://www.w3.org/1999/xlink" x="0px" y="0px"
	 width="360px" height="208.669px" viewBox="16.862 77.408 360 208.669" enable-background="new 16.862 77.408 360 208.669"
	 xml:space="preserve">
<path d="M344.62,264.85c0,4.574-3.708,8.283-8.283,8.283H59.71c-4.574,0-8.283-3.709-8.283-8.283V85.888
	c0-4.574,3.709-8.283,8.283-8.283H336.34c4.574,0,8.282,3.709,8.282,8.283L344.62,264.85L344.62,264.85z"/>
<path fill="#E8E8E8" d="M51.427,264.85l-34.565,14.872h360l-32.242-14.873"/>
<path fill="#B7B7B7" d="M16.862,279.722h360v3.331h-360V279.722z"/>
<path fill="#A8A8A8" d="M33.463,283.053l18.197,3.024h289.868l12.424-3.024"/>
<path fill="#141414" d="M62.663,88.258h269.662v159.68H62.663V88.258z"/>
<path fill="none" d="M51.427,97.922h234.228v142.193H51.427V97.922z"/>
<path fill="#FFFFFF" d="M78.716,100.225l2.562-1.319v0.38l-2.159,1.082v0.011l2.159,1.083v0.38l-2.562-1.319V100.225L78.716,100.225
	z"/>
<g>
	<path fill="#F92672" d="M83.526,101.842l-0.039-0.335H83.47c-0.149,0.209-0.436,0.396-0.816,0.396
		c-0.541,0-0.817-0.381-0.817-0.767c0-0.646,0.573-0.999,1.605-0.994v-0.055c0-0.221-0.06-0.619-0.607-0.619
		c-0.249,0-0.508,0.077-0.694,0.199l-0.111-0.319c0.221-0.144,0.541-0.237,0.877-0.237c0.816,0,1.016,0.556,1.016,1.091v0.999
		c0,0.233,0.011,0.459,0.044,0.642L83.526,101.842L83.526,101.842z M83.453,100.479c-0.529-0.011-1.13,0.083-1.13,0.601
		c0,0.315,0.209,0.464,0.458,0.464c0.348,0,0.568-0.221,0.646-0.447c0.017-0.049,0.027-0.104,0.027-0.154L83.453,100.479
		L83.453,100.479z M84.708,100.004c0-0.315-0.005-0.584-0.022-0.833h0.425l0.017,0.525h0.022c0.122-0.359,0.415-0.584,0.74-0.584
		c0.055,0,0.094,0.005,0.138,0.016v0.458c-0.05-0.011-0.1-0.017-0.166-0.017c-0.342,0-0.584,0.259-0.651,0.623
		c-0.011,0.066-0.022,0.144-0.022,0.226v1.424h-0.48V100.004L84.708,100.004z M87.231,98.404v0.767h0.694v0.371h-0.694v1.439
		c0,0.332,0.093,0.519,0.363,0.519c0.128,0,0.222-0.016,0.282-0.033l0.022,0.364c-0.093,0.04-0.242,0.067-0.429,0.067
		c-0.227,0-0.409-0.071-0.525-0.204c-0.138-0.144-0.188-0.38-0.188-0.695v-1.457h-0.415v-0.37h0.415v-0.64L87.231,98.404z
		 M89.015,98.42c0.005,0.166-0.116,0.298-0.308,0.298c-0.172,0-0.293-0.132-0.293-0.297c0-0.171,0.127-0.303,0.304-0.303
		C88.898,98.117,89.015,98.249,89.015,98.42L89.015,98.42z M88.474,101.842V99.17h0.486v2.671H88.474z M91.67,101.742
		c-0.127,0.066-0.408,0.155-0.767,0.155c-0.805,0-1.331-0.546-1.331-1.363c0-0.823,0.563-1.418,1.435-1.418
		c0.287,0,0.541,0.072,0.674,0.138l-0.111,0.375c-0.117-0.067-0.298-0.127-0.563-0.127c-0.612,0-0.943,0.452-0.943,1.01
		c0,0.618,0.397,0.999,0.927,0.999c0.276,0,0.458-0.072,0.596-0.132L91.67,101.742L91.67,101.742z M92.24,97.923h0.486v3.918H92.24
		V97.923z M93.813,100.595c0.011,0.656,0.431,0.927,0.916,0.927c0.348,0,0.558-0.061,0.74-0.138l0.083,0.347
		c-0.172,0.078-0.464,0.166-0.889,0.166c-0.823,0-1.314-0.541-1.314-1.347s0.475-1.439,1.253-1.439c0.872,0,1.104,0.767,1.104,1.257
		c0,0.1-0.012,0.177-0.017,0.226h-1.878L93.813,100.595z M95.238,100.247c0.005-0.309-0.127-0.79-0.673-0.79
		c-0.492,0-0.707,0.452-0.746,0.79H95.238z"/>
</g>
<path fill="#FFFFFF" d="M98.699,100.528l-2.561,1.313v-0.381l2.175-1.082v-0.01l-2.175-1.082v-0.382l2.561,1.314L98.699,100.528
	L98.699,100.528z M89.526,106.851l2.561-1.319v0.381l-2.159,1.081v0.011l2.159,1.083v0.38l-2.561-1.319V106.851z"/>
<g>
	<path fill="#F92672" d="M92.855,104.55h0.486v1.666h0.011c0.077-0.137,0.199-0.258,0.348-0.341
		c0.143-0.083,0.315-0.138,0.497-0.138c0.358,0,0.933,0.221,0.933,1.142v1.589h-0.486v-1.534c0-0.431-0.16-0.795-0.619-0.795
		c-0.314,0-0.562,0.221-0.65,0.486c-0.028,0.066-0.033,0.138-0.033,0.232v1.611h-0.486V104.55L92.855,104.55z M95.766,108.468
		v-0.298l0.381-0.37c0.916-0.873,1.33-1.336,1.335-1.877c0-0.363-0.176-0.699-0.711-0.699c-0.327,0-0.597,0.164-0.762,0.303
		l-0.155-0.342c0.249-0.209,0.602-0.364,1.016-0.364c0.773,0,1.099,0.528,1.099,1.042c0,0.663-0.48,1.198-1.236,1.926l-0.288,0.265
		v0.011h1.612v0.402H95.766z"/>
</g>
<path fill="#FCFCFC" d="M101.275,107.155l-2.562,1.313v-0.38l2.175-1.082v-0.011l-2.175-1.081v-0.382l2.562,1.314V107.155
	L101.275,107.155z"/>
<path fill="#FFFFFF" d="M95.968,113.478l2.561-1.32v0.381l-2.158,1.081v0.011l2.158,1.083v0.381l-2.561-1.319V113.478z"/>
<g>
	<path fill="#F92672" d="M99.232,114.598c0.144,0.093,0.397,0.193,0.641,0.193c0.353,0,0.519-0.177,0.519-0.398
		c0-0.232-0.139-0.358-0.497-0.491c-0.479-0.171-0.707-0.436-0.707-0.756c0-0.43,0.348-0.784,0.922-0.784
		c0.27,0,0.508,0.078,0.657,0.166l-0.122,0.353c-0.106-0.067-0.298-0.155-0.546-0.155c-0.288,0-0.447,0.166-0.447,0.365
		c0,0.221,0.16,0.32,0.508,0.452c0.463,0.177,0.701,0.409,0.701,0.806c0,0.469-0.365,0.801-0.999,0.801
		c-0.292,0-0.563-0.073-0.751-0.183L99.232,114.598L99.232,114.598z M101.485,113.296c0-0.343-0.012-0.619-0.022-0.873h0.436
		l0.022,0.458h0.011c0.199-0.326,0.514-0.519,0.949-0.519c0.646,0,1.132,0.546,1.132,1.357c0,0.96-0.585,1.434-1.214,1.434
		c-0.353,0-0.663-0.154-0.822-0.418h-0.011v1.451h-0.48L101.485,113.296L101.485,113.296z M101.965,114.008
		c0,0.071,0.012,0.138,0.022,0.199c0.088,0.336,0.381,0.568,0.729,0.568c0.514,0,0.812-0.42,0.812-1.033
		c0-0.535-0.281-0.993-0.794-0.993c-0.332,0-0.64,0.237-0.734,0.601c-0.018,0.062-0.034,0.133-0.034,0.199V114.008z
		 M106.106,115.095l-0.039-0.336h-0.017c-0.149,0.209-0.436,0.396-0.817,0.396c-0.54,0-0.816-0.38-0.816-0.768
		c0-0.645,0.574-0.998,1.606-0.994v-0.054c0-0.221-0.061-0.618-0.607-0.618c-0.248,0-0.507,0.077-0.694,0.199l-0.111-0.32
		c0.222-0.144,0.541-0.237,0.878-0.237c0.817,0,1.016,0.557,1.016,1.093v0.999c0,0.232,0.011,0.458,0.044,0.641L106.106,115.095
		L106.106,115.095z M106.034,113.732c-0.529-0.011-1.133,0.083-1.133,0.602c0,0.314,0.211,0.464,0.46,0.464
		c0.347,0,0.567-0.222,0.645-0.447c0.017-0.049,0.028-0.105,0.028-0.155V113.732L106.034,113.732z M107.288,113.146
		c0-0.276-0.006-0.502-0.022-0.722h0.431l0.027,0.44h0.011c0.133-0.254,0.443-0.501,0.884-0.501c0.369,0,0.943,0.22,0.943,1.137
		v1.595h-0.486v-1.54c0-0.431-0.16-0.79-0.617-0.79c-0.32,0-0.568,0.227-0.652,0.497c-0.022,0.061-0.033,0.143-0.033,0.226v1.606
		h-0.486L107.288,113.146L107.288,113.146z"/>
</g>
<path fill="#FFFFFF" d="M112.875,113.781l-2.561,1.313v-0.381l2.175-1.083v-0.011l-2.174-1.081v-0.383l2.561,1.314L112.875,113.781
	L112.875,113.781z"/>
<g>
	<path fill="#FFFDFE" d="M113.429,112.66c0.127-0.463,0.364-1.059,0.519-1.313l0.309-0.033c-0.122,0.326-0.266,0.895-0.327,1.292
		L113.429,112.66L113.429,112.66z M114.251,112.66c0.122-0.463,0.364-1.059,0.513-1.313l0.309-0.033
		c-0.122,0.326-0.265,0.895-0.326,1.292L114.251,112.66L114.251,112.66z M118.127,114.973c-0.177,0.088-0.53,0.177-0.982,0.177
		c-1.05,0-1.838-0.663-1.838-1.882c0-1.165,0.789-1.954,1.942-1.954c0.464,0,0.757,0.099,0.884,0.166l-0.116,0.391
		c-0.183-0.088-0.442-0.154-0.751-0.154c-0.872,0-1.452,0.557-1.452,1.534c0,0.911,0.524,1.496,1.43,1.496
		c0.292,0,0.59-0.061,0.784-0.154L118.127,114.973L118.127,114.973z M121.07,113.738c0,0.987-0.684,1.417-1.33,1.417
		c-0.722,0-1.28-0.529-1.28-1.374c0-0.894,0.585-1.418,1.325-1.418C120.552,112.363,121.07,112.92,121.07,113.738L121.07,113.738z
		 M118.951,113.765c0,0.585,0.336,1.026,0.811,1.026c0.463,0,0.812-0.436,0.812-1.038c0-0.452-0.226-1.026-0.8-1.026
		C119.199,112.727,118.95,113.257,118.951,113.765L118.951,113.765z M120.49,111.27l-0.673,0.789h-0.348l0.486-0.789H120.49z
		 M123.991,111.176v3.229c0,0.238,0.005,0.508,0.022,0.69h-0.435l-0.022-0.464h-0.011c-0.148,0.298-0.474,0.525-0.91,0.525
		c-0.646,0-1.143-0.546-1.143-1.357c-0.006-0.889,0.546-1.435,1.197-1.435c0.409,0,0.685,0.193,0.805,0.409h0.012v-1.596
		L123.991,111.176L123.991,111.176z M123.505,113.511c0-0.062-0.006-0.144-0.022-0.205c-0.072-0.309-0.337-0.563-0.701-0.563
		c-0.502,0-0.801,0.441-0.801,1.032c0,0.541,0.266,0.987,0.79,0.987c0.326,0,0.624-0.216,0.712-0.58
		c0.016-0.067,0.021-0.132,0.021-0.21L123.505,113.511L123.505,113.511z M125.339,111.673c0.005,0.166-0.116,0.297-0.309,0.297
		c-0.171,0-0.293-0.132-0.293-0.297c0-0.171,0.127-0.304,0.304-0.304C125.224,111.37,125.339,111.503,125.339,111.673
		L125.339,111.673z M124.799,115.095v-2.671h0.485v2.671H124.799z M128.392,112.424c-0.011,0.193-0.022,0.408-0.022,0.734v1.55
		c0,0.614-0.122,0.988-0.38,1.22c-0.26,0.243-0.636,0.32-0.971,0.32c-0.321,0-0.674-0.077-0.889-0.221l0.122-0.37
		c0.176,0.111,0.453,0.21,0.783,0.21c0.497,0,0.86-0.259,0.86-0.933v-0.297h-0.01c-0.148,0.248-0.436,0.447-0.85,0.447
		c-0.663,0-1.137-0.563-1.137-1.303c0-0.905,0.591-1.417,1.203-1.417c0.464,0,0.718,0.242,0.833,0.463h0.011l0.022-0.402
		L128.392,112.424L128.392,112.424z M127.89,113.477c0-0.083-0.006-0.154-0.028-0.22c-0.088-0.282-0.326-0.513-0.679-0.513
		c-0.464,0-0.795,0.392-0.795,1.01c0,0.525,0.266,0.96,0.789,0.96c0.298,0,0.569-0.188,0.673-0.497
		c0.028-0.083,0.039-0.177,0.039-0.259L127.89,113.477L127.89,113.477z M131.595,113.738c0,0.987-0.684,1.417-1.33,1.417
		c-0.722,0-1.281-0.529-1.281-1.374c0-0.894,0.585-1.418,1.324-1.418C131.077,112.363,131.595,112.92,131.595,113.738
		L131.595,113.738z M129.476,113.765c0,0.585,0.337,1.026,0.812,1.026c0.463,0,0.812-0.436,0.812-1.038
		c0-0.452-0.227-1.026-0.801-1.026C129.725,112.727,129.476,113.257,129.476,113.765L129.476,113.765z M132.143,114.598
		c0.144,0.093,0.397,0.193,0.641,0.193c0.353,0,0.518-0.177,0.518-0.398c0-0.232-0.138-0.358-0.497-0.491
		c-0.48-0.171-0.706-0.436-0.706-0.756c0-0.43,0.348-0.784,0.921-0.784c0.27,0,0.508,0.078,0.657,0.166l-0.122,0.353
		c-0.104-0.067-0.298-0.155-0.546-0.155c-0.287,0-0.446,0.166-0.446,0.365c0,0.221,0.16,0.32,0.508,0.452
		c0.463,0.177,0.701,0.409,0.701,0.806c0,0.469-0.364,0.801-0.999,0.801c-0.292,0-0.563-0.073-0.75-0.183L132.143,114.598
		L132.143,114.598z M137.388,114.68h-0.011c-0.143,0.265-0.441,0.474-0.872,0.474c-0.624,0-1.132-0.54-1.132-1.352
		c0-0.998,0.646-1.44,1.209-1.44c0.415,0,0.69,0.204,0.822,0.463h0.011l0.017-0.402h0.459c-0.011,0.226-0.017,0.458-0.017,0.734
		v3.03h-0.485v-1.507H137.388z M137.388,113.505c0-0.066-0.005-0.144-0.021-0.203c-0.072-0.299-0.332-0.552-0.695-0.552
		c-0.503,0-0.806,0.424-0.806,1.026c0,0.53,0.254,0.993,0.79,0.993c0.314,0,0.584-0.193,0.695-0.53
		c0.023-0.066,0.039-0.16,0.039-0.231V113.505L137.388,113.505z M140.911,114.365c0,0.277,0.005,0.519,0.022,0.729h-0.432
		l-0.028-0.436h-0.01c-0.127,0.216-0.409,0.497-0.884,0.497c-0.419,0-0.921-0.232-0.921-1.17v-1.563h0.486v1.479
		c0,0.508,0.154,0.851,0.596,0.851c0.326,0,0.552-0.226,0.64-0.442c0.027-0.071,0.044-0.16,0.044-0.248v-1.639h0.486V114.365
		L140.911,114.365z M141.989,113.847c0.011,0.657,0.43,0.928,0.916,0.928c0.348,0,0.558-0.062,0.739-0.139l0.083,0.348
		c-0.17,0.078-0.463,0.166-0.889,0.166c-0.822,0-1.313-0.542-1.313-1.347c0-0.805,0.476-1.44,1.253-1.44
		c0.871,0,1.103,0.767,1.103,1.258c0,0.1-0.011,0.177-0.017,0.225h-1.877L141.989,113.847z M143.412,113.5
		c0.006-0.309-0.126-0.79-0.672-0.79c-0.491,0-0.707,0.453-0.745,0.79H143.412z M145.589,114.598
		c0.144,0.093,0.397,0.193,0.641,0.193c0.353,0,0.519-0.177,0.519-0.398c0-0.232-0.138-0.358-0.497-0.491
		c-0.479-0.171-0.706-0.436-0.706-0.756c0-0.43,0.348-0.784,0.922-0.784c0.27,0,0.507,0.078,0.657,0.166l-0.122,0.353
		c-0.104-0.067-0.298-0.155-0.546-0.155c-0.287,0-0.447,0.166-0.447,0.365c0,0.221,0.16,0.32,0.508,0.452
		c0.463,0.177,0.701,0.409,0.701,0.806c0,0.469-0.365,0.801-0.999,0.801c-0.292,0-0.563-0.073-0.751-0.183L145.589,114.598
		L145.589,114.598z M148.113,113.847c0.011,0.657,0.43,0.928,0.916,0.928c0.348,0,0.557-0.062,0.74-0.139l0.082,0.348
		c-0.171,0.078-0.463,0.166-0.888,0.166c-0.823,0-1.314-0.542-1.314-1.347c0-0.805,0.475-1.44,1.253-1.44
		c0.872,0,1.104,0.767,1.104,1.258c0,0.1-0.011,0.177-0.017,0.225h-1.878L148.113,113.847z M149.536,113.5
		c0.006-0.309-0.126-0.79-0.673-0.79c-0.49,0-0.706,0.453-0.744,0.79H149.536L149.536,113.5z M152.364,111.656v0.767h0.695v0.37
		h-0.695v1.44c0,0.332,0.093,0.519,0.364,0.519c0.127,0,0.221-0.017,0.282-0.034l0.022,0.363c-0.094,0.04-0.242,0.067-0.43,0.067
		c-0.227,0-0.409-0.071-0.525-0.204c-0.138-0.144-0.188-0.38-0.188-0.695v-1.457h-0.414v-0.37h0.414v-0.641L152.364,111.656
		L152.364,111.656z M153.607,113.257c0-0.315-0.005-0.585-0.022-0.833h0.424l0.017,0.524h0.023c0.121-0.359,0.413-0.585,0.739-0.585
		c0.055,0,0.094,0.005,0.138,0.017v0.458c-0.049-0.011-0.099-0.017-0.165-0.017c-0.343,0-0.584,0.259-0.651,0.624
		c-0.011,0.067-0.022,0.144-0.022,0.225v1.426h-0.48v-1.839V113.257z M156.865,115.095l-0.039-0.336h-0.017
		c-0.149,0.209-0.436,0.396-0.817,0.396c-0.541,0-0.816-0.38-0.816-0.768c0-0.645,0.573-0.998,1.605-0.994v-0.054
		c0-0.221-0.061-0.618-0.607-0.618c-0.249,0-0.508,0.077-0.695,0.199l-0.11-0.32c0.222-0.144,0.541-0.237,0.877-0.237
		c0.817,0,1.016,0.557,1.016,1.093v0.999c0,0.232,0.011,0.458,0.044,0.641L156.865,115.095L156.865,115.095z M156.792,113.732
		c-0.529-0.011-1.131,0.083-1.131,0.602c0,0.314,0.21,0.464,0.458,0.464c0.348,0,0.569-0.222,0.646-0.447
		c0.016-0.049,0.027-0.105,0.027-0.155L156.792,113.732L156.792,113.732z M158.046,113.146c0-0.276-0.006-0.502-0.022-0.722h0.431
		l0.027,0.44h0.011c0.132-0.254,0.441-0.501,0.883-0.501c0.37,0,0.944,0.22,0.944,1.137v1.595h-0.486v-1.54
		c0-0.431-0.161-0.79-0.618-0.79c-0.319,0-0.568,0.227-0.651,0.497c-0.022,0.061-0.033,0.143-0.033,0.226v1.606h-0.486
		L158.046,113.146L158.046,113.146z M161.045,114.598c0.144,0.093,0.397,0.193,0.641,0.193c0.354,0,0.519-0.177,0.519-0.398
		c0-0.232-0.138-0.358-0.497-0.491c-0.479-0.171-0.706-0.436-0.706-0.756c0-0.43,0.347-0.784,0.921-0.784
		c0.27,0,0.507,0.078,0.656,0.166l-0.122,0.353c-0.104-0.067-0.298-0.155-0.546-0.155c-0.286,0-0.447,0.166-0.447,0.365
		c0,0.221,0.161,0.32,0.508,0.452c0.463,0.177,0.701,0.409,0.701,0.806c0,0.469-0.364,0.801-0.999,0.801
		c-0.292,0-0.563-0.073-0.751-0.183L161.045,114.598L161.045,114.598z M163.348,115.095v-2.301h-0.375v-0.371h0.375v-0.127
		c0-0.375,0.083-0.717,0.31-0.933c0.182-0.176,0.424-0.248,0.65-0.248c0.172,0,0.321,0.039,0.416,0.077l-0.067,0.375
		c-0.072-0.032-0.171-0.06-0.308-0.06c-0.415,0-0.519,0.364-0.519,0.773v0.144h0.645v0.37h-0.645v2.301H163.348z M167.255,113.738
		c0,0.987-0.684,1.417-1.33,1.417c-0.723,0-1.28-0.529-1.28-1.374c0-0.894,0.584-1.418,1.324-1.418
		C166.737,112.363,167.256,112.92,167.255,113.738L167.255,113.738z M165.137,113.765c0,0.585,0.337,1.026,0.812,1.026
		c0.463,0,0.811-0.436,0.811-1.038c0-0.452-0.225-1.026-0.799-1.026S165.137,113.257,165.137,113.765L165.137,113.765z
		 M167.87,113.257c0-0.315-0.005-0.585-0.022-0.833h0.425l0.017,0.524h0.022c0.122-0.359,0.414-0.585,0.739-0.585
		c0.055,0,0.093,0.005,0.138,0.017v0.458c-0.05-0.011-0.099-0.017-0.165-0.017c-0.343,0-0.585,0.259-0.652,0.624
		c-0.011,0.067-0.022,0.144-0.022,0.225v1.426h-0.48v-1.839L167.87,113.257z M169.698,113.146c0-0.276-0.005-0.502-0.022-0.722
		h0.425l0.022,0.43h0.018c0.148-0.253,0.397-0.491,0.838-0.491c0.365,0,0.64,0.221,0.756,0.535h0.012
		c0.083-0.149,0.188-0.265,0.297-0.348c0.16-0.122,0.336-0.187,0.591-0.187c0.354,0,0.877,0.232,0.877,1.16v1.573h-0.475v-1.512
		c0-0.514-0.188-0.822-0.58-0.822c-0.276,0-0.491,0.204-0.574,0.441c-0.022,0.066-0.038,0.154-0.038,0.242v1.651h-0.474v-1.601
		c0-0.425-0.188-0.734-0.558-0.734c-0.304,0-0.524,0.242-0.602,0.485c-0.028,0.072-0.039,0.155-0.039,0.238v1.611h-0.474v-1.949
		V113.146z M175.783,115.095l-0.039-0.336h-0.016c-0.149,0.209-0.436,0.396-0.816,0.396c-0.541,0-0.817-0.38-0.817-0.768
		c0-0.645,0.575-0.998,1.606-0.994v-0.054c0-0.221-0.061-0.618-0.606-0.618c-0.249,0-0.509,0.077-0.695,0.199l-0.111-0.32
		c0.22-0.144,0.54-0.237,0.877-0.237c0.817,0,1.016,0.557,1.016,1.093v0.999c0,0.232,0.01,0.458,0.044,0.641L175.783,115.095
		L175.783,115.095z M175.711,113.732c-0.529-0.011-1.132,0.083-1.132,0.602c0,0.314,0.211,0.464,0.459,0.464
		c0.348,0,0.568-0.222,0.646-0.447c0.016-0.049,0.028-0.105,0.028-0.155L175.711,113.732L175.711,113.732z M176.965,113.146
		c0-0.276-0.006-0.502-0.023-0.722h0.426l0.021,0.43h0.017c0.149-0.253,0.397-0.491,0.838-0.491c0.364,0,0.641,0.221,0.757,0.535
		h0.01c0.083-0.149,0.188-0.265,0.297-0.348c0.16-0.122,0.336-0.187,0.591-0.187c0.353,0,0.877,0.232,0.877,1.16v1.573h-0.474
		v-1.512c0-0.514-0.189-0.822-0.581-0.822c-0.275,0-0.491,0.204-0.573,0.441c-0.022,0.066-0.039,0.154-0.039,0.242v1.651h-0.474
		v-1.601c0-0.425-0.189-0.734-0.558-0.734c-0.303,0-0.524,0.242-0.601,0.485c-0.028,0.072-0.039,0.155-0.039,0.238v1.611h-0.474
		v-1.949L176.965,113.146z M183.013,113.847c0.01,0.657,0.429,0.928,0.915,0.928c0.348,0,0.558-0.062,0.739-0.139l0.083,0.348
		c-0.17,0.078-0.463,0.166-0.888,0.166c-0.822,0-1.314-0.542-1.314-1.347c0-0.805,0.476-1.44,1.254-1.44
		c0.872,0,1.104,0.767,1.104,1.258c0,0.1-0.011,0.177-0.017,0.225h-1.876L183.013,113.847z M184.436,113.5
		c0.005-0.309-0.126-0.79-0.673-0.79c-0.491,0-0.707,0.453-0.746,0.79H184.436z M185.507,113.146c0-0.276-0.005-0.502-0.021-0.722
		h0.424l0.022,0.43h0.017c0.149-0.253,0.398-0.491,0.839-0.491c0.364,0,0.64,0.221,0.756,0.535h0.011
		c0.083-0.149,0.188-0.265,0.298-0.348c0.16-0.122,0.336-0.187,0.59-0.187c0.354,0,0.878,0.232,0.878,1.16v1.573h-0.475v-1.512
		c0-0.514-0.188-0.822-0.58-0.822c-0.276,0-0.491,0.204-0.573,0.441c-0.022,0.066-0.039,0.154-0.039,0.242v1.651h-0.474v-1.601
		c0-0.425-0.189-0.734-0.558-0.734c-0.304,0-0.524,0.242-0.603,0.485c-0.027,0.072-0.038,0.155-0.038,0.238v1.611h-0.474v-1.949
		L185.507,113.146z M192.763,115.095l-0.039-0.336h-0.017c-0.149,0.209-0.437,0.396-0.817,0.396c-0.541,0-0.817-0.38-0.817-0.768
		c0-0.645,0.574-0.998,1.606-0.994v-0.054c0-0.221-0.061-0.618-0.607-0.618c-0.248,0-0.508,0.077-0.695,0.199l-0.11-0.32
		c0.221-0.144,0.541-0.237,0.877-0.237c0.817,0,1.016,0.557,1.016,1.093v0.999c0,0.232,0.01,0.458,0.044,0.641L192.763,115.095
		L192.763,115.095z M192.691,113.732c-0.529-0.011-1.132,0.083-1.132,0.602c0,0.314,0.21,0.464,0.458,0.464
		c0.348,0,0.568-0.222,0.646-0.447c0.017-0.049,0.028-0.105,0.028-0.155V113.732L192.691,113.732z M193.946,113.257
		c0-0.315-0.006-0.585-0.022-0.833h0.425l0.017,0.524h0.023c0.121-0.359,0.413-0.585,0.738-0.585c0.056,0,0.094,0.005,0.138,0.017
		v0.458c-0.049-0.011-0.099-0.017-0.165-0.017c-0.342,0-0.584,0.259-0.651,0.624c-0.01,0.067-0.022,0.144-0.022,0.225v1.426h-0.48
		v-1.839L193.946,113.257z M196.469,111.656v0.767h0.694v0.37h-0.694v1.44c0,0.332,0.093,0.519,0.362,0.519
		c0.128,0,0.221-0.017,0.282-0.034l0.023,0.363c-0.095,0.04-0.243,0.067-0.431,0.067c-0.228,0-0.41-0.071-0.525-0.204
		c-0.138-0.144-0.188-0.38-0.188-0.695v-1.457h-0.414v-0.37h0.414v-0.641L196.469,111.656L196.469,111.656z M197.949,113.847
		c0.011,0.657,0.43,0.928,0.916,0.928c0.347,0,0.556-0.062,0.738-0.139l0.083,0.348c-0.17,0.078-0.463,0.166-0.888,0.166
		c-0.823,0-1.314-0.542-1.314-1.347c0-0.805,0.476-1.44,1.253-1.44c0.873,0,1.104,0.767,1.104,1.258c0,0.1-0.012,0.177-0.018,0.225
		h-1.876V113.847z M199.373,113.5c0.005-0.309-0.127-0.79-0.673-0.79c-0.491,0-0.707,0.453-0.746,0.79H199.373z M200.064,115.774
		c0.121-0.326,0.271-0.916,0.331-1.319l0.54-0.056c-0.125,0.47-0.369,1.083-0.523,1.342L200.064,115.774L200.064,115.774z
		 M202.692,113.146c0-0.276-0.005-0.502-0.022-0.722h0.425l0.022,0.43h0.018c0.148-0.253,0.397-0.491,0.838-0.491
		c0.364,0,0.64,0.221,0.756,0.535h0.011c0.083-0.149,0.188-0.265,0.298-0.348c0.16-0.122,0.336-0.187,0.59-0.187
		c0.354,0,0.878,0.232,0.878,1.16v1.573h-0.475v-1.512c0-0.514-0.187-0.822-0.58-0.822c-0.276,0-0.49,0.204-0.573,0.441
		c-0.022,0.066-0.039,0.154-0.039,0.242v1.651h-0.474v-1.601c0-0.425-0.189-0.734-0.559-0.734c-0.303,0-0.524,0.242-0.603,0.485
		c-0.026,0.072-0.038,0.155-0.038,0.238v1.611h-0.475v-1.949L202.692,113.146z M207.567,113.847
		c0.011,0.657,0.431,0.928,0.916,0.928c0.348,0,0.559-0.062,0.74-0.139l0.083,0.348c-0.171,0.078-0.463,0.166-0.888,0.166
		c-0.823,0-1.314-0.542-1.314-1.347c0-0.805,0.475-1.44,1.253-1.44c0.872,0,1.104,0.767,1.104,1.258c0,0.1-0.012,0.177-0.018,0.225
		h-1.876V113.847z M208.992,113.5c0.006-0.309-0.126-0.79-0.673-0.79c-0.49,0-0.707,0.453-0.745,0.79H208.992L208.992,113.5z
		 M211.285,115.095v-2.301h-0.375v-0.371h0.375v-0.127c0-0.375,0.083-0.717,0.309-0.933c0.183-0.176,0.426-0.248,0.651-0.248
		c0.172,0,0.32,0.039,0.415,0.077l-0.068,0.375c-0.071-0.032-0.17-0.06-0.308-0.06c-0.414,0-0.52,0.364-0.52,0.773v0.144h0.646v0.37
		h-0.646v2.301H211.285z M214.326,115.095l-0.039-0.336h-0.016c-0.15,0.209-0.437,0.396-0.818,0.396
		c-0.541,0-0.816-0.38-0.816-0.768c0-0.645,0.574-0.998,1.606-0.994v-0.054c0-0.221-0.062-0.618-0.608-0.618
		c-0.249,0-0.508,0.077-0.695,0.199l-0.11-0.32c0.22-0.144,0.541-0.237,0.877-0.237c0.816,0,1.015,0.557,1.015,1.093v0.999
		c0,0.232,0.011,0.458,0.045,0.641L214.326,115.095L214.326,115.095z M214.254,113.732c-0.528-0.011-1.131,0.083-1.131,0.602
		c0,0.314,0.21,0.464,0.458,0.464c0.347,0,0.568-0.222,0.646-0.447c0.017-0.049,0.027-0.105,0.027-0.155V113.732L214.254,113.732z
		 M215.443,114.598c0.143,0.093,0.397,0.193,0.64,0.193c0.354,0,0.519-0.177,0.519-0.398c0-0.232-0.139-0.358-0.497-0.491
		c-0.48-0.171-0.707-0.436-0.707-0.756c0-0.43,0.348-0.784,0.922-0.784c0.271,0,0.508,0.078,0.657,0.166l-0.121,0.353
		c-0.105-0.067-0.298-0.155-0.546-0.155c-0.288,0-0.449,0.166-0.449,0.365c0,0.221,0.161,0.32,0.508,0.452
		c0.464,0.177,0.701,0.409,0.701,0.806c0,0.469-0.364,0.801-0.998,0.801c-0.293,0-0.564-0.073-0.752-0.183L215.443,114.598
		L215.443,114.598z M219.601,114.996c-0.128,0.066-0.41,0.154-0.769,0.154c-0.805,0-1.33-0.546-1.33-1.363
		c0-0.823,0.563-1.419,1.436-1.419c0.286,0,0.541,0.072,0.673,0.138l-0.111,0.375c-0.116-0.066-0.297-0.126-0.563-0.126
		c-0.613,0-0.944,0.453-0.944,1.01c0,0.618,0.397,0.998,0.928,0.998c0.275,0,0.457-0.072,0.596-0.133L219.601,114.996
		L219.601,114.996z M220.71,111.673c0.006,0.166-0.116,0.297-0.308,0.297c-0.172,0-0.293-0.132-0.293-0.297
		c0-0.171,0.127-0.304,0.304-0.304C220.594,111.37,220.71,111.503,220.71,111.673L220.71,111.673z M220.169,115.095v-2.671h0.486
		v2.671H220.169z M221.461,113.146c0-0.276-0.005-0.502-0.021-0.722h0.431l0.027,0.44h0.011c0.132-0.254,0.441-0.501,0.883-0.501
		c0.37,0,0.944,0.22,0.944,1.137v1.595h-0.485v-1.54c0-0.431-0.16-0.79-0.618-0.79c-0.32,0-0.568,0.227-0.651,0.497
		c-0.022,0.061-0.033,0.143-0.033,0.226v1.606h-0.487L221.461,113.146L221.461,113.146z M226.006,115.095l-0.039-0.336h-0.017
		c-0.149,0.209-0.437,0.396-0.816,0.396c-0.542,0-0.817-0.38-0.817-0.768c0-0.645,0.573-0.998,1.605-0.994v-0.054
		c0-0.221-0.061-0.618-0.607-0.618c-0.249,0-0.507,0.077-0.695,0.199l-0.11-0.32c0.221-0.144,0.541-0.237,0.877-0.237
		c0.817,0,1.016,0.557,1.016,1.093v0.999c0,0.232,0.01,0.458,0.044,0.641L226.006,115.095L226.006,115.095z M225.933,113.732
		c-0.529-0.011-1.132,0.083-1.132,0.602c0,0.314,0.211,0.464,0.459,0.464c0.347,0,0.568-0.222,0.645-0.447
		c0.017-0.049,0.027-0.105,0.027-0.155L225.933,113.732L225.933,113.732z M227.188,113.146c0-0.276-0.005-0.502-0.021-0.722h0.424
		l0.022,0.43h0.018c0.148-0.253,0.396-0.491,0.838-0.491c0.365,0,0.641,0.221,0.757,0.535h0.011
		c0.083-0.149,0.187-0.265,0.297-0.348c0.16-0.122,0.337-0.187,0.59-0.187c0.354,0,0.878,0.232,0.878,1.16v1.573h-0.475v-1.512
		c0-0.514-0.188-0.822-0.581-0.822c-0.276,0-0.49,0.204-0.573,0.441c-0.021,0.066-0.039,0.154-0.039,0.242v1.651h-0.474v-1.601
		c0-0.425-0.188-0.734-0.558-0.734c-0.304,0-0.525,0.242-0.603,0.485c-0.027,0.072-0.038,0.155-0.038,0.238v1.611h-0.474v-1.949
		L227.188,113.146z M232.218,111.314c-0.126,0.463-0.364,1.053-0.513,1.308l-0.309,0.039c0.116-0.325,0.265-0.899,0.326-1.296
		L232.218,111.314L232.218,111.314z M233.035,111.314c-0.126,0.463-0.364,1.053-0.513,1.308l-0.309,0.039
		c0.122-0.325,0.264-0.899,0.327-1.296L233.035,111.314L233.035,111.314z"/>
</g>
<g>
	<path fill="#FFFFFF" d="M233.902,113.478l2.56-1.32v0.381l-2.158,1.081v0.011l2.158,1.083v0.381l-2.561-1.319L233.902,113.478
		L233.902,113.478z M236.823,115.316l1.54-4.002h0.376l-1.546,4.001L236.823,115.316L236.823,115.316z"/>
</g>
<g>
	<path fill="#F92672" d="M239.061,114.598c0.143,0.093,0.397,0.193,0.639,0.193c0.354,0,0.519-0.177,0.519-0.398
		c0-0.232-0.138-0.358-0.496-0.491c-0.48-0.171-0.706-0.436-0.706-0.756c0-0.43,0.347-0.784,0.921-0.784
		c0.271,0,0.508,0.078,0.657,0.166l-0.122,0.353c-0.107-0.067-0.299-0.155-0.548-0.155c-0.287,0-0.446,0.166-0.446,0.365
		c0,0.221,0.159,0.32,0.507,0.452c0.463,0.177,0.7,0.409,0.7,0.806c0,0.469-0.363,0.801-0.998,0.801
		c-0.293,0-0.564-0.073-0.75-0.183L239.061,114.598L239.061,114.598z M241.313,113.296c0-0.343-0.011-0.619-0.022-0.873h0.436
		l0.023,0.458h0.011c0.199-0.326,0.512-0.519,0.949-0.519c0.646,0,1.132,0.546,1.132,1.357c0,0.96-0.585,1.434-1.215,1.434
		c-0.354,0-0.663-0.154-0.822-0.418h-0.011v1.451h-0.48V113.296L241.313,113.296z M241.793,114.008c0,0.071,0.011,0.138,0.022,0.199
		c0.087,0.336,0.38,0.568,0.729,0.568c0.513,0,0.811-0.42,0.811-1.033c0-0.535-0.28-0.993-0.794-0.993
		c-0.332,0-0.64,0.237-0.734,0.601c-0.017,0.062-0.032,0.133-0.032,0.199v0.458H241.793z M245.933,115.095l-0.038-0.336h-0.016
		c-0.148,0.209-0.436,0.396-0.817,0.396c-0.541,0-0.817-0.38-0.817-0.768c0-0.645,0.574-0.998,1.607-0.994v-0.054
		c0-0.221-0.062-0.618-0.608-0.618c-0.249,0-0.507,0.077-0.695,0.199l-0.11-0.32c0.221-0.144,0.541-0.237,0.876-0.237
		c0.817,0,1.016,0.557,1.016,1.093v0.999c0,0.232,0.011,0.458,0.044,0.641L245.933,115.095L245.933,115.095z M245.862,113.732
		c-0.529-0.011-1.131,0.083-1.131,0.602c0,0.314,0.21,0.464,0.458,0.464c0.348,0,0.569-0.222,0.646-0.447
		c0.017-0.049,0.028-0.105,0.028-0.155L245.862,113.732L245.862,113.732z M247.117,113.146c0-0.276-0.006-0.502-0.024-0.722h0.432
		l0.028,0.44h0.011c0.132-0.254,0.441-0.501,0.883-0.501c0.37,0,0.944,0.22,0.944,1.137v1.595h-0.486v-1.54
		c0-0.431-0.159-0.79-0.617-0.79c-0.32,0-0.569,0.227-0.651,0.497c-0.022,0.061-0.034,0.143-0.034,0.226v1.606h-0.485
		L247.117,113.146L247.117,113.146z"/>
</g>
<path fill="#FFFFFF" d="M252.703,113.781l-2.56,1.313v-0.381l2.174-1.083v-0.011l-2.174-1.081v-0.383l2.56,1.314V113.781
	L252.703,113.781z M95.968,120.104l2.561-1.319v0.381l-2.158,1.082v0.011l2.158,1.082v0.381l-2.561-1.319V120.104z"/>
<g>
	<path fill="#F92672" d="M99.232,121.224c0.144,0.094,0.397,0.193,0.641,0.193c0.353,0,0.519-0.176,0.519-0.397
		c0-0.231-0.139-0.358-0.497-0.49c-0.479-0.171-0.707-0.437-0.707-0.756c0-0.431,0.348-0.784,0.922-0.784
		c0.27,0,0.508,0.077,0.657,0.166l-0.122,0.353c-0.106-0.066-0.298-0.154-0.546-0.154c-0.288,0-0.447,0.165-0.447,0.364
		c0,0.221,0.16,0.319,0.508,0.452c0.463,0.176,0.701,0.408,0.701,0.805c0,0.47-0.365,0.801-0.999,0.801
		c-0.292,0-0.563-0.072-0.751-0.183L99.232,121.224L99.232,121.224z M101.485,119.922c0-0.342-0.012-0.618-0.022-0.872h0.436
		l0.022,0.458h0.011c0.199-0.325,0.514-0.519,0.949-0.519c0.646,0,1.132,0.546,1.132,1.357c0,0.96-0.585,1.435-1.214,1.435
		c-0.353,0-0.663-0.155-0.822-0.419h-0.011v1.452h-0.48L101.485,119.922L101.485,119.922z M101.965,120.634
		c0,0.072,0.012,0.139,0.022,0.199c0.088,0.336,0.381,0.568,0.729,0.568c0.514,0,0.812-0.419,0.812-1.032
		c0-0.536-0.281-0.994-0.794-0.994c-0.332,0-0.64,0.238-0.734,0.603c-0.018,0.06-0.034,0.132-0.034,0.198V120.634z M106.106,121.721
		l-0.039-0.336h-0.017c-0.149,0.209-0.436,0.397-0.817,0.397c-0.54,0-0.816-0.381-0.816-0.767c0-0.646,0.574-0.999,1.606-0.995
		v-0.054c0-0.22-0.061-0.619-0.607-0.619c-0.248,0-0.507,0.078-0.694,0.199l-0.111-0.32c0.222-0.144,0.541-0.237,0.878-0.237
		c0.817,0,1.016,0.557,1.016,1.092v0.999c0,0.233,0.011,0.459,0.044,0.641L106.106,121.721L106.106,121.721z M106.034,120.358
		c-0.529-0.011-1.133,0.083-1.133,0.602c0,0.315,0.211,0.464,0.46,0.464c0.347,0,0.567-0.221,0.645-0.447
		c0.017-0.048,0.028-0.104,0.028-0.155V120.358L106.034,120.358z M107.288,119.774c0-0.276-0.006-0.503-0.022-0.723h0.431
		l0.027,0.442h0.011c0.133-0.255,0.443-0.502,0.884-0.502c0.369,0,0.943,0.22,0.943,1.136v1.595h-0.486v-1.54
		c0-0.43-0.16-0.79-0.617-0.79c-0.32,0-0.568,0.226-0.652,0.497c-0.022,0.061-0.033,0.144-0.033,0.226v1.606h-0.486L107.288,119.774
		L107.288,119.774z"/>
</g>
<g>
	<path fill="#7FE22E" d="M113.427,121.622c-0.126,0.066-0.408,0.155-0.767,0.155c-0.806,0-1.33-0.547-1.33-1.364
		c0-0.823,0.563-1.418,1.435-1.418c0.287,0,0.541,0.072,0.673,0.138l-0.111,0.375c-0.115-0.066-0.297-0.127-0.562-0.127
		c-0.614,0-0.943,0.453-0.943,1.01c0,0.618,0.397,0.998,0.926,0.998c0.276,0,0.458-0.072,0.597-0.132L113.427,121.622
		L113.427,121.622z M113.998,117.802h0.485v3.919h-0.485L113.998,117.802L113.998,117.802z M116.78,121.721l-0.039-0.336h-0.016
		c-0.149,0.209-0.437,0.397-0.817,0.397c-0.541,0-0.817-0.381-0.817-0.767c0-0.646,0.574-0.999,1.606-0.995v-0.054
		c0-0.22-0.061-0.619-0.607-0.619c-0.249,0-0.508,0.078-0.695,0.199l-0.11-0.32c0.221-0.144,0.541-0.237,0.877-0.237
		c0.817,0,1.015,0.557,1.015,1.092v0.999c0,0.233,0.011,0.459,0.045,0.641L116.78,121.721L116.78,121.721z M116.708,120.358
		c-0.529-0.011-1.132,0.083-1.132,0.602c0,0.315,0.21,0.464,0.459,0.464c0.348,0,0.568-0.221,0.646-0.447
		c0.017-0.048,0.027-0.104,0.027-0.155V120.358L116.708,120.358z M117.896,121.224c0.144,0.094,0.397,0.193,0.641,0.193
		c0.353,0,0.518-0.176,0.518-0.397c0-0.231-0.139-0.358-0.498-0.49c-0.479-0.171-0.706-0.437-0.706-0.756
		c0-0.431,0.347-0.784,0.922-0.784c0.27,0,0.507,0.077,0.656,0.166l-0.121,0.353c-0.105-0.066-0.298-0.154-0.546-0.154
		c-0.287,0-0.447,0.165-0.447,0.364c0,0.221,0.16,0.319,0.507,0.452c0.464,0.176,0.701,0.408,0.701,0.805
		c0,0.47-0.365,0.801-0.998,0.801c-0.293,0-0.563-0.072-0.751-0.183L117.896,121.224L117.896,121.224z M120.083,121.224
		c0.143,0.094,0.397,0.193,0.639,0.193c0.354,0,0.519-0.176,0.519-0.397c0-0.231-0.138-0.358-0.497-0.49
		c-0.479-0.171-0.706-0.437-0.706-0.756c0-0.431,0.348-0.784,0.922-0.784c0.27,0,0.507,0.077,0.657,0.166l-0.122,0.353
		c-0.105-0.066-0.298-0.154-0.546-0.154c-0.287,0-0.447,0.165-0.447,0.364c0,0.221,0.161,0.319,0.509,0.452
		c0.463,0.176,0.7,0.408,0.7,0.805c0,0.47-0.364,0.801-0.998,0.801c-0.293,0-0.563-0.072-0.751-0.183L120.083,121.224
		L120.083,121.224z"/>
</g>
<path fill="#FFFFFF" d="M122.153,119.861v-0.331h2.849v0.331H122.153z M122.153,120.942v-0.331h2.849v0.331H122.153z"/>
<g>
	<path fill="#E6DB62" d="M125.986,117.941l-0.095,1.324h-0.298l-0.087-1.324H125.986z M126.808,117.941l-0.093,1.324h-0.292
		l-0.094-1.324H126.808L126.808,117.941z M127.676,121.721v-2.301H127.3v-0.371h0.375v-0.127c0-0.376,0.083-0.717,0.309-0.933
		c0.183-0.177,0.425-0.249,0.652-0.249c0.171,0,0.32,0.039,0.414,0.078l-0.066,0.375c-0.072-0.032-0.171-0.061-0.309-0.061
		c-0.415,0-0.519,0.364-0.519,0.773v0.144h0.646v0.37h-0.646v2.301H127.676L127.676,121.721z M129.238,119.883
		c0-0.314-0.005-0.584-0.022-0.833h0.424l0.017,0.524h0.022c0.122-0.359,0.415-0.585,0.74-0.585c0.055,0,0.094,0.005,0.139,0.016
		v0.458c-0.049-0.011-0.099-0.017-0.166-0.017c-0.343,0-0.585,0.259-0.652,0.623c-0.011,0.066-0.022,0.144-0.022,0.226v1.425h-0.48
		V119.883L129.238,119.883z M132.496,121.721l-0.038-0.336h-0.017c-0.148,0.209-0.436,0.397-0.816,0.397
		c-0.541,0-0.817-0.381-0.817-0.767c0-0.646,0.574-0.999,1.606-0.995v-0.054c0-0.22-0.061-0.619-0.607-0.619
		c-0.249,0-0.508,0.078-0.694,0.199l-0.111-0.32c0.22-0.144,0.541-0.237,0.877-0.237c0.818,0,1.016,0.557,1.016,1.092v0.999
		c0,0.233,0.011,0.459,0.044,0.641L132.496,121.721L132.496,121.721z M132.424,120.358c-0.529-0.011-1.131,0.083-1.131,0.602
		c0,0.315,0.209,0.464,0.458,0.464c0.348,0,0.568-0.221,0.646-0.447c0.017-0.048,0.028-0.104,0.028-0.155V120.358L132.424,120.358z
		 M133.612,121.224c0.144,0.094,0.398,0.193,0.64,0.193c0.354,0,0.52-0.176,0.52-0.397c0-0.231-0.139-0.358-0.497-0.49
		c-0.48-0.171-0.707-0.437-0.707-0.756c0-0.431,0.348-0.784,0.922-0.784c0.271,0,0.508,0.077,0.656,0.166l-0.121,0.353
		c-0.104-0.066-0.298-0.154-0.546-0.154c-0.287,0-0.447,0.165-0.447,0.364c0,0.221,0.161,0.319,0.508,0.452
		c0.463,0.176,0.701,0.408,0.701,0.805c0,0.47-0.365,0.801-0.999,0.801c-0.292,0-0.563-0.072-0.751-0.183L133.612,121.224
		L133.612,121.224z M136.136,120.474c0.01,0.656,0.431,0.927,0.916,0.927c0.347,0,0.558-0.062,0.74-0.138l0.083,0.347
		c-0.171,0.078-0.463,0.167-0.888,0.167c-0.822,0-1.313-0.541-1.313-1.347s0.475-1.44,1.253-1.44c0.872,0,1.104,0.767,1.104,1.258
		c0,0.099-0.011,0.176-0.016,0.225h-1.877L136.136,120.474z M137.56,120.126c0.005-0.309-0.127-0.79-0.674-0.79
		c-0.491,0-0.706,0.452-0.746,0.79H137.56z M138.99,117.941l-0.094,1.324h-0.297l-0.088-1.324H138.99z M139.813,117.941
		l-0.094,1.324h-0.292l-0.095-1.324H139.813z"/>
</g>
<g>
	<path fill="#FFFFFF" d="M142.903,120.407l-2.56,1.313v-0.382l2.175-1.082v-0.01l-2.175-1.082v-0.382l2.561,1.313L142.903,120.407
		L142.903,120.407z M146.869,119.823c0,1.28-0.778,1.959-1.728,1.959c-0.983,0-1.672-0.762-1.672-1.888
		c0-1.181,0.734-1.954,1.727-1.954C146.21,117.941,146.868,118.719,146.869,119.823L146.869,119.823z M143.982,119.883
		c0,0.795,0.43,1.507,1.186,1.507c0.762,0,1.192-0.701,1.192-1.545c0-0.739-0.386-1.512-1.187-1.512
		C144.378,118.332,143.982,119.067,143.982,119.883z M147.477,117.802h0.487v3.919h-0.487V117.802z M150.26,121.721l-0.039-0.336
		h-0.017c-0.149,0.209-0.436,0.397-0.816,0.397c-0.541,0-0.817-0.381-0.817-0.767c0-0.646,0.574-0.999,1.606-0.995v-0.054
		c0-0.22-0.06-0.619-0.607-0.619c-0.249,0-0.508,0.078-0.695,0.199l-0.111-0.32c0.221-0.144,0.541-0.237,0.878-0.237
		c0.817,0,1.016,0.557,1.016,1.092v0.999c0,0.233,0.011,0.459,0.044,0.641L150.26,121.721L150.26,121.721z M150.188,120.358
		c-0.53-0.011-1.131,0.083-1.131,0.602c0,0.315,0.209,0.464,0.458,0.464c0.348,0,0.568-0.221,0.646-0.447
		c0.017-0.048,0.028-0.104,0.028-0.155L150.188,120.358L150.188,120.358z M150.431,117.897l-0.673,0.789h-0.348l0.485-0.789H150.431
		L150.431,117.897z M151.127,122.4c0.122-0.325,0.271-0.915,0.332-1.319l0.541-0.055c-0.127,0.469-0.371,1.081-0.525,1.34
		L151.127,122.4L151.127,122.4z M153.689,121.224c0.144,0.094,0.398,0.193,0.641,0.193c0.354,0,0.519-0.176,0.519-0.397
		c0-0.231-0.138-0.358-0.497-0.49c-0.48-0.171-0.707-0.437-0.707-0.756c0-0.431,0.348-0.784,0.922-0.784
		c0.271,0,0.508,0.077,0.656,0.166l-0.121,0.353c-0.105-0.066-0.297-0.154-0.546-0.154c-0.287,0-0.447,0.165-0.447,0.364
		c0,0.221,0.16,0.319,0.508,0.452c0.463,0.176,0.7,0.408,0.7,0.805c0,0.47-0.365,0.801-0.999,0.801c-0.293,0-0.563-0.072-0.75-0.183
		L153.689,121.224L153.689,121.224z M158.361,120.364c0,0.988-0.685,1.419-1.331,1.419c-0.723,0-1.281-0.529-1.281-1.374
		c0-0.894,0.584-1.418,1.324-1.418C157.842,118.99,158.36,119.547,158.361,120.364L158.361,120.364z M156.24,120.392
		c0,0.584,0.337,1.025,0.811,1.025c0.464,0,0.812-0.436,0.812-1.038c0-0.452-0.227-1.025-0.801-1.025S156.24,119.883,156.24,120.392
		L156.24,120.392z M161.208,120.993c0,0.276,0.006,0.519,0.023,0.729h-0.431l-0.028-0.436h-0.011
		c-0.128,0.215-0.409,0.497-0.884,0.497c-0.418,0-0.921-0.232-0.921-1.171v-1.562h0.486v1.479c0,0.508,0.154,0.85,0.596,0.85
		c0.326,0,0.552-0.227,0.64-0.441c0.028-0.072,0.044-0.161,0.044-0.249v-1.639h0.486V120.993L161.208,120.993z M163.204,118.051
		c0.243-0.05,0.59-0.078,0.922-0.078c0.513,0,0.844,0.094,1.076,0.304c0.188,0.166,0.292,0.419,0.292,0.707
		c0,0.492-0.308,0.816-0.701,0.949v0.017c0.287,0.099,0.458,0.363,0.546,0.75c0.121,0.519,0.209,0.877,0.287,1.021h-0.497
		c-0.061-0.106-0.143-0.426-0.249-0.889c-0.11-0.513-0.308-0.707-0.744-0.722h-0.453v1.61h-0.481L163.204,118.051L163.204,118.051z
		 M163.684,119.745h0.491c0.513,0,0.838-0.281,0.838-0.707c0-0.479-0.347-0.689-0.855-0.694c-0.231,0-0.397,0.022-0.474,0.044
		L163.684,119.745L163.684,119.745z M168.598,120.364c0,0.988-0.685,1.419-1.33,1.419c-0.723,0-1.281-0.529-1.281-1.374
		c0-0.894,0.584-1.418,1.325-1.418C168.08,118.99,168.598,119.547,168.598,120.364L168.598,120.364z M166.479,120.392
		c0,0.584,0.337,1.025,0.812,1.025c0.463,0,0.811-0.436,0.811-1.038c0-0.452-0.226-1.025-0.8-1.025
		C166.728,119.354,166.479,119.883,166.479,120.392L166.479,120.392z M169.211,119.774c0-0.276-0.004-0.503-0.022-0.723h0.432
		l0.027,0.442h0.01c0.132-0.255,0.442-0.502,0.883-0.502c0.369,0,0.943,0.22,0.943,1.136v1.595H171v-1.54
		c0-0.43-0.16-0.79-0.618-0.79c-0.32,0-0.568,0.226-0.652,0.497c-0.022,0.061-0.033,0.144-0.033,0.226v1.606h-0.486L169.211,119.774
		L169.211,119.774z M173.756,121.721l-0.039-0.336h-0.017c-0.148,0.209-0.436,0.397-0.816,0.397c-0.541,0-0.816-0.381-0.816-0.767
		c0-0.646,0.574-0.999,1.606-0.995v-0.054c0-0.22-0.062-0.619-0.608-0.619c-0.249,0-0.507,0.078-0.694,0.199l-0.111-0.32
		c0.221-0.144,0.541-0.237,0.877-0.237c0.818,0,1.016,0.557,1.016,1.092v0.999c0,0.233,0.01,0.459,0.044,0.641L173.756,121.721
		L173.756,121.721z M173.684,120.358c-0.529-0.011-1.131,0.083-1.131,0.602c0,0.315,0.21,0.464,0.459,0.464
		c0.348,0,0.568-0.221,0.646-0.447c0.017-0.048,0.027-0.104,0.027-0.155L173.684,120.358L173.684,120.358z M174.938,117.802h0.485
		v3.919h-0.485L174.938,117.802L174.938,117.802z M178.548,117.802v3.229c0,0.238,0.006,0.509,0.023,0.69h-0.436l-0.023-0.463h-0.01
		c-0.149,0.298-0.474,0.524-0.911,0.524c-0.646,0-1.142-0.546-1.142-1.358c-0.006-0.888,0.547-1.434,1.198-1.434
		c0.409,0,0.685,0.194,0.807,0.409h0.01v-1.596L178.548,117.802L178.548,117.802z M178.063,120.137c0-0.061-0.005-0.143-0.023-0.204
		c-0.071-0.309-0.336-0.563-0.699-0.563c-0.502,0-0.801,0.441-0.801,1.033c0,0.541,0.265,0.988,0.79,0.988
		c0.325,0,0.623-0.215,0.711-0.58c0.018-0.066,0.023-0.132,0.023-0.209L178.063,120.137L178.063,120.137z M181.773,120.364
		c0,0.988-0.684,1.419-1.33,1.419c-0.723,0-1.28-0.529-1.28-1.374c0-0.894,0.583-1.418,1.324-1.418
		C181.255,118.99,181.773,119.547,181.773,120.364L181.773,120.364z M179.654,120.392c0,0.584,0.336,1.025,0.812,1.025
		c0.464,0,0.812-0.436,0.812-1.038c0-0.452-0.227-1.025-0.8-1.025C179.902,119.354,179.654,119.883,179.654,120.392L179.654,120.392
		z M186.709,120.088c-0.028-0.519-0.061-1.142-0.055-1.605h-0.016c-0.128,0.435-0.282,0.899-0.47,1.413l-0.657,1.805h-0.364
		l-0.602-1.772c-0.177-0.524-0.326-1.005-0.431-1.446h-0.012c-0.009,0.463-0.038,1.085-0.071,1.644l-0.099,1.595h-0.458l0.259-3.721
		h0.612l0.635,1.799c0.155,0.458,0.282,0.867,0.375,1.253h0.017c0.093-0.375,0.226-0.784,0.392-1.253l0.663-1.799h0.612l0.231,3.72
		h-0.469l-0.093-1.634V120.088z M189.51,121.721l-0.038-0.336h-0.017c-0.149,0.209-0.436,0.397-0.817,0.397
		c-0.541,0-0.816-0.381-0.816-0.767c0-0.646,0.574-0.999,1.606-0.995v-0.054c0-0.22-0.061-0.619-0.608-0.619
		c-0.248,0-0.507,0.078-0.694,0.199l-0.111-0.32c0.221-0.144,0.541-0.237,0.878-0.237c0.816,0,1.015,0.557,1.015,1.092v0.999
		c0,0.233,0.011,0.459,0.044,0.641L189.51,121.721L189.51,121.721z M189.439,120.358c-0.53-0.011-1.132,0.083-1.132,0.602
		c0,0.315,0.209,0.464,0.458,0.464c0.347,0,0.568-0.221,0.646-0.447c0.016-0.048,0.028-0.104,0.028-0.155L189.439,120.358
		L189.439,120.358z M192.597,121.622c-0.127,0.066-0.409,0.155-0.768,0.155c-0.805,0-1.33-0.547-1.33-1.364
		c0-0.823,0.563-1.418,1.436-1.418c0.287,0,0.54,0.072,0.672,0.138l-0.11,0.375c-0.116-0.066-0.298-0.127-0.563-0.127
		c-0.614,0-0.945,0.453-0.945,1.01c0,0.618,0.397,0.998,0.928,0.998c0.276,0,0.458-0.072,0.596-0.132L192.597,121.622
		L192.597,121.622z M193.706,118.3c0.006,0.166-0.115,0.297-0.308,0.297c-0.171,0-0.292-0.132-0.292-0.297
		c0-0.17,0.127-0.303,0.303-0.303C193.591,117.996,193.707,118.129,193.706,118.3L193.706,118.3z M193.166,121.721v-2.671h0.486
		v2.671H193.166z M194.729,120.474c0.011,0.656,0.431,0.927,0.916,0.927c0.347,0,0.558-0.062,0.739-0.138l0.083,0.347
		c-0.172,0.078-0.464,0.167-0.888,0.167c-0.823,0-1.314-0.541-1.314-1.347s0.475-1.44,1.252-1.44c0.873,0,1.104,0.767,1.104,1.258
		c0,0.099-0.011,0.176-0.017,0.225h-1.876L194.729,120.474z M196.153,120.126c0.005-0.309-0.127-0.79-0.674-0.79
		c-0.49,0-0.707,0.452-0.746,0.79H196.153z M197.225,117.802h0.486v3.919h-0.486V117.802z M199.715,118.001h2.003v0.404h-1.523
		v1.236h1.407v0.396h-1.407v1.684h-0.48V118.001L199.715,118.001z M202.245,119.883c0-0.314-0.005-0.584-0.022-0.833h0.425
		l0.017,0.524h0.021c0.122-0.359,0.414-0.585,0.74-0.585c0.054,0,0.094,0.005,0.137,0.016v0.458
		c-0.049-0.011-0.099-0.017-0.164-0.017c-0.343,0-0.585,0.259-0.652,0.623c-0.01,0.066-0.022,0.144-0.022,0.226v1.425h-0.48V119.883
		L202.245,119.883z M206.413,120.364c0,0.988-0.684,1.419-1.33,1.419c-0.724,0-1.281-0.529-1.281-1.374
		c0-0.894,0.584-1.418,1.324-1.418C205.894,118.99,206.412,119.547,206.413,120.364L206.413,120.364z M204.293,120.392
		c0,0.584,0.336,1.025,0.812,1.025c0.463,0,0.811-0.436,0.811-1.038c0-0.452-0.227-1.025-0.8-1.025
		C204.541,119.354,204.293,119.883,204.293,120.392L204.293,120.392z M207.027,119.774c0-0.276-0.005-0.503-0.022-0.723h0.43
		l0.028,0.442h0.011c0.132-0.255,0.442-0.502,0.883-0.502c0.37,0,0.943,0.22,0.943,1.136v1.595h-0.486v-1.54
		c0-0.43-0.16-0.79-0.618-0.79c-0.32,0-0.569,0.226-0.652,0.497c-0.021,0.061-0.032,0.144-0.032,0.226v1.606h-0.486L207.027,119.774
		L207.027,119.774z M210.655,118.283v0.767h0.695v0.37h-0.695v1.44c0,0.331,0.093,0.519,0.363,0.519
		c0.128,0,0.221-0.017,0.283-0.034l0.021,0.364c-0.094,0.039-0.242,0.068-0.43,0.068c-0.226,0-0.409-0.072-0.525-0.205
		c-0.138-0.144-0.187-0.38-0.187-0.695v-1.457h-0.414v-0.37h0.414v-0.641L210.655,118.283L210.655,118.283z M212.995,120.049v0.359
		h-1.363v-0.359H212.995z M215.508,119.977h-1.447v1.341h1.611v0.403h-2.091v-3.721h2.008v0.404h-1.529v1.175h1.447V119.977z
		 M216.282,119.774c0-0.276-0.005-0.503-0.022-0.723h0.43l0.028,0.442h0.011c0.133-0.255,0.441-0.502,0.884-0.502
		c0.369,0,0.943,0.22,0.943,1.136v1.595h-0.486v-1.54c0-0.43-0.16-0.79-0.618-0.79c-0.319,0-0.569,0.226-0.651,0.497
		c-0.021,0.061-0.032,0.144-0.032,0.226v1.606h-0.486L216.282,119.774L216.282,119.774z M221.653,117.802v3.229
		c0,0.238,0.005,0.509,0.021,0.69h-0.436l-0.021-0.463h-0.011c-0.148,0.298-0.474,0.524-0.91,0.524
		c-0.645,0-1.142-0.546-1.142-1.358c-0.005-0.888,0.546-1.434,1.198-1.434c0.408,0,0.684,0.194,0.805,0.409h0.012v-1.596
		L221.653,117.802L221.653,117.802z M221.168,120.137c0-0.061-0.007-0.143-0.022-0.204c-0.072-0.309-0.337-0.563-0.701-0.563
		c-0.502,0-0.8,0.441-0.8,1.033c0,0.541,0.265,0.988,0.79,0.988c0.325,0,0.623-0.215,0.712-0.58
		c0.015-0.066,0.021-0.132,0.021-0.209V120.137L221.168,120.137z M225.977,121.721c-0.104-0.105-0.204-0.21-0.347-0.364
		c-0.32,0.298-0.68,0.425-1.087,0.425c-0.724,0-1.143-0.486-1.143-1.043c0-0.509,0.304-0.857,0.728-1.087v-0.017
		c-0.193-0.243-0.309-0.514-0.309-0.777c0-0.453,0.326-0.917,0.943-0.917c0.464,0,0.823,0.309,0.823,0.789
		c0,0.392-0.226,0.701-0.816,0.995v0.016c0.315,0.364,0.667,0.773,0.905,1.038c0.17-0.259,0.286-0.619,0.357-1.088h0.442
		c-0.099,0.585-0.259,1.05-0.536,1.375c0.199,0.209,0.392,0.419,0.612,0.657L225.977,121.721L225.977,121.721z M225.392,121.081
		c-0.221-0.242-0.635-0.695-1.048-1.17c-0.198,0.126-0.48,0.364-0.48,0.756c0,0.424,0.315,0.75,0.761,0.75
		C224.944,121.417,225.215,121.274,225.392,121.081L225.392,121.081z M224.26,118.813c0,0.264,0.122,0.469,0.282,0.667
		c0.374-0.215,0.618-0.413,0.618-0.729c0-0.226-0.127-0.48-0.431-0.48C224.42,118.272,224.26,118.526,224.26,118.813L224.26,118.813
		z M228.568,121.721l-0.944-3.721h0.508l0.441,1.882c0.111,0.464,0.209,0.928,0.276,1.287h0.01c0.062-0.37,0.177-0.811,0.304-1.292
		l0.497-1.876h0.502l0.452,1.888c0.106,0.441,0.204,0.883,0.26,1.275h0.01c0.078-0.409,0.183-0.822,0.298-1.287l0.491-1.876h0.491
		l-1.054,3.721h-0.502l-0.469-1.938c-0.117-0.474-0.193-0.837-0.243-1.213h-0.011c-0.066,0.37-0.148,0.734-0.287,1.214l-0.529,1.938
		h-0.501L228.568,121.721z M232.704,120.474c0.011,0.656,0.431,0.927,0.916,0.927c0.348,0,0.558-0.062,0.739-0.138l0.083,0.347
		c-0.17,0.078-0.463,0.167-0.888,0.167c-0.822,0-1.314-0.541-1.314-1.347s0.475-1.44,1.253-1.44c0.873,0,1.104,0.767,1.104,1.258
		c0,0.099-0.011,0.176-0.017,0.225h-1.876V120.474z M234.128,120.126c0.006-0.309-0.127-0.79-0.673-0.79
		c-0.491,0-0.707,0.452-0.746,0.79H234.128L234.128,120.126z M235.178,121.721c0.01-0.182,0.021-0.453,0.021-0.69v-3.229h0.48v1.678
		h0.011c0.17-0.297,0.48-0.491,0.911-0.491c0.662,0,1.131,0.552,1.125,1.362c0,0.956-0.603,1.43-1.199,1.43
		c-0.386,0-0.695-0.148-0.895-0.501h-0.016l-0.022,0.441L235.178,121.721L235.178,121.721z M235.68,120.65
		c0,0.062,0.011,0.123,0.023,0.177c0.093,0.337,0.375,0.568,0.728,0.568c0.507,0,0.811-0.414,0.811-1.026
		c0-0.536-0.276-0.994-0.794-0.994c-0.332,0-0.641,0.226-0.74,0.597c-0.011,0.055-0.027,0.121-0.027,0.198L235.68,120.65
		L235.68,120.65z M239.529,118.051c0.293-0.044,0.64-0.078,1.022-0.078c0.688,0,1.18,0.161,1.506,0.465
		c0.331,0.303,0.524,0.733,0.524,1.335c0,0.607-0.188,1.103-0.535,1.446c-0.349,0.348-0.922,0.536-1.646,0.536
		c-0.341,0-0.629-0.018-0.872-0.045L239.529,118.051L239.529,118.051z M240.009,121.341c0.121,0.022,0.298,0.028,0.486,0.028
		c1.026,0,1.584-0.574,1.584-1.579c0.005-0.877-0.491-1.436-1.506-1.436c-0.249,0-0.437,0.023-0.563,0.05V121.341L240.009,121.341z
		 M243.483,120.474c0.01,0.656,0.431,0.927,0.916,0.927c0.347,0,0.557-0.062,0.739-0.138l0.083,0.347
		c-0.171,0.078-0.464,0.167-0.889,0.167c-0.823,0-1.314-0.541-1.314-1.347s0.475-1.44,1.254-1.44c0.872,0,1.103,0.767,1.103,1.258
		c0,0.099-0.011,0.176-0.016,0.225h-1.877V120.474z M244.907,120.126c0.006-0.309-0.127-0.79-0.673-0.79
		c-0.491,0-0.706,0.452-0.746,0.79H244.907z M245.913,121.224c0.144,0.094,0.397,0.193,0.641,0.193c0.354,0,0.519-0.176,0.519-0.397
		c0-0.231-0.139-0.358-0.497-0.49c-0.48-0.171-0.707-0.437-0.707-0.756c0-0.431,0.348-0.784,0.923-0.784
		c0.27,0,0.508,0.077,0.656,0.166l-0.123,0.353c-0.104-0.066-0.296-0.154-0.546-0.154c-0.287,0-0.448,0.165-0.448,0.364
		c0,0.221,0.162,0.319,0.51,0.452c0.464,0.176,0.7,0.408,0.7,0.805c0,0.47-0.365,0.801-1,0.801c-0.291,0-0.562-0.072-0.75-0.183
		L245.913,121.224L245.913,121.224z M248.706,118.3c0.006,0.166-0.115,0.297-0.308,0.297c-0.171,0-0.293-0.132-0.293-0.297
		c0-0.17,0.126-0.303,0.303-0.303C248.591,117.996,248.707,118.129,248.706,118.3L248.706,118.3z M248.166,121.721v-2.671h0.486
		v2.671H248.166L248.166,121.721z M251.759,119.05c-0.011,0.193-0.022,0.408-0.022,0.733v1.552c0,0.612-0.121,0.988-0.381,1.219
		c-0.259,0.243-0.635,0.32-0.97,0.32c-0.321,0-0.675-0.077-0.89-0.22l0.122-0.37c0.176,0.111,0.452,0.209,0.784,0.209
		c0.497,0,0.86-0.259,0.86-0.932v-0.298h-0.011c-0.148,0.249-0.437,0.446-0.85,0.446c-0.663,0-1.137-0.563-1.137-1.302
		c0-0.905,0.59-1.417,1.203-1.417c0.463,0,0.718,0.242,0.833,0.463h0.011l0.022-0.403L251.759,119.05L251.759,119.05z
		 M251.257,120.104c0-0.083-0.005-0.154-0.027-0.221c-0.087-0.281-0.325-0.513-0.679-0.513c-0.463,0-0.795,0.393-0.795,1.011
		c0,0.525,0.264,0.96,0.789,0.96c0.297,0,0.568-0.188,0.673-0.497c0.026-0.082,0.038-0.176,0.038-0.258v-0.48L251.257,120.104z
		 M252.511,119.774c0-0.276-0.006-0.503-0.022-0.723h0.432l0.027,0.442h0.011c0.132-0.255,0.442-0.502,0.883-0.502
		c0.37,0,0.943,0.22,0.943,1.136v1.595H254.3v-1.54c0-0.43-0.16-0.79-0.619-0.79c-0.319,0-0.567,0.226-0.65,0.497
		c-0.022,0.061-0.033,0.144-0.033,0.226v1.606h-0.487v-1.948H252.511z M255.846,120.474c0.011,0.656,0.432,0.927,0.917,0.927
		c0.347,0,0.558-0.062,0.74-0.138l0.083,0.347c-0.17,0.078-0.463,0.167-0.888,0.167c-0.822,0-1.314-0.541-1.314-1.347
		s0.475-1.44,1.253-1.44c0.873,0,1.104,0.767,1.104,1.258c0,0.099-0.011,0.176-0.017,0.225h-1.876L255.846,120.474z
		 M257.271,120.126c0.006-0.309-0.127-0.79-0.674-0.79c-0.49,0-0.706,0.452-0.745,0.79H257.271L257.271,120.126z M258.343,119.883
		c0-0.314-0.006-0.584-0.022-0.833h0.424l0.017,0.524h0.022c0.122-0.359,0.415-0.585,0.739-0.585c0.055,0,0.094,0.005,0.139,0.016
		v0.458c-0.049-0.011-0.1-0.017-0.165-0.017c-0.342,0-0.585,0.259-0.652,0.623c-0.011,0.066-0.022,0.144-0.022,0.226v1.425h-0.48
		V119.883L258.343,119.883z M260.11,120.104l2.56-1.319v0.381l-2.158,1.082v0.011l2.158,1.082v0.381l-2.56-1.319V120.104z
		 M263.032,121.943l1.54-4.001h0.375l-1.545,4.001L263.032,121.943L263.032,121.943z"/>
</g>
<g>
	<path fill="#F92672" d="M265.854,121.224c0.144,0.094,0.396,0.193,0.64,0.193c0.354,0,0.519-0.176,0.519-0.397
		c0-0.231-0.138-0.358-0.496-0.49c-0.479-0.171-0.706-0.437-0.706-0.756c0-0.431,0.348-0.784,0.921-0.784
		c0.27,0,0.508,0.077,0.657,0.166l-0.121,0.353c-0.104-0.066-0.298-0.154-0.547-0.154c-0.287,0-0.446,0.165-0.446,0.364
		c0,0.221,0.16,0.319,0.507,0.452c0.463,0.176,0.7,0.408,0.7,0.805c0,0.47-0.364,0.801-0.999,0.801c-0.292,0-0.563-0.072-0.75-0.183
		L265.854,121.224L265.854,121.224z M268.107,119.922c0-0.342-0.012-0.618-0.023-0.872h0.435l0.023,0.458h0.01
		c0.198-0.325,0.513-0.519,0.949-0.519c0.646,0,1.132,0.546,1.132,1.357c0,0.96-0.585,1.435-1.214,1.435
		c-0.354,0-0.664-0.155-0.823-0.419h-0.011v1.452h-0.479L268.107,119.922L268.107,119.922z M268.586,120.634
		c0,0.072,0.011,0.139,0.022,0.199c0.089,0.336,0.381,0.568,0.729,0.568c0.514,0,0.812-0.419,0.812-1.032
		c0-0.536-0.282-0.994-0.795-0.994c-0.331,0-0.641,0.238-0.735,0.603c-0.016,0.06-0.033,0.132-0.033,0.198L268.586,120.634
		L268.586,120.634z M272.728,121.721l-0.039-0.336h-0.016c-0.148,0.209-0.435,0.397-0.816,0.397c-0.541,0-0.816-0.381-0.816-0.767
		c0-0.646,0.575-0.999,1.605-0.995v-0.054c0-0.22-0.06-0.619-0.606-0.619c-0.248,0-0.508,0.078-0.695,0.199l-0.111-0.32
		c0.221-0.144,0.541-0.237,0.877-0.237c0.816,0,1.015,0.557,1.015,1.092v0.999c0,0.233,0.011,0.459,0.044,0.641h-0.441
		L272.728,121.721z M272.656,120.358c-0.529-0.011-1.131,0.083-1.131,0.602c0,0.315,0.21,0.464,0.458,0.464
		c0.349,0,0.569-0.221,0.646-0.447c0.016-0.048,0.027-0.104,0.027-0.155L272.656,120.358L272.656,120.358z M273.91,119.774
		c0-0.276-0.006-0.503-0.022-0.723h0.431l0.028,0.442h0.011c0.133-0.255,0.442-0.502,0.883-0.502c0.369,0,0.943,0.22,0.943,1.136
		v1.595h-0.486v-1.54c0-0.43-0.161-0.79-0.618-0.79c-0.32,0-0.568,0.226-0.651,0.497c-0.021,0.061-0.032,0.144-0.032,0.226v1.606
		h-0.486V119.774L273.91,119.774z"/>
</g>
<path fill="#FFFFFF" d="M279.498,120.407l-2.561,1.313v-0.382l2.174-1.082v-0.01l-2.174-1.082v-0.382l2.561,1.313V120.407
	L279.498,120.407z"/>
<g>
	<path fill="#FFFFFF" d="M89.526,126.732l2.561-1.32v0.381l-2.159,1.082v0.01l2.159,1.083v0.38l-2.561-1.318V126.732L89.526,126.732
		z M92.447,128.569l1.54-4.001h0.375l-1.544,4.001H92.447L92.447,128.569z"/>
</g>
<g>
	<path fill="#F92672" d="M94.75,124.429h0.486v1.667h0.011c0.077-0.138,0.199-0.259,0.347-0.342
		c0.144-0.082,0.315-0.137,0.497-0.137c0.359,0,0.933,0.221,0.933,1.142v1.59h-0.487v-1.534c0-0.431-0.16-0.796-0.618-0.796
		c-0.315,0-0.563,0.221-0.651,0.486c-0.028,0.066-0.033,0.138-0.033,0.232v1.611h-0.486L94.75,124.429L94.75,124.429z
		 M97.66,128.348v-0.298l0.381-0.37c0.916-0.873,1.33-1.336,1.335-1.877c0-0.363-0.177-0.7-0.712-0.7
		c-0.326,0-0.596,0.165-0.762,0.303l-0.155-0.342c0.249-0.21,0.602-0.364,1.016-0.364c0.773,0,1.099,0.529,1.099,1.043
		c0,0.663-0.479,1.198-1.236,1.926l-0.287,0.265v0.011h1.611v0.403H97.66L97.66,128.348z"/>
</g>
<path fill="#FFFFFF" d="M103.168,127.034l-2.561,1.313v-0.38l2.175-1.083v-0.01l-2.175-1.082v-0.382l2.561,1.314V127.034
	L103.168,127.034z M89.526,133.357l2.561-1.319v0.381l-2.159,1.081v0.011l2.159,1.083v0.381l-2.561-1.319V133.357z"/>
<path fill="#F92672" d="M94.334,134.975l-0.039-0.336H94.28c-0.149,0.209-0.437,0.396-0.817,0.396c-0.541,0-0.816-0.38-0.816-0.767
	c0-0.646,0.573-0.999,1.606-0.994v-0.055c0-0.221-0.061-0.618-0.608-0.618c-0.248,0-0.507,0.077-0.694,0.199l-0.111-0.32
	c0.221-0.143,0.541-0.237,0.877-0.237c0.817,0,1.016,0.557,1.016,1.092v0.999c0,0.232,0.011,0.458,0.044,0.642L94.334,134.975
	L94.334,134.975z M94.263,133.612c-0.529-0.011-1.131,0.083-1.131,0.601c0,0.315,0.21,0.464,0.458,0.464
	c0.348,0,0.568-0.221,0.646-0.448c0.017-0.048,0.028-0.104,0.028-0.154L94.263,133.612L94.263,133.612z"/>
<g>
	<path fill="#7FE22E" d="M98.591,134.875c-0.127,0.066-0.408,0.154-0.767,0.154c-0.806,0-1.331-0.546-1.331-1.363
		c0-0.822,0.563-1.417,1.436-1.417c0.287,0,0.54,0.071,0.673,0.138l-0.111,0.375c-0.116-0.066-0.298-0.126-0.563-0.126
		c-0.612,0-0.943,0.453-0.943,1.009c0,0.618,0.397,0.999,0.927,0.999c0.276,0,0.459-0.072,0.596-0.133L98.591,134.875
		L98.591,134.875z M99.161,131.055h0.487v3.919h-0.487V131.055z M101.943,134.975l-0.038-0.336h-0.017
		c-0.148,0.209-0.435,0.396-0.816,0.396c-0.541,0-0.817-0.38-0.817-0.767c0-0.646,0.575-0.999,1.606-0.994v-0.055
		c0-0.221-0.06-0.618-0.606-0.618c-0.249,0-0.508,0.077-0.695,0.199l-0.11-0.32c0.221-0.143,0.541-0.237,0.877-0.237
		c0.816,0,1.016,0.557,1.016,1.092v0.999c0,0.232,0.01,0.458,0.044,0.642h-0.441L101.943,134.975z M101.872,133.612
		c-0.53-0.011-1.131,0.083-1.131,0.601c0,0.315,0.21,0.464,0.459,0.464c0.347,0,0.567-0.221,0.645-0.448
		c0.017-0.048,0.028-0.104,0.028-0.154L101.872,133.612L101.872,133.612z M103.06,134.478c0.144,0.093,0.397,0.193,0.64,0.193
		c0.354,0,0.519-0.177,0.519-0.397c0-0.232-0.138-0.358-0.497-0.491c-0.479-0.17-0.706-0.436-0.706-0.756
		c0-0.43,0.348-0.783,0.922-0.783c0.27,0,0.507,0.077,0.657,0.166l-0.122,0.353c-0.105-0.066-0.297-0.154-0.546-0.154
		c-0.287,0-0.447,0.166-0.447,0.364c0,0.221,0.16,0.32,0.508,0.453c0.463,0.177,0.701,0.409,0.701,0.805
		c0,0.47-0.364,0.801-0.999,0.801c-0.292,0-0.563-0.072-0.751-0.182L103.06,134.478L103.06,134.478z M105.247,134.478
		c0.143,0.093,0.396,0.193,0.641,0.193c0.353,0,0.519-0.177,0.519-0.397c0-0.232-0.139-0.358-0.498-0.491
		c-0.479-0.17-0.706-0.436-0.706-0.756c0-0.43,0.348-0.783,0.922-0.783c0.27,0,0.507,0.077,0.657,0.166l-0.122,0.353
		c-0.105-0.066-0.298-0.154-0.546-0.154c-0.287,0-0.447,0.166-0.447,0.364c0,0.221,0.16,0.32,0.508,0.453
		c0.463,0.177,0.701,0.409,0.701,0.805c0,0.47-0.365,0.801-0.999,0.801c-0.292,0-0.563-0.072-0.751-0.182L105.247,134.478
		L105.247,134.478z"/>
</g>
<path fill="#FFFFFF" d="M107.318,133.115v-0.332h2.847v0.332H107.318L107.318,133.115z M107.318,134.196v-0.332h2.847v0.332H107.318
	L107.318,134.196z"/>
<g>
	<path fill="#E6DB62" d="M111.149,131.193l-0.094,1.326h-0.298l-0.088-1.326H111.149z M111.972,131.193l-0.094,1.326h-0.294
		l-0.093-1.326H111.972L111.972,131.193z M112.629,134.975c0.011-0.183,0.022-0.453,0.022-0.691v-3.228h0.48v1.678h0.012
		c0.171-0.298,0.48-0.491,0.911-0.491c0.662,0,1.13,0.552,1.125,1.363c0,0.954-0.602,1.428-1.198,1.428
		c-0.387,0-0.695-0.147-0.894-0.501h-0.017l-0.021,0.443L112.629,134.975L112.629,134.975z M113.131,133.904
		c0,0.062,0.011,0.122,0.022,0.177c0.094,0.336,0.375,0.568,0.729,0.568c0.508,0,0.811-0.415,0.811-1.026
		c0-0.535-0.276-0.994-0.794-0.994c-0.331,0-0.639,0.227-0.739,0.596c-0.011,0.056-0.028,0.121-0.028,0.198L113.131,133.904
		L113.131,133.904z M118.028,134.246c0,0.276,0.006,0.519,0.022,0.729h-0.431l-0.027-0.437h-0.012
		c-0.126,0.216-0.408,0.497-0.883,0.497c-0.419,0-0.921-0.232-0.921-1.17v-1.562h0.486v1.479c0,0.507,0.155,0.85,0.596,0.85
		c0.326,0,0.552-0.226,0.64-0.441c0.027-0.072,0.044-0.16,0.044-0.249v-1.639h0.485V134.246L118.028,134.246z M119.42,131.536v0.767
		h0.696v0.37h-0.695v1.44c0,0.332,0.094,0.519,0.363,0.519c0.128,0,0.221-0.016,0.282-0.032l0.022,0.363
		c-0.094,0.039-0.243,0.066-0.431,0.066c-0.227,0-0.408-0.071-0.525-0.204c-0.137-0.144-0.187-0.38-0.187-0.695v-1.457h-0.414v-0.37
		h0.414v-0.641L119.42,131.536L119.42,131.536z M121.249,131.536v0.767h0.694v0.37h-0.694v1.44c0,0.332,0.094,0.519,0.364,0.519
		c0.127,0,0.221-0.016,0.281-0.032l0.022,0.363c-0.093,0.039-0.243,0.066-0.43,0.066c-0.227,0-0.41-0.071-0.524-0.204
		c-0.138-0.144-0.189-0.38-0.189-0.695v-1.457h-0.413v-0.37h0.414v-0.641L121.249,131.536L121.249,131.536z M124.876,133.616
		c0,0.988-0.684,1.418-1.33,1.418c-0.722,0-1.281-0.529-1.281-1.373c0-0.894,0.584-1.418,1.324-1.418
		C124.357,132.243,124.876,132.8,124.876,133.616z M122.756,133.644c0,0.584,0.335,1.026,0.811,1.026
		c0.464,0,0.812-0.437,0.812-1.038c0-0.452-0.227-1.026-0.801-1.026S122.756,133.136,122.756,133.644L122.756,133.644z
		 M125.491,133.026c0-0.277-0.006-0.502-0.022-0.723h0.431l0.027,0.441h0.012c0.132-0.254,0.441-0.501,0.883-0.501
		c0.37,0,0.944,0.22,0.944,1.136v1.596h-0.486v-1.54c0-0.431-0.16-0.789-0.618-0.789c-0.32,0-0.568,0.226-0.65,0.497
		c-0.022,0.06-0.034,0.143-0.034,0.225v1.607h-0.485V133.026z M128.875,131.193l-0.093,1.326h-0.297l-0.089-1.326H128.875
		L128.875,131.193z M129.697,131.193l-0.094,1.326h-0.292l-0.094-1.326H129.697z"/>
</g>
<g>
	<path fill="#F92672" d="M131.62,131.055h0.485v1.667h0.012c0.078-0.138,0.198-0.26,0.347-0.342
		c0.144-0.083,0.314-0.138,0.497-0.138c0.358,0,0.932,0.22,0.932,1.142v1.59h-0.485v-1.535c0-0.431-0.16-0.795-0.618-0.795
		c-0.314,0-0.563,0.22-0.651,0.485c-0.028,0.065-0.034,0.137-0.034,0.232v1.612h-0.485V131.055L131.62,131.055z M134.685,133.136
		c0-0.314-0.006-0.584-0.022-0.833h0.424l0.017,0.524h0.023c0.121-0.358,0.414-0.585,0.738-0.585c0.056,0,0.095,0.005,0.139,0.017
		v0.458c-0.05-0.011-0.099-0.017-0.166-0.017c-0.342,0-0.584,0.258-0.651,0.623c-0.011,0.067-0.022,0.144-0.022,0.226v1.425h-0.48
		V133.136L134.685,133.136z M136.706,133.727c0.011,0.656,0.43,0.927,0.916,0.927c0.347,0,0.557-0.061,0.74-0.139l0.083,0.348
		c-0.171,0.078-0.464,0.166-0.888,0.166c-0.823,0-1.314-0.541-1.314-1.346c0-0.806,0.475-1.441,1.253-1.441
		c0.872,0,1.104,0.767,1.104,1.257c0,0.1-0.012,0.178-0.017,0.226h-1.877V133.727z M138.13,133.379
		c0.005-0.309-0.127-0.789-0.674-0.789c-0.491,0-0.706,0.453-0.746,0.789H138.13z M139.251,134.975v-2.301h-0.375v-0.371h0.375
		v-0.127c0-0.375,0.083-0.718,0.309-0.933c0.182-0.177,0.424-0.248,0.651-0.248c0.171,0,0.32,0.039,0.414,0.078l-0.067,0.375
		c-0.071-0.032-0.17-0.061-0.308-0.061c-0.414,0-0.519,0.365-0.519,0.773v0.144h0.646v0.37h-0.645v2.301H139.251L139.251,134.975z"
		/>
</g>
<path fill="#FFFFFF" d="M140.687,133.115v-0.332h2.849v0.332H140.687z M140.687,134.196v-0.332h2.849v0.332H140.687z"/>
<g>
	<path fill="#E6DB62" d="M144.519,131.193l-0.093,1.326h-0.298l-0.088-1.326H144.519L144.519,131.193z M145.342,131.193
		l-0.095,1.326h-0.292l-0.094-1.326H145.342z M146.131,134.975l0.144-1.082h-0.453v-0.327h0.502l0.105-0.799h-0.476v-0.326h0.524
		l0.145-1.054h0.32l-0.138,1.054h0.574l0.143-1.054h0.326l-0.138,1.054h0.453v0.326h-0.503l-0.1,0.8h0.474v0.327h-0.523
		l-0.143,1.082h-0.332l0.144-1.082h-0.574l-0.144,1.082L146.131,134.975L146.131,134.975z M147.229,133.566l0.105-0.799h-0.575
		l-0.104,0.8L147.229,133.566L147.229,133.566z M148.766,133.175c0-0.341-0.012-0.618-0.023-0.872h0.437l0.022,0.458h0.011
		c0.199-0.326,0.513-0.519,0.949-0.519c0.645,0,1.132,0.547,1.132,1.357c0,0.96-0.585,1.434-1.215,1.434
		c-0.353,0-0.662-0.154-0.822-0.418h-0.01v1.451h-0.48L148.766,133.175L148.766,133.175z M149.246,133.886
		c0,0.072,0.011,0.139,0.022,0.199c0.089,0.336,0.382,0.568,0.729,0.568c0.514,0,0.811-0.42,0.811-1.032
		c0-0.534-0.282-0.993-0.794-0.993c-0.332,0-0.64,0.238-0.735,0.602c-0.016,0.061-0.033,0.133-0.033,0.199L149.246,133.886
		L149.246,133.886z M154.325,133.616c0,0.988-0.684,1.418-1.33,1.418c-0.722,0-1.281-0.529-1.281-1.373
		c0-0.894,0.585-1.418,1.325-1.418C153.806,132.243,154.325,132.8,154.325,133.616z M152.205,133.644
		c0,0.584,0.337,1.026,0.811,1.026c0.463,0,0.812-0.437,0.812-1.038c0-0.452-0.227-1.026-0.801-1.026
		C152.454,132.607,152.205,133.136,152.205,133.644L152.205,133.644z M154.939,133.136c0-0.314-0.006-0.584-0.021-0.833h0.424
		l0.017,0.524h0.022c0.121-0.358,0.414-0.585,0.739-0.585c0.056,0,0.095,0.005,0.138,0.017v0.458
		c-0.049-0.011-0.099-0.017-0.166-0.017c-0.342,0-0.584,0.258-0.651,0.623c-0.011,0.067-0.022,0.144-0.022,0.226v1.425h-0.48
		V133.136L154.939,133.136z M157.462,131.536v0.767h0.695v0.37h-0.695v1.44c0,0.332,0.094,0.519,0.364,0.519
		c0.128,0,0.221-0.016,0.282-0.032l0.022,0.363c-0.094,0.039-0.243,0.066-0.431,0.066c-0.227,0-0.409-0.071-0.525-0.204
		c-0.138-0.144-0.187-0.38-0.187-0.695v-1.457h-0.415v-0.37h0.415v-0.641L157.462,131.536z M158.755,134.975v-2.301h-0.375v-0.371
		h0.375v-0.127c0-0.375,0.083-0.718,0.309-0.933c0.183-0.177,0.425-0.248,0.651-0.248c0.171,0,0.32,0.039,0.414,0.078l-0.066,0.375
		c-0.073-0.032-0.172-0.061-0.31-0.061c-0.414,0-0.519,0.365-0.519,0.773v0.144h0.646v0.37h-0.646v2.301H158.755L158.755,134.975z
		 M162.663,133.616c0,0.988-0.685,1.418-1.33,1.418c-0.723,0-1.28-0.529-1.28-1.373c0-0.894,0.584-1.418,1.324-1.418
		C162.145,132.243,162.663,132.8,162.663,133.616z M160.543,133.644c0,0.584,0.337,1.026,0.812,1.026
		c0.463,0,0.811-0.437,0.811-1.038c0-0.452-0.227-1.026-0.8-1.026S160.543,133.136,160.543,133.644L160.543,133.644z
		 M163.277,131.055h0.486v3.919h-0.485L163.277,131.055L163.277,131.055z M165.121,131.553c0.006,0.165-0.116,0.297-0.308,0.297
		c-0.171,0-0.293-0.133-0.293-0.297c0-0.171,0.127-0.304,0.304-0.304C165.005,131.249,165.121,131.382,165.121,131.553
		L165.121,131.553z M164.58,134.975v-2.672h0.487v2.672H164.58z M168.29,133.616c0,0.988-0.685,1.418-1.33,1.418
		c-0.722,0-1.28-0.529-1.28-1.373c0-0.894,0.583-1.418,1.324-1.418C167.771,132.243,168.29,132.8,168.29,133.616z M166.171,133.644
		c0,0.584,0.336,1.026,0.811,1.026c0.464,0,0.812-0.437,0.812-1.038c0-0.452-0.226-1.026-0.8-1.026
		C166.419,132.607,166.171,133.136,166.171,133.644L166.171,133.644z"/>
</g>
<path fill="#F92672" d="M169.203,131.193l-0.094,1.326h-0.298l-0.089-1.326H169.203L169.203,131.193z M170.024,131.193l-0.094,1.326
	h-0.293l-0.094-1.326H170.024z"/>
<path fill="#FFFFFF" d="M173.227,133.661l-2.562,1.313v-0.382l2.174-1.082V133.5l-2.174-1.081v-0.382l2.56,1.313v0.311H173.227z"/>
<g>
	<path fill="#FFFFFF" d="M176,134.975l-1.215-3.721h0.519l0.58,1.833c0.16,0.501,0.298,0.954,0.397,1.391h0.011
		c0.104-0.431,0.26-0.9,0.425-1.385l0.629-1.839h0.513l-1.33,3.721L176,134.975L176,134.975z M178.336,133.727
		c0.011,0.656,0.43,0.927,0.916,0.927c0.347,0,0.557-0.061,0.739-0.139l0.083,0.348c-0.171,0.078-0.463,0.166-0.888,0.166
		c-0.823,0-1.314-0.541-1.314-1.346c0-0.806,0.475-1.441,1.253-1.441c0.872,0,1.104,0.767,1.104,1.257
		c0,0.1-0.011,0.178-0.016,0.226h-1.878L178.336,133.727z M179.76,133.379c0.006-0.309-0.126-0.789-0.673-0.789
		c-0.491,0-0.706,0.453-0.746,0.789H179.76z M180.181,135.746c0.221-0.016,0.414-0.078,0.529-0.204
		c0.133-0.155,0.183-0.365,0.183-1.005v-2.234h0.486v2.423c0,0.519-0.083,0.856-0.32,1.099c-0.215,0.215-0.569,0.304-0.829,0.304
		L180.181,135.746L180.181,135.746z M181.434,131.553c0.006,0.159-0.111,0.297-0.304,0.297c-0.183,0-0.298-0.139-0.298-0.297
		c0-0.171,0.127-0.304,0.309-0.304C181.318,131.249,181.434,131.382,181.434,131.553L181.434,131.553z M183.653,134.975
		l-0.039-0.336h-0.017c-0.148,0.209-0.436,0.396-0.816,0.396c-0.542,0-0.817-0.38-0.817-0.767c0-0.646,0.574-0.999,1.606-0.994
		v-0.055c0-0.221-0.062-0.618-0.607-0.618c-0.249,0-0.507,0.077-0.695,0.199l-0.111-0.32c0.221-0.143,0.542-0.237,0.878-0.237
		c0.817,0,1.016,0.557,1.016,1.092v0.999c0,0.232,0.01,0.458,0.043,0.642L183.653,134.975L183.653,134.975z M183.581,133.612
		c-0.529-0.011-1.132,0.083-1.132,0.601c0,0.315,0.21,0.464,0.459,0.464c0.347,0,0.568-0.221,0.646-0.448
		c0.017-0.048,0.027-0.104,0.027-0.154V133.612L183.581,133.612z M186.006,133.026c0-0.277-0.006-0.502-0.023-0.723h0.426
		l0.021,0.43h0.017c0.149-0.253,0.397-0.49,0.839-0.49c0.363,0,0.64,0.22,0.755,0.535h0.011c0.083-0.149,0.188-0.265,0.298-0.348
		c0.16-0.121,0.336-0.187,0.591-0.187c0.353,0,0.877,0.232,0.877,1.16v1.573h-0.474v-1.512c0-0.513-0.189-0.822-0.58-0.822
		c-0.276,0-0.492,0.204-0.574,0.442c-0.022,0.066-0.039,0.154-0.039,0.242v1.651h-0.474v-1.601c0-0.425-0.188-0.734-0.558-0.734
		c-0.304,0-0.525,0.242-0.602,0.486c-0.028,0.071-0.038,0.154-0.038,0.238v1.61h-0.474L186.006,133.026L186.006,133.026z
		 M190.882,133.727c0.011,0.656,0.43,0.927,0.916,0.927c0.348,0,0.557-0.061,0.739-0.139l0.083,0.348
		c-0.17,0.078-0.463,0.166-0.888,0.166c-0.823,0-1.313-0.541-1.313-1.346c0-0.806,0.474-1.441,1.253-1.441
		c0.872,0,1.103,0.767,1.103,1.257c0,0.1-0.01,0.178-0.016,0.226h-1.876L190.882,133.727z M192.306,133.379
		c0.006-0.309-0.127-0.789-0.674-0.789c-0.491,0-0.706,0.453-0.745,0.789H192.306z M195.613,134.246
		c0,0.276,0.005,0.519,0.022,0.729h-0.432l-0.027-0.437h-0.011c-0.127,0.216-0.409,0.497-0.884,0.497
		c-0.419,0-0.921-0.232-0.921-1.17v-1.562h0.486v1.479c0,0.507,0.154,0.85,0.596,0.85c0.327,0,0.552-0.226,0.641-0.441
		c0.028-0.072,0.044-0.16,0.044-0.249v-1.639h0.485L195.613,134.246L195.613,134.246z M197.591,133.175
		c0-0.341-0.011-0.618-0.023-0.872h0.437l0.023,0.458h0.01c0.199-0.326,0.513-0.519,0.95-0.519c0.646,0,1.132,0.547,1.132,1.357
		c0,0.96-0.584,1.434-1.215,1.434c-0.353,0-0.662-0.154-0.821-0.418h-0.012v1.451h-0.48V133.175L197.591,133.175z M198.071,133.886
		c0,0.072,0.011,0.139,0.022,0.199c0.088,0.336,0.38,0.568,0.728,0.568c0.513,0,0.812-0.42,0.812-1.032
		c0-0.534-0.281-0.993-0.794-0.993c-0.331,0-0.64,0.238-0.733,0.602c-0.018,0.061-0.034,0.133-0.034,0.199L198.071,133.886
		L198.071,133.886z M203.151,133.616c0,0.988-0.685,1.418-1.33,1.418c-0.723,0-1.28-0.529-1.28-1.373
		c0-0.894,0.585-1.418,1.325-1.418C202.633,132.243,203.151,132.8,203.151,133.616L203.151,133.616z M201.031,133.644
		c0,0.584,0.337,1.026,0.812,1.026c0.464,0,0.812-0.437,0.812-1.038c0-0.452-0.227-1.026-0.801-1.026
		S201.031,133.136,201.031,133.644L201.031,133.644z M203.765,133.136c0-0.314-0.006-0.584-0.022-0.833h0.425l0.017,0.524h0.022
		c0.121-0.358,0.415-0.585,0.739-0.585c0.055,0,0.094,0.005,0.138,0.017v0.458c-0.05-0.011-0.099-0.017-0.166-0.017
		c-0.342,0-0.584,0.258-0.651,0.623c-0.011,0.067-0.022,0.144-0.022,0.226v1.425h-0.48V133.136L203.765,133.136z M206.287,131.536
		v0.767h0.697v0.37h-0.696v1.44c0,0.332,0.094,0.519,0.365,0.519c0.127,0,0.221-0.016,0.282-0.032l0.022,0.363
		c-0.094,0.039-0.242,0.066-0.43,0.066c-0.227,0-0.409-0.071-0.524-0.204c-0.139-0.144-0.188-0.38-0.188-0.695v-1.457h-0.414v-0.37
		h0.414v-0.641L206.287,131.536z M207.58,134.975v-2.301h-0.375v-0.371h0.375v-0.127c0-0.375,0.083-0.718,0.309-0.933
		c0.183-0.177,0.426-0.248,0.651-0.248c0.171,0,0.321,0.039,0.415,0.078l-0.067,0.375c-0.07-0.032-0.17-0.061-0.308-0.061
		c-0.415,0-0.519,0.365-0.519,0.773v0.144h0.646v0.37h-0.646v2.301H207.58L207.58,134.975z M211.489,133.616
		c0,0.988-0.684,1.418-1.33,1.418c-0.723,0-1.28-0.529-1.28-1.373c0-0.894,0.584-1.418,1.325-1.418
		C210.97,132.243,211.489,132.8,211.489,133.616z M209.37,133.644c0,0.584,0.335,1.026,0.811,1.026c0.464,0,0.812-0.437,0.812-1.038
		c0-0.452-0.227-1.026-0.801-1.026C209.618,132.607,209.37,133.136,209.37,133.644L209.37,133.644z M212.103,131.055h0.486v3.919
		h-0.486V131.055z M213.948,131.553c0.005,0.165-0.117,0.297-0.31,0.297c-0.171,0-0.292-0.133-0.292-0.297
		c0-0.171,0.127-0.304,0.304-0.304C213.831,131.249,213.948,131.382,213.948,131.553L213.948,131.553z M213.407,134.975v-2.672
		h0.485v2.672H213.407z M217.115,133.616c0,0.988-0.684,1.418-1.33,1.418c-0.723,0-1.281-0.529-1.281-1.373
		c0-0.894,0.585-1.418,1.325-1.418C216.597,132.243,217.115,132.8,217.115,133.616z M214.996,133.644
		c0,0.584,0.337,1.026,0.813,1.026c0.462,0,0.81-0.437,0.81-1.038c0-0.452-0.225-1.026-0.8-1.026S214.996,133.136,214.996,133.644
		L214.996,133.644z"/>
</g>
<g>
	<path fill="#FFFFFF" d="M218.982,133.357l2.56-1.319v0.381l-2.157,1.081v0.011l2.158,1.083v0.381l-2.561-1.319L218.982,133.357
		L218.982,133.357z M221.903,135.196l1.54-4.002h0.376l-1.545,4.002L221.903,135.196L221.903,135.196z"/>
</g>
<path fill="#F92672" d="M225.685,134.975l-0.039-0.336h-0.016c-0.149,0.209-0.437,0.396-0.817,0.396
	c-0.542,0-0.818-0.38-0.818-0.767c0-0.646,0.575-0.999,1.606-0.994v-0.055c0-0.221-0.061-0.618-0.607-0.618
	c-0.249,0-0.508,0.077-0.695,0.199l-0.111-0.32c0.221-0.143,0.541-0.237,0.877-0.237c0.817,0,1.016,0.557,1.016,1.092v0.999
	c0,0.232,0.011,0.458,0.045,0.642L225.685,134.975L225.685,134.975z M225.614,133.612c-0.529-0.011-1.131,0.083-1.131,0.601
	c0,0.315,0.208,0.464,0.457,0.464c0.348,0,0.569-0.221,0.646-0.448c0.016-0.048,0.028-0.104,0.028-0.154V133.612L225.614,133.612z"
	/>
<path fill="#FFFFFF" d="M229.391,133.661l-2.561,1.313v-0.382l2.174-1.082V133.5l-2.174-1.081v-0.382l2.561,1.313V133.661
	L229.391,133.661z M89.526,139.983l2.561-1.319v0.381l-2.159,1.081v0.011l2.159,1.083v0.381l-2.561-1.319V139.983z"/>
<g>
	<path fill="#F92672" d="M95.163,137.682v3.229c0,0.237,0.005,0.507,0.022,0.69h-0.436l-0.022-0.464h-0.011
		c-0.149,0.299-0.475,0.524-0.912,0.524c-0.645,0-1.142-0.546-1.142-1.357c-0.006-0.888,0.547-1.435,1.198-1.435
		c0.409,0,0.684,0.193,0.805,0.409h0.012v-1.596H95.163L95.163,137.682z M94.677,140.017c0-0.061-0.005-0.143-0.023-0.204
		c-0.072-0.309-0.335-0.563-0.7-0.563c-0.502,0-0.801,0.442-0.801,1.032c0,0.541,0.265,0.988,0.79,0.988
		c0.326,0,0.623-0.215,0.711-0.58c0.017-0.066,0.022-0.132,0.022-0.209L94.677,140.017L94.677,140.017z M96.511,138.179
		c0.005,0.166-0.116,0.298-0.309,0.298c-0.171,0-0.292-0.132-0.292-0.298c0-0.171,0.127-0.304,0.304-0.304
		C96.395,137.876,96.511,138.008,96.511,138.179z M95.97,141.601v-2.671h0.486v2.671H95.97z M97.45,138.929l0.524,1.501
		c0.088,0.243,0.161,0.464,0.216,0.684h0.016c0.061-0.22,0.138-0.441,0.226-0.684l0.519-1.501h0.508l-1.049,2.671h-0.463
		l-1.016-2.671h0.518H97.45z"/>
</g>
<g>
	<path fill="#7FE22E" d="M102.993,141.502c-0.126,0.066-0.408,0.155-0.767,0.155c-0.806,0-1.331-0.547-1.331-1.364
		c0-0.822,0.563-1.418,1.435-1.418c0.288,0,0.541,0.071,0.674,0.138l-0.11,0.375c-0.116-0.066-0.298-0.126-0.563-0.126
		c-0.612,0-0.943,0.452-0.943,1.009c0,0.619,0.397,0.999,0.927,0.999c0.276,0,0.458-0.072,0.596-0.132L102.993,141.502
		L102.993,141.502z M103.563,137.682h0.486v3.919h-0.486V137.682L103.563,137.682z M106.345,141.601l-0.039-0.336h-0.017
		c-0.149,0.209-0.436,0.397-0.817,0.397c-0.541,0-0.817-0.38-0.817-0.767c0-0.646,0.574-0.998,1.606-0.993v-0.055
		c0-0.221-0.061-0.619-0.607-0.619c-0.249,0-0.507,0.078-0.695,0.199l-0.11-0.319c0.221-0.144,0.54-0.238,0.877-0.238
		c0.817,0,1.015,0.557,1.015,1.092v0.999c0,0.233,0.012,0.458,0.045,0.641L106.345,141.601L106.345,141.601z M106.273,140.238
		c-0.529-0.011-1.131,0.083-1.131,0.602c0,0.314,0.21,0.463,0.458,0.463c0.347,0,0.568-0.221,0.646-0.447
		c0.017-0.049,0.027-0.104,0.027-0.154V140.238L106.273,140.238z M107.46,141.104c0.145,0.093,0.398,0.192,0.641,0.192
		c0.354,0,0.519-0.176,0.519-0.397c0-0.231-0.139-0.358-0.497-0.49c-0.479-0.171-0.706-0.436-0.706-0.757
		c0-0.43,0.347-0.783,0.921-0.783c0.27,0,0.507,0.077,0.656,0.166l-0.121,0.353c-0.105-0.066-0.298-0.155-0.546-0.155
		c-0.287,0-0.447,0.166-0.447,0.365c0,0.221,0.16,0.32,0.508,0.452c0.463,0.177,0.701,0.409,0.701,0.806
		c0,0.469-0.364,0.801-0.999,0.801c-0.293,0-0.563-0.072-0.751-0.183L107.46,141.104L107.46,141.104z M109.648,141.104
		c0.143,0.093,0.397,0.192,0.64,0.192c0.354,0,0.519-0.176,0.519-0.397c0-0.231-0.138-0.358-0.497-0.49
		c-0.479-0.171-0.706-0.436-0.706-0.757c0-0.43,0.348-0.783,0.922-0.783c0.271,0,0.509,0.077,0.657,0.166l-0.122,0.353
		c-0.105-0.066-0.297-0.155-0.546-0.155c-0.287,0-0.447,0.166-0.447,0.365c0,0.221,0.16,0.32,0.507,0.452
		c0.463,0.177,0.701,0.409,0.701,0.806c0,0.469-0.364,0.801-0.998,0.801c-0.293,0-0.563-0.072-0.751-0.183L109.648,141.104
		L109.648,141.104z"/>
</g>
<path fill="#FFFFFF" d="M111.719,139.741v-0.332h2.848v0.332H111.719z M111.719,140.822v-0.331h2.848v0.331H111.719z"/>
<g>
	<path fill="#E6DB62" d="M115.55,137.821l-0.094,1.325h-0.297l-0.088-1.325H115.55L115.55,137.821z M116.373,137.821l-0.094,1.325
		h-0.292l-0.094-1.325H116.373L116.373,137.821z M117.594,138.179c0.005,0.166-0.115,0.298-0.309,0.298
		c-0.171,0-0.292-0.132-0.292-0.298c0-0.171,0.126-0.304,0.303-0.304C117.478,137.876,117.594,138.008,117.594,138.179
		L117.594,138.179z M117.053,141.601v-2.671h0.487v2.671H117.053z M118.345,137.682h0.486v3.919h-0.487L118.345,137.682
		L118.345,137.682z M121.884,140.872c0,0.276,0.006,0.519,0.022,0.729h-0.43l-0.028-0.436h-0.011
		c-0.126,0.216-0.408,0.497-0.882,0.497c-0.419,0-0.922-0.232-0.922-1.17v-1.563h0.486v1.479c0,0.508,0.154,0.85,0.596,0.85
		c0.326,0,0.552-0.227,0.64-0.441c0.028-0.073,0.044-0.16,0.044-0.249v-1.64h0.486L121.884,140.872L121.884,140.872z
		 M122.625,141.104c0.144,0.093,0.397,0.192,0.641,0.192c0.354,0,0.519-0.176,0.519-0.397c0-0.231-0.138-0.358-0.497-0.49
		c-0.479-0.171-0.706-0.436-0.706-0.757c0-0.43,0.348-0.783,0.922-0.783c0.27,0,0.508,0.077,0.657,0.166l-0.122,0.353
		c-0.104-0.066-0.298-0.155-0.546-0.155c-0.287,0-0.447,0.166-0.447,0.365c0,0.221,0.16,0.32,0.508,0.452
		c0.463,0.177,0.701,0.409,0.701,0.806c0,0.469-0.365,0.801-0.999,0.801c-0.292,0-0.563-0.072-0.751-0.183L122.625,141.104
		L122.625,141.104z M125.463,138.162v0.767h0.696v0.37h-0.695v1.44c0,0.331,0.093,0.519,0.363,0.519
		c0.127,0,0.221-0.017,0.282-0.033l0.022,0.363c-0.094,0.039-0.243,0.068-0.431,0.068c-0.226,0-0.409-0.072-0.524-0.204
		c-0.139-0.144-0.188-0.381-0.188-0.695V139.3h-0.414v-0.37h0.414v-0.641L125.463,138.162L125.463,138.162z M126.705,139.763
		c0-0.314-0.004-0.585-0.022-0.833h0.425l0.017,0.524h0.022c0.122-0.359,0.414-0.585,0.739-0.585c0.056,0,0.094,0.005,0.138,0.017
		v0.458c-0.05-0.011-0.1-0.016-0.166-0.016c-0.342,0-0.583,0.258-0.651,0.623c-0.011,0.066-0.021,0.144-0.021,0.225v1.426h-0.48
		L126.705,139.763L126.705,139.763z M129.963,141.601l-0.04-0.336h-0.016c-0.149,0.209-0.436,0.397-0.816,0.397
		c-0.541,0-0.817-0.38-0.817-0.767c0-0.646,0.574-0.998,1.606-0.993v-0.055c0-0.221-0.061-0.619-0.607-0.619
		c-0.248,0-0.507,0.078-0.695,0.199l-0.111-0.319c0.221-0.144,0.541-0.238,0.878-0.238c0.816,0,1.015,0.557,1.015,1.092v0.999
		c0,0.233,0.011,0.458,0.044,0.641L129.963,141.601L129.963,141.601z M129.892,140.238c-0.529-0.011-1.131,0.083-1.131,0.602
		c0,0.314,0.21,0.463,0.458,0.463c0.348,0,0.569-0.221,0.646-0.447c0.016-0.049,0.028-0.104,0.028-0.154L129.892,140.238
		L129.892,140.238z M133.049,141.502c-0.126,0.066-0.408,0.155-0.767,0.155c-0.805,0-1.33-0.547-1.33-1.364
		c0-0.822,0.563-1.418,1.435-1.418c0.287,0,0.541,0.071,0.673,0.138l-0.11,0.375c-0.115-0.066-0.297-0.126-0.563-0.126
		c-0.613,0-0.943,0.452-0.943,1.009c0,0.619,0.397,0.999,0.927,0.999c0.275,0,0.458-0.072,0.596-0.132L133.049,141.502
		L133.049,141.502z M135.099,141.601l-0.039-0.336h-0.016c-0.15,0.209-0.437,0.397-0.817,0.397c-0.541,0-0.817-0.38-0.817-0.767
		c0-0.646,0.574-0.998,1.606-0.993v-0.055c0-0.221-0.062-0.619-0.608-0.619c-0.249,0-0.507,0.078-0.695,0.199l-0.11-0.319
		c0.22-0.144,0.541-0.238,0.876-0.238c0.817,0,1.016,0.557,1.016,1.092v0.999c0,0.233,0.012,0.458,0.045,0.641h-0.442
		L135.099,141.601z M135.027,140.238c-0.529-0.011-1.132,0.083-1.132,0.602c0,0.314,0.211,0.463,0.459,0.463
		c0.348,0,0.569-0.221,0.646-0.447c0.017-0.049,0.028-0.104,0.028-0.154L135.027,140.238L135.027,140.238z M138.698,140.243
		c0,0.987-0.684,1.418-1.33,1.418c-0.723,0-1.28-0.529-1.28-1.374c0-0.894,0.584-1.418,1.323-1.418
		C138.179,138.869,138.698,139.426,138.698,140.243L138.698,140.243z M136.58,140.271c0,0.584,0.336,1.026,0.811,1.026
		c0.464,0,0.812-0.435,0.812-1.037c0-0.452-0.227-1.026-0.801-1.026C136.828,139.233,136.58,139.763,136.58,140.271z
		 M139.611,137.821l-0.094,1.325h-0.297l-0.088-1.325H139.611L139.611,137.821z M140.433,137.821l-0.094,1.325h-0.293l-0.093-1.325
		H140.433z"/>
</g>
<path fill="#FFFFFF" d="M143.724,140.287l-2.562,1.313v-0.381l2.175-1.082v-0.011l-2.175-1.081v-0.382l2.562,1.313V140.287
	L143.724,140.287z M106.091,146.61l2.561-1.319v0.38l-2.158,1.082v0.011l2.158,1.083v0.38l-2.561-1.319V146.61z"/>
<g>
	<path fill="#F92672" d="M109.355,147.73c0.144,0.094,0.398,0.193,0.641,0.193c0.353,0,0.519-0.176,0.519-0.397
		c0-0.231-0.138-0.359-0.497-0.491c-0.48-0.171-0.707-0.436-0.707-0.756c0-0.431,0.347-0.784,0.922-0.784
		c0.27,0,0.508,0.077,0.656,0.166l-0.121,0.353c-0.105-0.067-0.298-0.155-0.547-0.155c-0.287,0-0.447,0.166-0.447,0.365
		c0,0.22,0.16,0.32,0.508,0.452c0.463,0.177,0.701,0.409,0.701,0.805c0,0.47-0.365,0.801-0.999,0.801
		c-0.292,0-0.563-0.073-0.751-0.183L109.355,147.73L109.355,147.73z M111.608,146.428c0-0.342-0.011-0.619-0.022-0.873h0.437
		l0.022,0.458h0.011c0.199-0.326,0.514-0.519,0.95-0.519c0.645,0,1.132,0.546,1.132,1.357c0,0.96-0.585,1.434-1.215,1.434
		c-0.353,0-0.662-0.154-0.822-0.418h-0.01v1.45h-0.48L111.608,146.428L111.608,146.428z M112.089,147.14
		c0,0.071,0.011,0.138,0.021,0.199c0.089,0.336,0.382,0.568,0.729,0.568c0.514,0,0.811-0.419,0.811-1.032
		c0-0.534-0.28-0.993-0.793-0.993c-0.332,0-0.64,0.238-0.734,0.602c-0.018,0.061-0.033,0.132-0.033,0.199V147.14z M116.229,148.227
		l-0.038-0.335h-0.017c-0.149,0.209-0.436,0.396-0.817,0.396c-0.541,0-0.817-0.381-0.817-0.767c0-0.646,0.574-0.999,1.606-0.994
		v-0.055c0-0.221-0.061-0.619-0.607-0.619c-0.249,0-0.508,0.078-0.695,0.199l-0.111-0.32c0.221-0.144,0.542-0.238,0.878-0.238
		c0.817,0,1.016,0.558,1.016,1.093v0.999c0,0.232,0.011,0.458,0.044,0.64L116.229,148.227L116.229,148.227z M116.158,146.864
		c-0.529-0.01-1.132,0.083-1.132,0.602c0,0.314,0.21,0.463,0.458,0.463c0.348,0,0.569-0.221,0.646-0.447
		c0.017-0.049,0.028-0.104,0.028-0.154V146.864L116.158,146.864z M117.412,146.279c0-0.276-0.006-0.502-0.022-0.722h0.431
		l0.027,0.44h0.012c0.132-0.254,0.441-0.502,0.883-0.502c0.369,0,0.943,0.22,0.943,1.137v1.595H119.2v-1.54
		c0-0.43-0.16-0.79-0.618-0.79c-0.319,0-0.568,0.227-0.651,0.497c-0.022,0.061-0.034,0.144-0.034,0.226v1.605h-0.485
		L117.412,146.279L117.412,146.279z"/>
</g>
<g>
	<path fill="#7FE22E" d="M123.552,148.128c-0.127,0.066-0.408,0.154-0.768,0.154c-0.806,0-1.33-0.547-1.33-1.364
		c0-0.822,0.563-1.418,1.435-1.418c0.287,0,0.541,0.072,0.672,0.138l-0.11,0.375c-0.115-0.066-0.297-0.126-0.562-0.126
		c-0.613,0-0.943,0.453-0.943,1.009c0,0.618,0.397,0.999,0.927,0.999c0.276,0,0.458-0.072,0.595-0.133L123.552,148.128
		L123.552,148.128z M124.121,144.308h0.486v3.918h-0.485L124.121,144.308L124.121,144.308z M126.904,148.227l-0.039-0.335h-0.017
		c-0.148,0.209-0.436,0.396-0.817,0.396c-0.54,0-0.816-0.381-0.816-0.767c0-0.646,0.573-0.999,1.605-0.994v-0.055
		c0-0.221-0.061-0.619-0.607-0.619c-0.248,0-0.507,0.078-0.695,0.199l-0.11-0.32c0.221-0.144,0.541-0.238,0.877-0.238
		c0.817,0,1.016,0.558,1.016,1.093v0.999c0,0.232,0.012,0.458,0.044,0.64L126.904,148.227L126.904,148.227z M126.832,146.864
		c-0.529-0.01-1.13,0.083-1.13,0.602c0,0.314,0.21,0.463,0.458,0.463c0.348,0,0.568-0.221,0.646-0.447
		c0.016-0.049,0.027-0.104,0.027-0.154L126.832,146.864L126.832,146.864z M128.02,147.73c0.144,0.094,0.397,0.193,0.641,0.193
		c0.353,0,0.518-0.176,0.518-0.397c0-0.231-0.138-0.359-0.498-0.491c-0.479-0.171-0.706-0.436-0.706-0.756
		c0-0.431,0.348-0.784,0.922-0.784c0.27,0,0.507,0.077,0.656,0.166l-0.122,0.353c-0.104-0.067-0.297-0.155-0.546-0.155
		c-0.286,0-0.447,0.166-0.447,0.365c0,0.22,0.161,0.32,0.508,0.452c0.463,0.177,0.701,0.409,0.701,0.805
		c0,0.47-0.364,0.801-0.999,0.801c-0.292,0-0.563-0.073-0.751-0.183L128.02,147.73L128.02,147.73z M130.207,147.73
		c0.143,0.094,0.397,0.193,0.64,0.193c0.354,0,0.519-0.176,0.519-0.397c0-0.231-0.138-0.359-0.497-0.491
		c-0.479-0.171-0.706-0.436-0.706-0.756c0-0.431,0.348-0.784,0.922-0.784c0.27,0,0.507,0.077,0.656,0.166l-0.121,0.353
		c-0.105-0.067-0.298-0.155-0.547-0.155c-0.287,0-0.447,0.166-0.447,0.365c0,0.22,0.162,0.32,0.509,0.452
		c0.463,0.177,0.7,0.409,0.7,0.805c0,0.47-0.365,0.801-0.999,0.801c-0.292,0-0.563-0.073-0.751-0.183L130.207,147.73L130.207,147.73
		z"/>
</g>
<path fill="#FFFFFF" d="M132.277,146.366v-0.331h2.849v0.331H132.277z M132.277,147.448v-0.331h2.849v0.331H132.277z"/>
<g>
	<path fill="#E6DB62" d="M136.11,144.447l-0.094,1.325h-0.298l-0.088-1.325H136.11z M136.932,144.447l-0.093,1.325h-0.293
		l-0.094-1.325H136.932z M137.612,146.428c0-0.342-0.011-0.619-0.021-0.873h0.435l0.022,0.458h0.011
		c0.199-0.326,0.513-0.519,0.949-0.519c0.646,0,1.132,0.546,1.132,1.357c0,0.96-0.585,1.434-1.215,1.434
		c-0.353,0-0.662-0.154-0.822-0.418h-0.012v1.45h-0.479L137.612,146.428L137.612,146.428z M138.092,147.14
		c0,0.071,0.012,0.138,0.022,0.199c0.088,0.336,0.381,0.568,0.728,0.568c0.514,0,0.812-0.419,0.812-1.032
		c0-0.534-0.282-0.993-0.795-0.993c-0.332,0-0.64,0.238-0.734,0.602c-0.016,0.061-0.034,0.132-0.034,0.199L138.092,147.14
		L138.092,147.14z M142.658,148.128c-0.127,0.066-0.408,0.154-0.767,0.154c-0.805,0-1.33-0.547-1.33-1.364
		c0-0.822,0.563-1.418,1.435-1.418c0.287,0,0.541,0.072,0.673,0.138l-0.111,0.375c-0.114-0.066-0.296-0.126-0.562-0.126
		c-0.614,0-0.944,0.453-0.944,1.009c0,0.618,0.397,0.999,0.927,0.999c0.276,0,0.458-0.072,0.595-0.133L142.658,148.128
		L142.658,148.128z M143.586,144.447l-0.094,1.325h-0.297l-0.088-1.325H143.586L143.586,144.447z M144.408,144.447l-0.093,1.325
		h-0.292l-0.094-1.325H144.408L144.408,144.447z"/>
</g>
<g>
	<path fill="#FFFFFF" d="M147.611,146.913l-2.562,1.313v-0.38l2.175-1.083v-0.01l-2.175-1.082v-0.381l2.561,1.314L147.611,146.913
		L147.611,146.913z M148.34,146.61l2.561-1.319v0.38l-2.157,1.082v0.011l2.158,1.083v0.38l-2.562-1.319L148.34,146.61L148.34,146.61
		z M151.262,148.448l1.539-4.001h0.375l-1.545,4.001L151.262,148.448L151.262,148.448z"/>
</g>
<g>
	<path fill="#F92672" d="M153.498,147.73c0.144,0.094,0.397,0.193,0.641,0.193c0.353,0,0.519-0.176,0.519-0.397
		c0-0.231-0.138-0.359-0.498-0.491c-0.479-0.171-0.706-0.436-0.706-0.756c0-0.431,0.347-0.784,0.922-0.784
		c0.27,0,0.507,0.077,0.656,0.166l-0.122,0.353c-0.105-0.067-0.298-0.155-0.546-0.155c-0.287,0-0.448,0.166-0.448,0.365
		c0,0.22,0.161,0.32,0.508,0.452c0.463,0.177,0.701,0.409,0.701,0.805c0,0.47-0.364,0.801-0.998,0.801
		c-0.293,0-0.563-0.073-0.752-0.183L153.498,147.73L153.498,147.73z M155.751,146.428c0-0.342-0.011-0.619-0.022-0.873h0.436
		l0.021,0.458h0.011c0.199-0.326,0.514-0.519,0.95-0.519c0.645,0,1.131,0.546,1.131,1.357c0,0.96-0.585,1.434-1.215,1.434
		c-0.353,0-0.662-0.154-0.823-0.418h-0.011v1.45h-0.48V146.428L155.751,146.428z M156.232,147.14c0,0.071,0.01,0.138,0.022,0.199
		c0.088,0.336,0.381,0.568,0.729,0.568c0.514,0,0.811-0.419,0.811-1.032c0-0.534-0.282-0.993-0.795-0.993
		c-0.331,0-0.64,0.238-0.733,0.602c-0.017,0.061-0.033,0.132-0.033,0.199L156.232,147.14L156.232,147.14z M160.372,148.227
		l-0.038-0.335h-0.017c-0.149,0.209-0.436,0.396-0.816,0.396c-0.541,0-0.817-0.381-0.817-0.767c0-0.646,0.574-0.999,1.606-0.994
		v-0.055c0-0.221-0.061-0.619-0.608-0.619c-0.248,0-0.507,0.078-0.694,0.199l-0.11-0.32c0.221-0.144,0.541-0.238,0.877-0.238
		c0.816,0,1.015,0.558,1.015,1.093v0.999c0,0.232,0.011,0.458,0.044,0.64L160.372,148.227L160.372,148.227z M160.301,146.864
		c-0.529-0.01-1.132,0.083-1.132,0.602c0,0.314,0.21,0.463,0.458,0.463c0.348,0,0.568-0.221,0.646-0.447
		c0.017-0.049,0.028-0.104,0.028-0.154V146.864L160.301,146.864z M161.555,146.279c0-0.276-0.005-0.502-0.022-0.722h0.431
		l0.028,0.44h0.011c0.133-0.254,0.442-0.502,0.884-0.502c0.369,0,0.943,0.22,0.943,1.137v1.595h-0.486v-1.54
		c0-0.43-0.16-0.79-0.619-0.79c-0.319,0-0.567,0.227-0.65,0.497c-0.022,0.061-0.033,0.144-0.033,0.226v1.605h-0.486V146.279z"/>
</g>
<path fill="#FFFFFF" d="M167.142,146.913l-2.561,1.313v-0.38l2.175-1.083v-0.01l-2.175-1.082v-0.381l2.561,1.314V146.913
	L167.142,146.913z"/>
<g>
	<path fill="#FFFFFF" d="M89.526,153.237l2.561-1.319v0.38l-2.159,1.081v0.011l2.159,1.083v0.38l-2.561-1.318V153.237z
		 M92.447,155.075l1.54-4.002h0.375l-1.544,4.001L92.447,155.075L92.447,155.075z"/>
</g>
<g>
	<path fill="#F92672" d="M97.056,150.936v3.228c0,0.238,0.005,0.509,0.022,0.691h-0.437l-0.021-0.464h-0.011
		c-0.149,0.298-0.475,0.524-0.911,0.524c-0.646,0-1.143-0.546-1.143-1.357c-0.005-0.888,0.547-1.435,1.198-1.435
		c0.409,0,0.684,0.193,0.806,0.409h0.011v-1.595L97.056,150.936L97.056,150.936z M96.571,153.269c0-0.06-0.006-0.144-0.022-0.203
		c-0.072-0.31-0.336-0.564-0.702-0.564c-0.501,0-0.8,0.442-0.8,1.033c0,0.541,0.266,0.988,0.789,0.988
		c0.326,0,0.624-0.215,0.712-0.58c0.016-0.066,0.022-0.132,0.022-0.209V153.269L96.571,153.269z M98.405,151.432
		c0.005,0.165-0.115,0.298-0.309,0.298c-0.171,0-0.292-0.133-0.292-0.297c0-0.171,0.127-0.304,0.304-0.304
		C98.289,151.129,98.405,151.262,98.405,151.432L98.405,151.432z M97.864,154.854v-2.671h0.485v2.671H97.864L97.864,154.854z
		 M99.343,152.183l0.524,1.501c0.089,0.243,0.161,0.463,0.216,0.684h0.016c0.062-0.221,0.139-0.442,0.227-0.684l0.519-1.501h0.508
		l-1.05,2.671h-0.463l-1.016-2.671H99.343L99.343,152.183z"/>
</g>
<path fill="#FFFFFF" d="M104.334,153.54l-2.561,1.313v-0.381l2.175-1.082v-0.011l-2.174-1.081v-0.382l2.562,1.313L104.334,153.54
	L104.334,153.54z"/>
<g>
	<path fill="#FFFFFF" d="M78.716,159.864l2.562-1.319v0.381l-2.159,1.082v0.012l2.159,1.082v0.381l-2.562-1.318V159.864
		L78.716,159.864z M81.637,161.701l1.541-4.001h0.375l-1.545,4.001H81.637L81.637,161.701z"/>
</g>
<g>
	<path fill="#F92672" d="M85.419,161.481l-0.039-0.336h-0.017c-0.149,0.209-0.436,0.397-0.817,0.397
		c-0.541,0-0.817-0.381-0.817-0.767c0-0.646,0.574-0.999,1.606-0.995v-0.054c0-0.221-0.061-0.618-0.607-0.618
		c-0.249,0-0.508,0.077-0.695,0.198l-0.11-0.319c0.22-0.144,0.541-0.238,0.877-0.238c0.816,0,1.015,0.557,1.015,1.093v0.999
		c0,0.232,0.011,0.459,0.044,0.642L85.419,161.481L85.419,161.481z M85.347,160.118c-0.529-0.012-1.131,0.082-1.131,0.601
		c0,0.315,0.21,0.464,0.459,0.464c0.347,0,0.568-0.22,0.645-0.447c0.017-0.049,0.027-0.105,0.027-0.154L85.347,160.118
		L85.347,160.118z M86.602,159.642c0-0.315-0.006-0.584-0.022-0.833h0.425l0.017,0.524h0.022c0.122-0.358,0.414-0.585,0.74-0.585
		c0.055,0,0.093,0.006,0.138,0.017v0.458c-0.05-0.012-0.099-0.017-0.166-0.017c-0.343,0-0.585,0.259-0.652,0.623
		c-0.011,0.067-0.022,0.144-0.022,0.226v1.425h-0.479V159.642L86.602,159.642z M89.125,158.043v0.767h0.696v0.371h-0.696v1.439
		c0,0.332,0.094,0.519,0.365,0.519c0.127,0,0.221-0.016,0.282-0.033l0.021,0.363c-0.094,0.04-0.243,0.067-0.431,0.067
		c-0.226,0-0.408-0.072-0.524-0.204c-0.139-0.144-0.188-0.381-0.188-0.695v-1.457h-0.414v-0.37h0.414v-0.641L89.125,158.043
		L89.125,158.043z M90.908,158.059c0.006,0.166-0.115,0.298-0.309,0.298c-0.171,0-0.292-0.133-0.292-0.298
		c0-0.171,0.126-0.304,0.304-0.304C90.792,157.755,90.909,157.887,90.908,158.059L90.908,158.059z M90.368,161.481v-2.672h0.486
		v2.672H90.368L90.368,161.481z M93.563,161.381c-0.126,0.066-0.408,0.155-0.767,0.155c-0.806,0-1.331-0.546-1.331-1.363
		c0-0.822,0.563-1.418,1.436-1.418c0.287,0,0.541,0.071,0.673,0.138l-0.109,0.375c-0.117-0.065-0.298-0.125-0.563-0.125
		c-0.613,0-0.943,0.452-0.943,1.009c0,0.619,0.397,0.999,0.927,0.999c0.276,0,0.458-0.071,0.596-0.132l0.083,0.365L93.563,161.381z
		 M94.134,157.562h0.485v3.919h-0.485V157.562L94.134,157.562z M95.708,160.234c0.01,0.656,0.43,0.927,0.916,0.927
		c0.348,0,0.556-0.061,0.74-0.138l0.083,0.347c-0.171,0.077-0.463,0.166-0.887,0.166c-0.823,0-1.314-0.542-1.314-1.347
		c0-0.806,0.474-1.441,1.253-1.441c0.872,0,1.104,0.768,1.104,1.259c0,0.099-0.011,0.176-0.017,0.226h-1.877L95.708,160.234z
		 M97.131,159.885c0.005-0.309-0.126-0.79-0.673-0.79c-0.491,0-0.707,0.453-0.746,0.789L97.131,159.885L97.131,159.885z"/>
</g>
<path fill="#FFFFFF" d="M100.594,160.167l-2.561,1.313V161.1l2.175-1.083v-0.01l-2.175-1.082v-0.382l2.561,1.314V160.167
	L100.594,160.167z"/>
<text transform="matrix(1 0 0 1 189.6714 258.5105)" fill="#FFFFFF" font-family="'Lato-Black'" font-size="8.2831">rm</text>
</svg>
