<?xml version="1.0" encoding="utf-8"?>
<!-- Generator: Adobe Illustrator 16.0.0, SVG Export Plug-In . SVG Version: 6.00 Build 0)  -->
<!DOCTYPE svg PUBLIC "-//W3C//DTD SVG 1.1//EN" "http://www.w3.org/Graphics/SVG/1.1/DTD/svg11.dtd">
<svg version="1.1" id="Calque_1" xmlns="http://www.w3.org/2000/svg" xmlns:xlink="http://www.w3.org/1999/xlink" x="0px" y="0px"
	 width="800px" height="600px" viewBox="0 0 800 600" enable-background="new 0 0 800 600" xml:space="preserve">
<path d="M725.221,482.252c0,9.94-8.06,18-18,18H106.084c-9.94,0-18-8.06-18-18v-388.9c0-9.94,8.06-18,18-18h601.139
	c9.94,0,18,8.06,18,18L725.221,482.252L725.221,482.252z"/>
<polygon fill="#E8E8E8" points="88.084,482.252 12.969,514.569 795.285,514.569 725.221,482.252 "/>
<rect x="12.969" y="514.569" fill="#B7B7B7" width="782.315" height="7.241"/>
<polygon fill="#A8A8A8" points="49.047,521.81 88.59,528.379 718.5,528.379 745.5,521.81 "/>
<rect x="112.5" y="98.5" fill="#141414" width="586" height="347"/>
<rect x="88.084" y="119.5" fill="none" width="509" height="309"/>
<g enable-background="new    ">
	<path fill="#FFFFFF" d="M147.385,124.506l5.565-2.867v0.828l-4.689,2.351v0.023l4.689,2.352v0.827l-5.565-2.866V124.506z"/>
</g>
<g enable-background="new    ">
	<path fill="#F92672" d="M157.837,128.02l-0.084-0.731h-0.036c-0.324,0.456-0.947,0.863-1.775,0.863
		c-1.175,0-1.775-0.827-1.775-1.667c0-1.403,1.247-2.171,3.49-2.159v-0.119c0-0.48-0.132-1.344-1.319-1.344
		c-0.54,0-1.104,0.168-1.511,0.432l-0.24-0.695c0.48-0.312,1.175-0.516,1.907-0.516c1.775,0,2.207,1.211,2.207,2.374v2.171
		c0,0.504,0.024,0.996,0.096,1.392H157.837z M157.68,125.058c-1.151-0.024-2.458,0.18-2.458,1.307c0,0.684,0.456,1.008,0.996,1.008
		c0.755,0,1.235-0.479,1.403-0.972c0.036-0.107,0.06-0.228,0.06-0.336V125.058z"/>
	<path fill="#F92672" d="M160.406,124.026c0-0.684-0.012-1.271-0.048-1.811h0.923l0.036,1.14h0.048
		c0.264-0.78,0.899-1.271,1.607-1.271c0.12,0,0.204,0.012,0.3,0.036v0.995c-0.108-0.024-0.216-0.036-0.36-0.036
		c-0.744,0-1.271,0.563-1.416,1.355c-0.024,0.144-0.048,0.312-0.048,0.491v3.095h-1.043V124.026z"/>
	<path fill="#F92672" d="M165.889,120.548v1.667h1.511v0.804h-1.511v3.13c0,0.72,0.204,1.128,0.792,1.128
		c0.276,0,0.479-0.036,0.612-0.072l0.048,0.791c-0.204,0.084-0.528,0.145-0.936,0.145c-0.492,0-0.888-0.156-1.14-0.444
		c-0.3-0.312-0.408-0.827-0.408-1.511v-3.166h-0.899v-0.804h0.899v-1.392L165.889,120.548z"/>
	<path fill="#F92672" d="M169.765,120.584c0.012,0.359-0.252,0.647-0.671,0.647c-0.372,0-0.636-0.288-0.636-0.647
		c0-0.372,0.276-0.66,0.66-0.66C169.513,119.924,169.765,120.212,169.765,120.584z M168.59,128.02v-5.805h1.056v5.805H168.59z"/>
	<path fill="#F92672" d="M175.535,127.804c-0.276,0.144-0.887,0.336-1.667,0.336c-1.751,0-2.891-1.188-2.891-2.963
		c0-1.787,1.224-3.082,3.119-3.082c0.624,0,1.175,0.156,1.463,0.3l-0.24,0.815c-0.252-0.144-0.647-0.275-1.223-0.275
		c-1.332,0-2.051,0.983-2.051,2.194c0,1.344,0.864,2.171,2.015,2.171c0.6,0,0.996-0.156,1.295-0.288L175.535,127.804z"/>
	<path fill="#F92672" d="M176.774,119.504h1.056v8.516h-1.056V119.504z"/>
	<path fill="#F92672" d="M180.194,125.309c0.024,1.428,0.935,2.016,1.991,2.016c0.755,0,1.211-0.132,1.607-0.3l0.18,0.755
		c-0.372,0.168-1.007,0.36-1.931,0.36c-1.787,0-2.854-1.176-2.854-2.927s1.032-3.13,2.723-3.13c1.895,0,2.399,1.667,2.399,2.734
		c0,0.216-0.024,0.384-0.036,0.491H180.194z M183.288,124.554c0.012-0.672-0.276-1.716-1.463-1.716
		c-1.067,0-1.535,0.984-1.619,1.716H183.288z"/>
</g>
<g enable-background="new    ">
	<path fill="#FFFFFF" d="M190.81,125.165l-5.565,2.854v-0.827l4.726-2.352v-0.023l-4.726-2.351v-0.828l5.565,2.854V125.165z"/>
</g>
<g enable-background="new    ">
	<path fill="#FFFFFF" d="M170.875,138.906l5.565-2.867v0.828l-4.689,2.351v0.023l4.689,2.352v0.827l-5.565-2.866V138.906z"/>
</g>
<g enable-background="new    ">
	<path fill="#F92672" d="M178.112,133.905h1.056v3.622h0.024c0.168-0.3,0.432-0.563,0.755-0.743c0.312-0.18,0.684-0.3,1.08-0.3
		c0.779,0,2.027,0.479,2.027,2.482v3.454h-1.056v-3.334c0-0.936-0.348-1.728-1.343-1.728c-0.684,0-1.223,0.48-1.415,1.056
		c-0.06,0.144-0.072,0.3-0.072,0.504v3.502h-1.056V133.905z"/>
	<path fill="#F92672" d="M184.436,142.42v-0.647l0.828-0.804c1.991-1.895,2.891-2.902,2.902-4.078c0-0.791-0.384-1.522-1.547-1.522
		c-0.708,0-1.295,0.359-1.655,0.659l-0.336-0.743c0.54-0.456,1.308-0.792,2.207-0.792c1.679,0,2.387,1.151,2.387,2.267
		c0,1.439-1.043,2.603-2.687,4.186l-0.624,0.576v0.023h3.502v0.876H184.436z"/>
</g>
<g enable-background="new    ">
	<path fill="#FCFCFC" d="M196.407,139.566l-5.565,2.854v-0.827l4.726-2.352v-0.023l-4.726-2.351v-0.828l5.565,2.854V139.566z"/>
</g>
<g enable-background="new    ">
	<path fill="#FFFFFF" d="M184.875,153.306l5.565-2.867v0.828l-4.689,2.351v0.023l4.689,2.352v0.827l-5.565-2.866V153.306z"/>
</g>
<g enable-background="new    ">
	<path fill="#F92672" d="M191.968,155.74c0.312,0.203,0.864,0.42,1.392,0.42c0.768,0,1.127-0.384,1.127-0.864
		c0-0.504-0.3-0.779-1.079-1.067c-1.043-0.371-1.535-0.947-1.535-1.643c0-0.936,0.755-1.703,2.003-1.703
		c0.587,0,1.104,0.168,1.427,0.359l-0.264,0.768c-0.228-0.144-0.647-0.336-1.187-0.336c-0.624,0-0.972,0.36-0.972,0.792
		c0,0.479,0.348,0.695,1.104,0.983c1.007,0.384,1.523,0.888,1.523,1.751c0,1.02-0.792,1.739-2.171,1.739
		c-0.635,0-1.223-0.156-1.631-0.396L191.968,155.74z"/>
	<path fill="#F92672" d="M196.864,152.909c0-0.743-0.024-1.343-0.048-1.895h0.947l0.048,0.995h0.024
		c0.432-0.707,1.115-1.127,2.063-1.127c1.403,0,2.459,1.188,2.459,2.95c0,2.087-1.271,3.118-2.639,3.118
		c-0.768,0-1.439-0.336-1.787-0.911h-0.024v3.154h-1.043V152.909z M197.907,154.457c0,0.155,0.024,0.3,0.048,0.432
		c0.192,0.731,0.828,1.235,1.583,1.235c1.116,0,1.763-0.912,1.763-2.243c0-1.163-0.612-2.159-1.727-2.159
		c-0.72,0-1.391,0.517-1.595,1.308c-0.036,0.132-0.072,0.288-0.072,0.432V154.457z"/>
	<path fill="#F92672" d="M206.906,156.82l-0.084-0.731h-0.036c-0.324,0.456-0.947,0.863-1.775,0.863
		c-1.175,0-1.775-0.827-1.775-1.667c0-1.403,1.247-2.171,3.49-2.159v-0.119c0-0.48-0.132-1.344-1.319-1.344
		c-0.54,0-1.103,0.168-1.511,0.432l-0.24-0.695c0.48-0.312,1.176-0.516,1.907-0.516c1.775,0,2.207,1.211,2.207,2.374v2.171
		c0,0.504,0.024,0.996,0.096,1.392H206.906z M206.75,153.858c-1.151-0.024-2.459,0.18-2.459,1.307c0,0.684,0.456,1.008,0.996,1.008
		c0.755,0,1.235-0.479,1.403-0.972c0.036-0.107,0.06-0.228,0.06-0.336V153.858z"/>
	<path fill="#F92672" d="M209.475,152.586c0-0.6-0.012-1.092-0.048-1.571h0.936l0.06,0.959h0.024
		c0.288-0.552,0.959-1.091,1.919-1.091c0.803,0,2.051,0.479,2.051,2.471v3.466h-1.056v-3.346c0-0.936-0.348-1.716-1.343-1.716
		c-0.695,0-1.235,0.492-1.415,1.08c-0.048,0.132-0.072,0.312-0.072,0.491v3.49h-1.056V152.586z"/>
</g>
<g enable-background="new    ">
	<path fill="#FFFFFF" d="M221.616,153.965l-5.565,2.854v-0.827l4.726-2.352v-0.023l-4.726-2.351v-0.828l5.565,2.854V153.965z"/>
</g>
<g enable-background="new    ">
	<path fill="#FFFDFE" d="M222.82,151.531c0.276-1.008,0.792-2.303,1.127-2.854l0.672-0.072c-0.264,0.708-0.576,1.943-0.708,2.807
		L222.82,151.531z M224.607,151.531c0.264-1.008,0.792-2.303,1.115-2.854l0.672-0.072c-0.264,0.708-0.576,1.943-0.708,2.807
		L224.607,151.531z"/>
	<path fill="#FFFDFE" d="M233.029,156.556c-0.384,0.191-1.151,0.384-2.135,0.384c-2.279,0-3.994-1.439-3.994-4.09
		c0-2.53,1.715-4.246,4.222-4.246c1.007,0,1.643,0.216,1.919,0.36l-0.252,0.852c-0.396-0.192-0.959-0.336-1.631-0.336
		c-1.895,0-3.154,1.211-3.154,3.334c0,1.979,1.139,3.25,3.106,3.25c0.635,0,1.283-0.132,1.703-0.336L233.029,156.556z"/>
	<path fill="#FFFDFE" d="M239.424,153.869c0,2.146-1.487,3.082-2.89,3.082c-1.571,0-2.783-1.151-2.783-2.986
		c0-1.942,1.271-3.082,2.878-3.082C238.297,150.883,239.424,152.094,239.424,153.869z M234.819,153.929
		c0,1.271,0.732,2.231,1.763,2.231c1.007,0,1.763-0.948,1.763-2.255c0-0.983-0.492-2.231-1.739-2.231
		C235.359,151.674,234.819,152.825,234.819,153.929z M238.165,148.508l-1.463,1.715h-0.756l1.056-1.715H238.165z"/>
	<path fill="#FFFDFE" d="M245.772,148.304v7.017c0,0.516,0.012,1.104,0.048,1.499h-0.947l-0.048-1.008h-0.024
		c-0.324,0.648-1.032,1.14-1.979,1.14c-1.403,0-2.483-1.188-2.483-2.95c-0.012-1.931,1.188-3.118,2.603-3.118
		c0.888,0,1.487,0.42,1.751,0.888h0.024v-3.467H245.772z M244.717,153.377c0-0.132-0.012-0.312-0.048-0.443
		c-0.156-0.672-0.731-1.224-1.523-1.224c-1.091,0-1.739,0.96-1.739,2.243c0,1.175,0.576,2.146,1.715,2.146
		c0.708,0,1.355-0.468,1.547-1.259c0.036-0.145,0.048-0.288,0.048-0.456V153.377z"/>
	<path fill="#FFFDFE" d="M248.702,149.384c0.012,0.359-0.252,0.647-0.671,0.647c-0.372,0-0.636-0.288-0.636-0.647
		c0-0.372,0.276-0.66,0.66-0.66C248.45,148.724,248.702,149.012,248.702,149.384z M247.527,156.82v-5.805h1.056v5.805H247.527z"/>
	<path fill="#FFFDFE" d="M255.337,151.015c-0.024,0.42-0.048,0.888-0.048,1.595v3.37c0,1.332-0.264,2.147-0.827,2.65
		c-0.564,0.528-1.379,0.696-2.111,0.696c-0.696,0-1.463-0.168-1.931-0.479l0.264-0.804c0.384,0.239,0.984,0.455,1.703,0.455
		c1.08,0,1.871-0.563,1.871-2.026v-0.647h-0.024c-0.324,0.539-0.948,0.971-1.847,0.971c-1.439,0-2.471-1.223-2.471-2.83
		c0-1.967,1.284-3.082,2.615-3.082c1.007,0,1.559,0.527,1.811,1.007h0.024l0.048-0.875H255.337z M254.245,153.306
		c0-0.181-0.012-0.336-0.06-0.48c-0.192-0.611-0.708-1.115-1.476-1.115c-1.007,0-1.727,0.852-1.727,2.195
		c0,1.139,0.576,2.087,1.715,2.087c0.647,0,1.235-0.408,1.463-1.08c0.06-0.18,0.084-0.384,0.084-0.563V153.306z"/>
	<path fill="#FFFDFE" d="M262.296,153.869c0,2.146-1.487,3.082-2.89,3.082c-1.571,0-2.783-1.151-2.783-2.986
		c0-1.942,1.271-3.082,2.878-3.082C261.169,150.883,262.296,152.094,262.296,153.869z M257.691,153.929
		c0,1.271,0.732,2.231,1.763,2.231c1.007,0,1.763-0.948,1.763-2.255c0-0.983-0.492-2.231-1.739-2.231
		C258.231,151.674,257.691,152.825,257.691,153.929z"/>
	<path fill="#FFFDFE" d="M263.487,155.74c0.312,0.203,0.864,0.42,1.392,0.42c0.768,0,1.127-0.384,1.127-0.864
		c0-0.504-0.3-0.779-1.079-1.067c-1.043-0.371-1.535-0.947-1.535-1.643c0-0.936,0.755-1.703,2.003-1.703
		c0.587,0,1.104,0.168,1.427,0.359l-0.264,0.768c-0.228-0.144-0.647-0.336-1.187-0.336c-0.624,0-0.972,0.36-0.972,0.792
		c0,0.479,0.348,0.695,1.104,0.983c1.007,0.384,1.523,0.888,1.523,1.751c0,1.02-0.792,1.739-2.171,1.739
		c-0.635,0-1.223-0.156-1.631-0.396L263.487,155.74z"/>
	<path fill="#FFFDFE" d="M274.885,155.92h-0.024c-0.312,0.575-0.959,1.031-1.895,1.031c-1.355,0-2.459-1.175-2.459-2.938
		c0-2.171,1.403-3.13,2.627-3.13c0.899,0,1.499,0.443,1.787,1.007h0.024l0.036-0.875h0.996c-0.024,0.491-0.036,0.995-0.036,1.595
		v6.585h-1.055V155.92z M274.885,153.365c0-0.144-0.012-0.312-0.048-0.443c-0.156-0.648-0.719-1.2-1.511-1.2
		c-1.092,0-1.751,0.924-1.751,2.231c0,1.151,0.552,2.158,1.715,2.158c0.684,0,1.271-0.419,1.511-1.151
		c0.048-0.144,0.084-0.348,0.084-0.503V153.365z"/>
	<path fill="#FFFDFE" d="M282.54,155.237c0,0.6,0.012,1.127,0.048,1.583h-0.936l-0.06-0.947h-0.024
		c-0.276,0.468-0.887,1.079-1.919,1.079c-0.911,0-2.003-0.504-2.003-2.543v-3.394h1.056v3.214c0,1.104,0.336,1.848,1.295,1.848
		c0.708,0,1.199-0.492,1.391-0.96c0.06-0.156,0.096-0.348,0.096-0.54v-3.562h1.056V155.237z"/>
	<path fill="#FFFDFE" d="M284.883,154.109c0.024,1.428,0.936,2.016,1.991,2.016c0.755,0,1.211-0.132,1.607-0.3l0.18,0.755
		c-0.372,0.168-1.007,0.36-1.931,0.36c-1.787,0-2.854-1.176-2.854-2.927s1.032-3.13,2.723-3.13c1.895,0,2.399,1.667,2.399,2.734
		c0,0.216-0.024,0.384-0.036,0.491H284.883z M287.977,153.354c0.012-0.672-0.276-1.716-1.463-1.716
		c-1.067,0-1.535,0.984-1.619,1.716H287.977z"/>
	<path fill="#FFFDFE" d="M292.706,155.74c0.312,0.203,0.864,0.42,1.392,0.42c0.768,0,1.127-0.384,1.127-0.864
		c0-0.504-0.3-0.779-1.079-1.067c-1.043-0.371-1.535-0.947-1.535-1.643c0-0.936,0.755-1.703,2.003-1.703
		c0.587,0,1.103,0.168,1.427,0.359l-0.264,0.768c-0.228-0.144-0.647-0.336-1.187-0.336c-0.624,0-0.972,0.36-0.972,0.792
		c0,0.479,0.348,0.695,1.104,0.983c1.007,0.384,1.523,0.888,1.523,1.751c0,1.02-0.792,1.739-2.171,1.739
		c-0.635,0-1.223-0.156-1.631-0.396L292.706,155.74z"/>
	<path fill="#FFFDFE" d="M298.19,154.109c0.024,1.428,0.936,2.016,1.991,2.016c0.755,0,1.211-0.132,1.607-0.3l0.18,0.755
		c-0.372,0.168-1.007,0.36-1.931,0.36c-1.787,0-2.854-1.176-2.854-2.927s1.032-3.13,2.723-3.13c1.895,0,2.399,1.667,2.399,2.734
		c0,0.216-0.024,0.384-0.036,0.491H298.19z M301.284,153.354c0.012-0.672-0.276-1.716-1.463-1.716c-1.067,0-1.535,0.984-1.619,1.716
		H301.284z"/>
	<path fill="#FFFDFE" d="M307.429,149.348v1.667h1.511v0.804h-1.511v3.13c0,0.72,0.204,1.128,0.792,1.128
		c0.276,0,0.479-0.036,0.612-0.072l0.048,0.791c-0.204,0.084-0.528,0.145-0.936,0.145c-0.492,0-0.888-0.156-1.14-0.444
		c-0.3-0.312-0.408-0.827-0.408-1.511v-3.166h-0.899v-0.804h0.899v-1.392L307.429,149.348z"/>
	<path fill="#FFFDFE" d="M310.13,152.825c0-0.684-0.012-1.271-0.048-1.811h0.923l0.036,1.14h0.048
		c0.264-0.78,0.899-1.271,1.607-1.271c0.12,0,0.204,0.012,0.3,0.036v0.995c-0.108-0.024-0.216-0.036-0.36-0.036
		c-0.744,0-1.271,0.563-1.416,1.355c-0.024,0.144-0.048,0.312-0.048,0.491v3.095h-1.043V152.825z"/>
	<path fill="#FFFDFE" d="M317.209,156.82l-0.084-0.731h-0.036c-0.324,0.456-0.947,0.863-1.775,0.863
		c-1.175,0-1.775-0.827-1.775-1.667c0-1.403,1.247-2.171,3.49-2.159v-0.119c0-0.48-0.132-1.344-1.319-1.344
		c-0.54,0-1.104,0.168-1.511,0.432l-0.24-0.695c0.48-0.312,1.175-0.516,1.907-0.516c1.775,0,2.207,1.211,2.207,2.374v2.171
		c0,0.504,0.024,0.996,0.096,1.392H317.209z M317.052,153.858c-1.151-0.024-2.458,0.18-2.458,1.307c0,0.684,0.456,1.008,0.996,1.008
		c0.755,0,1.235-0.479,1.403-0.972c0.036-0.107,0.06-0.228,0.06-0.336V153.858z"/>
	<path fill="#FFFDFE" d="M319.778,152.586c0-0.6-0.012-1.092-0.048-1.571h0.936l0.06,0.959h0.024
		c0.288-0.552,0.959-1.091,1.919-1.091c0.803,0,2.051,0.479,2.051,2.471v3.466h-1.056v-3.346c0-0.936-0.348-1.716-1.343-1.716
		c-0.695,0-1.235,0.492-1.415,1.08c-0.048,0.132-0.072,0.312-0.072,0.491v3.49h-1.056V152.586z"/>
	<path fill="#FFFDFE" d="M326.294,155.74c0.312,0.203,0.864,0.42,1.392,0.42c0.768,0,1.127-0.384,1.127-0.864
		c0-0.504-0.3-0.779-1.079-1.067c-1.043-0.371-1.535-0.947-1.535-1.643c0-0.936,0.755-1.703,2.003-1.703
		c0.587,0,1.104,0.168,1.427,0.359l-0.264,0.768c-0.228-0.144-0.647-0.336-1.187-0.336c-0.624,0-0.972,0.36-0.972,0.792
		c0,0.479,0.348,0.695,1.104,0.983c1.007,0.384,1.523,0.888,1.523,1.751c0,1.02-0.792,1.739-2.171,1.739
		c-0.635,0-1.223-0.156-1.631-0.396L326.294,155.74z"/>
	<path fill="#FFFDFE" d="M331.298,156.82v-5.001h-0.815v-0.804h0.815v-0.276c0-0.815,0.18-1.559,0.672-2.026
		c0.396-0.384,0.923-0.54,1.415-0.54c0.372,0,0.696,0.084,0.899,0.168l-0.144,0.815c-0.156-0.071-0.372-0.132-0.671-0.132
		c-0.899,0-1.127,0.792-1.127,1.68v0.312h1.403v0.804h-1.403v5.001H331.298z"/>
	<path fill="#FFFDFE" d="M339.791,153.869c0,2.146-1.487,3.082-2.89,3.082c-1.571,0-2.783-1.151-2.783-2.986
		c0-1.942,1.271-3.082,2.878-3.082C338.664,150.883,339.791,152.094,339.791,153.869z M335.185,153.929
		c0,1.271,0.732,2.231,1.763,2.231c1.007,0,1.763-0.948,1.763-2.255c0-0.983-0.492-2.231-1.739-2.231
		C335.725,151.674,335.185,152.825,335.185,153.929z"/>
	<path fill="#FFFDFE" d="M341.126,152.825c0-0.684-0.012-1.271-0.048-1.811h0.923l0.036,1.14h0.048
		c0.264-0.78,0.899-1.271,1.607-1.271c0.12,0,0.204,0.012,0.3,0.036v0.995c-0.108-0.024-0.216-0.036-0.36-0.036
		c-0.744,0-1.271,0.563-1.416,1.355c-0.024,0.144-0.048,0.312-0.048,0.491v3.095h-1.043V152.825z"/>
	<path fill="#FFFDFE" d="M345.098,152.586c0-0.6-0.012-1.092-0.048-1.571h0.923l0.048,0.936h0.036
		c0.324-0.552,0.864-1.067,1.823-1.067c0.792,0,1.391,0.479,1.643,1.163h0.024c0.18-0.324,0.408-0.575,0.647-0.756
		c0.348-0.264,0.731-0.407,1.283-0.407c0.768,0,1.907,0.504,1.907,2.519v3.418h-1.032v-3.286c0-1.115-0.408-1.787-1.259-1.787
		c-0.6,0-1.067,0.443-1.247,0.96c-0.048,0.144-0.084,0.335-0.084,0.527v3.586h-1.031v-3.479c0-0.923-0.408-1.595-1.211-1.595
		c-0.66,0-1.14,0.527-1.308,1.056c-0.06,0.155-0.084,0.336-0.084,0.516v3.502h-1.031V152.586z"/>
	<path fill="#FFFDFE" d="M358.32,156.82l-0.084-0.731H358.2c-0.323,0.456-0.947,0.863-1.774,0.863c-1.176,0-1.775-0.827-1.775-1.667
		c0-1.403,1.247-2.171,3.49-2.159v-0.119c0-0.48-0.133-1.344-1.319-1.344c-0.54,0-1.104,0.168-1.511,0.432l-0.24-0.695
		c0.479-0.312,1.175-0.516,1.906-0.516c1.775,0,2.207,1.211,2.207,2.374v2.171c0,0.504,0.023,0.996,0.096,1.392H358.32z
		 M358.164,153.858c-1.151-0.024-2.459,0.18-2.459,1.307c0,0.684,0.457,1.008,0.996,1.008c0.756,0,1.235-0.479,1.403-0.972
		c0.036-0.107,0.06-0.228,0.06-0.336V153.858z"/>
	<path fill="#FFFDFE" d="M360.89,152.586c0-0.6-0.013-1.092-0.049-1.571h0.924l0.048,0.936h0.036
		c0.324-0.552,0.863-1.067,1.823-1.067c0.792,0,1.392,0.479,1.644,1.163h0.023c0.18-0.324,0.408-0.575,0.647-0.756
		c0.348-0.264,0.731-0.407,1.283-0.407c0.768,0,1.907,0.504,1.907,2.519v3.418h-1.031v-3.286c0-1.115-0.408-1.787-1.26-1.787
		c-0.6,0-1.067,0.443-1.247,0.96c-0.048,0.144-0.084,0.335-0.084,0.527v3.586h-1.031v-3.479c0-0.923-0.408-1.595-1.212-1.595
		c-0.659,0-1.139,0.527-1.307,1.056c-0.061,0.155-0.084,0.336-0.084,0.516v3.502h-1.031V152.586z"/>
	<path fill="#FFFDFE" d="M374.029,154.109c0.024,1.428,0.936,2.016,1.991,2.016c0.755,0,1.212-0.132,1.606-0.3l0.181,0.755
		c-0.372,0.168-1.007,0.36-1.931,0.36c-1.787,0-2.855-1.176-2.855-2.927s1.032-3.13,2.723-3.13c1.896,0,2.399,1.667,2.399,2.734
		c0,0.216-0.024,0.384-0.036,0.491H374.029z M377.124,153.354c0.012-0.672-0.276-1.716-1.464-1.716
		c-1.066,0-1.535,0.984-1.619,1.716H377.124z"/>
	<path fill="#FFFDFE" d="M379.453,152.586c0-0.6-0.012-1.092-0.047-1.571h0.923l0.048,0.936h0.036
		c0.323-0.552,0.864-1.067,1.823-1.067c0.791,0,1.391,0.479,1.643,1.163h0.024c0.18-0.324,0.407-0.575,0.647-0.756
		c0.348-0.264,0.731-0.407,1.283-0.407c0.768,0,1.907,0.504,1.907,2.519v3.418h-1.032v-3.286c0-1.115-0.407-1.787-1.259-1.787
		c-0.6,0-1.067,0.443-1.247,0.96c-0.048,0.144-0.084,0.335-0.084,0.527v3.586h-1.031v-3.479c0-0.923-0.408-1.595-1.211-1.595
		c-0.66,0-1.141,0.527-1.309,1.056c-0.059,0.155-0.084,0.336-0.084,0.516v3.502h-1.031V152.586z"/>
	<path fill="#FFFDFE" d="M395.22,156.82l-0.084-0.731h-0.037c-0.323,0.456-0.947,0.863-1.774,0.863
		c-1.175,0-1.774-0.827-1.774-1.667c0-1.403,1.246-2.171,3.489-2.159v-0.119c0-0.48-0.132-1.344-1.319-1.344
		c-0.539,0-1.104,0.168-1.511,0.432l-0.24-0.695c0.479-0.312,1.176-0.516,1.907-0.516c1.775,0,2.207,1.211,2.207,2.374v2.171
		c0,0.504,0.023,0.996,0.096,1.392H395.22z M395.064,153.858c-1.151-0.024-2.459,0.18-2.459,1.307c0,0.684,0.456,1.008,0.996,1.008
		c0.755,0,1.234-0.479,1.402-0.972c0.036-0.107,0.061-0.228,0.061-0.336V153.858z"/>
	<path fill="#FFFDFE" d="M397.789,152.825c0-0.684-0.012-1.271-0.047-1.811h0.923l0.036,1.14h0.048
		c0.264-0.78,0.899-1.271,1.606-1.271c0.121,0,0.205,0.012,0.301,0.036v0.995c-0.108-0.024-0.217-0.036-0.359-0.036
		c-0.744,0-1.271,0.563-1.416,1.355c-0.023,0.144-0.048,0.312-0.048,0.491v3.095h-1.044V152.825z"/>
	<path fill="#FFFDFE" d="M403.273,149.348v1.667h1.511v0.804h-1.511v3.13c0,0.72,0.203,1.128,0.791,1.128
		c0.275,0,0.479-0.036,0.611-0.072l0.049,0.791c-0.205,0.084-0.528,0.145-0.936,0.145c-0.492,0-0.889-0.156-1.141-0.444
		c-0.299-0.312-0.407-0.827-0.407-1.511v-3.166h-0.899v-0.804h0.899v-1.392L403.273,149.348z"/>
	<path fill="#FFFDFE" d="M406.489,154.109c0.024,1.428,0.936,2.016,1.991,2.016c0.755,0,1.211-0.132,1.606-0.3l0.181,0.755
		c-0.373,0.168-1.008,0.36-1.932,0.36c-1.787,0-2.854-1.176-2.854-2.927s1.032-3.13,2.723-3.13c1.896,0,2.399,1.667,2.399,2.734
		c0,0.216-0.025,0.384-0.037,0.491H406.489z M409.584,153.354c0.012-0.672-0.276-1.716-1.464-1.716
		c-1.067,0-1.535,0.984-1.619,1.716H409.584z"/>
	<path fill="#FFFDFE" d="M411.086,158.295c0.264-0.708,0.588-1.991,0.72-2.867l1.175-0.119c-0.275,1.019-0.803,2.351-1.139,2.914
		L411.086,158.295z"/>
	<path fill="#FFFDFE" d="M416.797,152.586c0-0.6-0.012-1.092-0.047-1.571h0.923l0.048,0.936h0.036
		c0.323-0.552,0.864-1.067,1.823-1.067c0.791,0,1.391,0.479,1.643,1.163h0.024c0.18-0.324,0.407-0.575,0.647-0.756
		c0.348-0.264,0.731-0.407,1.283-0.407c0.768,0,1.907,0.504,1.907,2.519v3.418h-1.032v-3.286c0-1.115-0.407-1.787-1.259-1.787
		c-0.6,0-1.067,0.443-1.247,0.96c-0.048,0.144-0.084,0.335-0.084,0.527v3.586h-1.031v-3.479c0-0.923-0.408-1.595-1.211-1.595
		c-0.66,0-1.141,0.527-1.309,1.056c-0.059,0.155-0.084,0.336-0.084,0.516v3.502h-1.031V152.586z"/>
	<path fill="#FFFDFE" d="M427.392,154.109c0.024,1.428,0.936,2.016,1.991,2.016c0.755,0,1.212-0.132,1.606-0.3l0.181,0.755
		c-0.372,0.168-1.007,0.36-1.931,0.36c-1.787,0-2.855-1.176-2.855-2.927s1.032-3.13,2.723-3.13c1.896,0,2.399,1.667,2.399,2.734
		c0,0.216-0.024,0.384-0.036,0.491H427.392z M430.487,153.354c0.012-0.672-0.276-1.716-1.464-1.716
		c-1.066,0-1.535,0.984-1.619,1.716H430.487z"/>
	<path fill="#FFFDFE" d="M435.469,156.82v-5.001h-0.815v-0.804h0.815v-0.276c0-0.815,0.18-1.559,0.672-2.026
		c0.396-0.384,0.924-0.54,1.415-0.54c0.372,0,0.696,0.084,0.899,0.168l-0.145,0.815c-0.155-0.071-0.371-0.132-0.671-0.132
		c-0.899,0-1.128,0.792-1.128,1.68v0.312h1.404v0.804h-1.404v5.001H435.469z"/>
	<path fill="#FFFDFE" d="M442.079,156.82l-0.084-0.731h-0.036c-0.324,0.456-0.947,0.863-1.775,0.863
		c-1.175,0-1.774-0.827-1.774-1.667c0-1.403,1.247-2.171,3.489-2.159v-0.119c0-0.48-0.131-1.344-1.318-1.344
		c-0.54,0-1.104,0.168-1.512,0.432l-0.24-0.695c0.48-0.312,1.176-0.516,1.908-0.516c1.774,0,2.206,1.211,2.206,2.374v2.171
		c0,0.504,0.024,0.996,0.097,1.392H442.079z M441.923,153.858c-1.151-0.024-2.458,0.18-2.458,1.307c0,0.684,0.455,1.008,0.995,1.008
		c0.755,0,1.235-0.479,1.403-0.972c0.035-0.107,0.06-0.228,0.06-0.336V153.858z"/>
	<path fill="#FFFDFE" d="M444.505,155.74c0.312,0.203,0.864,0.42,1.392,0.42c0.768,0,1.127-0.384,1.127-0.864
		c0-0.504-0.3-0.779-1.079-1.067c-1.044-0.371-1.535-0.947-1.535-1.643c0-0.936,0.755-1.703,2.003-1.703
		c0.588,0,1.104,0.168,1.428,0.359l-0.265,0.768c-0.228-0.144-0.647-0.336-1.187-0.336c-0.625,0-0.973,0.36-0.973,0.792
		c0,0.479,0.348,0.695,1.104,0.983c1.008,0.384,1.523,0.888,1.523,1.751c0,1.02-0.791,1.739-2.171,1.739
		c-0.636,0-1.224-0.156-1.631-0.396L444.505,155.74z"/>
	<path fill="#FFFDFE" d="M453.539,156.604c-0.276,0.144-0.888,0.336-1.668,0.336c-1.75,0-2.891-1.188-2.891-2.963
		c0-1.787,1.225-3.082,3.119-3.082c0.623,0,1.176,0.156,1.463,0.3l-0.24,0.815c-0.252-0.144-0.646-0.275-1.223-0.275
		c-1.332,0-2.051,0.983-2.051,2.194c0,1.344,0.863,2.171,2.015,2.171c0.6,0,0.995-0.156,1.296-0.288L453.539,156.604z"/>
	<path fill="#FFFDFE" d="M455.952,149.384c0.013,0.359-0.252,0.647-0.671,0.647c-0.373,0-0.637-0.288-0.637-0.647
		c0-0.372,0.276-0.66,0.66-0.66C455.7,148.724,455.952,149.012,455.952,149.384z M454.777,156.82v-5.805h1.055v5.805H454.777z"/>
	<path fill="#FFFDFE" d="M457.584,152.586c0-0.6-0.012-1.092-0.047-1.571h0.936l0.06,0.959h0.024
		c0.287-0.552,0.959-1.091,1.918-1.091c0.804,0,2.051,0.479,2.051,2.471v3.466h-1.055v-3.346c0-0.936-0.348-1.716-1.344-1.716
		c-0.695,0-1.235,0.492-1.415,1.08c-0.048,0.132-0.071,0.312-0.071,0.491v3.49h-1.057V152.586z"/>
	<path fill="#FFFDFE" d="M467.459,156.82l-0.084-0.731h-0.036c-0.323,0.456-0.947,0.863-1.774,0.863
		c-1.176,0-1.775-0.827-1.775-1.667c0-1.403,1.247-2.171,3.49-2.159v-0.119c0-0.48-0.133-1.344-1.319-1.344
		c-0.54,0-1.104,0.168-1.511,0.432l-0.24-0.695c0.479-0.312,1.175-0.516,1.906-0.516c1.775,0,2.207,1.211,2.207,2.374v2.171
		c0,0.504,0.023,0.996,0.096,1.392H467.459z M467.302,153.858c-1.151-0.024-2.459,0.18-2.459,1.307c0,0.684,0.457,1.008,0.996,1.008
		c0.756,0,1.235-0.479,1.403-0.972c0.036-0.107,0.06-0.228,0.06-0.336V153.858z"/>
	<path fill="#FFFDFE" d="M470.028,152.586c0-0.6-0.012-1.092-0.048-1.571h0.924l0.047,0.936h0.037
		c0.323-0.552,0.863-1.067,1.822-1.067c0.792,0,1.392,0.479,1.644,1.163h0.024c0.18-0.324,0.407-0.575,0.646-0.756
		c0.348-0.264,0.732-0.407,1.283-0.407c0.768,0,1.908,0.504,1.908,2.519v3.418h-1.032v-3.286c0-1.115-0.407-1.787-1.259-1.787
		c-0.6,0-1.068,0.443-1.248,0.96c-0.047,0.144-0.084,0.335-0.084,0.527v3.586h-1.031v-3.479c0-0.923-0.408-1.595-1.211-1.595
		c-0.66,0-1.14,0.527-1.308,1.056c-0.06,0.155-0.084,0.336-0.084,0.516v3.502h-1.031V152.586z"/>
	<path fill="#FFFDFE" d="M480.96,148.604c-0.276,1.008-0.792,2.291-1.115,2.843l-0.672,0.084c0.252-0.708,0.575-1.955,0.708-2.818
		L480.96,148.604z M482.734,148.604c-0.275,1.008-0.791,2.291-1.115,2.843l-0.672,0.084c0.265-0.708,0.576-1.955,0.709-2.818
		L482.734,148.604z"/>
</g>
<g enable-background="new    ">
	<path fill="#FFFFFF" d="M484.619,153.306l5.564-2.867v0.828l-4.689,2.351v0.023l4.689,2.352v0.827l-5.564-2.866V153.306z"/>
	<path fill="#FFFFFF" d="M490.967,157.299l3.346-8.695h0.816l-3.358,8.695H490.967z"/>
</g>
<g enable-background="new    ">
	<path fill="#F92672" d="M495.828,155.74c0.312,0.203,0.863,0.42,1.391,0.42c0.768,0,1.127-0.384,1.127-0.864
		c0-0.504-0.299-0.779-1.078-1.067c-1.044-0.371-1.535-0.947-1.535-1.643c0-0.936,0.755-1.703,2.002-1.703
		c0.588,0,1.104,0.168,1.428,0.359l-0.264,0.768c-0.229-0.144-0.648-0.336-1.188-0.336c-0.624,0-0.972,0.36-0.972,0.792
		c0,0.479,0.348,0.695,1.104,0.983c1.007,0.384,1.522,0.888,1.522,1.751c0,1.02-0.791,1.739-2.17,1.739
		c-0.636,0-1.224-0.156-1.631-0.396L495.828,155.74z"/>
	<path fill="#F92672" d="M500.723,152.909c0-0.743-0.024-1.343-0.048-1.895h0.947l0.049,0.995h0.023
		c0.432-0.707,1.115-1.127,2.063-1.127c1.403,0,2.459,1.188,2.459,2.95c0,2.087-1.271,3.118-2.639,3.118
		c-0.768,0-1.439-0.336-1.787-0.911h-0.023v3.154h-1.044V152.909z M501.767,154.457c0,0.155,0.023,0.3,0.047,0.432
		c0.192,0.731,0.828,1.235,1.584,1.235c1.115,0,1.763-0.912,1.763-2.243c0-1.163-0.612-2.159-1.728-2.159
		c-0.719,0-1.391,0.517-1.595,1.308c-0.036,0.132-0.071,0.288-0.071,0.432V154.457z"/>
	<path fill="#F92672" d="M510.765,156.82l-0.084-0.731h-0.036c-0.323,0.456-0.947,0.863-1.774,0.863
		c-1.176,0-1.775-0.827-1.775-1.667c0-1.403,1.247-2.171,3.49-2.159v-0.119c0-0.48-0.133-1.344-1.32-1.344
		c-0.539,0-1.103,0.168-1.51,0.432l-0.24-0.695c0.479-0.312,1.176-0.516,1.906-0.516c1.775,0,2.207,1.211,2.207,2.374v2.171
		c0,0.504,0.023,0.996,0.096,1.392H510.765z M510.609,153.858c-1.15-0.024-2.459,0.18-2.459,1.307c0,0.684,0.457,1.008,0.996,1.008
		c0.756,0,1.235-0.479,1.403-0.972c0.036-0.107,0.06-0.228,0.06-0.336V153.858z"/>
	<path fill="#F92672" d="M513.336,152.586c0-0.6-0.012-1.092-0.049-1.571h0.936l0.061,0.959h0.023
		c0.288-0.552,0.96-1.091,1.92-1.091c0.803,0,2.051,0.479,2.051,2.471v3.466h-1.057v-3.346c0-0.936-0.348-1.716-1.343-1.716
		c-0.695,0-1.235,0.492-1.415,1.08c-0.048,0.132-0.072,0.312-0.072,0.491v3.49h-1.055V152.586z"/>
</g>
<g enable-background="new    ">
	<path fill="#FFFFFF" d="M525.476,153.965l-5.564,2.854v-0.827l4.725-2.352v-0.023l-4.725-2.351v-0.828l5.564,2.854V153.965z"/>
</g>
<g enable-background="new    ">
	<path fill="#FFFFFF" d="M184.875,167.706l5.565-2.867v0.828l-4.689,2.351v0.023l4.689,2.352v0.827l-5.565-2.866V167.706z"/>
</g>
<g enable-background="new    ">
	<path fill="#F92672" d="M191.968,170.141c0.312,0.203,0.864,0.42,1.392,0.42c0.768,0,1.127-0.384,1.127-0.864
		c0-0.504-0.3-0.779-1.079-1.067c-1.043-0.371-1.535-0.947-1.535-1.643c0-0.936,0.755-1.703,2.003-1.703
		c0.587,0,1.104,0.168,1.427,0.359l-0.264,0.768c-0.228-0.144-0.647-0.336-1.187-0.336c-0.624,0-0.972,0.36-0.972,0.792
		c0,0.479,0.348,0.695,1.104,0.983c1.007,0.384,1.523,0.888,1.523,1.751c0,1.02-0.792,1.739-2.171,1.739
		c-0.635,0-1.223-0.156-1.631-0.396L191.968,170.141z"/>
	<path fill="#F92672" d="M196.864,167.31c0-0.743-0.024-1.343-0.048-1.895h0.947l0.048,0.995h0.024
		c0.432-0.707,1.115-1.127,2.063-1.127c1.403,0,2.459,1.188,2.459,2.95c0,2.087-1.271,3.118-2.639,3.118
		c-0.768,0-1.439-0.336-1.787-0.911h-0.024v3.154h-1.043V167.31z M197.907,168.858c0,0.155,0.024,0.3,0.048,0.432
		c0.192,0.731,0.828,1.235,1.583,1.235c1.116,0,1.763-0.912,1.763-2.243c0-1.163-0.612-2.159-1.727-2.159
		c-0.72,0-1.391,0.517-1.595,1.308c-0.036,0.132-0.072,0.288-0.072,0.432V168.858z"/>
	<path fill="#F92672" d="M206.906,171.22l-0.084-0.731h-0.036c-0.324,0.456-0.947,0.863-1.775,0.863
		c-1.175,0-1.775-0.827-1.775-1.667c0-1.403,1.247-2.171,3.49-2.159v-0.119c0-0.48-0.132-1.344-1.319-1.344
		c-0.54,0-1.103,0.168-1.511,0.432l-0.24-0.695c0.48-0.312,1.176-0.516,1.907-0.516c1.775,0,2.207,1.211,2.207,2.374v2.171
		c0,0.504,0.024,0.996,0.096,1.392H206.906z M206.75,168.258c-1.151-0.024-2.459,0.18-2.459,1.307c0,0.684,0.456,1.008,0.996,1.008
		c0.755,0,1.235-0.479,1.403-0.972c0.036-0.107,0.06-0.228,0.06-0.336V168.258z"/>
	<path fill="#F92672" d="M209.475,166.987c0-0.6-0.012-1.092-0.048-1.571h0.936l0.06,0.959h0.024
		c0.288-0.552,0.959-1.091,1.919-1.091c0.803,0,2.051,0.479,2.051,2.471v3.466h-1.056v-3.346c0-0.936-0.348-1.716-1.343-1.716
		c-0.695,0-1.235,0.492-1.415,1.08c-0.048,0.132-0.072,0.312-0.072,0.491v3.49h-1.056V166.987z"/>
</g>
<g enable-background="new    ">
	<path fill="#7FE22E" d="M222.817,171.004c-0.276,0.144-0.887,0.336-1.667,0.336c-1.751,0-2.891-1.188-2.891-2.963
		c0-1.787,1.224-3.082,3.119-3.082c0.624,0,1.175,0.156,1.463,0.3l-0.24,0.815c-0.252-0.144-0.647-0.275-1.223-0.275
		c-1.332,0-2.051,0.983-2.051,2.194c0,1.344,0.864,2.171,2.015,2.171c0.6,0,0.996-0.156,1.295-0.288L222.817,171.004z"/>
	<path fill="#7FE22E" d="M224.055,162.704h1.056v8.516h-1.056V162.704z"/>
	<path fill="#7FE22E" d="M230.102,171.22l-0.084-0.731h-0.036c-0.324,0.456-0.947,0.863-1.775,0.863
		c-1.175,0-1.775-0.827-1.775-1.667c0-1.403,1.247-2.171,3.49-2.159v-0.119c0-0.48-0.132-1.344-1.319-1.344
		c-0.54,0-1.104,0.168-1.511,0.432l-0.24-0.695c0.48-0.312,1.175-0.516,1.907-0.516c1.775,0,2.207,1.211,2.207,2.374v2.171
		c0,0.504,0.024,0.996,0.096,1.392H230.102z M229.946,168.258c-1.151-0.024-2.458,0.18-2.458,1.307c0,0.684,0.456,1.008,0.996,1.008
		c0.755,0,1.235-0.479,1.403-0.972c0.036-0.107,0.06-0.228,0.06-0.336V168.258z"/>
	<path fill="#7FE22E" d="M232.527,170.141c0.312,0.203,0.864,0.42,1.392,0.42c0.768,0,1.127-0.384,1.127-0.864
		c0-0.504-0.3-0.779-1.079-1.067c-1.043-0.371-1.535-0.947-1.535-1.643c0-0.936,0.755-1.703,2.003-1.703
		c0.587,0,1.103,0.168,1.427,0.359l-0.264,0.768c-0.228-0.144-0.647-0.336-1.187-0.336c-0.624,0-0.972,0.36-0.972,0.792
		c0,0.479,0.348,0.695,1.104,0.983c1.007,0.384,1.523,0.888,1.523,1.751c0,1.02-0.792,1.739-2.171,1.739
		c-0.635,0-1.223-0.156-1.631-0.396L232.527,170.141z"/>
	<path fill="#7FE22E" d="M237.279,170.141c0.312,0.203,0.864,0.42,1.392,0.42c0.768,0,1.127-0.384,1.127-0.864
		c0-0.504-0.3-0.779-1.079-1.067c-1.043-0.371-1.535-0.947-1.535-1.643c0-0.936,0.755-1.703,2.003-1.703
		c0.587,0,1.103,0.168,1.427,0.359l-0.264,0.768c-0.228-0.144-0.647-0.336-1.187-0.336c-0.624,0-0.972,0.36-0.972,0.792
		c0,0.479,0.348,0.695,1.104,0.983c1.007,0.384,1.523,0.888,1.523,1.751c0,1.02-0.792,1.739-2.171,1.739
		c-0.635,0-1.223-0.156-1.631-0.396L237.279,170.141z"/>
</g>
<g enable-background="new    ">
	<path fill="#FFFFFF" d="M241.78,167.178v-0.72h6.189v0.72H241.78z M241.78,169.529v-0.72h6.189v0.72H241.78z"/>
</g>
<g enable-background="new    ">
	<path fill="#E6DB62" d="M250.107,163.004l-0.204,2.879h-0.647l-0.192-2.879H250.107z M251.894,163.004l-0.204,2.879h-0.636
		l-0.204-2.879H251.894z"/>
	<path fill="#E6DB62" d="M253.779,171.22v-5.001h-0.815v-0.804h0.815v-0.276c0-0.815,0.18-1.559,0.672-2.026
		c0.396-0.384,0.923-0.54,1.415-0.54c0.372,0,0.696,0.084,0.899,0.168l-0.144,0.815c-0.156-0.071-0.372-0.132-0.671-0.132
		c-0.899,0-1.127,0.792-1.127,1.68v0.312h1.403v0.804h-1.403v5.001H253.779z"/>
	<path fill="#E6DB62" d="M257.175,167.226c0-0.684-0.012-1.271-0.048-1.811h0.923l0.036,1.14h0.048
		c0.264-0.78,0.899-1.271,1.607-1.271c0.12,0,0.204,0.012,0.3,0.036v0.995c-0.108-0.024-0.216-0.036-0.36-0.036
		c-0.744,0-1.271,0.563-1.416,1.355c-0.024,0.144-0.048,0.312-0.048,0.491v3.095h-1.043V167.226z"/>
	<path fill="#E6DB62" d="M264.254,171.22l-0.084-0.731h-0.036c-0.324,0.456-0.947,0.863-1.775,0.863
		c-1.175,0-1.775-0.827-1.775-1.667c0-1.403,1.247-2.171,3.49-2.159v-0.119c0-0.48-0.132-1.344-1.319-1.344
		c-0.54,0-1.104,0.168-1.511,0.432l-0.24-0.695c0.48-0.312,1.175-0.516,1.907-0.516c1.775,0,2.207,1.211,2.207,2.374v2.171
		c0,0.504,0.024,0.996,0.096,1.392H264.254z M264.097,168.258c-1.151-0.024-2.458,0.18-2.458,1.307c0,0.684,0.456,1.008,0.996,1.008
		c0.755,0,1.235-0.479,1.403-0.972c0.036-0.107,0.06-0.228,0.06-0.336V168.258z"/>
	<path fill="#E6DB62" d="M266.679,170.141c0.312,0.203,0.864,0.42,1.392,0.42c0.768,0,1.127-0.384,1.127-0.864
		c0-0.504-0.3-0.779-1.079-1.067c-1.043-0.371-1.535-0.947-1.535-1.643c0-0.936,0.755-1.703,2.003-1.703
		c0.587,0,1.103,0.168,1.427,0.359l-0.264,0.768c-0.228-0.144-0.647-0.336-1.187-0.336c-0.624,0-0.972,0.36-0.972,0.792
		c0,0.479,0.348,0.695,1.104,0.983c1.007,0.384,1.523,0.888,1.523,1.751c0,1.02-0.792,1.739-2.171,1.739
		c-0.635,0-1.223-0.156-1.631-0.396L266.679,170.141z"/>
	<path fill="#E6DB62" d="M272.163,168.509c0.024,1.428,0.936,2.016,1.991,2.016c0.755,0,1.211-0.132,1.607-0.3l0.18,0.755
		c-0.372,0.168-1.007,0.36-1.931,0.36c-1.787,0-2.854-1.176-2.854-2.927s1.032-3.13,2.723-3.13c1.895,0,2.399,1.667,2.399,2.734
		c0,0.216-0.024,0.384-0.036,0.491H272.163z M275.257,167.754c0.012-0.672-0.276-1.716-1.463-1.716
		c-1.067,0-1.535,0.984-1.619,1.716H275.257z"/>
	<path fill="#E6DB62" d="M278.367,163.004l-0.204,2.879h-0.647l-0.192-2.879H278.367z M280.154,163.004l-0.204,2.879h-0.636
		l-0.204-2.879H280.154z"/>
</g>
<g enable-background="new    ">
	<path fill="#FFFFFF" d="M286.871,168.365l-5.565,2.854v-0.827l4.726-2.352v-0.023l-4.726-2.351v-0.828l5.565,2.854V168.365z"/>
	<path fill="#FFFFFF" d="M295.487,167.094c0,2.782-1.691,4.258-3.754,4.258c-2.135,0-3.634-1.655-3.634-4.102
		c0-2.566,1.595-4.246,3.754-4.246C294.059,163.004,295.487,164.696,295.487,167.094z M289.214,167.226
		c0,1.728,0.935,3.274,2.578,3.274c1.655,0,2.591-1.523,2.591-3.358c0-1.606-0.839-3.286-2.579-3.286
		C290.077,163.856,289.214,165.451,289.214,167.226z"/>
	<path fill="#FFFFFF" d="M296.81,162.704h1.056v8.516h-1.056V162.704z"/>
	<path fill="#FFFFFF" d="M302.857,171.22l-0.084-0.731h-0.036c-0.324,0.456-0.947,0.863-1.775,0.863
		c-1.175,0-1.775-0.827-1.775-1.667c0-1.403,1.247-2.171,3.49-2.159v-0.119c0-0.48-0.132-1.344-1.319-1.344
		c-0.54,0-1.104,0.168-1.511,0.432l-0.24-0.695c0.48-0.312,1.175-0.516,1.907-0.516c1.775,0,2.207,1.211,2.207,2.374v2.171
		c0,0.504,0.024,0.996,0.096,1.392H302.857z M302.7,168.258c-1.151-0.024-2.458,0.18-2.458,1.307c0,0.684,0.456,1.008,0.996,1.008
		c0.755,0,1.235-0.479,1.403-0.972c0.036-0.107,0.06-0.228,0.06-0.336V168.258z M303.228,162.908l-1.463,1.715h-0.756l1.056-1.715
		H303.228z"/>
	<path fill="#FFFFFF" d="M304.742,172.696c0.264-0.708,0.588-1.991,0.72-2.867l1.175-0.119c-0.276,1.019-0.804,2.351-1.14,2.914
		L304.742,172.696z"/>
	<path fill="#FFFFFF" d="M310.31,170.141c0.312,0.203,0.864,0.42,1.392,0.42c0.768,0,1.127-0.384,1.127-0.864
		c0-0.504-0.3-0.779-1.079-1.067c-1.043-0.371-1.535-0.947-1.535-1.643c0-0.936,0.755-1.703,2.003-1.703
		c0.587,0,1.104,0.168,1.427,0.359l-0.264,0.768c-0.228-0.144-0.647-0.336-1.187-0.336c-0.624,0-0.972,0.36-0.972,0.792
		c0,0.479,0.348,0.695,1.104,0.983c1.007,0.384,1.523,0.888,1.523,1.751c0,1.02-0.792,1.739-2.171,1.739
		c-0.635,0-1.223-0.156-1.631-0.396L310.31,170.141z"/>
	<path fill="#FFFFFF" d="M320.459,168.27c0,2.146-1.487,3.082-2.89,3.082c-1.571,0-2.783-1.151-2.783-2.986
		c0-1.942,1.271-3.082,2.878-3.082C319.332,165.283,320.459,166.494,320.459,168.27z M315.853,168.329
		c0,1.271,0.732,2.231,1.763,2.231c1.007,0,1.763-0.948,1.763-2.255c0-0.983-0.492-2.231-1.739-2.231
		C316.393,166.074,315.853,167.226,315.853,168.329z"/>
	<path fill="#FFFFFF" d="M326.651,169.637c0,0.6,0.012,1.127,0.048,1.583h-0.936l-0.06-0.947h-0.024
		c-0.276,0.468-0.887,1.079-1.919,1.079c-0.911,0-2.003-0.504-2.003-2.543v-3.394h1.056v3.214c0,1.104,0.336,1.848,1.295,1.848
		c0.708,0,1.199-0.492,1.391-0.96c0.06-0.156,0.096-0.348,0.096-0.54v-3.562h1.056V169.637z"/>
	<path fill="#FFFFFF" d="M330.986,163.244c0.527-0.108,1.283-0.168,2.003-0.168c1.115,0,1.835,0.204,2.338,0.659
		c0.408,0.36,0.636,0.912,0.636,1.535c0,1.068-0.671,1.775-1.523,2.063v0.036c0.624,0.216,0.995,0.791,1.187,1.631
		c0.264,1.127,0.456,1.907,0.624,2.219h-1.08c-0.132-0.228-0.312-0.924-0.54-1.931c-0.24-1.115-0.672-1.535-1.619-1.571h-0.983
		v3.502h-1.043V163.244z M332.029,166.926h1.067c1.115,0,1.823-0.611,1.823-1.535c0-1.043-0.755-1.499-1.859-1.511
		c-0.504,0-0.863,0.048-1.031,0.096V166.926z"/>
	<path fill="#FFFFFF" d="M342.706,168.27c0,2.146-1.487,3.082-2.89,3.082c-1.571,0-2.783-1.151-2.783-2.986
		c0-1.942,1.271-3.082,2.878-3.082C341.579,165.283,342.706,166.494,342.706,168.27z M338.101,168.329
		c0,1.271,0.732,2.231,1.763,2.231c1.007,0,1.763-0.948,1.763-2.255c0-0.983-0.492-2.231-1.739-2.231
		C338.641,166.074,338.101,167.226,338.101,168.329z"/>
	<path fill="#FFFFFF" d="M344.041,166.987c0-0.6-0.012-1.092-0.048-1.571h0.936l0.06,0.959h0.024
		c0.288-0.552,0.959-1.091,1.919-1.091c0.803,0,2.051,0.479,2.051,2.471v3.466h-1.056v-3.346c0-0.936-0.348-1.716-1.343-1.716
		c-0.695,0-1.235,0.492-1.415,1.08c-0.048,0.132-0.072,0.312-0.072,0.491v3.49h-1.056V166.987z"/>
	<path fill="#FFFFFF" d="M353.916,171.22l-0.084-0.731h-0.036c-0.323,0.456-0.947,0.863-1.775,0.863
		c-1.175,0-1.775-0.827-1.775-1.667c0-1.403,1.247-2.171,3.49-2.159v-0.119c0-0.48-0.133-1.344-1.32-1.344
		c-0.54,0-1.103,0.168-1.511,0.432l-0.24-0.695c0.48-0.312,1.176-0.516,1.907-0.516c1.775,0,2.207,1.211,2.207,2.374v2.171
		c0,0.504,0.023,0.996,0.096,1.392H353.916z M353.76,168.258c-1.15-0.024-2.458,0.18-2.458,1.307c0,0.684,0.456,1.008,0.996,1.008
		c0.756,0,1.235-0.479,1.403-0.972c0.036-0.107,0.06-0.228,0.06-0.336V168.258z"/>
	<path fill="#FFFFFF" d="M356.485,162.704h1.056v8.516h-1.056V162.704z"/>
	<path fill="#FFFFFF" d="M364.33,162.704v7.017c0,0.516,0.013,1.104,0.049,1.499h-0.947l-0.049-1.008h-0.023
		c-0.324,0.648-1.031,1.14-1.979,1.14c-1.404,0-2.483-1.188-2.483-2.95c-0.012-1.931,1.188-3.118,2.603-3.118
		c0.888,0,1.487,0.42,1.752,0.888h0.023v-3.467H364.33z M363.275,167.778c0-0.132-0.012-0.312-0.049-0.443
		c-0.155-0.672-0.73-1.224-1.522-1.224c-1.091,0-1.739,0.96-1.739,2.243c0,1.175,0.576,2.146,1.715,2.146
		c0.708,0,1.355-0.468,1.547-1.259c0.037-0.145,0.049-0.288,0.049-0.456V167.778z"/>
	<path fill="#FFFFFF" d="M371.338,168.27c0,2.146-1.486,3.082-2.89,3.082c-1.571,0-2.782-1.151-2.782-2.986
		c0-1.942,1.271-3.082,2.878-3.082C370.211,165.283,371.338,166.494,371.338,168.27z M366.732,168.329
		c0,1.271,0.732,2.231,1.764,2.231c1.008,0,1.764-0.948,1.764-2.255c0-0.983-0.492-2.231-1.74-2.231
		C367.273,166.074,366.732,167.226,366.732,168.329z"/>
	<path fill="#FFFFFF" d="M382.065,167.67c-0.06-1.128-0.132-2.482-0.12-3.49h-0.035c-0.276,0.947-0.612,1.955-1.02,3.07
		l-1.428,3.922h-0.791l-1.308-3.85c-0.384-1.14-0.708-2.184-0.936-3.143h-0.024c-0.023,1.008-0.084,2.362-0.156,3.574l-0.215,3.466
		h-0.996l0.564-8.084h1.33l1.38,3.91c0.336,0.995,0.612,1.883,0.815,2.723h0.036c0.204-0.815,0.491-1.703,0.852-2.723l1.439-3.91
		h1.331l0.504,8.084h-1.02L382.065,167.67z"/>
	<path fill="#FFFFFF" d="M388.151,171.22l-0.084-0.731h-0.036c-0.324,0.456-0.947,0.863-1.775,0.863
		c-1.175,0-1.774-0.827-1.774-1.667c0-1.403,1.247-2.171,3.489-2.159v-0.119c0-0.48-0.131-1.344-1.318-1.344
		c-0.54,0-1.104,0.168-1.512,0.432l-0.24-0.695c0.48-0.312,1.176-0.516,1.908-0.516c1.774,0,2.206,1.211,2.206,2.374v2.171
		c0,0.504,0.024,0.996,0.097,1.392H388.151z M387.996,168.258c-1.152-0.024-2.459,0.18-2.459,1.307c0,0.684,0.455,1.008,0.995,1.008
		c0.755,0,1.235-0.479,1.403-0.972c0.035-0.107,0.061-0.228,0.061-0.336V168.258z"/>
	<path fill="#FFFFFF" d="M394.858,171.004c-0.276,0.144-0.888,0.336-1.667,0.336c-1.751,0-2.891-1.188-2.891-2.963
		c0-1.787,1.224-3.082,3.119-3.082c0.623,0,1.175,0.156,1.463,0.3l-0.24,0.815c-0.252-0.144-0.647-0.275-1.223-0.275
		c-1.332,0-2.052,0.983-2.052,2.194c0,1.344,0.864,2.171,2.015,2.171c0.6,0,0.996-0.156,1.296-0.288L394.858,171.004z"/>
	<path fill="#FFFFFF" d="M397.271,163.784c0.013,0.359-0.252,0.647-0.671,0.647c-0.372,0-0.636-0.288-0.636-0.647
		c0-0.372,0.275-0.66,0.66-0.66C397.019,163.124,397.271,163.412,397.271,163.784z M396.096,171.22v-5.805h1.056v5.805H396.096z"/>
	<path fill="#FFFFFF" d="M399.492,168.509c0.024,1.428,0.936,2.016,1.991,2.016c0.755,0,1.212-0.132,1.606-0.3l0.181,0.755
		c-0.372,0.168-1.007,0.36-1.931,0.36c-1.787,0-2.855-1.176-2.855-2.927s1.032-3.13,2.723-3.13c1.896,0,2.399,1.667,2.399,2.734
		c0,0.216-0.024,0.384-0.036,0.491H399.492z M402.587,167.754c0.012-0.672-0.276-1.716-1.464-1.716
		c-1.066,0-1.535,0.984-1.619,1.716H402.587z"/>
	<path fill="#FFFFFF" d="M404.916,162.704h1.057v8.516h-1.057V162.704z"/>
	<path fill="#FFFFFF" d="M410.328,163.136h4.354v0.876h-3.31v2.687h3.058v0.863h-3.058v3.658h-1.044V163.136z"/>
	<path fill="#FFFFFF" d="M415.824,167.226c0-0.684-0.012-1.271-0.047-1.811h0.923l0.036,1.14h0.048
		c0.264-0.78,0.899-1.271,1.606-1.271c0.121,0,0.205,0.012,0.301,0.036v0.995c-0.108-0.024-0.217-0.036-0.359-0.036
		c-0.744,0-1.271,0.563-1.416,1.355c-0.023,0.144-0.048,0.312-0.048,0.491v3.095h-1.044V167.226z"/>
	<path fill="#FFFFFF" d="M424.882,168.27c0,2.146-1.487,3.082-2.89,3.082c-1.572,0-2.783-1.151-2.783-2.986
		c0-1.942,1.271-3.082,2.879-3.082C423.755,165.283,424.882,166.494,424.882,168.27z M420.276,168.329
		c0,1.271,0.731,2.231,1.763,2.231c1.008,0,1.764-0.948,1.764-2.255c0-0.983-0.492-2.231-1.739-2.231
		S420.276,167.226,420.276,168.329z"/>
	<path fill="#FFFFFF" d="M426.217,166.987c0-0.6-0.012-1.092-0.048-1.571h0.936l0.06,0.959h0.024
		c0.288-0.552,0.96-1.091,1.919-1.091c0.803,0,2.051,0.479,2.051,2.471v3.466h-1.056v-3.346c0-0.936-0.348-1.716-1.343-1.716
		c-0.695,0-1.236,0.492-1.416,1.08c-0.047,0.132-0.071,0.312-0.071,0.491v3.49h-1.056V166.987z"/>
	<path fill="#FFFFFF" d="M434.099,163.748v1.667h1.512v0.804h-1.512v3.13c0,0.72,0.204,1.128,0.792,1.128
		c0.276,0,0.479-0.036,0.612-0.072l0.047,0.791c-0.203,0.084-0.527,0.145-0.936,0.145c-0.491,0-0.887-0.156-1.139-0.444
		c-0.301-0.312-0.408-0.827-0.408-1.511v-3.166h-0.899v-0.804h0.899v-1.392L434.099,163.748z"/>
	<path fill="#FFFFFF" d="M439.187,167.586v0.779h-2.963v-0.779H439.187z"/>
	<path fill="#FFFFFF" d="M444.646,167.43h-3.143v2.914h3.502v0.876h-4.545v-8.084h4.365v0.876h-3.322v2.555h3.143V167.43z"/>
	<path fill="#FFFFFF" d="M446.328,166.987c0-0.6-0.012-1.092-0.048-1.571h0.936l0.06,0.959h0.024
		c0.288-0.552,0.96-1.091,1.919-1.091c0.803,0,2.051,0.479,2.051,2.471v3.466h-1.056v-3.346c0-0.936-0.348-1.716-1.343-1.716
		c-0.695,0-1.236,0.492-1.416,1.08c-0.047,0.132-0.071,0.312-0.071,0.491v3.49h-1.056V166.987z"/>
	<path fill="#FFFFFF" d="M458.002,162.704v7.017c0,0.516,0.012,1.104,0.047,1.499h-0.947l-0.047-1.008h-0.024
		c-0.324,0.648-1.032,1.14-1.979,1.14c-1.402,0-2.482-1.188-2.482-2.95c-0.012-1.931,1.188-3.118,2.603-3.118
		c0.888,0,1.487,0.42,1.751,0.888h0.024v-3.467H458.002z M456.946,167.778c0-0.132-0.013-0.312-0.048-0.443
		c-0.156-0.672-0.732-1.224-1.523-1.224c-1.092,0-1.739,0.96-1.739,2.243c0,1.175,0.575,2.146,1.716,2.146
		c0.707,0,1.354-0.468,1.547-1.259c0.035-0.145,0.048-0.288,0.048-0.456V167.778z"/>
	<path fill="#FFFFFF" d="M467.397,171.22c-0.228-0.228-0.444-0.456-0.755-0.792c-0.696,0.648-1.477,0.924-2.363,0.924
		c-1.571,0-2.482-1.056-2.482-2.267c0-1.104,0.659-1.859,1.583-2.362v-0.036c-0.42-0.528-0.672-1.115-0.672-1.691
		c0-0.983,0.708-1.991,2.051-1.991c1.008,0,1.787,0.672,1.787,1.716c0,0.852-0.491,1.522-1.774,2.158v0.036
		c0.684,0.792,1.451,1.679,1.967,2.255c0.371-0.563,0.623-1.344,0.779-2.363h0.959c-0.215,1.271-0.563,2.279-1.163,2.987
		c0.432,0.455,0.852,0.911,1.331,1.427H467.397z M466.127,169.828c-0.48-0.527-1.38-1.511-2.279-2.542
		c-0.432,0.275-1.043,0.791-1.043,1.643c0,0.924,0.684,1.632,1.654,1.632C465.154,170.561,465.742,170.248,466.127,169.828z
		 M463.668,164.9c0,0.575,0.264,1.02,0.611,1.451c0.815-0.468,1.344-0.899,1.344-1.583c0-0.492-0.276-1.044-0.936-1.044
		C464.015,163.724,463.668,164.276,463.668,164.9z"/>
	<path fill="#FFFFFF" d="M473.027,171.22l-2.051-8.084h1.104l0.959,4.09c0.24,1.008,0.456,2.016,0.6,2.795h0.023
		c0.133-0.804,0.385-1.763,0.66-2.807l1.08-4.078h1.091l0.983,4.103c0.229,0.959,0.443,1.919,0.564,2.771h0.023
		c0.168-0.888,0.396-1.787,0.647-2.795l1.067-4.078h1.067l-2.29,8.084h-1.092l-1.02-4.21c-0.252-1.031-0.42-1.822-0.527-2.639
		h-0.024c-0.144,0.804-0.323,1.596-0.624,2.639l-1.15,4.21H473.027z"/>
	<path fill="#FFFFFF" d="M482.015,168.509c0.024,1.428,0.936,2.016,1.991,2.016c0.755,0,1.212-0.132,1.606-0.3l0.181,0.755
		c-0.372,0.168-1.007,0.36-1.931,0.36c-1.787,0-2.855-1.176-2.855-2.927s1.032-3.13,2.723-3.13c1.896,0,2.399,1.667,2.399,2.734
		c0,0.216-0.024,0.384-0.036,0.491H482.015z M485.11,167.754c0.012-0.672-0.276-1.716-1.464-1.716c-1.066,0-1.535,0.984-1.619,1.716
		H485.11z"/>
	<path fill="#FFFFFF" d="M487.392,171.22c0.023-0.396,0.047-0.983,0.047-1.499v-7.017h1.044v3.646h0.024
		c0.371-0.647,1.043-1.067,1.979-1.067c1.439,0,2.459,1.199,2.447,2.962c0,2.075-1.309,3.106-2.604,3.106
		c-0.84,0-1.511-0.323-1.943-1.091h-0.035l-0.048,0.959H487.392z M488.483,168.893c0,0.133,0.024,0.265,0.048,0.384
		c0.204,0.732,0.816,1.235,1.584,1.235c1.103,0,1.762-0.899,1.762-2.23c0-1.163-0.6-2.159-1.727-2.159
		c-0.72,0-1.391,0.492-1.607,1.296c-0.023,0.12-0.06,0.264-0.06,0.432V168.893z"/>
	<path fill="#FFFFFF" d="M496.847,163.244c0.636-0.096,1.391-0.168,2.219-0.168c1.499,0,2.566,0.348,3.273,1.008
		c0.721,0.659,1.141,1.595,1.141,2.902c0,1.319-0.408,2.398-1.164,3.142c-0.756,0.756-2.003,1.164-3.574,1.164
		c-0.743,0-1.367-0.036-1.895-0.097V163.244z M497.89,170.393c0.264,0.048,0.648,0.06,1.056,0.06c2.231,0,3.442-1.247,3.442-3.43
		c0.012-1.907-1.067-3.119-3.274-3.119c-0.54,0-0.947,0.049-1.224,0.108V170.393z"/>
	<path fill="#FFFFFF" d="M505.439,168.509c0.023,1.428,0.936,2.016,1.99,2.016c0.756,0,1.212-0.132,1.607-0.3l0.18,0.755
		c-0.371,0.168-1.007,0.36-1.931,0.36c-1.787,0-2.854-1.176-2.854-2.927s1.031-3.13,2.723-3.13c1.895,0,2.398,1.667,2.398,2.734
		c0,0.216-0.023,0.384-0.035,0.491H505.439z M508.533,167.754c0.012-0.672-0.275-1.716-1.463-1.716
		c-1.067,0-1.535,0.984-1.619,1.716H508.533z"/>
	<path fill="#FFFFFF" d="M510.719,170.141c0.313,0.203,0.864,0.42,1.393,0.42c0.768,0,1.127-0.384,1.127-0.864
		c0-0.504-0.301-0.779-1.08-1.067c-1.043-0.371-1.535-0.947-1.535-1.643c0-0.936,0.756-1.703,2.004-1.703
		c0.587,0,1.104,0.168,1.427,0.359l-0.265,0.768c-0.227-0.144-0.646-0.336-1.187-0.336c-0.624,0-0.972,0.36-0.972,0.792
		c0,0.479,0.348,0.695,1.104,0.983c1.008,0.384,1.523,0.888,1.523,1.751c0,1.02-0.792,1.739-2.172,1.739
		c-0.635,0-1.223-0.156-1.631-0.396L510.719,170.141z"/>
	<path fill="#FFFFFF" d="M516.791,163.784c0.012,0.359-0.252,0.647-0.672,0.647c-0.372,0-0.636-0.288-0.636-0.647
		c0-0.372,0.276-0.66,0.659-0.66C516.539,163.124,516.791,163.412,516.791,163.784z M515.615,171.22v-5.805h1.056v5.805H515.615z"/>
	<path fill="#FFFFFF" d="M523.425,165.415c-0.024,0.42-0.048,0.888-0.048,1.595v3.37c0,1.332-0.264,2.147-0.828,2.65
		c-0.563,0.528-1.379,0.696-2.11,0.696c-0.696,0-1.464-0.168-1.931-0.479l0.264-0.804c0.383,0.239,0.982,0.455,1.703,0.455
		c1.079,0,1.871-0.563,1.871-2.026v-0.647h-0.024c-0.323,0.539-0.948,0.971-1.847,0.971c-1.439,0-2.471-1.223-2.471-2.83
		c0-1.967,1.283-3.082,2.614-3.082c1.007,0,1.56,0.527,1.812,1.007h0.023l0.048-0.875H523.425z M522.333,167.706
		c0-0.181-0.012-0.336-0.06-0.48c-0.191-0.611-0.708-1.115-1.476-1.115c-1.007,0-1.728,0.852-1.728,2.195
		c0,1.139,0.576,2.087,1.716,2.087c0.647,0,1.235-0.408,1.464-1.08c0.059-0.18,0.083-0.384,0.083-0.563V167.706z"/>
	<path fill="#FFFFFF" d="M525.058,166.987c0-0.6-0.012-1.092-0.047-1.571h0.936l0.059,0.959h0.025
		c0.287-0.552,0.959-1.091,1.918-1.091c0.804,0,2.051,0.479,2.051,2.471v3.466h-1.055v-3.346c0-0.936-0.348-1.716-1.344-1.716
		c-0.695,0-1.235,0.492-1.415,1.08c-0.048,0.132-0.071,0.312-0.071,0.491v3.49h-1.057V166.987z"/>
	<path fill="#FFFFFF" d="M532.306,168.509c0.024,1.428,0.936,2.016,1.991,2.016c0.755,0,1.212-0.132,1.606-0.3l0.181,0.755
		c-0.372,0.168-1.007,0.36-1.931,0.36c-1.787,0-2.855-1.176-2.855-2.927s1.032-3.13,2.723-3.13c1.896,0,2.399,1.667,2.399,2.734
		c0,0.216-0.024,0.384-0.036,0.491H532.306z M535.401,167.754c0.012-0.672-0.276-1.716-1.464-1.716
		c-1.066,0-1.535,0.984-1.619,1.716H535.401z"/>
	<path fill="#FFFFFF" d="M537.73,167.226c0-0.684-0.012-1.271-0.047-1.811h0.923l0.036,1.14h0.048
		c0.264-0.78,0.899-1.271,1.606-1.271c0.121,0,0.205,0.012,0.301,0.036v0.995c-0.108-0.024-0.217-0.036-0.359-0.036
		c-0.744,0-1.271,0.563-1.416,1.355c-0.023,0.144-0.048,0.312-0.048,0.491v3.095h-1.044V167.226z"/>
	<path fill="#FFFFFF" d="M541.57,167.706l5.565-2.867v0.828l-4.689,2.351v0.023l4.689,2.352v0.827l-5.565-2.866V167.706z"/>
	<path fill="#FFFFFF" d="M547.919,171.699l3.347-8.695h0.815l-3.358,8.695H547.919z"/>
</g>
<g enable-background="new    ">
	<path fill="#F92672" d="M554.052,170.141c0.313,0.203,0.863,0.42,1.392,0.42c0.768,0,1.127-0.384,1.127-0.864
		c0-0.504-0.3-0.779-1.079-1.067c-1.043-0.371-1.535-0.947-1.535-1.643c0-0.936,0.756-1.703,2.003-1.703
		c0.587,0,1.104,0.168,1.427,0.359l-0.264,0.768c-0.228-0.144-0.647-0.336-1.188-0.336c-0.623,0-0.971,0.36-0.971,0.792
		c0,0.479,0.348,0.695,1.104,0.983c1.007,0.384,1.522,0.888,1.522,1.751c0,1.02-0.792,1.739-2.171,1.739
		c-0.635,0-1.223-0.156-1.631-0.396L554.052,170.141z"/>
	<path fill="#F92672" d="M558.949,167.31c0-0.743-0.024-1.343-0.049-1.895h0.947l0.049,0.995h0.023
		c0.432-0.707,1.115-1.127,2.063-1.127c1.404,0,2.459,1.188,2.459,2.95c0,2.087-1.271,3.118-2.639,3.118
		c-0.768,0-1.439-0.336-1.787-0.911h-0.023v3.154h-1.043V167.31z M559.992,168.858c0,0.155,0.023,0.3,0.048,0.432
		c0.192,0.731,0.827,1.235,1.583,1.235c1.115,0,1.764-0.912,1.764-2.243c0-1.163-0.612-2.159-1.728-2.159
		c-0.72,0-1.392,0.517-1.595,1.308c-0.036,0.132-0.072,0.288-0.072,0.432V168.858z"/>
	<path fill="#F92672" d="M568.99,171.22l-0.084-0.731h-0.035c-0.324,0.456-0.947,0.863-1.775,0.863
		c-1.176,0-1.775-0.827-1.775-1.667c0-1.403,1.248-2.171,3.49-2.159v-0.119c0-0.48-0.132-1.344-1.319-1.344
		c-0.54,0-1.103,0.168-1.511,0.432l-0.24-0.695c0.48-0.312,1.176-0.516,1.907-0.516c1.774,0,2.206,1.211,2.206,2.374v2.171
		c0,0.504,0.024,0.996,0.097,1.392H568.99z M568.835,168.258c-1.151-0.024-2.459,0.18-2.459,1.307c0,0.684,0.456,1.008,0.995,1.008
		c0.756,0,1.236-0.479,1.404-0.972c0.035-0.107,0.06-0.228,0.06-0.336V168.258z"/>
	<path fill="#F92672" d="M571.56,166.987c0-0.6-0.012-1.092-0.048-1.571h0.936l0.06,0.959h0.024c0.288-0.552,0.96-1.091,1.919-1.091
		c0.803,0,2.051,0.479,2.051,2.471v3.466h-1.056v-3.346c0-0.936-0.348-1.716-1.343-1.716c-0.695,0-1.236,0.492-1.416,1.08
		c-0.047,0.132-0.071,0.312-0.071,0.491v3.49h-1.056V166.987z"/>
</g>
<g enable-background="new    ">
	<path fill="#FFFFFF" d="M583.703,168.365l-5.565,2.854v-0.827l4.726-2.352v-0.023l-4.726-2.351v-0.828l5.565,2.854V168.365z"/>
</g>
<g enable-background="new    ">
	<path fill="#FFFFFF" d="M170.875,182.107l5.565-2.867v0.828l-4.689,2.351v0.023l4.689,2.352v0.827l-5.565-2.866V182.107z"/>
	<path fill="#FFFFFF" d="M177.223,186.1l3.346-8.695h0.816l-3.358,8.695H177.223z"/>
</g>
<g enable-background="new    ">
	<path fill="#F92672" d="M182.227,177.105h1.056v3.622h0.024c0.168-0.3,0.432-0.563,0.755-0.743c0.312-0.18,0.684-0.3,1.08-0.3
		c0.779,0,2.027,0.479,2.027,2.482v3.454h-1.056v-3.334c0-0.936-0.348-1.728-1.343-1.728c-0.684,0-1.223,0.48-1.415,1.056
		c-0.06,0.144-0.072,0.3-0.072,0.504v3.502h-1.056V177.105z"/>
	<path fill="#F92672" d="M188.552,185.62v-0.647l0.828-0.804c1.991-1.895,2.891-2.902,2.902-4.078c0-0.791-0.384-1.522-1.547-1.522
		c-0.708,0-1.295,0.359-1.655,0.659l-0.336-0.743c0.54-0.456,1.308-0.792,2.207-0.792c1.679,0,2.387,1.151,2.387,2.267
		c0,1.439-1.043,2.603-2.687,4.186l-0.624,0.576v0.023h3.502v0.876H188.552z"/>
</g>
<g enable-background="new    ">
	<path fill="#FFFFFF" d="M200.523,182.766l-5.565,2.854v-0.827l4.726-2.352v-0.023l-4.726-2.351v-0.828l5.565,2.854V182.766z"/>
</g>
<g enable-background="new    ">
	<path fill="#FFFFFF" d="M170.875,196.506l5.565-2.867v0.828l-4.689,2.351v0.023l4.689,2.352v0.827l-5.565-2.866V196.506z"/>
</g>
<g enable-background="new    ">
	<path fill="#F92672" d="M181.326,200.02l-0.084-0.731h-0.036c-0.324,0.456-0.947,0.863-1.775,0.863
		c-1.175,0-1.775-0.827-1.775-1.667c0-1.403,1.247-2.171,3.49-2.159v-0.119c0-0.48-0.132-1.344-1.319-1.344
		c-0.54,0-1.104,0.168-1.511,0.432l-0.24-0.695c0.48-0.312,1.175-0.516,1.907-0.516c1.775,0,2.207,1.211,2.207,2.374v2.171
		c0,0.504,0.024,0.996,0.096,1.392H181.326z M181.17,197.058c-1.151-0.024-2.458,0.18-2.458,1.307c0,0.684,0.456,1.008,0.996,1.008
		c0.755,0,1.235-0.479,1.403-0.972c0.036-0.107,0.06-0.228,0.06-0.336V197.058z"/>
</g>
<g enable-background="new    ">
	<path fill="#7FE22E" d="M190.576,199.804c-0.276,0.144-0.887,0.336-1.667,0.336c-1.751,0-2.891-1.188-2.891-2.963
		c0-1.787,1.224-3.082,3.119-3.082c0.624,0,1.175,0.156,1.463,0.3l-0.24,0.815c-0.252-0.144-0.647-0.275-1.223-0.275
		c-1.332,0-2.051,0.983-2.051,2.194c0,1.344,0.864,2.171,2.015,2.171c0.6,0,0.996-0.156,1.295-0.288L190.576,199.804z"/>
	<path fill="#7FE22E" d="M191.814,191.504h1.056v8.516h-1.056V191.504z"/>
	<path fill="#7FE22E" d="M197.861,200.02l-0.084-0.731h-0.036c-0.324,0.456-0.947,0.863-1.775,0.863
		c-1.175,0-1.775-0.827-1.775-1.667c0-1.403,1.247-2.171,3.49-2.159v-0.119c0-0.48-0.132-1.344-1.319-1.344
		c-0.54,0-1.104,0.168-1.511,0.432l-0.24-0.695c0.48-0.312,1.175-0.516,1.907-0.516c1.775,0,2.207,1.211,2.207,2.374v2.171
		c0,0.504,0.024,0.996,0.096,1.392H197.861z M197.704,197.058c-1.151-0.024-2.458,0.18-2.458,1.307c0,0.684,0.456,1.008,0.996,1.008
		c0.755,0,1.235-0.479,1.403-0.972c0.036-0.107,0.06-0.228,0.06-0.336V197.058z"/>
	<path fill="#7FE22E" d="M200.286,198.941c0.312,0.203,0.864,0.42,1.392,0.42c0.768,0,1.127-0.384,1.127-0.864
		c0-0.504-0.3-0.779-1.079-1.067c-1.043-0.371-1.535-0.947-1.535-1.643c0-0.936,0.755-1.703,2.003-1.703
		c0.587,0,1.103,0.168,1.427,0.359l-0.264,0.768c-0.228-0.144-0.647-0.336-1.187-0.336c-0.624,0-0.972,0.36-0.972,0.792
		c0,0.479,0.348,0.695,1.104,0.983c1.007,0.384,1.523,0.888,1.523,1.751c0,1.02-0.792,1.739-2.171,1.739
		c-0.635,0-1.223-0.156-1.631-0.396L200.286,198.941z"/>
	<path fill="#7FE22E" d="M205.038,198.941c0.312,0.203,0.864,0.42,1.392,0.42c0.768,0,1.127-0.384,1.127-0.864
		c0-0.504-0.3-0.779-1.079-1.067c-1.043-0.371-1.535-0.947-1.535-1.643c0-0.936,0.755-1.703,2.003-1.703
		c0.587,0,1.103,0.168,1.427,0.359l-0.264,0.768c-0.228-0.144-0.647-0.336-1.187-0.336c-0.624,0-0.972,0.36-0.972,0.792
		c0,0.479,0.348,0.695,1.104,0.983c1.007,0.384,1.523,0.888,1.523,1.751c0,1.02-0.792,1.739-2.171,1.739
		c-0.635,0-1.223-0.156-1.631-0.396L205.038,198.941z"/>
</g>
<g enable-background="new    ">
	<path fill="#FFFFFF" d="M209.539,195.978v-0.72h6.189v0.72H209.539z M209.539,198.328v-0.72h6.189v0.72H209.539z"/>
</g>
<g enable-background="new    ">
	<path fill="#E6DB62" d="M217.866,191.804l-0.204,2.879h-0.647l-0.192-2.879H217.866z M219.653,191.804l-0.204,2.879h-0.636
		l-0.204-2.879H219.653z"/>
	<path fill="#E6DB62" d="M221.082,200.02c0.024-0.396,0.048-0.983,0.048-1.499v-7.017h1.043v3.646h0.024
		c0.372-0.647,1.043-1.067,1.979-1.067c1.439,0,2.458,1.199,2.447,2.962c0,2.075-1.308,3.106-2.603,3.106
		c-0.84,0-1.511-0.323-1.943-1.091h-0.036l-0.048,0.959H221.082z M222.174,197.693c0,0.133,0.024,0.265,0.048,0.384
		c0.204,0.732,0.815,1.235,1.583,1.235c1.104,0,1.763-0.899,1.763-2.23c0-1.163-0.6-2.159-1.727-2.159
		c-0.72,0-1.391,0.492-1.607,1.296c-0.024,0.12-0.06,0.264-0.06,0.432V197.693z"/>
	<path fill="#E6DB62" d="M232.815,198.437c0,0.6,0.012,1.127,0.048,1.583h-0.936l-0.06-0.947h-0.024
		c-0.276,0.468-0.887,1.079-1.919,1.079c-0.911,0-2.003-0.504-2.003-2.543v-3.394h1.056v3.214c0,1.104,0.336,1.848,1.295,1.848
		c0.708,0,1.199-0.492,1.391-0.96c0.06-0.156,0.096-0.348,0.096-0.54v-3.562h1.056V198.437z"/>
	<path fill="#E6DB62" d="M235.841,192.548v1.667h1.511v0.804h-1.511v3.13c0,0.72,0.204,1.128,0.792,1.128
		c0.276,0,0.479-0.036,0.611-0.072l0.048,0.791c-0.204,0.084-0.528,0.145-0.936,0.145c-0.492,0-0.888-0.156-1.14-0.444
		c-0.3-0.312-0.408-0.827-0.408-1.511v-3.166h-0.899v-0.804h0.899v-1.392L235.841,192.548z"/>
	<path fill="#E6DB62" d="M239.813,192.548v1.667h1.511v0.804h-1.511v3.13c0,0.72,0.204,1.128,0.792,1.128
		c0.276,0,0.479-0.036,0.612-0.072l0.048,0.791c-0.204,0.084-0.528,0.145-0.936,0.145c-0.492,0-0.888-0.156-1.14-0.444
		c-0.3-0.312-0.408-0.827-0.408-1.511v-3.166h-0.899v-0.804h0.899v-1.392L239.813,192.548z"/>
	<path fill="#E6DB62" d="M247.695,197.07c0,2.146-1.487,3.082-2.89,3.082c-1.571,0-2.783-1.151-2.783-2.986
		c0-1.942,1.271-3.082,2.878-3.082C246.568,194.083,247.695,195.294,247.695,197.07z M243.089,197.129
		c0,1.271,0.732,2.231,1.763,2.231c1.007,0,1.763-0.948,1.763-2.255c0-0.983-0.492-2.231-1.739-2.231
		C243.629,194.874,243.089,196.026,243.089,197.129z"/>
	<path fill="#E6DB62" d="M249.03,195.786c0-0.6-0.012-1.092-0.048-1.571h0.936l0.06,0.959h0.024
		c0.288-0.552,0.959-1.091,1.919-1.091c0.803,0,2.051,0.479,2.051,2.471v3.466h-1.056v-3.346c0-0.936-0.348-1.716-1.343-1.716
		c-0.695,0-1.235,0.492-1.415,1.08c-0.048,0.132-0.072,0.312-0.072,0.491v3.49h-1.056V195.786z"/>
	<path fill="#E6DB62" d="M256.385,191.804l-0.204,2.879h-0.647l-0.192-2.879H256.385z M258.172,191.804l-0.204,2.879h-0.636
		l-0.204-2.879H258.172z"/>
</g>
<g enable-background="new    ">
	<path fill="#F92672" d="M262.35,191.504h1.056v3.622h0.024c0.168-0.3,0.432-0.563,0.755-0.743c0.312-0.18,0.684-0.3,1.08-0.3
		c0.779,0,2.027,0.479,2.027,2.482v3.454h-1.056v-3.334c0-0.936-0.348-1.728-1.343-1.728c-0.684,0-1.223,0.48-1.415,1.056
		c-0.06,0.144-0.072,0.3-0.072,0.504v3.502h-1.056V191.504z"/>
	<path fill="#F92672" d="M269.01,196.026c0-0.684-0.012-1.271-0.048-1.811h0.923l0.036,1.14h0.048
		c0.264-0.78,0.899-1.271,1.607-1.271c0.12,0,0.204,0.012,0.3,0.036v0.995c-0.108-0.024-0.216-0.036-0.36-0.036
		c-0.744,0-1.271,0.563-1.416,1.355c-0.024,0.144-0.048,0.312-0.048,0.491v3.095h-1.043V196.026z"/>
	<path fill="#F92672" d="M273.402,197.309c0.024,1.428,0.935,2.016,1.991,2.016c0.755,0,1.211-0.132,1.607-0.3l0.18,0.755
		c-0.372,0.168-1.007,0.36-1.931,0.36c-1.787,0-2.854-1.176-2.854-2.927s1.032-3.13,2.723-3.13c1.895,0,2.399,1.667,2.399,2.734
		c0,0.216-0.024,0.384-0.036,0.491H273.402z M276.496,196.554c0.012-0.672-0.276-1.716-1.463-1.716
		c-1.067,0-1.535,0.984-1.619,1.716H276.496z"/>
	<path fill="#F92672" d="M278.934,200.02v-5.001h-0.815v-0.804h0.815v-0.276c0-0.815,0.18-1.559,0.672-2.026
		c0.396-0.384,0.923-0.54,1.415-0.54c0.372,0,0.696,0.084,0.899,0.168l-0.144,0.815c-0.156-0.071-0.372-0.132-0.671-0.132
		c-0.899,0-1.127,0.792-1.127,1.68v0.312h1.403v0.804h-1.403v5.001H278.934z"/>
</g>
<g enable-background="new    ">
	<path fill="#FFFFFF" d="M282.053,195.978v-0.72h6.189v0.72H282.053z M282.053,198.328v-0.72h6.189v0.72H282.053z"/>
</g>
<g enable-background="new    ">
	<path fill="#E6DB62" d="M290.381,191.804l-0.204,2.879h-0.647l-0.192-2.879H290.381z M292.168,191.804l-0.204,2.879h-0.636
		l-0.204-2.879H292.168z"/>
	<path fill="#E6DB62" d="M293.885,200.02l0.312-2.351h-0.983v-0.708h1.091l0.228-1.738h-1.032v-0.708h1.14l0.312-2.291h0.696
		l-0.3,2.291h1.247l0.312-2.291h0.708l-0.3,2.291h0.983v0.708h-1.091l-0.216,1.738h1.031v0.708h-1.139l-0.312,2.351h-0.719
		l0.312-2.351h-1.247l-0.312,2.351H293.885z M296.272,196.961l0.228-1.738h-1.248l-0.228,1.738H296.272z"/>
	<path fill="#E6DB62" d="M299.609,196.11c0-0.743-0.024-1.343-0.048-1.895h0.947l0.048,0.995h0.024
		c0.432-0.707,1.115-1.127,2.063-1.127c1.403,0,2.459,1.188,2.459,2.95c0,2.087-1.271,3.118-2.639,3.118
		c-0.768,0-1.439-0.336-1.787-0.911h-0.024v3.154h-1.043V196.11z M300.653,197.657c0,0.155,0.024,0.3,0.048,0.432
		c0.192,0.731,0.828,1.235,1.583,1.235c1.116,0,1.763-0.912,1.763-2.243c0-1.163-0.612-2.159-1.727-2.159
		c-0.72,0-1.391,0.517-1.595,1.308c-0.036,0.132-0.072,0.288-0.072,0.432V197.657z"/>
	<path fill="#E6DB62" d="M311.69,197.07c0,2.146-1.487,3.082-2.89,3.082c-1.571,0-2.783-1.151-2.783-2.986
		c0-1.942,1.271-3.082,2.878-3.082C310.563,194.083,311.69,195.294,311.69,197.07z M307.084,197.129
		c0,1.271,0.732,2.231,1.763,2.231c1.007,0,1.763-0.948,1.763-2.255c0-0.983-0.492-2.231-1.739-2.231
		C307.624,194.874,307.084,196.026,307.084,197.129z"/>
	<path fill="#E6DB62" d="M313.025,196.026c0-0.684-0.012-1.271-0.048-1.811h0.923l0.036,1.14h0.048
		c0.264-0.78,0.899-1.271,1.607-1.271c0.12,0,0.204,0.012,0.3,0.036v0.995c-0.108-0.024-0.216-0.036-0.36-0.036
		c-0.744,0-1.271,0.563-1.416,1.355c-0.024,0.144-0.048,0.312-0.048,0.491v3.095h-1.043V196.026z"/>
	<path fill="#E6DB62" d="M318.508,192.548v1.667h1.511v0.804h-1.511v3.13c0,0.72,0.204,1.128,0.792,1.128
		c0.276,0,0.479-0.036,0.612-0.072l0.048,0.791c-0.204,0.084-0.528,0.145-0.936,0.145c-0.492,0-0.888-0.156-1.14-0.444
		c-0.3-0.312-0.408-0.827-0.408-1.511v-3.166h-0.899v-0.804h0.899v-1.392L318.508,192.548z"/>
	<path fill="#E6DB62" d="M321.317,200.02v-5.001h-0.815v-0.804h0.815v-0.276c0-0.815,0.18-1.559,0.672-2.026
		c0.396-0.384,0.923-0.54,1.415-0.54c0.372,0,0.696,0.084,0.899,0.168l-0.144,0.815c-0.156-0.071-0.372-0.132-0.671-0.132
		c-0.899,0-1.127,0.792-1.127,1.68v0.312h1.403v0.804h-1.403v5.001H321.317z"/>
	<path fill="#E6DB62" d="M329.81,197.07c0,2.146-1.487,3.082-2.89,3.082c-1.571,0-2.783-1.151-2.783-2.986
		c0-1.942,1.271-3.082,2.878-3.082C328.683,194.083,329.81,195.294,329.81,197.07z M325.204,197.129
		c0,1.271,0.732,2.231,1.763,2.231c1.007,0,1.763-0.948,1.763-2.255c0-0.983-0.492-2.231-1.739-2.231
		C325.744,194.874,325.204,196.026,325.204,197.129z"/>
	<path fill="#E6DB62" d="M331.145,191.504h1.056v8.516h-1.056V191.504z"/>
	<path fill="#E6DB62" d="M335.152,192.584c0.012,0.359-0.252,0.647-0.671,0.647c-0.372,0-0.636-0.288-0.636-0.647
		c0-0.372,0.276-0.66,0.66-0.66C334.9,191.924,335.152,192.212,335.152,192.584z M333.976,200.02v-5.805h1.056v5.805H333.976z"/>
	<path fill="#E6DB62" d="M342.037,197.07c0,2.146-1.487,3.082-2.89,3.082c-1.571,0-2.783-1.151-2.783-2.986
		c0-1.942,1.271-3.082,2.878-3.082C340.91,194.083,342.037,195.294,342.037,197.07z M337.432,197.129
		c0,1.271,0.732,2.231,1.763,2.231c1.007,0,1.763-0.948,1.763-2.255c0-0.983-0.492-2.231-1.739-2.231
		C337.972,194.874,337.432,196.026,337.432,197.129z"/>
</g>
<g enable-background="new    ">
	<path fill="#F92672" d="M344.02,191.804l-0.204,2.879h-0.647l-0.192-2.879H344.02z M345.807,191.804l-0.204,2.879h-0.636
		l-0.204-2.879H345.807z"/>
</g>
<g enable-background="new    ">
	<path fill="#FFFFFF" d="M352.764,197.165l-5.565,2.854v-0.827l4.726-2.352v-0.023l-4.726-2.351v-0.828l5.565,2.854V197.165z"/>
</g>
<g enable-background="new    ">
	<path fill="#FFFFFF" d="M358.792,200.02l-2.639-8.084h1.127l1.259,3.982c0.348,1.091,0.648,2.074,0.864,3.022h0.024
		c0.228-0.936,0.563-1.955,0.923-3.011l1.367-3.994h1.116l-2.891,8.084H358.792z"/>
	<path fill="#FFFFFF" d="M363.869,197.309c0.024,1.428,0.936,2.016,1.991,2.016c0.755,0,1.211-0.132,1.607-0.3l0.18,0.755
		c-0.372,0.168-1.007,0.36-1.931,0.36c-1.787,0-2.854-1.176-2.854-2.927s1.032-3.13,2.723-3.13c1.895,0,2.399,1.667,2.399,2.734
		c0,0.216-0.024,0.384-0.036,0.491H363.869z M366.963,196.554c0.012-0.672-0.276-1.716-1.463-1.716
		c-1.067,0-1.535,0.984-1.619,1.716H366.963z"/>
	<path fill="#FFFFFF" d="M367.878,201.698c0.479-0.035,0.899-0.168,1.151-0.443c0.288-0.336,0.396-0.792,0.396-2.183v-4.857h1.056
		v5.265c0,1.128-0.18,1.859-0.696,2.387c-0.468,0.468-1.235,0.66-1.799,0.66L367.878,201.698z M370.6,192.584
		c0.012,0.348-0.24,0.647-0.66,0.647c-0.396,0-0.647-0.3-0.647-0.647c0-0.372,0.276-0.66,0.672-0.66
		C370.348,191.924,370.6,192.212,370.6,192.584z"/>
	<path fill="#FFFFFF" d="M375.424,200.02l-0.084-0.731h-0.037c-0.323,0.456-0.947,0.863-1.774,0.863
		c-1.175,0-1.775-0.827-1.775-1.667c0-1.403,1.247-2.171,3.49-2.159v-0.119c0-0.48-0.132-1.344-1.319-1.344
		c-0.54,0-1.103,0.168-1.511,0.432l-0.24-0.695c0.48-0.312,1.176-0.516,1.907-0.516c1.775,0,2.207,1.211,2.207,2.374v2.171
		c0,0.504,0.023,0.996,0.096,1.392H375.424z M375.267,197.058c-1.151-0.024-2.459,0.18-2.459,1.307c0,0.684,0.456,1.008,0.996,1.008
		c0.755,0,1.235-0.479,1.403-0.972c0.036-0.107,0.061-0.228,0.061-0.336V197.058z"/>
	<path fill="#FFFFFF" d="M380.537,195.786c0-0.6-0.013-1.092-0.049-1.571h0.924l0.048,0.936h0.036
		c0.324-0.552,0.863-1.067,1.823-1.067c0.792,0,1.392,0.479,1.644,1.163h0.023c0.18-0.324,0.408-0.575,0.647-0.756
		c0.348-0.264,0.731-0.407,1.283-0.407c0.768,0,1.907,0.504,1.907,2.519v3.418h-1.031v-3.286c0-1.115-0.408-1.787-1.26-1.787
		c-0.6,0-1.067,0.443-1.247,0.96c-0.048,0.144-0.084,0.335-0.084,0.527v3.586h-1.031v-3.479c0-0.923-0.408-1.595-1.212-1.595
		c-0.659,0-1.139,0.527-1.307,1.056c-0.061,0.155-0.084,0.336-0.084,0.516v3.502h-1.031V195.786z"/>
	<path fill="#FFFFFF" d="M391.133,197.309c0.023,1.428,0.936,2.016,1.99,2.016c0.756,0,1.212-0.132,1.607-0.3l0.18,0.755
		c-0.371,0.168-1.007,0.36-1.931,0.36c-1.787,0-2.854-1.176-2.854-2.927s1.031-3.13,2.723-3.13c1.895,0,2.398,1.667,2.398,2.734
		c0,0.216-0.023,0.384-0.035,0.491H391.133z M394.226,196.554c0.012-0.672-0.275-1.716-1.463-1.716
		c-1.067,0-1.535,0.984-1.619,1.716H394.226z"/>
	<path fill="#FFFFFF" d="M401.414,198.437c0,0.6,0.012,1.127,0.048,1.583h-0.936l-0.06-0.947h-0.024
		c-0.276,0.468-0.888,1.079-1.919,1.079c-0.911,0-2.003-0.504-2.003-2.543v-3.394h1.056v3.214c0,1.104,0.336,1.848,1.295,1.848
		c0.708,0,1.199-0.492,1.392-0.96c0.06-0.156,0.096-0.348,0.096-0.54v-3.562h1.056V198.437z"/>
	<path fill="#FFFFFF" d="M405.713,196.11c0-0.743-0.024-1.343-0.049-1.895h0.947l0.049,0.995h0.023
		c0.432-0.707,1.115-1.127,2.063-1.127c1.404,0,2.459,1.188,2.459,2.95c0,2.087-1.271,3.118-2.639,3.118
		c-0.768,0-1.439-0.336-1.787-0.911h-0.023v3.154h-1.043V196.11z M406.756,197.657c0,0.155,0.023,0.3,0.048,0.432
		c0.192,0.731,0.827,1.235,1.583,1.235c1.115,0,1.764-0.912,1.764-2.243c0-1.163-0.612-2.159-1.728-2.159
		c-0.72,0-1.392,0.517-1.595,1.308c-0.036,0.132-0.072,0.288-0.072,0.432V197.657z"/>
	<path fill="#FFFFFF" d="M417.793,197.07c0,2.146-1.486,3.082-2.89,3.082c-1.571,0-2.782-1.151-2.782-2.986
		c0-1.942,1.271-3.082,2.878-3.082C416.666,194.083,417.793,195.294,417.793,197.07z M413.187,197.129
		c0,1.271,0.732,2.231,1.764,2.231c1.008,0,1.764-0.948,1.764-2.255c0-0.983-0.492-2.231-1.74-2.231
		C413.728,194.874,413.187,196.026,413.187,197.129z"/>
	<path fill="#FFFFFF" d="M419.129,196.026c0-0.684-0.013-1.271-0.049-1.811h0.924l0.036,1.14h0.048
		c0.264-0.78,0.899-1.271,1.607-1.271c0.119,0,0.203,0.012,0.3,0.036v0.995c-0.108-0.024-0.216-0.036-0.36-0.036
		c-0.743,0-1.271,0.563-1.415,1.355c-0.024,0.144-0.048,0.312-0.048,0.491v3.095h-1.043V196.026z"/>
	<path fill="#FFFFFF" d="M424.611,192.548v1.667h1.512v0.804h-1.512v3.13c0,0.72,0.203,1.128,0.791,1.128
		c0.276,0,0.48-0.036,0.612-0.072l0.048,0.791c-0.204,0.084-0.527,0.145-0.936,0.145c-0.492,0-0.888-0.156-1.14-0.444
		c-0.3-0.312-0.407-0.827-0.407-1.511v-3.166h-0.9v-0.804h0.9v-1.392L424.611,192.548z"/>
	<path fill="#FFFFFF" d="M427.42,200.02v-5.001h-0.815v-0.804h0.815v-0.276c0-0.815,0.18-1.559,0.672-2.026
		c0.396-0.384,0.924-0.54,1.415-0.54c0.372,0,0.696,0.084,0.899,0.168l-0.145,0.815c-0.155-0.071-0.371-0.132-0.671-0.132
		c-0.899,0-1.128,0.792-1.128,1.68v0.312h1.404v0.804h-1.404v5.001H427.42z"/>
	<path fill="#FFFFFF" d="M435.913,197.07c0,2.146-1.487,3.082-2.89,3.082c-1.572,0-2.783-1.151-2.783-2.986
		c0-1.942,1.271-3.082,2.879-3.082C434.786,194.083,435.913,195.294,435.913,197.07z M431.307,197.129
		c0,1.271,0.731,2.231,1.763,2.231c1.008,0,1.764-0.948,1.764-2.255c0-0.983-0.492-2.231-1.739-2.231
		S431.307,196.026,431.307,197.129z"/>
	<path fill="#FFFFFF" d="M437.248,191.504h1.056v8.516h-1.056V191.504z"/>
	<path fill="#FFFFFF" d="M441.256,192.584c0.012,0.359-0.252,0.647-0.672,0.647c-0.372,0-0.636-0.288-0.636-0.647
		c0-0.372,0.276-0.66,0.659-0.66C441.004,191.924,441.256,192.212,441.256,192.584z M440.08,200.02v-5.805h1.056v5.805H440.08z"/>
	<path fill="#FFFFFF" d="M448.14,197.07c0,2.146-1.486,3.082-2.891,3.082c-1.57,0-2.782-1.151-2.782-2.986
		c0-1.942,1.271-3.082,2.878-3.082C447.013,194.083,448.14,195.294,448.14,197.07z M443.535,197.129
		c0,1.271,0.732,2.231,1.764,2.231c1.007,0,1.763-0.948,1.763-2.255c0-0.983-0.491-2.231-1.739-2.231
		C444.075,194.874,443.535,196.026,443.535,197.129z"/>
</g>
<g enable-background="new    ">
	<path fill="#FFFFFF" d="M452.197,196.506l5.564-2.867v0.828l-4.689,2.351v0.023l4.689,2.352v0.827l-5.564-2.866V196.506z"/>
	<path fill="#FFFFFF" d="M458.545,200.499l3.346-8.695h0.816l-3.358,8.695H458.545z"/>
</g>
<g enable-background="new    ">
	<path fill="#F92672" d="M466.763,200.02l-0.084-0.731h-0.035c-0.324,0.456-0.947,0.863-1.775,0.863
		c-1.176,0-1.775-0.827-1.775-1.667c0-1.403,1.248-2.171,3.49-2.159v-0.119c0-0.48-0.132-1.344-1.318-1.344
		c-0.541,0-1.104,0.168-1.512,0.432l-0.24-0.695c0.48-0.312,1.176-0.516,1.907-0.516c1.774,0,2.206,1.211,2.206,2.374v2.171
		c0,0.504,0.024,0.996,0.097,1.392H466.763z M466.607,197.058c-1.15-0.024-2.458,0.18-2.458,1.307c0,0.684,0.456,1.008,0.995,1.008
		c0.756,0,1.236-0.479,1.404-0.972c0.035-0.107,0.059-0.228,0.059-0.336V197.058z"/>
</g>
<g enable-background="new    ">
	<path fill="#FFFFFF" d="M474.814,197.165l-5.564,2.854v-0.827l4.725-2.352v-0.023l-4.725-2.351v-0.828l5.564,2.854V197.165z"/>
</g>
<g enable-background="new    ">
	<path fill="#FFFFFF" d="M170.875,210.906l5.565-2.867v0.828l-4.689,2.351v0.023l4.689,2.352v0.827l-5.565-2.866V210.906z"/>
</g>
<g enable-background="new    ">
	<path fill="#F92672" d="M183.125,205.905v7.017c0,0.516,0.012,1.104,0.048,1.499h-0.947l-0.048-1.008h-0.024
		c-0.324,0.648-1.032,1.14-1.979,1.14c-1.403,0-2.483-1.188-2.483-2.95c-0.012-1.931,1.188-3.118,2.603-3.118
		c0.888,0,1.487,0.42,1.751,0.888h0.024v-3.467H183.125z M182.07,210.978c0-0.132-0.012-0.312-0.048-0.443
		c-0.156-0.672-0.731-1.224-1.523-1.224c-1.091,0-1.739,0.96-1.739,2.243c0,1.175,0.576,2.146,1.715,2.146
		c0.708,0,1.355-0.468,1.547-1.259c0.036-0.145,0.048-0.288,0.048-0.456V210.978z"/>
	<path fill="#F92672" d="M186.055,206.985c0.012,0.359-0.252,0.647-0.671,0.647c-0.372,0-0.636-0.288-0.636-0.647
		c0-0.372,0.276-0.66,0.66-0.66C185.803,206.324,186.055,206.613,186.055,206.985z M184.88,214.42v-5.805h1.056v5.805H184.88z"/>
	<path fill="#F92672" d="M188.095,208.615l1.14,3.262c0.192,0.528,0.348,1.008,0.468,1.487h0.036c0.132-0.479,0.3-0.959,0.492-1.487
		l1.127-3.262h1.104l-2.279,5.805h-1.007l-2.207-5.805H188.095z"/>
</g>
<g enable-background="new    ">
	<path fill="#7FE22E" d="M200.141,214.204c-0.276,0.144-0.887,0.336-1.667,0.336c-1.751,0-2.891-1.188-2.891-2.963
		c0-1.787,1.224-3.082,3.119-3.082c0.624,0,1.175,0.156,1.463,0.3l-0.24,0.815c-0.252-0.144-0.647-0.275-1.223-0.275
		c-1.332,0-2.051,0.983-2.051,2.194c0,1.344,0.864,2.171,2.015,2.171c0.6,0,0.996-0.156,1.295-0.288L200.141,214.204z"/>
	<path fill="#7FE22E" d="M201.38,205.905h1.056v8.516h-1.056V205.905z"/>
	<path fill="#7FE22E" d="M207.426,214.42l-0.084-0.731h-0.036c-0.324,0.456-0.947,0.863-1.775,0.863
		c-1.175,0-1.775-0.827-1.775-1.667c0-1.403,1.247-2.171,3.49-2.159v-0.119c0-0.48-0.132-1.344-1.319-1.344
		c-0.54,0-1.104,0.168-1.511,0.432l-0.24-0.695c0.48-0.312,1.175-0.516,1.907-0.516c1.775,0,2.207,1.211,2.207,2.374v2.171
		c0,0.504,0.024,0.996,0.096,1.392H207.426z M207.27,211.458c-1.151-0.024-2.458,0.18-2.458,1.307c0,0.684,0.456,1.008,0.996,1.008
		c0.755,0,1.235-0.479,1.403-0.972c0.036-0.107,0.06-0.228,0.06-0.336V211.458z"/>
	<path fill="#7FE22E" d="M209.851,213.341c0.312,0.203,0.864,0.42,1.392,0.42c0.768,0,1.127-0.384,1.127-0.864
		c0-0.504-0.3-0.779-1.079-1.067c-1.043-0.371-1.535-0.947-1.535-1.643c0-0.936,0.755-1.703,2.003-1.703
		c0.587,0,1.103,0.168,1.427,0.359l-0.264,0.768c-0.228-0.144-0.647-0.336-1.187-0.336c-0.624,0-0.972,0.36-0.972,0.792
		c0,0.479,0.348,0.695,1.104,0.983c1.007,0.384,1.523,0.888,1.523,1.751c0,1.02-0.792,1.739-2.171,1.739
		c-0.635,0-1.223-0.156-1.631-0.396L209.851,213.341z"/>
	<path fill="#7FE22E" d="M214.603,213.341c0.312,0.203,0.864,0.42,1.392,0.42c0.768,0,1.127-0.384,1.127-0.864
		c0-0.504-0.3-0.779-1.079-1.067c-1.043-0.371-1.535-0.947-1.535-1.643c0-0.936,0.755-1.703,2.003-1.703
		c0.587,0,1.103,0.168,1.427,0.359l-0.264,0.768c-0.228-0.144-0.647-0.336-1.187-0.336c-0.624,0-0.972,0.36-0.972,0.792
		c0,0.479,0.348,0.695,1.104,0.983c1.007,0.384,1.523,0.888,1.523,1.751c0,1.02-0.792,1.739-2.171,1.739
		c-0.635,0-1.223-0.156-1.631-0.396L214.603,213.341z"/>
</g>
<g enable-background="new    ">
	<path fill="#FFFFFF" d="M219.103,210.378v-0.72h6.189v0.72H219.103z M219.103,212.729v-0.72h6.189v0.72H219.103z"/>
</g>
<g enable-background="new    ">
	<path fill="#E6DB62" d="M227.431,206.204l-0.204,2.879h-0.647l-0.192-2.879H227.431z M229.218,206.204l-0.204,2.879h-0.636
		l-0.204-2.879H229.218z"/>
	<path fill="#E6DB62" d="M231.871,206.985c0.012,0.359-0.252,0.647-0.671,0.647c-0.372,0-0.636-0.288-0.636-0.647
		c0-0.372,0.276-0.66,0.66-0.66C231.619,206.324,231.871,206.613,231.871,206.985z M230.696,214.42v-5.805h1.056v5.805H230.696z"/>
	<path fill="#E6DB62" d="M233.503,205.905h1.056v8.516h-1.056V205.905z"/>
	<path fill="#E6DB62" d="M241.193,212.837c0,0.6,0.012,1.127,0.048,1.583h-0.936l-0.06-0.947h-0.024
		c-0.276,0.468-0.887,1.079-1.919,1.079c-0.911,0-2.003-0.504-2.003-2.543v-3.394h1.056v3.214c0,1.104,0.336,1.848,1.295,1.848
		c0.708,0,1.199-0.492,1.391-0.96c0.06-0.156,0.096-0.348,0.096-0.54v-3.562h1.056V212.837z"/>
	<path fill="#E6DB62" d="M242.803,213.341c0.312,0.203,0.864,0.42,1.392,0.42c0.768,0,1.127-0.384,1.127-0.864
		c0-0.504-0.3-0.779-1.079-1.067c-1.043-0.371-1.535-0.947-1.535-1.643c0-0.936,0.755-1.703,2.003-1.703
		c0.587,0,1.104,0.168,1.427,0.359l-0.264,0.768c-0.228-0.144-0.647-0.336-1.187-0.336c-0.624,0-0.972,0.36-0.972,0.792
		c0,0.479,0.348,0.695,1.104,0.983c1.007,0.384,1.523,0.888,1.523,1.751c0,1.02-0.792,1.739-2.171,1.739
		c-0.635,0-1.223-0.156-1.631-0.396L242.803,213.341z"/>
	<path fill="#E6DB62" d="M248.971,206.948v1.667h1.511v0.804h-1.511v3.13c0,0.72,0.204,1.128,0.792,1.128
		c0.276,0,0.479-0.036,0.611-0.072l0.048,0.791c-0.204,0.084-0.528,0.145-0.936,0.145c-0.492,0-0.888-0.156-1.14-0.444
		c-0.3-0.312-0.408-0.827-0.408-1.511v-3.166h-0.899v-0.804h0.899v-1.392L248.971,206.948z"/>
	<path fill="#E6DB62" d="M251.671,210.426c0-0.684-0.012-1.271-0.048-1.811h0.923l0.036,1.14h0.048
		c0.264-0.78,0.899-1.271,1.607-1.271c0.12,0,0.204,0.012,0.3,0.036v0.995c-0.108-0.024-0.216-0.036-0.36-0.036
		c-0.744,0-1.271,0.563-1.416,1.355c-0.024,0.144-0.048,0.312-0.048,0.491v3.095h-1.043V210.426z"/>
	<path fill="#E6DB62" d="M258.75,214.42l-0.084-0.731h-0.036c-0.324,0.456-0.947,0.863-1.775,0.863
		c-1.175,0-1.775-0.827-1.775-1.667c0-1.403,1.247-2.171,3.49-2.159v-0.119c0-0.48-0.132-1.344-1.319-1.344
		c-0.54,0-1.104,0.168-1.511,0.432l-0.24-0.695c0.48-0.312,1.175-0.516,1.907-0.516c1.775,0,2.207,1.211,2.207,2.374v2.171
		c0,0.504,0.024,0.996,0.096,1.392H258.75z M258.594,211.458c-1.151-0.024-2.458,0.18-2.458,1.307c0,0.684,0.456,1.008,0.996,1.008
		c0.755,0,1.235-0.479,1.403-0.972c0.036-0.107,0.06-0.228,0.06-0.336V211.458z"/>
	<path fill="#E6DB62" d="M265.457,214.204c-0.276,0.144-0.888,0.336-1.667,0.336c-1.751,0-2.891-1.188-2.891-2.963
		c0-1.787,1.224-3.082,3.119-3.082c0.624,0,1.175,0.156,1.463,0.3l-0.24,0.815c-0.252-0.144-0.647-0.275-1.223-0.275
		c-1.332,0-2.051,0.983-2.051,2.194c0,1.344,0.864,2.171,2.015,2.171c0.6,0,0.996-0.156,1.295-0.288L265.457,214.204z"/>
	<path fill="#E6DB62" d="M269.909,214.42l-0.084-0.731h-0.036c-0.324,0.456-0.947,0.863-1.775,0.863
		c-1.175,0-1.775-0.827-1.775-1.667c0-1.403,1.247-2.171,3.49-2.159v-0.119c0-0.48-0.132-1.344-1.319-1.344
		c-0.54,0-1.103,0.168-1.511,0.432l-0.24-0.695c0.48-0.312,1.176-0.516,1.907-0.516c1.775,0,2.207,1.211,2.207,2.374v2.171
		c0,0.504,0.024,0.996,0.096,1.392H269.909z M269.754,211.458c-1.151-0.024-2.459,0.18-2.459,1.307c0,0.684,0.456,1.008,0.996,1.008
		c0.755,0,1.235-0.479,1.403-0.972c0.036-0.107,0.06-0.228,0.06-0.336V211.458z"/>
	<path fill="#E6DB62" d="M277.732,211.47c0,2.146-1.487,3.082-2.89,3.082c-1.571,0-2.783-1.151-2.783-2.986
		c0-1.942,1.271-3.082,2.878-3.082C276.605,208.484,277.732,209.695,277.732,211.47z M273.127,211.53
		c0,1.271,0.732,2.231,1.763,2.231c1.007,0,1.763-0.948,1.763-2.255c0-0.983-0.492-2.231-1.739-2.231
		C273.667,209.275,273.127,210.426,273.127,211.53z"/>
	<path fill="#E6DB62" d="M279.715,206.204l-0.204,2.879h-0.647l-0.192-2.879H279.715z M281.502,206.204l-0.204,2.879h-0.636
		l-0.204-2.879H281.502z"/>
</g>
<g enable-background="new    ">
	<path fill="#FFFFFF" d="M288.653,211.566l-5.565,2.854v-0.827l4.726-2.352v-0.023l-4.726-2.351v-0.828l5.565,2.854V211.566z"/>
</g>
<g enable-background="new    ">
	<path fill="#FFFFFF" d="M206.875,225.306l5.565-2.867v0.828l-4.689,2.351v0.023l4.689,2.352v0.827l-5.565-2.866V225.306z"/>
</g>
<g enable-background="new    ">
	<path fill="#F92672" d="M213.968,227.74c0.312,0.203,0.864,0.42,1.392,0.42c0.768,0,1.127-0.384,1.127-0.864
		c0-0.504-0.3-0.779-1.079-1.067c-1.043-0.371-1.535-0.947-1.535-1.643c0-0.936,0.755-1.703,2.003-1.703
		c0.587,0,1.104,0.168,1.427,0.359l-0.264,0.768c-0.228-0.144-0.647-0.336-1.187-0.336c-0.624,0-0.972,0.36-0.972,0.792
		c0,0.479,0.348,0.695,1.104,0.983c1.007,0.384,1.523,0.888,1.523,1.751c0,1.02-0.792,1.739-2.171,1.739
		c-0.635,0-1.223-0.156-1.631-0.396L213.968,227.74z"/>
	<path fill="#F92672" d="M218.864,224.909c0-0.743-0.024-1.343-0.048-1.895h0.947l0.048,0.995h0.024
		c0.432-0.707,1.115-1.127,2.063-1.127c1.403,0,2.459,1.188,2.459,2.95c0,2.087-1.271,3.118-2.639,3.118
		c-0.768,0-1.439-0.336-1.787-0.911h-0.024v3.154h-1.043V224.909z M219.907,226.457c0,0.155,0.024,0.3,0.048,0.432
		c0.192,0.731,0.828,1.235,1.583,1.235c1.116,0,1.763-0.912,1.763-2.243c0-1.163-0.612-2.159-1.727-2.159
		c-0.72,0-1.391,0.517-1.595,1.308c-0.036,0.132-0.072,0.288-0.072,0.432V226.457z"/>
	<path fill="#F92672" d="M228.906,228.82l-0.084-0.731h-0.036c-0.324,0.456-0.947,0.863-1.775,0.863
		c-1.175,0-1.775-0.827-1.775-1.667c0-1.403,1.247-2.171,3.49-2.159v-0.119c0-0.48-0.132-1.344-1.319-1.344
		c-0.54,0-1.103,0.168-1.511,0.432l-0.24-0.695c0.48-0.312,1.176-0.516,1.907-0.516c1.775,0,2.207,1.211,2.207,2.374v2.171
		c0,0.504,0.024,0.996,0.096,1.392H228.906z M228.75,225.858c-1.151-0.024-2.459,0.18-2.459,1.307c0,0.684,0.456,1.008,0.996,1.008
		c0.755,0,1.235-0.479,1.403-0.972c0.036-0.107,0.06-0.228,0.06-0.336V225.858z"/>
	<path fill="#F92672" d="M231.475,224.586c0-0.6-0.012-1.092-0.048-1.571h0.936l0.06,0.959h0.024
		c0.288-0.552,0.959-1.091,1.919-1.091c0.803,0,2.051,0.479,2.051,2.471v3.466h-1.056v-3.346c0-0.936-0.348-1.716-1.343-1.716
		c-0.695,0-1.235,0.492-1.415,1.08c-0.048,0.132-0.072,0.312-0.072,0.491v3.49h-1.056V224.586z"/>
</g>
<g enable-background="new    ">
	<path fill="#7FE22E" d="M244.817,228.604c-0.276,0.144-0.887,0.336-1.667,0.336c-1.751,0-2.891-1.188-2.891-2.963
		c0-1.787,1.224-3.082,3.119-3.082c0.624,0,1.175,0.156,1.463,0.3l-0.24,0.815c-0.252-0.144-0.647-0.275-1.223-0.275
		c-1.332,0-2.051,0.983-2.051,2.194c0,1.344,0.864,2.171,2.015,2.171c0.6,0,0.996-0.156,1.295-0.288L244.817,228.604z"/>
	<path fill="#7FE22E" d="M246.055,220.304h1.056v8.516h-1.056V220.304z"/>
	<path fill="#7FE22E" d="M252.102,228.82l-0.084-0.731h-0.036c-0.324,0.456-0.947,0.863-1.775,0.863
		c-1.175,0-1.775-0.827-1.775-1.667c0-1.403,1.247-2.171,3.49-2.159v-0.119c0-0.48-0.132-1.344-1.319-1.344
		c-0.54,0-1.104,0.168-1.511,0.432l-0.24-0.695c0.48-0.312,1.175-0.516,1.907-0.516c1.775,0,2.207,1.211,2.207,2.374v2.171
		c0,0.504,0.024,0.996,0.096,1.392H252.102z M251.946,225.858c-1.151-0.024-2.458,0.18-2.458,1.307c0,0.684,0.456,1.008,0.996,1.008
		c0.755,0,1.235-0.479,1.403-0.972c0.036-0.107,0.06-0.228,0.06-0.336V225.858z"/>
	<path fill="#7FE22E" d="M254.527,227.74c0.312,0.203,0.864,0.42,1.392,0.42c0.768,0,1.127-0.384,1.127-0.864
		c0-0.504-0.3-0.779-1.079-1.067c-1.043-0.371-1.535-0.947-1.535-1.643c0-0.936,0.755-1.703,2.003-1.703
		c0.587,0,1.103,0.168,1.427,0.359l-0.264,0.768c-0.228-0.144-0.647-0.336-1.187-0.336c-0.624,0-0.972,0.36-0.972,0.792
		c0,0.479,0.348,0.695,1.104,0.983c1.007,0.384,1.523,0.888,1.523,1.751c0,1.02-0.792,1.739-2.171,1.739
		c-0.635,0-1.223-0.156-1.631-0.396L254.527,227.74z"/>
	<path fill="#7FE22E" d="M259.279,227.74c0.312,0.203,0.864,0.42,1.392,0.42c0.768,0,1.127-0.384,1.127-0.864
		c0-0.504-0.3-0.779-1.079-1.067c-1.043-0.371-1.535-0.947-1.535-1.643c0-0.936,0.755-1.703,2.003-1.703
		c0.587,0,1.103,0.168,1.427,0.359l-0.264,0.768c-0.228-0.144-0.647-0.336-1.187-0.336c-0.624,0-0.972,0.36-0.972,0.792
		c0,0.479,0.348,0.695,1.104,0.983c1.007,0.384,1.523,0.888,1.523,1.751c0,1.02-0.792,1.739-2.171,1.739
		c-0.635,0-1.223-0.156-1.631-0.396L259.279,227.74z"/>
</g>
<g enable-background="new    ">
	<path fill="#FFFFFF" d="M263.78,224.778v-0.72h6.189v0.72H263.78z M263.78,227.128v-0.72h6.189v0.72H263.78z"/>
</g>
<g enable-background="new    ">
	<path fill="#E6DB62" d="M272.107,220.604l-0.204,2.879h-0.647l-0.192-2.879H272.107z M273.894,220.604l-0.204,2.879h-0.636
		l-0.204-2.879H273.894z"/>
	<path fill="#E6DB62" d="M275.371,224.909c0-0.743-0.024-1.343-0.048-1.895h0.947l0.048,0.995h0.024
		c0.432-0.707,1.115-1.127,2.063-1.127c1.403,0,2.459,1.188,2.459,2.95c0,2.087-1.271,3.118-2.639,3.118
		c-0.768,0-1.439-0.336-1.787-0.911h-0.024v3.154h-1.043V224.909z M276.415,226.457c0,0.155,0.024,0.3,0.048,0.432
		c0.192,0.731,0.828,1.235,1.583,1.235c1.116,0,1.763-0.912,1.763-2.243c0-1.163-0.612-2.159-1.727-2.159
		c-0.72,0-1.391,0.517-1.595,1.308c-0.036,0.132-0.072,0.288-0.072,0.432V226.457z"/>
	<path fill="#E6DB62" d="M286.337,228.604c-0.276,0.144-0.888,0.336-1.667,0.336c-1.751,0-2.891-1.188-2.891-2.963
		c0-1.787,1.224-3.082,3.119-3.082c0.624,0,1.175,0.156,1.463,0.3l-0.24,0.815c-0.252-0.144-0.647-0.275-1.223-0.275
		c-1.332,0-2.051,0.983-2.051,2.194c0,1.344,0.864,2.171,2.015,2.171c0.6,0,0.996-0.156,1.295-0.288L286.337,228.604z"/>
	<path fill="#E6DB62" d="M288.355,220.604l-0.204,2.879h-0.647l-0.192-2.879H288.355z M290.141,220.604l-0.204,2.879h-0.636
		l-0.204-2.879H290.141z"/>
</g>
<g enable-background="new    ">
	<path fill="#FFFFFF" d="M297.099,225.965l-5.565,2.854v-0.827l4.726-2.352v-0.023l-4.726-2.351v-0.828l5.565,2.854V225.965z"/>
	<path fill="#FFFFFF" d="M298.686,225.306l5.565-2.867v0.828l-4.689,2.351v0.023l4.689,2.352v0.827l-5.565-2.866V225.306z"/>
	<path fill="#FFFFFF" d="M305.034,229.299l3.346-8.695h0.816l-3.358,8.695H305.034z"/>
</g>
<g enable-background="new    ">
	<path fill="#F92672" d="M309.894,227.74c0.312,0.203,0.864,0.42,1.392,0.42c0.768,0,1.127-0.384,1.127-0.864
		c0-0.504-0.3-0.779-1.079-1.067c-1.043-0.371-1.535-0.947-1.535-1.643c0-0.936,0.755-1.703,2.003-1.703
		c0.587,0,1.104,0.168,1.427,0.359l-0.264,0.768c-0.228-0.144-0.647-0.336-1.187-0.336c-0.624,0-0.972,0.36-0.972,0.792
		c0,0.479,0.348,0.695,1.104,0.983c1.007,0.384,1.523,0.888,1.523,1.751c0,1.02-0.792,1.739-2.171,1.739
		c-0.635,0-1.223-0.156-1.631-0.396L309.894,227.74z"/>
	<path fill="#F92672" d="M314.79,224.909c0-0.743-0.024-1.343-0.048-1.895h0.947l0.048,0.995h0.024
		c0.432-0.707,1.115-1.127,2.063-1.127c1.403,0,2.459,1.188,2.459,2.95c0,2.087-1.271,3.118-2.639,3.118
		c-0.768,0-1.439-0.336-1.787-0.911h-0.024v3.154h-1.043V224.909z M315.834,226.457c0,0.155,0.024,0.3,0.048,0.432
		c0.192,0.731,0.828,1.235,1.583,1.235c1.116,0,1.763-0.912,1.763-2.243c0-1.163-0.612-2.159-1.727-2.159
		c-0.72,0-1.391,0.517-1.595,1.308c-0.036,0.132-0.072,0.288-0.072,0.432V226.457z"/>
	<path fill="#F92672" d="M324.832,228.82l-0.084-0.731h-0.036c-0.324,0.456-0.947,0.863-1.775,0.863
		c-1.175,0-1.775-0.827-1.775-1.667c0-1.403,1.247-2.171,3.49-2.159v-0.119c0-0.48-0.132-1.344-1.319-1.344
		c-0.54,0-1.103,0.168-1.511,0.432l-0.24-0.695c0.48-0.312,1.176-0.516,1.907-0.516c1.775,0,2.207,1.211,2.207,2.374v2.171
		c0,0.504,0.024,0.996,0.096,1.392H324.832z M324.677,225.858c-1.151-0.024-2.459,0.18-2.459,1.307c0,0.684,0.456,1.008,0.996,1.008
		c0.755,0,1.235-0.479,1.403-0.972c0.036-0.107,0.06-0.228,0.06-0.336V225.858z"/>
	<path fill="#F92672" d="M327.402,224.586c0-0.6-0.012-1.092-0.048-1.571h0.936l0.06,0.959h0.024
		c0.288-0.552,0.959-1.091,1.919-1.091c0.803,0,2.051,0.479,2.051,2.471v3.466h-1.056v-3.346c0-0.936-0.348-1.716-1.343-1.716
		c-0.695,0-1.235,0.492-1.415,1.08c-0.048,0.132-0.072,0.312-0.072,0.491v3.49h-1.056V224.586z"/>
</g>
<g enable-background="new    ">
	<path fill="#FFFFFF" d="M339.543,225.965l-5.565,2.854v-0.827l4.726-2.352v-0.023l-4.726-2.351v-0.828l5.565,2.854V225.965z"/>
</g>
<g enable-background="new    ">
	<path fill="#FFFFFF" d="M170.875,239.706l5.565-2.867v0.828l-4.689,2.351v0.023l4.689,2.352v0.827l-5.565-2.866V239.706z"/>
	<path fill="#FFFFFF" d="M177.223,243.699l3.346-8.695h0.816l-3.358,8.695H177.223z"/>
</g>
<g enable-background="new    ">
	<path fill="#F92672" d="M187.24,234.704v7.017c0,0.516,0.012,1.104,0.048,1.499h-0.947l-0.048-1.008h-0.024
		c-0.324,0.648-1.032,1.14-1.979,1.14c-1.403,0-2.483-1.188-2.483-2.95c-0.012-1.931,1.188-3.118,2.603-3.118
		c0.888,0,1.487,0.42,1.751,0.888h0.024v-3.467H187.24z M186.185,239.778c0-0.132-0.012-0.312-0.048-0.443
		c-0.156-0.672-0.731-1.224-1.523-1.224c-1.091,0-1.739,0.96-1.739,2.243c0,1.175,0.576,2.146,1.715,2.146
		c0.708,0,1.355-0.468,1.547-1.259c0.036-0.145,0.048-0.288,0.048-0.456V239.778z"/>
	<path fill="#F92672" d="M190.171,235.784c0.012,0.359-0.252,0.647-0.671,0.647c-0.372,0-0.636-0.288-0.636-0.647
		c0-0.372,0.276-0.66,0.66-0.66C189.919,235.124,190.171,235.412,190.171,235.784z M188.995,243.22v-5.805h1.056v5.805H188.995z"/>
	<path fill="#F92672" d="M192.211,237.415l1.14,3.262c0.192,0.528,0.348,1.008,0.468,1.487h0.036c0.132-0.479,0.3-0.959,0.492-1.487
		l1.127-3.262h1.104l-2.279,5.805h-1.007l-2.207-5.805H192.211z"/>
</g>
<g enable-background="new    ">
	<path fill="#FFFFFF" d="M203.056,240.365l-5.565,2.854v-0.827l4.726-2.352v-0.023l-4.726-2.351v-0.828l5.565,2.854V240.365z"/>
</g>
<g enable-background="new    ">
	<path fill="#FFFFFF" d="M147.385,254.107l5.565-2.867v0.828l-4.689,2.351v0.023l4.689,2.352v0.827l-5.565-2.866V254.107z"/>
	<path fill="#FFFFFF" d="M153.733,258.1l3.346-8.695h0.816l-3.358,8.695H153.733z"/>
</g>
<g enable-background="new    ">
	<path fill="#F92672" d="M161.952,257.62l-0.084-0.731h-0.036c-0.324,0.456-0.947,0.863-1.775,0.863
		c-1.175,0-1.775-0.827-1.775-1.667c0-1.403,1.247-2.171,3.49-2.159v-0.119c0-0.48-0.132-1.344-1.319-1.344
		c-0.54,0-1.104,0.168-1.511,0.432l-0.24-0.695c0.48-0.312,1.175-0.516,1.907-0.516c1.775,0,2.207,1.211,2.207,2.374v2.171
		c0,0.504,0.024,0.996,0.096,1.392H161.952z M161.796,254.658c-1.151-0.024-2.458,0.18-2.458,1.307c0,0.684,0.456,1.008,0.996,1.008
		c0.755,0,1.235-0.479,1.403-0.972c0.036-0.107,0.06-0.228,0.06-0.336V254.658z"/>
	<path fill="#F92672" d="M164.522,253.626c0-0.684-0.012-1.271-0.048-1.811h0.923l0.036,1.14h0.048
		c0.264-0.78,0.899-1.271,1.607-1.271c0.12,0,0.204,0.012,0.3,0.036v0.995c-0.108-0.024-0.216-0.036-0.36-0.036
		c-0.744,0-1.271,0.563-1.416,1.355c-0.024,0.144-0.048,0.312-0.048,0.491v3.095h-1.043V253.626z"/>
	<path fill="#F92672" d="M170.005,250.149v1.667h1.511v0.804h-1.511v3.13c0,0.72,0.204,1.128,0.792,1.128
		c0.276,0,0.479-0.036,0.612-0.072l0.048,0.791c-0.204,0.084-0.528,0.145-0.936,0.145c-0.492,0-0.888-0.156-1.14-0.444
		c-0.3-0.312-0.408-0.827-0.408-1.511v-3.166h-0.899v-0.804h0.899v-1.392L170.005,250.149z"/>
	<path fill="#F92672" d="M173.881,250.185c0.012,0.359-0.252,0.647-0.671,0.647c-0.372,0-0.636-0.288-0.636-0.647
		c0-0.372,0.276-0.66,0.66-0.66C173.629,249.525,173.881,249.813,173.881,250.185z M172.705,257.62v-5.805h1.056v5.805H172.705z"/>
	<path fill="#F92672" d="M179.651,257.405c-0.276,0.144-0.887,0.336-1.667,0.336c-1.751,0-2.891-1.188-2.891-2.963
		c0-1.787,1.224-3.082,3.119-3.082c0.624,0,1.175,0.156,1.463,0.3l-0.24,0.815c-0.252-0.144-0.647-0.275-1.223-0.275
		c-1.332,0-2.051,0.983-2.051,2.194c0,1.344,0.864,2.171,2.015,2.171c0.6,0,0.996-0.156,1.295-0.288L179.651,257.405z"/>
	<path fill="#F92672" d="M180.889,249.105h1.056v8.516h-1.056V249.105z"/>
	<path fill="#F92672" d="M184.309,254.909c0.024,1.428,0.935,2.016,1.991,2.016c0.755,0,1.211-0.132,1.607-0.3l0.18,0.755
		c-0.372,0.168-1.007,0.36-1.931,0.36c-1.787,0-2.854-1.176-2.854-2.927s1.032-3.13,2.723-3.13c1.895,0,2.399,1.667,2.399,2.734
		c0,0.216-0.024,0.384-0.036,0.491H184.309z M187.403,254.155c0.012-0.672-0.276-1.716-1.463-1.716
		c-1.067,0-1.535,0.984-1.619,1.716H187.403z"/>
</g>
<g enable-background="new    ">
	<path fill="#FFFFFF" d="M194.927,254.766l-5.565,2.854v-0.827l4.726-2.352v-0.023l-4.726-2.351v-0.828l5.565,2.854V254.766z"/>
</g>
<text transform="matrix(1 0 0 1 388.5007 468.4729)" fill="#FFFFFF" font-family="'Lato-Black'" font-size="18">rm </text>
</svg>
