<?xml version="1.0" encoding="utf-8"?>
<!-- Generator: Adobe Illustrator 16.0.0, SVG Export Plug-In . SVG Version: 6.00 Build 0)  -->
<!DOCTYPE svg PUBLIC "-//W3C//DTD SVG 1.1//EN" "http://www.w3.org/Graphics/SVG/1.1/DTD/svg11.dtd">
<svg version="1.1" xmlns="http://www.w3.org/2000/svg" xmlns:xlink="http://www.w3.org/1999/xlink" x="0px" y="0px"
	 width="1336.51px" height="762.856px" viewBox="0 0 1336.51 762.856" enable-background="new 0 0 1336.51 762.856"
	 xml:space="preserve">
<g id="Camada_9">
	<path fill="#AC8053" stroke="#7F5C45" stroke-width="1.7" stroke-miterlimit="10" d="M227.034,337.948l-38.883,40.438v51.458
		l56.479,48.104l130.015,64l33.237-92l8.178-53.5l-16.526-16.595C399.533,379.854,252.45,443.948,227.034,337.948z"/>
	<path fill="#AC8053" stroke="#9B7253" stroke-miterlimit="10" d="M899.111,337.948l-38.883,40.438v51.458l56.479,48.104l130.015,64
		l33.237-92l8.179-53.5l-16.527-16.595C1071.61,379.854,924.528,443.948,899.111,337.948z"/>
</g>
<g id="cont-rosto">
	<path fill="#AC8053" stroke="#7F5C45" stroke-width="1.7" stroke-miterlimit="10" d="M347.122,11.957c0,0-132.947-3-129.037,171
		c0,0-13.034-27.332-31.282-13.999c0,0-9.124,5.333-3.258,30.667c5.865,25.333,5.351,36.967,3.396,47.633
		c0,0-1.313,17.818,14.852,17.701c10.507-0.077,6.517,0.987,6.517,0.987s-0.651,34.346-0.651,41.012
		c0,6.667,5.213,32.667,14.337,45.334c9.124,12.667,42.36,73.331,90.587,77.331c48.226,4,70.383-29.999,80.811-40.666
		c10.428-10.667,16.293-23.334,16.293-23.334s8.472-6.667,14.989-20c6.518-13.333,14.338-34,22.158-32c0,0,7.168,0.667,0-10.667
		c0,0,1.304-22,6.518-29.333c0,0,18.945-27.296,13.048-45.416c0,0-0.667-2.584-7.183-7.256c0,0-0.652-9.994,1.303-11.994
		c0,0,1.955-12,1.955-14.667s9.774-20,9.124-35.333C471.597,158.958,474.204,24.289,347.122,11.957z"/>
	<path fill="#985B49" d="M268.068,206.422"/>
	<path fill="#AC8053" stroke="#7F5C45" stroke-width="1.7" stroke-miterlimit="10" d="M1019.199,11.957c0,0-132.946-3-129.036,171
		c0,0-13.034-27.332-31.282-13.999c0,0-9.123,5.333-3.258,30.667s5.351,36.967,3.396,47.633c0,0-1.313,17.818,14.852,17.701
		c10.509-0.077,6.517,0.987,6.517,0.987s-0.651,34.346-0.651,41.012c0,6.667,5.214,32.667,14.338,45.334
		c9.123,12.667,42.36,73.331,90.587,77.331c48.226,4,70.383-29.999,80.811-40.666c10.427-10.667,16.293-23.334,16.293-23.334
		s8.471-6.667,14.988-20s14.338-34,22.158-32c0,0,7.168,0.667,0-10.667c0,0,1.304-22,6.518-29.333c0,0,18.944-27.296,13.048-45.416
		c0,0-0.666-2.584-7.183-7.256c0,0-0.652-9.994,1.303-11.994c0,0,1.955-12,1.955-14.667s9.775-20,9.124-35.333
		C1143.675,158.958,1146.281,24.289,1019.199,11.957z"/>
	<path fill="#985B49" d="M940.146,206.422"/>
</g>
<g id="roupa">
	<path fill="#2C3E50" d="M219.067,347.546c0,0-36.264-8.689-41.152,33.311c0,0-18.573,32-23.461,35L0,513.856v249h634.433v-254
		c0,0-41.058-38.381-219.95-115.69c0,0-7.332-10.31-7.332-12.31s-2.444-7.5-6.843,9.5c0,0-0.489,5,0.978,9c0,0,3.91,28.5-26.394,69
		c0,0-41.546,51.5-40.08,48c0,0-19.551-34.5-30.793-41c0,0-12.219-0.5-20.04-2.5c0,0-75.272-54-84.559-93
		C199.421,379.856,210.758,384.513,219.067,347.546z"/>
	<path fill="none" stroke="#0799A8" stroke-miterlimit="10" d="M219.95,343.823"/>
	<path fill="none" stroke="#D3EBEB" stroke-miterlimit="10" d="M144.937,421.895c0,0,33.956,85.962,40.799,91.962
		c6.843,6,93.845-15,98.244-41"/>
	<path fill="none" stroke="#158A96" stroke-miterlimit="10" d="M334.812,516.356"/>
	<path fill="none" stroke="#158A96" stroke-miterlimit="10" d="M401.259,407.311"/>
	<path fill="none" stroke="#158A96" stroke-miterlimit="10" d="M404.398,379.365"/>
	<path fill="none" stroke="#D3EBEB" stroke-miterlimit="10" d="M314.638,726.822c0,0-44.833-189.901,59.765-211.934
		c0,0,15.641-6.032,19.551-6.032s-12.219-17.5-15.641-29c0,0,22.484,27,42.035,28c0,0,43.012-1.936,43.99,7.032
		s24.322-81.149-25.687-110.091"/>
	<ellipse fill="#D3EBEB" cx="314.283" cy="646.356" rx="10.264" ry="10.5"/>
	<ellipse fill="#D3EBEB" cx="293.308" cy="509.686" rx="13.662" ry="13.977"/>
	<path fill="#D3EBEB" d="M516.146,565.987c0,0-0.785-4.859-3.141-4.859c-2.357,0-13.617,0.731-15.448,0s-5.758,0-5.758,0
		l8.119-5.482c0,0-24.612,0-11.52,14.643c0,0,4.713-1.465,6.806,0c2.096,1.465,11.519-2.928,15.185,0
		c3.667,2.927,6.807,0.309,6.807,0.309s1.307-2.515-1.312-1.78l-4.451-2.829l4.451-2.327"/>
	<g>
		<path fill="#D3EBEB" d="M199.59,380.121c0,0,0.093-1.422,0.537-3.515c0.242-1.039,0.536-2.259,1.013-3.515
			c0.213-0.638,0.491-1.274,0.782-1.92c0.266-0.657,0.653-1.27,0.979-1.914c0.384-0.611,0.759-1.235,1.185-1.811
			c0.464-0.545,0.855-1.146,1.381-1.595c0.524-0.445,0.975-0.943,1.536-1.25c0.543-0.323,1.006-0.707,1.535-0.886
			c0.505-0.219,0.976-0.392,1.384-0.557c0.427-0.117,0.809-0.186,1.12-0.244c0.62-0.122,0.97-0.171,0.97-0.171l0.022,0.098
			c0,0-0.326,0.162-0.889,0.409c-0.28,0.122-0.619,0.27-1.008,0.438c-0.366,0.218-0.768,0.476-1.215,0.728
			c-0.229,0.118-0.454,0.262-0.665,0.446c-0.22,0.167-0.448,0.34-0.682,0.518c-0.487,0.326-0.912,0.785-1.383,1.217
			c-0.507,0.396-0.887,0.955-1.368,1.433c-0.439,0.516-0.835,1.086-1.243,1.646c-0.344,0.603-0.75,1.173-1.042,1.797
			c-0.314,0.611-0.618,1.217-0.86,1.829c-0.272,0.599-0.473,1.202-0.685,1.769c-0.21,0.566-0.365,1.117-0.528,1.62
			c-0.585,2.034-0.777,3.439-0.777,3.44L199.59,380.121z"/>
	</g>
	<path fill="#2C3E50" d="M891.145,347.546c0,0-36.265-8.689-41.152,33.311c0,0-18.573,32-23.461,35l-154.454,98v249h634.433v-254
		c0,0-41.058-38.381-219.949-115.69c0,0-7.332-10.31-7.332-12.31s-2.443-7.5-6.843,9.5c0,0-0.489,5,0.978,9c0,0,3.91,28.5-26.394,69
		c0,0-41.546,51.5-40.08,48c0,0-19.551-34.5-30.793-41c0,0-12.22-0.5-20.04-2.5c0,0-75.271-54-84.559-93
		C871.498,379.856,882.836,384.513,891.145,347.546z"/>
	<path fill="none" stroke="#0799A8" stroke-miterlimit="10" d="M892.027,343.823"/>
	<path fill="none" stroke="#D3EBEB" stroke-miterlimit="10" d="M817.015,421.895c0,0,33.955,85.962,40.798,91.962
		s93.846-15,98.244-41"/>
	<path fill="none" stroke="#158A96" stroke-miterlimit="10" d="M1006.89,516.356"/>
	<path fill="none" stroke="#158A96" stroke-miterlimit="10" d="M1073.337,407.311"/>
	<path fill="none" stroke="#158A96" stroke-miterlimit="10" d="M1076.476,379.365"/>
	<path fill="none" stroke="#D3EBEB" stroke-miterlimit="10" d="M986.715,726.822c0,0-44.832-189.901,59.766-211.934
		c0,0,15.641-6.032,19.551-6.032s-12.219-17.5-15.641-29c0,0,22.484,27,42.035,28c0,0,43.012-1.936,43.99,7.032
		c0.977,8.968,24.322-81.149-25.688-110.091"/>
	<ellipse fill="#D3EBEB" cx="986.361" cy="646.356" rx="10.264" ry="10.5"/>
	<ellipse fill="#D3EBEB" cx="321.789" cy="590.188" rx="10.264" ry="10.5"/>
	<ellipse fill="#D3EBEB" cx="993.866" cy="590.188" rx="10.265" ry="10.5"/>
	<ellipse fill="#D3EBEB" cx="965.386" cy="509.686" rx="13.663" ry="13.977"/>
	<path fill="#D3EBEB" d="M1188.224,565.987c0,0-0.784-4.859-3.141-4.859s-13.617,0.731-15.448,0s-5.758,0-5.758,0l8.119-5.482
		c0,0-24.611,0-11.52,14.643c0,0,4.713-1.465,6.807,0c2.095,1.465,11.519-2.928,15.185,0c3.666,2.927,6.807,0.309,6.807,0.309
		s1.307-2.515-1.313-1.78l-4.45-2.829l4.45-2.327"/>
	<g>
		<path fill="#D3EBEB" d="M871.667,380.121c0,0,0.093-1.422,0.537-3.515c0.242-1.039,0.536-2.259,1.013-3.515
			c0.214-0.638,0.491-1.274,0.782-1.92c0.266-0.657,0.653-1.27,0.979-1.914c0.384-0.611,0.759-1.235,1.186-1.811
			c0.464-0.545,0.855-1.146,1.381-1.595c0.524-0.445,0.975-0.943,1.535-1.25c0.543-0.323,1.007-0.707,1.535-0.886
			c0.505-0.219,0.977-0.392,1.384-0.557c0.428-0.117,0.81-0.186,1.12-0.244c0.62-0.122,0.971-0.171,0.971-0.171l0.021,0.098
			c0,0-0.325,0.162-0.889,0.409c-0.279,0.122-0.618,0.27-1.008,0.438c-0.365,0.218-0.768,0.476-1.215,0.728
			c-0.229,0.118-0.454,0.262-0.665,0.446c-0.22,0.167-0.447,0.34-0.682,0.518c-0.487,0.326-0.912,0.785-1.383,1.217
			c-0.508,0.396-0.888,0.955-1.368,1.433c-0.438,0.516-0.835,1.086-1.243,1.646c-0.344,0.603-0.75,1.173-1.041,1.797
			c-0.315,0.611-0.619,1.217-0.86,1.829c-0.272,0.599-0.474,1.202-0.686,1.769c-0.21,0.566-0.364,1.117-0.527,1.62
			c-0.585,2.034-0.777,3.439-0.777,3.44L871.667,380.121z"/>
	</g>
</g>
<g id="nariz">
	<g>
		<path fill="#2C2D2D" d="M363.89,246.501c0,0-0.033,0.732-0.091,2.015c-0.045,1.289-0.082,3.136-0.064,5.353
			c0.027,4.434,0.313,10.357,1.168,16.215c0.225,1.462,0.467,2.922,0.76,4.349c0.292,1.426,0.607,2.825,0.98,4.161
			c0.355,1.34,0.761,2.619,1.19,3.816c0.425,1.197,0.879,2.313,1.353,3.317c0.221,0.51,0.469,0.98,0.707,1.427
			c0.231,0.451,0.458,0.875,0.701,1.256c0.45,0.784,0.904,1.428,1.284,1.955c0.363,0.541,0.725,0.905,0.936,1.183
			c0.222,0.269,0.341,0.412,0.341,0.412s-0.125-0.138-0.357-0.397c-0.222-0.268-0.601-0.619-0.987-1.145
			c-0.403-0.513-0.887-1.141-1.373-1.91c-0.261-0.373-0.506-0.79-0.758-1.234c-0.259-0.439-0.529-0.904-0.773-1.408
			c-0.52-0.993-1.026-2.099-1.506-3.29c-0.484-1.189-0.948-2.465-1.364-3.804c-0.434-1.333-0.812-2.732-1.167-4.161
			c-0.357-1.428-0.664-2.892-0.952-4.359c-1.112-5.88-1.653-11.851-1.869-16.333c-0.112-2.241-0.154-4.113-0.163-5.426
			c0.004-1.319,0.007-2.073,0.007-2.073L363.89,246.501z"/>
	</g>
	<g>
		<path fill="#343535" d="M304.245,296.374c0,0,0.232,0.101,0.667,0.289c0.432,0.194,1.082,0.449,1.875,0.833
			c1.584,0.769,3.901,1.775,6.593,3.129c1.352,0.666,2.816,1.389,4.342,2.189c1.533,0.789,3.156,1.608,4.806,2.504
			c1.651,0.896,3.387,1.764,5.104,2.724c1.726,0.943,3.486,1.889,5.246,2.807c0.871,0.476,1.745,0.94,2.61,1.38
			c0.434,0.223,0.86,0.429,1.282,0.627l0.597,0.259l0.244,0.091c0.062,0.025,0.041,0.012,0.022,0.008
			c-0.015-0.002-0.032,0-0.047,0.008c0.963,0.061,1.919,0.121,2.863,0.181c0.938,0.03,1.855,0.094,2.777,0.096
			c1.839,0.006,3.624,0.038,5.311-0.049c1.688-0.07,3.282-0.192,4.755-0.33c1.461-0.187,2.816-0.329,3.999-0.545
			c1.19-0.196,2.208-0.447,3.039-0.684c0.815-0.263,1.481-0.447,1.883-0.659c0.421-0.187,0.597-0.351,0.608-0.341l0.143,0.141
			c-0.006-0.014-0.184,0.197-0.592,0.447c-0.397,0.272-1.027,0.568-1.841,0.911c-1.635,0.667-4.062,1.368-7.029,1.914
			c-1.487,0.252-3.104,0.498-4.826,0.649c-1.719,0.179-3.541,0.26-5.425,0.301c-1.89,0.035-3.831-0.014-5.813-0.117
			c-1.063-0.24-1.897-0.725-2.817-1.149c-0.899-0.442-1.792-0.903-2.68-1.372c-7.065-3.822-13.977-7.903-19.17-10.946
			c-5.176-3.073-8.626-5.122-8.626-5.122L304.245,296.374z"/>
	</g>
	<g>
		<path fill="#2C2D2D" d="M1035.968,246.501c0,0-0.033,0.732-0.091,2.015c-0.046,1.289-0.081,3.136-0.064,5.353
			c0.027,4.433,0.313,10.357,1.168,16.215c0.225,1.462,0.467,2.922,0.76,4.349c0.293,1.426,0.607,2.825,0.98,4.161
			c0.355,1.34,0.761,2.619,1.19,3.816c0.426,1.197,0.88,2.313,1.353,3.317c0.222,0.51,0.47,0.98,0.708,1.427
			c0.23,0.451,0.457,0.875,0.7,1.256c0.45,0.784,0.904,1.428,1.284,1.955c0.363,0.541,0.725,0.905,0.936,1.183
			c0.223,0.269,0.341,0.412,0.341,0.412s-0.124-0.138-0.357-0.397c-0.222-0.268-0.602-0.619-0.987-1.145
			c-0.403-0.513-0.887-1.141-1.372-1.91c-0.262-0.373-0.507-0.79-0.759-1.234c-0.259-0.439-0.529-0.904-0.773-1.408
			c-0.52-0.993-1.025-2.099-1.506-3.29c-0.484-1.189-0.948-2.465-1.363-3.804c-0.435-1.333-0.812-2.732-1.167-4.161
			c-0.357-1.428-0.664-2.892-0.952-4.359c-1.112-5.88-1.653-11.851-1.869-16.333c-0.111-2.241-0.154-4.113-0.163-5.426
			c0.004-1.319,0.007-2.073,0.007-2.073L1035.968,246.501z"/>
	</g>
	<g>
		<path fill="#343535" d="M976.322,296.374c0,0,0.232,0.101,0.667,0.289c0.432,0.194,1.082,0.449,1.874,0.833
			c1.585,0.769,3.901,1.775,6.593,3.129c1.353,0.666,2.816,1.389,4.343,2.189c1.533,0.789,3.156,1.608,4.806,2.504
			c1.651,0.896,3.387,1.764,5.104,2.724c1.727,0.943,3.485,1.889,5.246,2.807c0.871,0.476,1.744,0.941,2.609,1.381
			c0.435,0.222,0.861,0.428,1.283,0.626l0.596,0.259l0.244,0.091c0.062,0.025,0.04,0.012,0.021,0.008
			c-0.015-0.002-0.031,0-0.047,0.008c0.964,0.061,1.92,0.121,2.864,0.181c0.937,0.03,1.854,0.094,2.776,0.096
			c1.839,0.006,3.624,0.038,5.311-0.049c1.688-0.07,3.281-0.192,4.755-0.33c1.461-0.187,2.816-0.329,3.999-0.545
			c1.189-0.196,2.208-0.447,3.039-0.684c0.815-0.263,1.48-0.447,1.883-0.659c0.421-0.187,0.598-0.351,0.608-0.341l0.143,0.141
			c-0.007-0.014-0.185,0.197-0.592,0.447c-0.397,0.272-1.027,0.568-1.841,0.911c-1.635,0.667-4.063,1.368-7.029,1.914
			c-1.487,0.252-3.104,0.498-4.826,0.649c-1.719,0.179-3.541,0.26-5.425,0.301c-1.89,0.035-3.831-0.014-5.813-0.117
			c-1.063-0.24-1.897-0.725-2.817-1.149c-0.899-0.442-1.792-0.903-2.681-1.372c-7.065-3.822-13.977-7.903-19.17-10.946
			c-5.176-3.073-8.626-5.122-8.626-5.122L976.322,296.374z"/>
	</g>
</g>
<g id="boca">
	<g>
		<path fill="#FFFFFF" d="M268.068,330.086c0,0,72.828,10.874,87.979,17.374c15.152,6.5,11.946,6.5,11.946,6.5s-28.559,7-40.779,6.5
			C327.215,360.46,274.422,332.086,268.068,330.086z"/>
		<path fill="#1C1C1C" d="M265.503,329.183l2.639,0.409c17.137,2.652,34.241,5.498,51.28,8.726
			c8.516,1.63,17.021,3.333,25.448,5.418c2.104,0.529,4.205,1.082,6.286,1.711c2.081,0.602,4.159,1.347,6.136,2.234
			c1.988,0.869,3.966,1.759,5.924,2.702c0.978,0.473,1.95,0.96,2.907,1.485c0.477,0.267,0.951,0.539,1.413,0.849
			c0.23,0.157,0.458,0.314,0.677,0.521c0.105,0.117,0.227,0.2,0.307,0.458c0.06,0.145-0.08,0.409-0.212,0.445
			c-0.124,0.058-0.204,0.065-0.314,0.071l0.06-0.008c-6.719,1.585-13.473,3.005-20.27,4.205c-1.698,0.305-3.402,0.579-5.107,0.846
			c-0.851,0.141-1.708,0.246-2.562,0.371c-0.854,0.125-1.709,0.239-2.567,0.334c-0.858,0.094-1.712,0.219-2.574,0.287l-2.581,0.225
			l-2.589,0.127l-2.595-0.011h-0.027l-0.028-0.016c-9.758-5.257-19.537-10.478-29.346-15.639c-4.906-2.579-9.818-5.146-14.752-7.669
			c-2.467-1.262-4.939-2.515-7.424-3.74c-1.244-0.61-2.489-1.219-3.744-1.805c-1.255-0.585-2.512-1.175-3.819-1.635L265.503,329.183
			z M269.967,330.89c0.641,0.277,1.294,0.524,1.928,0.816c1.258,0.582,2.505,1.185,3.751,1.791c2.49,1.216,4.967,2.459,7.439,3.711
			c4.944,2.505,9.867,5.053,14.783,7.612c9.83,5.124,19.628,10.307,29.408,15.526l-0.056-0.016l2.577-0.004l2.577-0.143l2.57-0.239
			c0.858-0.073,1.71-0.203,2.565-0.302c0.855-0.1,1.708-0.218,2.56-0.349c0.852-0.13,1.706-0.24,2.555-0.386
			c1.7-0.275,3.399-0.56,5.094-0.874c6.778-1.239,13.521-2.699,20.216-4.32l0.029-0.008h0.031c0.024,0,0.082-0.013,0.08-0.016
			c-0.006-0.02-0.073,0.099-0.051,0.11c0.002-0.005-0.08-0.12-0.162-0.193c-0.175-0.166-0.395-0.318-0.612-0.464
			c-0.44-0.292-0.908-0.558-1.378-0.816c-0.946-0.513-1.914-0.99-2.89-1.455c-1.952-0.927-3.932-1.804-5.919-2.659
			c-1.982-0.875-3.996-1.587-6.081-2.181c-2.07-0.615-4.165-1.156-6.265-1.674c-8.412-2.041-16.918-3.704-25.434-5.293
			C302.897,336.04,286.442,333.378,269.967,330.89z"/>
	</g>
	<g>
		<path fill="#2A2C2D" d="M300.869,390.862c0,0,2.043-0.565,5.184-1.05c0.787-0.103,1.638-0.252,2.545-0.34
			c0.906-0.108,1.865-0.193,2.86-0.247c0.995-0.08,2.025-0.096,3.075-0.118c1.049-0.037,2.117,0.032,3.187,0.044
			c1.068,0.062,2.139,0.14,3.194,0.229c1.049,0.146,2.096,0.235,3.083,0.478c0.979,0.271,1.944,0.463,2.806,0.837
			c0.865,0.357,1.693,0.657,2.412,1.045c0.716,0.396,1.357,0.781,1.919,1.12c0.561,0.344,0.987,0.753,1.357,1.043
			c0.727,0.606,1.109,0.976,1.109,0.976l-0.114,0.164c0,0-0.518-0.177-1.366-0.526c-0.434-0.158-0.914-0.423-1.519-0.615
			c-0.604-0.198-1.278-0.418-1.997-0.683c-0.351-0.149-0.757-0.214-1.154-0.328c-0.397-0.113-0.808-0.23-1.23-0.351
			c-0.838-0.252-1.763-0.396-2.685-0.65c-0.926-0.246-1.912-0.407-2.896-0.655c-0.996-0.193-2.021-0.338-3.047-0.487
			c-1.033-0.084-2.065-0.228-3.089-0.263c-1.023-0.051-2.032-0.108-3.011-0.099c-0.979-0.022-1.925,0.011-2.825,0.029
			c-0.9,0.005-1.748,0.076-2.535,0.106c-3.141,0.209-5.221,0.537-5.221,0.537L300.869,390.862z"/>
	</g>
	<g>
		<path fill="#FFFFFF" d="M961.485,337.46c0,0,51.488,3.5,66.641,10c15.151,6.5,11.945,6.5,11.945,6.5s-23.133,0-43.446-3.907
			C996.625,350.053,967.839,339.46,961.485,337.46z"/>
		<path fill="#1C1C1C" d="M959.644,336.819l1.876,0.142c10.438,0.79,20.849,1.804,31.234,3.083
			c5.192,0.645,10.376,1.368,15.539,2.232c5.158,0.881,10.312,1.855,15.359,3.313c1.26,0.373,2.514,0.771,3.739,1.263
			c1.239,0.476,2.408,1.028,3.614,1.551c2.387,1.073,4.771,2.154,7.085,3.406c0.576,0.32,1.149,0.644,1.701,1.032
			c0.138,0.098,0.274,0.199,0.408,0.317c0.131,0.129,0.27,0.213,0.382,0.486c0.022,0.067,0.047,0.183-0.008,0.301
			c-0.052,0.117-0.148,0.179-0.214,0.207c-0.127,0.06-0.27,0.063-0.347,0.06l-0.491-0.004l-3.925-0.084
			c-2.614-0.076-5.229-0.189-7.84-0.338c-2.611-0.14-5.221-0.328-7.828-0.536c-2.606-0.213-5.21-0.469-7.811-0.75l-3.896-0.467
			l-3.887-0.536l-3.876-0.615l-3.86-0.702l-0.01-0.002l-0.011-0.004l-17.514-6.451l-8.771-3.188l-4.403-1.542l-4.407-1.533
			L959.644,336.819z M963.418,338.117l2.484,0.846l4.415,1.512l8.793,3.127l17.559,6.33l-0.02-0.006l3.858,0.681l3.872,0.591
			l3.884,0.514l3.893,0.444c2.599,0.267,5.199,0.508,7.805,0.704c2.604,0.193,5.211,0.367,7.82,0.492
			c2.608,0.133,5.219,0.231,7.829,0.292l3.915,0.062l0.49,0.002c0.085,0.004,0.109-0.008,0.133-0.015
			c0.004-0.036-0.078,0.128-0.05,0.109c-0.053-0.126-0.366-0.379-0.604-0.542c-0.519-0.361-1.088-0.68-1.655-0.989
			c-2.292-1.224-4.68-2.291-7.065-3.346c-1.194-0.511-2.395-1.067-3.6-1.521c-1.203-0.475-2.446-0.86-3.695-1.222
			c-5.01-1.414-10.155-2.356-15.303-3.203c-5.154-0.83-10.333-1.521-15.52-2.133C982.936,339.709,973.18,338.823,963.418,338.117z"
			/>
	</g>
	<g>
		<path fill="#2A2C2D" d="M972.947,391.862c0,0,2.043-0.565,5.185-1.05c0.786-0.103,1.637-0.252,2.545-0.34
			c0.905-0.108,1.864-0.193,2.859-0.247c0.994-0.08,2.025-0.096,3.074-0.118c1.05-0.037,2.117,0.032,3.188,0.044
			c1.067,0.062,2.139,0.14,3.194,0.229c1.049,0.146,2.096,0.235,3.082,0.478c0.979,0.271,1.944,0.463,2.806,0.837
			c0.866,0.357,1.693,0.657,2.412,1.045c0.717,0.396,1.356,0.781,1.919,1.12c0.561,0.344,0.987,0.753,1.356,1.043
			c0.727,0.606,1.109,0.976,1.109,0.976l-0.113,0.164c0,0-0.518-0.177-1.367-0.526c-0.434-0.158-0.913-0.423-1.519-0.615
			c-0.604-0.198-1.278-0.418-1.996-0.683c-0.352-0.149-0.758-0.214-1.154-0.328c-0.397-0.113-0.809-0.23-1.23-0.351
			c-0.839-0.252-1.763-0.396-2.686-0.65c-0.926-0.246-1.911-0.407-2.896-0.655c-0.996-0.193-2.021-0.338-3.048-0.487
			c-1.033-0.084-2.064-0.228-3.089-0.263c-1.023-0.051-2.032-0.108-3.011-0.099c-0.979-0.022-1.926,0.011-2.825,0.029
			c-0.9,0.005-1.748,0.076-2.534,0.106c-3.141,0.209-5.221,0.537-5.221,0.537L972.947,391.862z"/>
	</g>
</g>
<g id="cabelo">
	<path opacity="0.4" fill="#865244" d="M218.085,182.957"/>
	<polyline fill="none" stroke="#865244" stroke-miterlimit="10" points="218.017,178.457 218.017,178.457 218.017,178.457 	"/>
	<line fill="#865244" stroke="#865244" stroke-miterlimit="10" x1="218.017" y1="178.583" x2="218.017" y2="178.583"/>
	<path opacity="0.1" fill="#161616" stroke="#865244" stroke-miterlimit="10" d="M218.085,182.957c0,0-8.344-161.176,119.39-171.003
		c0,0,120.371-9.827,134.154,138.84l0,0c0,0,1.568,22.538-6.663,36.602c-8.229,14.064,0,0,0,0s-32.668-111.335-91.811-73.052
		c0,0-94.985-73.783-124.312,0C248.843,114.344,236.205,148.454,218.085,182.957"/>
	<g>
		<path fill="#2A2C2D" d="M196.936,177.669c0,0-0.502-0.045-1.338,0.071c-0.826,0.11-2.009,0.43-3.034,1.274
			c-0.509,0.422-0.955,0.979-1.325,1.63c-0.37,0.657-0.599,1.441-0.805,2.258c-0.194,0.827-0.264,1.721-0.321,2.633
			c-0.051,0.915-0.027,1.857,0.035,2.802c0.091,1.895,0.382,3.795,0.638,5.586c0.155,0.896,0.305,1.761,0.447,2.581
			c0.152,0.824,0.296,1.602,0.429,2.321c0.272,1.447,0.499,2.653,0.657,3.498c0.15,0.851,0.218,1.345,0.218,1.345
			s-0.228-0.44-0.598-1.225c-0.377-0.782-0.871-1.917-1.384-3.311c-0.522-1.391-1.043-3.049-1.496-4.861
			c-0.184-0.917-0.447-1.851-0.565-2.833c-0.16-0.973-0.265-1.978-0.342-2.987c-0.042-1.013-0.044-2.034,0.036-3.045
			c0.072-1.012,0.268-2.008,0.549-2.958c0.291-0.948,0.696-1.844,1.248-2.604c0.542-0.765,1.228-1.371,1.935-1.774
			c1.431-0.822,2.812-0.832,3.675-0.725C196.479,177.458,196.936,177.669,196.936,177.669z"/>
	</g>
	<g>
		<path fill="#2A2C2D" d="M459.852,230.435c0,0,0.283,0.888,0.615,2.203c0.335,1.322,0.732,3.096,0.967,4.899
			c0.115,0.901,0.209,1.806,0.22,2.66c0.021,0.425,0.012,0.838-0.013,1.229c-0.005,0.39-0.055,0.758-0.105,1.096
			c-0.031,0.338-0.11,0.643-0.186,0.909c-0.067,0.268-0.126,0.499-0.222,0.676c-0.161,0.357-0.253,0.562-0.253,0.562
			s0.063-0.214,0.171-0.589c0.068-0.181,0.094-0.417,0.123-0.685c0.037-0.266,0.071-0.565,0.055-0.898
			c0.002-0.33,0.002-0.685-0.047-1.063c-0.028-0.376-0.076-0.771-0.153-1.178c-0.125-0.813-0.338-1.671-0.57-2.52
			c-0.468-1.698-1.091-3.352-1.591-4.572c-0.502-1.229-0.875-2.002-0.875-2.003L459.852,230.435z"/>
	</g>
	<path opacity="0.4" fill="#865244" d="M890.163,182.957"/>
	<polyline fill="none" stroke="#865244" stroke-miterlimit="10" points="890.094,178.457 890.094,178.457 890.094,178.457 	"/>
	<line fill="#865244" stroke="#865244" stroke-miterlimit="10" x1="890.094" y1="178.583" x2="890.094" y2="178.583"/>
	<path opacity="0.1" fill="#161616" stroke="#865244" stroke-miterlimit="10" d="M890.163,182.957
		c0,0-8.345-161.176,119.389-171.003c0,0,120.371-9.827,134.154,138.84l0,0c0,0,1.567,22.538-6.662,36.602c-8.23,14.064,0,0,0,0
		s-32.669-111.335-91.812-73.052c0,0-94.985-73.783-124.313,0C920.92,114.344,908.283,148.454,890.163,182.957"/>
	<g>
		<path fill="#2A2C2D" d="M869.013,177.669c0,0-0.503-0.045-1.338,0.071c-0.826,0.11-2.009,0.43-3.033,1.274
			c-0.51,0.422-0.955,0.979-1.325,1.63c-0.37,0.657-0.6,1.441-0.806,2.258c-0.194,0.827-0.264,1.721-0.321,2.633
			c-0.051,0.915-0.027,1.857,0.035,2.802c0.091,1.895,0.382,3.795,0.638,5.586c0.155,0.896,0.305,1.761,0.447,2.581
			c0.152,0.824,0.296,1.602,0.429,2.321c0.271,1.447,0.498,2.653,0.657,3.498c0.149,0.851,0.218,1.345,0.218,1.345
			s-0.229-0.44-0.598-1.225c-0.377-0.782-0.87-1.917-1.384-3.311c-0.522-1.391-1.044-3.049-1.496-4.861
			c-0.184-0.917-0.447-1.851-0.565-2.833c-0.16-0.973-0.265-1.978-0.342-2.987c-0.042-1.013-0.044-2.034,0.036-3.045
			c0.072-1.012,0.268-2.008,0.549-2.958c0.291-0.948,0.696-1.844,1.249-2.604c0.542-0.765,1.228-1.371,1.935-1.774
			c1.431-0.822,2.812-0.832,3.675-0.725C868.556,177.458,869.013,177.669,869.013,177.669z"/>
	</g>
	<g>
		<path fill="#2A2C2D" d="M1131.93,230.435c0,0,0.282,0.888,0.615,2.203c0.335,1.322,0.732,3.096,0.967,4.899
			c0.115,0.901,0.21,1.806,0.221,2.66c0.021,0.425,0.012,0.838-0.014,1.229c-0.004,0.39-0.055,0.758-0.104,1.096
			c-0.032,0.338-0.11,0.643-0.187,0.909c-0.066,0.268-0.126,0.499-0.222,0.676c-0.161,0.357-0.253,0.562-0.253,0.562
			s0.063-0.214,0.171-0.589c0.068-0.181,0.095-0.417,0.123-0.685c0.036-0.266,0.071-0.565,0.056-0.898
			c0.002-0.33,0.002-0.685-0.047-1.063c-0.029-0.376-0.076-0.771-0.153-1.178c-0.125-0.813-0.339-1.671-0.57-2.52
			c-0.469-1.698-1.091-3.352-1.591-4.572c-0.503-1.229-0.875-2.002-0.875-2.003L1131.93,230.435z"/>
	</g>
</g>
<g id="olhos">
	<g>
		<defs>
			<path id="SVGID_1_" d="M385.863,236.46c0,0,22.721-22.962,46.434,5C432.297,241.46,390.751,239.46,385.863,236.46z"/>
		</defs>
		<use xlink:href="#SVGID_1_"  overflow="visible" fill="#FFFFFF"/>
		<clipPath id="SVGID_2_">
			<use xlink:href="#SVGID_1_"  overflow="visible"/>
		</clipPath>
		<path clip-path="url(#SVGID_2_)" fill="#2C2D2D" d="M418.199,235.415c-0.34,4.405-5.571,7.577-11.687,7.085
			c-6.114-0.492-10.798-4.462-10.459-8.867c0.34-4.405,5.572-7.577,11.688-7.084C413.855,227.041,418.537,231.011,418.199,235.415z"
			/>
	</g>
	<g>
		<defs>
			<path id="SVGID_3_" d="M268.068,207.422c0,0,26.394-15.462,45.456,17.538C313.524,224.96,270.512,210.385,268.068,207.422z"/>
		</defs>
		<use xlink:href="#SVGID_3_"  overflow="visible" fill="#FFFFFF"/>
		<clipPath id="SVGID_4_">
			<use xlink:href="#SVGID_3_"  overflow="visible"/>
		</clipPath>
		<path clip-path="url(#SVGID_4_)" fill="#2C2D2D" d="M300.696,213.06c-1.124,4.267-6.835,6.402-12.758,4.77
			c-5.922-1.632-9.813-6.414-8.689-10.68c1.124-4.267,6.836-6.402,12.758-4.77C297.93,204.012,301.82,208.793,300.696,213.06z"/>
	</g>
	<ellipse opacity="0.8" fill="#FFFFFF" cx="291.362" cy="211.451" rx="1.955" ry="1.999"/>
	<ellipse opacity="0.8" fill="#FFFFFF" cx="405.659" cy="234.526" rx="1.955" ry="1.999"/>
	<g>
		<path fill="#161616" d="M268.068,207.422c0,0,0.704-0.499,2.052-1.182c1.344-0.685,3.336-1.556,5.858-2.24
			c1.26-0.332,2.645-0.66,4.14-0.833c1.489-0.202,3.083-0.32,4.732-0.254c1.65,0.028,3.356,0.232,5.061,0.577
			c1.696,0.383,3.404,0.875,5.036,1.563c0.83,0.311,1.597,0.76,2.394,1.132c0.767,0.431,1.525,0.872,2.26,1.332
			c1.456,0.948,2.785,2.021,4.01,3.116c0.589,0.573,1.197,1.105,1.736,1.682c0.525,0.587,1.038,1.161,1.538,1.721
			c0.932,1.17,1.832,2.262,2.521,3.366c0.358,0.541,0.702,1.059,1.029,1.552c0.292,0.513,0.569,1,0.83,1.458
			c0.53,0.908,0.958,1.716,1.267,2.405c0.632,1.364,0.994,2.144,0.994,2.144s-0.486-0.707-1.337-1.943
			c-0.401-0.63-0.946-1.357-1.565-2.189c-0.308-0.416-0.636-0.858-0.982-1.324c-0.366-0.449-0.751-0.921-1.153-1.414
			c-0.394-0.498-0.814-1.006-1.289-1.498c-0.466-0.498-0.917-1.039-1.42-1.556c-0.516-0.504-1.046-1.021-1.588-1.55
			c-0.566-0.498-1.145-1.007-1.733-1.524c-0.588-0.516-1.248-0.962-1.879-1.457c-0.644-0.478-1.343-0.891-2.012-1.359
			c-0.698-0.421-1.415-0.825-2.137-1.22c-0.751-0.337-1.473-0.748-2.25-1.029c-1.513-0.664-3.1-1.143-4.681-1.523
			c-1.591-0.328-3.173-0.631-4.731-0.707c-1.553-0.108-3.068-0.119-4.502-0.02c-1.436,0.083-2.79,0.267-4.037,0.469
			c-2.491,0.436-4.54,1.016-5.953,1.489C268.854,207.071,268.068,207.422,268.068,207.422z"/>
	</g>
	<g>
		<path fill="#161616" d="M385.863,236.46c0,0,0.526-0.657,1.593-1.675c1.069-1.011,2.677-2.397,4.835-3.753
			c1.072-0.688,2.28-1.37,3.617-1.977c1.325-0.634,2.79-1.169,4.34-1.615c1.556-0.42,3.202-0.758,4.902-0.897
			c1.699-0.108,3.443-0.132,5.165,0.101c1.728,0.191,3.409,0.644,5.035,1.143c0.798,0.292,1.589,0.591,2.351,0.924
			c0.743,0.374,1.491,0.714,2.195,1.102c0.689,0.415,1.38,0.8,2.028,1.22c0.626,0.45,1.238,0.889,1.834,1.317
			c1.139,0.918,2.225,1.776,3.107,2.693c0.452,0.445,0.885,0.871,1.296,1.276c0.382,0.433,0.744,0.844,1.084,1.23
			c0.687,0.764,1.255,1.452,1.684,2.052c0.87,1.183,1.367,1.858,1.367,1.858s-0.604-0.579-1.663-1.592
			c-0.507-0.524-1.173-1.108-1.931-1.779c-0.378-0.334-0.78-0.691-1.204-1.066c-0.441-0.354-0.904-0.725-1.388-1.113
			c-0.475-0.396-0.983-0.791-1.537-1.16c-0.549-0.375-1.085-0.803-1.679-1.181c-0.597-0.369-1.21-0.747-1.838-1.134
			c-0.646-0.347-1.307-0.701-1.979-1.061c-0.681-0.338-1.398-0.626-2.108-0.948c-0.731-0.264-1.472-0.531-2.219-0.8
			c-1.52-0.442-3.083-0.839-4.681-0.996c-1.587-0.24-3.201-0.237-4.779-0.161c-1.577,0.122-3.129,0.328-4.608,0.675
			c-1.469,0.375-2.894,0.764-4.199,1.284c-1.309,0.502-2.531,1.04-3.63,1.6c-2.205,1.111-3.952,2.237-5.149,3.065
			C386.508,235.921,385.863,236.46,385.863,236.46z"/>
	</g>
	<g>
		<defs>
			<path id="SVGID_5_" d="M1057.941,236.46c0,0,22.72-22.962,46.434,5C1104.375,241.46,1062.829,239.46,1057.941,236.46z"/>
		</defs>
		<use xlink:href="#SVGID_5_"  overflow="visible" fill="#FFFFFF"/>
		<clipPath id="SVGID_6_">
			<use xlink:href="#SVGID_5_"  overflow="visible"/>
		</clipPath>
		<path clip-path="url(#SVGID_6_)" fill="#2C2D2D" d="M1090.276,235.415c-0.34,4.405-5.571,7.577-11.687,7.085
			c-6.114-0.492-10.798-4.462-10.459-8.867c0.34-4.405,5.572-7.577,11.688-7.084
			C1085.934,227.041,1090.614,231.011,1090.276,235.415z"/>
	</g>
	<g>
		<defs>
			<path id="SVGID_7_" d="M940.146,207.422c0,0,26.395-15.462,45.456,17.538C985.602,224.96,942.59,210.385,940.146,207.422z"/>
		</defs>
		<use xlink:href="#SVGID_7_"  overflow="visible" fill="#FFFFFF"/>
		<clipPath id="SVGID_8_">
			<use xlink:href="#SVGID_7_"  overflow="visible"/>
		</clipPath>
		<path clip-path="url(#SVGID_8_)" fill="#2C2D2D" d="M972.774,213.06c-1.124,4.267-6.836,6.402-12.759,4.77
			c-5.922-1.632-9.813-6.414-8.689-10.68c1.124-4.267,6.837-6.402,12.759-4.77C970.008,204.012,973.897,208.793,972.774,213.06z"/>
	</g>
	<ellipse opacity="0.8" fill="#FFFFFF" cx="963.44" cy="211.451" rx="1.955" ry="1.999"/>
	<ellipse opacity="0.8" fill="#FFFFFF" cx="1077.736" cy="234.526" rx="1.955" ry="1.999"/>
	<g>
		<path fill="#161616" d="M940.146,207.422c0,0,0.704-0.499,2.052-1.182c1.344-0.685,3.337-1.556,5.857-2.24
			c1.261-0.332,2.646-0.66,4.141-0.833c1.489-0.202,3.082-0.32,4.731-0.254c1.65,0.028,3.356,0.232,5.062,0.577
			c1.696,0.383,3.404,0.875,5.036,1.563c0.83,0.311,1.597,0.759,2.394,1.132c0.767,0.431,1.524,0.872,2.261,1.331
			c1.455,0.948,2.785,2.021,4.01,3.116c0.588,0.573,1.197,1.105,1.735,1.682c0.524,0.587,1.038,1.161,1.538,1.72
			c0.932,1.17,1.831,2.262,2.521,3.367c0.358,0.541,0.702,1.059,1.028,1.552c0.293,0.513,0.57,1,0.831,1.458
			c0.529,0.908,0.957,1.716,1.267,2.405c0.632,1.364,0.993,2.144,0.993,2.144s-0.486-0.707-1.337-1.943
			c-0.4-0.63-0.946-1.357-1.565-2.189c-0.309-0.416-0.637-0.858-0.982-1.324c-0.366-0.449-0.751-0.921-1.153-1.414
			c-0.394-0.498-0.813-1.006-1.289-1.498c-0.466-0.498-0.917-1.039-1.421-1.556c-0.516-0.504-1.046-1.021-1.588-1.55
			c-0.566-0.498-1.145-1.007-1.732-1.524c-0.589-0.516-1.248-0.962-1.879-1.457c-0.645-0.478-1.344-0.891-2.013-1.359
			c-0.697-0.421-1.414-0.825-2.137-1.22c-0.751-0.337-1.473-0.748-2.25-1.029c-1.514-0.664-3.101-1.143-4.681-1.523
			c-1.592-0.329-3.174-0.631-4.731-0.707c-1.554-0.108-3.068-0.119-4.503-0.02c-1.436,0.083-2.789,0.267-4.037,0.469
			c-2.49,0.436-4.539,1.016-5.953,1.489C940.932,207.071,940.146,207.422,940.146,207.422z"/>
	</g>
	<g>
		<path fill="#161616" d="M1057.941,236.46c0,0,0.525-0.657,1.593-1.675c1.069-1.011,2.677-2.397,4.835-3.753
			c1.072-0.688,2.28-1.37,3.617-1.977c1.325-0.634,2.79-1.169,4.34-1.615c1.557-0.42,3.202-0.758,4.902-0.897
			c1.699-0.108,3.443-0.132,5.165,0.101c1.728,0.191,3.409,0.644,5.035,1.144c0.799,0.292,1.589,0.591,2.351,0.923
			c0.742,0.374,1.49,0.714,2.195,1.102c0.689,0.416,1.381,0.8,2.028,1.22c0.626,0.45,1.238,0.89,1.834,1.317
			c1.139,0.918,2.226,1.776,3.107,2.693c0.452,0.445,0.885,0.871,1.297,1.277c0.381,0.433,0.743,0.843,1.083,1.229
			c0.687,0.764,1.255,1.452,1.685,2.052c0.869,1.183,1.366,1.858,1.366,1.858s-0.604-0.579-1.662-1.592
			c-0.508-0.524-1.174-1.108-1.932-1.779c-0.378-0.334-0.78-0.691-1.204-1.066c-0.44-0.354-0.904-0.726-1.388-1.113
			c-0.475-0.396-0.982-0.791-1.537-1.159c-0.549-0.375-1.086-0.804-1.679-1.181c-0.598-0.369-1.211-0.748-1.838-1.135
			c-0.646-0.347-1.308-0.701-1.979-1.061c-0.682-0.338-1.398-0.625-2.108-0.948c-0.731-0.264-1.472-0.531-2.219-0.8
			c-1.52-0.442-3.082-0.839-4.681-0.996c-1.587-0.24-3.2-0.237-4.778-0.161c-1.577,0.122-3.129,0.328-4.608,0.675
			c-1.469,0.375-2.895,0.764-4.199,1.284c-1.309,0.502-2.53,1.04-3.63,1.6c-2.204,1.111-3.951,2.237-5.149,3.065
			C1058.586,235.921,1057.941,236.46,1057.941,236.46z"/>
	</g>
</g>
<g id="sombracelnha">
	<g>
		<path fill="#212323" d="M268.194,164.874c0,0,0.317-0.167,0.903-0.403c0.579-0.212,1.448-0.604,2.52-0.928
			c1.08-0.353,2.376-0.702,3.854-1.029c1.477-0.323,3.126-0.594,4.915-0.804c0.894-0.104,1.812-0.155,2.771-0.232
			c0.956-0.062,1.928-0.063,2.938-0.086c2.004,0.009,4.106,0.091,6.248,0.34c1.083,0.079,2.155,0.275,3.248,0.449
			c0.547,0.09,1.097,0.181,1.65,0.272c0.544,0.123,1.092,0.246,1.642,0.37c2.208,0.471,4.417,1.104,6.599,1.845
			c2.181,0.757,4.325,1.643,6.398,2.654c1.049,0.479,2.062,1.006,3.055,1.588c0.998,0.556,1.981,1.104,2.915,1.754
			c0.935,0.622,1.875,1.204,2.741,1.906c0.868,0.671,1.742,1.311,2.535,2.039c1.612,1.393,3.066,2.87,4.323,4.351
			c1.25,1.49,2.308,2.977,3.13,4.415c0.406,0.701,0.78,1.395,1.065,2.073c0.297,0.658,0.559,1.255,0.733,1.869
			c0.191,0.584,0.338,1.102,0.433,1.569c0.084,0.491,0.143,0.896,0.187,1.219c0.08,0.65,0.074,1,0.074,1l-0.966,0.713
			c0,0-0.177-0.197-0.508-0.567c-0.165-0.184-0.368-0.412-0.606-0.679c-0.267-0.245-0.574-0.525-0.918-0.84
			c-0.332-0.325-0.741-0.646-1.192-0.987c-0.446-0.347-0.922-0.727-1.478-1.082c-1.076-0.747-2.347-1.518-3.752-2.329
			c-1.41-0.804-2.975-1.62-4.667-2.416c-0.844-0.401-1.713-0.809-2.619-1.193c-0.899-0.396-1.815-0.808-2.762-1.197
			c-3.767-1.594-7.87-3.114-12.018-4.512c-4.133-1.444-8.312-2.771-12.252-3.945c-3.941-1.168-7.62-2.276-10.797-3.143
			c-3.175-0.876-5.821-1.607-7.674-2.119c-1.858-0.484-2.919-0.761-2.919-0.761L268.194,164.874z"/>
	</g>
	<g>
		<path fill="#212323" d="M379.509,211.951c0,0-0.017-0.303,0.075-0.876c0.038-0.296,0.112-0.646,0.215-1.053
			c0.098-0.411,0.21-0.905,0.42-1.398c0.195-0.505,0.414-1.088,0.711-1.681c0.303-0.586,0.674-1.201,1.071-1.881
			c0.879-1.244,1.946-2.702,3.375-3.974c1.367-1.406,3.101-2.52,4.971-3.742c1.928-0.977,4.02-2.138,6.283-2.769
			c1.125-0.345,2.288-0.778,3.463-1.014c1.177-0.22,2.375-0.435,3.588-0.626c0.608-0.092,1.218-0.184,1.83-0.276l1.821-0.085
			c1.218-0.053,2.444-0.076,3.668-0.099c1.235-0.051,2.425,0.087,3.62,0.204c1.194,0.112,2.381,0.255,3.555,0.398
			c0.585,0.08,1.168,0.159,1.748,0.238c0.565,0.129,1.127,0.258,1.686,0.387c1.115,0.266,2.213,0.536,3.286,0.824
			c1.073,0.287,2.125,0.57,3.143,0.888c0.995,0.381,1.968,0.738,2.902,1.13c1.872,0.768,3.615,1.546,5.2,2.304
			c1.582,0.769,2.947,1.679,4.169,2.437c1.213,0.783,2.251,1.497,3.091,2.117c0.845,0.604,1.478,1.151,1.919,1.492
			c0.437,0.354,0.661,0.564,0.661,0.564s-0.312,0.045-0.88,0.09c-0.563,0.031-1.404,0.125-2.436,0.15
			c-1.037,0.042-2.276,0.054-3.676,0.032c-0.703-0.003-1.435-0.047-2.212-0.07c-0.775-0.023-1.572-0.121-2.425-0.091
			c-1.689-0.02-3.493-0.083-5.373-0.205c-0.942-0.049-1.894-0.161-2.872-0.231c-0.981-0.003-1.971-0.048-2.975-0.094
			c-1.003-0.045-2.017-0.115-3.039-0.192c-0.51-0.043-1.023-0.087-1.538-0.131c-0.511-0.01-1.024-0.02-1.539-0.029
			c-1.027-0.026-2.061-0.055-3.094-0.115c-1.033-0.04-2.078-0.169-3.088-0.1c-1.018,0.009-2.036,0.018-3.052-0.004
			c-0.508-0.004-1.015-0.019-1.522-0.038c-0.493,0.033-0.984,0.066-1.473,0.099c-0.98,0.059-1.959,0.093-2.933,0.118
			c-0.498-0.017-0.949,0.078-1.416,0.128s-0.931,0.102-1.39,0.152c-1.897,0.094-3.576,0.515-5.306,0.751
			c-0.832,0.167-1.6,0.423-2.404,0.591c-0.391,0.101-0.814,0.152-1.169,0.292c-0.363,0.127-0.719,0.26-1.085,0.371
			c-1.491,0.418-2.742,1.023-3.96,1.523c-0.569,0.287-1.103,0.579-1.635,0.829c-0.513,0.267-0.936,0.567-1.376,0.809
			c-0.823,0.517-1.518,0.97-1.928,1.309C379.748,211.737,379.51,211.951,379.509,211.951z"/>
	</g>
	<g>
		<path fill="#212323" d="M939.294,186.874c0,0,0.317-0.167,0.903-0.403c0.578-0.212,1.448-0.604,2.521-0.928
			c1.079-0.353,2.376-0.702,3.853-1.029c1.477-0.323,3.127-0.594,4.915-0.804c0.894-0.104,1.812-0.155,2.771-0.232
			c0.955-0.062,1.928-0.063,2.938-0.086c2.004,0.009,4.106,0.091,6.248,0.34c1.082,0.079,2.154,0.275,3.248,0.449
			c0.546,0.09,1.097,0.181,1.649,0.272c0.545,0.123,1.092,0.246,1.642,0.37c2.208,0.471,4.418,1.104,6.599,1.845
			c2.182,0.757,4.325,1.643,6.398,2.654c1.049,0.479,2.062,1.006,3.055,1.588c0.998,0.556,1.981,1.104,2.915,1.754
			c0.935,0.622,1.875,1.204,2.741,1.907c0.867,0.671,1.741,1.311,2.535,2.038c1.612,1.393,3.065,2.87,4.322,4.351
			c1.25,1.49,2.309,2.977,3.13,4.415c0.406,0.701,0.78,1.395,1.065,2.073c0.298,0.658,0.56,1.255,0.733,1.869
			c0.191,0.584,0.339,1.102,0.433,1.569c0.085,0.491,0.144,0.896,0.187,1.219c0.08,0.65,0.075,1,0.074,1l-0.965,0.713
			c0,0-0.177-0.197-0.509-0.567c-0.164-0.184-0.367-0.412-0.606-0.679c-0.267-0.245-0.574-0.525-0.918-0.84
			c-0.331-0.325-0.74-0.646-1.191-0.987c-0.445-0.348-0.922-0.728-1.478-1.082c-1.076-0.747-2.347-1.518-3.752-2.328
			c-1.411-0.804-2.976-1.62-4.667-2.416c-0.845-0.402-1.714-0.809-2.619-1.194c-0.899-0.396-1.815-0.807-2.762-1.197
			c-3.767-1.594-7.87-3.114-12.018-4.512c-4.133-1.444-8.313-2.771-12.252-3.945c-3.942-1.168-7.62-2.276-10.798-3.143
			c-3.175-0.876-5.821-1.607-7.673-2.119c-1.858-0.484-2.92-0.761-2.92-0.761L939.294,186.874z"/>
	</g>
	<g>
		<path fill="#212323" d="M1051.587,228.951c0,0-0.017-0.303,0.075-0.876c0.038-0.296,0.112-0.646,0.215-1.053
			c0.098-0.411,0.21-0.905,0.42-1.398c0.195-0.506,0.414-1.089,0.712-1.681c0.304-0.586,0.674-1.201,1.071-1.881
			c0.879-1.244,1.945-2.702,3.375-3.974c1.367-1.407,3.101-2.52,4.971-3.742c1.928-0.977,4.02-2.138,6.283-2.769
			c1.125-0.345,2.287-0.778,3.463-1.014c1.177-0.22,2.375-0.435,3.589-0.626c0.607-0.092,1.218-0.184,1.83-0.276l1.821-0.085
			c1.219-0.053,2.443-0.076,3.669-0.099c1.235-0.051,2.425,0.087,3.62,0.204c1.193,0.112,2.38,0.255,3.555,0.398
			c0.585,0.08,1.168,0.159,1.748,0.238c0.564,0.129,1.127,0.258,1.686,0.387c1.115,0.266,2.214,0.536,3.286,0.824
			c1.073,0.287,2.125,0.57,3.143,0.888c0.995,0.381,1.968,0.738,2.902,1.131c1.872,0.768,3.615,1.546,5.2,2.304
			c1.581,0.769,2.947,1.679,4.169,2.437c1.213,0.783,2.252,1.497,3.091,2.117c0.845,0.604,1.479,1.151,1.919,1.492
			c0.438,0.354,0.661,0.564,0.661,0.564s-0.313,0.045-0.88,0.09c-0.564,0.031-1.405,0.125-2.437,0.15
			c-1.036,0.042-2.276,0.054-3.676,0.032c-0.702-0.002-1.436-0.047-2.212-0.07c-0.775-0.022-1.571-0.121-2.425-0.091
			c-1.689-0.02-3.493-0.083-5.373-0.205c-0.942-0.049-1.895-0.161-2.872-0.231c-0.981-0.003-1.971-0.048-2.975-0.094
			c-1.004-0.045-2.017-0.115-3.039-0.192c-0.51-0.043-1.022-0.087-1.538-0.131c-0.51-0.01-1.023-0.02-1.538-0.029
			c-1.028-0.026-2.061-0.055-3.095-0.115c-1.033-0.04-2.077-0.169-3.088-0.1c-1.019,0.009-2.036,0.018-3.053-0.004
			c-0.508-0.004-1.016-0.019-1.522-0.038c-0.493,0.033-0.983,0.066-1.474,0.099c-0.979,0.059-1.959,0.093-2.933,0.118
			c-0.497-0.017-0.948,0.078-1.415,0.128s-0.931,0.102-1.391,0.152c-1.896,0.094-3.575,0.515-5.305,0.751
			c-0.832,0.167-1.601,0.423-2.405,0.591c-0.39,0.101-0.813,0.152-1.169,0.292c-0.362,0.127-0.719,0.26-1.084,0.371
			c-1.491,0.418-2.743,1.023-3.961,1.523c-0.568,0.287-1.102,0.579-1.635,0.829c-0.514,0.267-0.936,0.567-1.376,0.809
			c-0.823,0.517-1.518,0.97-1.928,1.309C1051.825,228.737,1051.587,228.951,1051.587,228.951z"/>
	</g>
</g>
</svg>
