<?xml version="1.0" encoding="utf-8"?>
<!-- Generator: Adobe Illustrator 16.0.0, SVG Export Plug-In . SVG Version: 6.00 Build 0)  -->
<!DOCTYPE svg PUBLIC "-//W3C//DTD SVG 1.1//EN" "http://www.w3.org/Graphics/SVG/1.1/DTD/svg11.dtd">
<svg version="1.1" id="Camada_1" xmlns="http://www.w3.org/2000/svg" xmlns:xlink="http://www.w3.org/1999/xlink" x="0px" y="0px"
	 width="320px" height="1200px" viewBox="0 0 320 1200" enable-background="new 0 0 320 1200" xml:space="preserve">
<rect x="1" fill="#459993" width="320" height="143.333"/>
<rect x="1" y="143.333" fill="#418C85" width="320" height="143.333"/>
<path fill="#CCDBDA" d="M165.893,38.951v32.515l3.137-1.437v2.864l-3.137,1.343v5.96l3.137,1.345v2.864l-3.137-1.438v31.026
	l31.398-0.63V38.951H165.893z M174.456,85.565h-2.73l5.784-19.594h2.729L174.456,85.565z M194.777,78.539l-12.971,5.944v-2.865
	l10.027-4.295v-0.055l-10.027-4.297v-2.864l12.971,5.945V78.539z"/>
<path fill="#D3EBEB" d="M166.036,114.647c0.121,0.008,0.243,0.018,0.366,0.018h27.941c3.268,0,5.926-2.66,5.926-5.927v-64.77
	c0-3.267-2.658-5.927-5.926-5.927h-27.941c-0.121,0-0.245,0.012-0.366,0.018v-7.731l-54.533,7.278v77.542l54.533,7.466V114.647
	L166.036,114.647z M166.036,82.503V74.45 M166.036,74.45V41.466c0.121-0.018,0.241-0.036,0.366-0.036h27.941
	c1.4,0,2.539,1.139,2.539,2.54v64.77c0,1.401-1.139,2.541-2.539,2.541h-27.941c-0.123,0-0.245-0.02-0.366-0.039V82.503
	 M124.39,84.392l-2.512-0.063V79.29l-4.032-0.015v4.952l-2.39-0.059V72.455l2.39-0.063v4.547l4.032-0.026v-4.628l2.512-0.066V84.392
	z M134.852,74.358l-3.304,0.054V84.57l-2.682-0.068V74.458l-3.097,0.052v-2.325l9.083-0.24L134.852,74.358L134.852,74.358
	L134.852,74.358z M147.424,84.971l-0.201-5.115c-0.058-1.604-0.119-3.544-0.119-5.483l-0.061,0.001
	c-0.42,1.705-0.977,3.604-1.496,5.158l-1.613,5.134l-2.309-0.054l-1.378-5.063c-0.415-1.522-0.85-3.364-1.152-5.05l-0.039,0.001
	c-0.074,1.746-0.131,3.74-0.227,5.35l-0.223,4.899l-2.62-0.065l0.794-12.791l3.81-0.1l1.265,4.329
	c0.404,1.512,0.81,3.144,1.102,4.684l0.057,0.001c0.371-1.519,0.82-3.257,1.251-4.725l1.419-4.424l4.011-0.106l0.757,13.494
	L147.424,84.971z M162.017,85.335l-9.128-0.229V71.469l3.246-0.085v11.181l5.882,0.091V85.335L162.017,85.335z"/>
<path fill="#D3EBEB" d="M163.481,258.738c0.118,0.006,0.233,0.018,0.351,0.018h26.763c3.131,0,5.676-2.548,5.676-5.677v-62.036
	c0-3.129-2.545-5.676-5.676-5.676h-26.763c-0.115,0-0.232,0.012-0.351,0.017v-7.405l-52.229,6.97v74.27l52.229,7.151V258.738z
	 M163.481,188.645c0.116-0.016,0.231-0.035,0.351-0.035l26.763,0c1.34,0,2.432,1.091,2.432,2.432v62.036
	c0,1.341-1.092,2.434-2.432,2.434h-26.763c-0.117,0-0.234-0.02-0.351-0.037V188.645L163.481,188.645z M124.368,226.538
	c1.099,0.019,2.323-0.213,3.049-0.507l0.56,3.039c-0.68,0.338-2.2,0.679-4.156,0.627c-5.435-0.147-8.164-3.773-8.164-8.48
	c0-5.638,3.74-8.874,8.519-9.001c1.89-0.049,3.339,0.32,3.997,0.66l-0.756,3.093c-0.749-0.318-1.782-0.605-3.073-0.584
	c-2.854,0.049-5.039,1.896-5.039,5.614C119.305,224.345,121.163,226.485,124.368,226.538z M134.549,229.982
	c-1.935-0.052-3.824-0.615-4.759-1.175l0.763-3.216c1.015,0.556,2.586,1.122,4.226,1.15c1.781,0.03,2.729-0.712,2.729-1.865
	c0-1.1-0.82-1.732-2.882-2.5c-2.81-1.015-4.617-2.606-4.617-5.116c0-2.945,2.379-5.261,6.397-5.367
	c1.953-0.051,3.409,0.333,4.454,0.782l-0.89,3.264c-0.701-0.333-1.944-0.811-3.642-0.783c-1.677,0.027-2.485,0.819-2.485,1.725
	c0,1.114,0.958,1.601,3.178,2.446c3.081,1.146,4.55,2.788,4.55,5.306C141.572,227.626,139.293,230.11,134.549,229.982z
	 M148.779,230.362c-2.103-0.056-4.151-0.645-5.166-1.229l0.828-3.347c1.1,0.578,2.808,1.17,4.584,1.201
	c1.935,0.033,2.965-0.741,2.965-1.941c0-1.147-0.892-1.808-3.131-2.608c-3.046-1.06-5.008-2.714-5.008-5.328
	c0-3.066,2.583-5.48,6.942-5.595c2.123-0.056,3.7,0.34,4.84,0.809l-0.967,3.404c-0.764-0.345-2.115-0.842-3.956-0.812
	c-1.82,0.029-2.698,0.855-2.698,1.798c0,1.16,1.041,1.667,3.448,2.548c3.349,1.195,4.945,2.906,4.945,5.531
	C156.406,227.914,153.93,230.5,148.779,230.362z"/>
<path fill="#CCDBDA" d="M162.889,187.854v68.338h30.172v-68.338H162.889z M171.845,209.039h-0.636c-2.09,0-2.798,1.131-2.798,3.042
	c0,0.813,0.106,1.663,0.248,2.514c0.143,0.885,0.247,1.735,0.247,2.689c0.037,2.265-0.956,3.399-2.548,3.825v0.068
	c1.592,0.39,2.584,1.594,2.548,3.858c0,0.96-0.105,1.843-0.247,2.69c-0.142,0.886-0.248,1.702-0.248,2.552
	c0,1.98,0.814,3.077,2.798,3.077h0.636v1.95h-0.743c-2.94,0-5.135-1.278-5.135-4.853c0-0.957,0.143-1.943,0.285-2.902
	c0.141-0.957,0.284-1.911,0.284-2.867c0-1.099-0.355-2.622-2.867-2.622v-1.803c2.512,0,2.867-1.381,2.867-2.62
	c0-0.993-0.144-1.983-0.284-2.972c-0.143-0.991-0.285-1.948-0.285-2.938c0-3.259,2.126-4.64,5.135-4.64h0.743V209.039z
	 M189.305,222.063c-2.513,0-2.87,1.522-2.87,2.622c0,0.956,0.144,1.91,0.285,2.867c0.144,0.958,0.285,1.945,0.285,2.902
	c0,3.574-2.231,4.853-5.134,4.853h-0.743v-1.95h0.604c1.979-0.033,2.832-1.097,2.832-3.077c0-0.85-0.145-1.666-0.251-2.552
	c-0.143-0.847-0.283-1.729-0.283-2.69c0-2.264,0.99-3.469,2.549-3.858v-0.068c-1.559-0.426-2.549-1.561-2.549-3.826
	c0-0.952,0.141-1.803,0.283-2.688c0.106-0.851,0.251-1.7,0.251-2.514c0-1.912-0.745-3.009-2.798-3.043h-0.638v-1.949h0.708
	c3.008,0,5.169,1.38,5.169,4.64c0,0.991-0.143,1.947-0.285,2.939c-0.142,0.989-0.285,1.978-0.285,2.972
	c0,1.238,0.356,2.62,2.87,2.62V222.063z"/>
</svg>
